<?xml version="1.0" encoding="utf-8"?>
<!-- Generator: Adobe Illustrator 15.1.0, SVG Export Plug-In . SVG Version: 6.00 Build 0)  -->
<!DOCTYPE svg PUBLIC "-//W3C//DTD SVG 1.1//EN" "http://www.w3.org/Graphics/SVG/1.1/DTD/svg11.dtd">
<svg version="1.1" id="about" xmlns="http://www.w3.org/2000/svg" xmlns:xlink="http://www.w3.org/1999/xlink" x="0px" y="0px" width="790px"
	 height="640px" viewBox="0 0 790 640" enable-background="new 0 0 790 640" xml:space="preserve">
    <style>
        svg {
            width: 100%;
            height: 100%;
            position: absolute;
            top: 0;
            left: 0;
        }

        @-moz-document url-prefix() {
           svg {
               position: static;
               width: auto;
               height: auto;
           }
        }
    </style>
<g id="about">
	<g id="machine">
		<g id="tlacidla_1_">
			<polygon fill="#3A4849" points="113.895,399.172 113.895,142.908 118.903,146.457 118.903,402.824 			"/>
			<polygon fill="#999999" points="203.941,142.7 113.895,142.908 118.903,146.457 208.845,146.248 			"/>
			<polygon fill="#5C6F70" points="208.845,146.248 118.903,146.457 118.903,402.824 208.845,402.615 			"/>
			<polygon fill="#3D3839" points="171.386,316.846 164.917,316.846 164.917,319.663 171.386,319.663 			"/>
			<polygon fill="#B8BABC" points="182.134,269.266 150.518,269.266 153.023,271.145 184.638,271.04 			"/>
			<polygon fill="#231F20" points="150.518,321.541 150.518,269.266 153.023,271.145 153.023,323.419 			"/>
			<polygon fill="#4D4D4D" points="184.638,323.315 153.023,323.419 153.023,271.145 184.638,271.04 			"/>
			<polygon fill="#FABFC0" points="160.743,280.222 162.517,281.474 178.69,281.474 176.916,280.117 			"/>
			<polygon fill="#AA314E" points="160.743,280.222 160.743,292.43 162.517,293.786 162.517,281.474 			"/>
			<polygon fill="#E56578" points="162.517,281.474 162.517,293.786 178.69,293.786 178.69,281.474 			"/>
			<polygon fill="#FABFC0" points="160.743,301.821 162.517,303.073 178.69,303.073 176.916,301.716 			"/>
			<polygon fill="#AA314E" points="160.743,301.821 160.743,314.133 162.517,315.385 162.517,303.073 			"/>
			<polygon fill="#E56578" points="162.517,303.073 162.517,315.385 178.69,315.385 178.69,303.073 			"/>
		</g>
		<polygon fill="#3A4849" points="50.455,410.022 50.455,404.701 149.892,477.01 149.892,482.331 		"/>
		<polygon fill="#798A8C" points="359.514,481.914 359.514,476.593 149.892,477.01 149.892,482.331 		"/>
		<polygon fill="#B9C7C9" points="359.514,476.593 260.076,404.284 50.455,404.701 149.892,477.01 		"/>
		<polygon fill="#3A4849" points="81.027,411.692 81.027,397.606 160.743,455.62 160.743,469.706 		"/>
		<polygon fill="#E1E54E" points="334.994,464.177 334.994,450.612 314.334,445.812 321.012,457.707 329.046,457.707 
			329.046,464.177 		"/>
		<polygon fill="#F2F291" points="334.994,450.612 328.317,445.812 314.334,445.812 321.012,450.612 		"/>
		<polygon fill="#E1E54E" points="278.233,423.065 278.233,409.501 257.677,404.701 264.25,416.701 272.285,416.596 
			272.285,423.065 		"/>
		<polygon fill="#F2F291" points="278.233,409.501 271.659,404.701 257.677,404.701 264.25,409.501 		"/>
		<polygon fill="#5C6F70" points="328.942,469.394 328.942,455.308 160.743,455.62 160.743,469.706 		"/>
		<polygon fill="#798A8C" points="328.942,455.308 249.121,397.293 81.027,397.606 160.743,455.62 		"/>
		<polygon fill="#E1E54E" points="146.866,460.106 152.918,460.106 152.918,452.49 132.258,447.69 138.832,466.055 146.866,466.055 
					"/>
		<polygon fill="#F2F291" points="152.918,452.49 146.24,447.69 132.258,447.69 138.832,452.49 		"/>
		<polygon fill="#756E17" points="132.258,461.255 132.258,447.69 138.832,452.49 138.832,466.055 		"/>
		<polygon fill="#E1E54E" points="88.018,417.432 93.965,417.432 93.965,409.813 73.41,405.015 79.984,423.483 88.018,423.378 		"/>
		<polygon fill="#F2F291" points="93.965,409.813 87.391,405.015 73.41,405.015 79.984,409.813 		"/>
		<polygon fill="#756E17" points="73.41,418.579 73.41,405.015 79.984,409.813 79.984,423.483 		"/>
		<path fill="#C1EF7F" d="M203.941,403.658c36.416,3.234,65.839,14.295,65.839,24.729c0,10.434-29.528,16.381-65.839,13.146
			c-36.416-3.13-65.839-14.295-65.839-24.729C138.102,406.371,167.526,400.528,203.941,403.658z"/>
	</g>
	<g id="light" display="none">
		<path opacity="0.4" fill="#C1EF7F" enable-background="new    " d="M269.78,178.176c0-10.434-29.215-18.886-65.213-18.886
			c-35.998,0-65.213-1.356-65.213,8.974c0,1.356,0.522,2.713,1.565,4.069h-2.712v244.368l57.424,20.556l74.256-8.869V182.141h-1.566
			C269.259,180.889,269.78,179.532,269.78,178.176z"/>
	</g>
	<g id="machine_top">
		<polygon fill="#3A4849" points="91.356,140.091 91.356,130.596 164.5,183.811 164.5,193.201 		"/>
		<polygon fill="#798A8C" points="318.612,192.992 318.612,183.498 164.5,183.811 164.5,193.201 		"/>
		<polygon fill="#B9C7C9" points="318.612,183.498 245.469,130.283 91.356,130.596 164.5,183.811 		"/>
		<polygon fill="#5E6F72" points="123.494,137.274 123.494,130.492 175.978,168.577 175.978,175.358 		"/>
		<polygon fill="#798A8C" points="286.475,175.15 286.475,168.368 175.978,168.577 175.978,175.358 		"/>
		<polygon fill="#B9C7C9" points="286.475,168.368 233.991,130.283 123.494,130.492 175.978,168.577 		"/>
		<polygon fill="#5C6F70" points="229.087,152.821 229.087,128.405 208.91,125.51 196.324,128.405 191.824,137.835 196.324,152.821 
					"/>
		<polygon fill="#798A8C" points="229.087,128.405 213.541,117.032 180.882,117.136 188.108,127.075 196.324,128.405 		"/>
		<polygon fill="#3A4849" points="180.882,141.552 180.882,117.136 196.324,128.405 196.324,152.821 		"/>
	</g>

	<g id="jakuzzi">
		<g id="jakuzi_back">
			<polygon fill="#FFFFFF" points="618.907,281.892 339.376,282.309 440.901,354.722 720.432,354.305 			"/>
			<polygon fill="#707272" points="610.108,288.674 586.396,310.794 610.108,347.73 692.154,347.627 			"/>
			<polygon fill="#B3B3B3" points="610.108,288.674 364.852,288.986 448.237,347.939 610.108,347.73 			"/>
			<polygon opacity="0.8" fill="#88E3FF" enable-background="new    " points="609.933,303.281 385.362,303.49 448.237,347.939 
				670.171,347.627 			"/>
		</g>
		<g id="bubbles">
			<svg id="stredna_velka" y="0">
				<path opacity="0.5" fill="#54C1ED" enable-background="new    " d="M547.764,363.8c0-5.231,1.368-10.071,3.685-14.025
					c-7.216,0.61-12.884,6.651-12.884,14.025s5.668,13.414,12.884,14.024C549.132,373.871,547.764,369.031,547.764,363.8z"/>
				<path opacity="0.5" fill="#85DEFF" enable-background="new    " d="M552.651,349.714c-0.405,0-0.805,0.026-1.202,0.061
					c-2.316,3.954-3.685,8.794-3.685,14.025s1.368,10.071,3.685,14.024c0.397,0.035,0.797,0.062,1.202,0.062
					c7.78,0,14.086-6.307,14.086-14.086S560.431,349.714,552.651,349.714z"/>
			</svg>
			<svg id="lava_stredna" y="0">
				<path opacity="0.5" fill="#54C1ED" enable-background="new    " d="M491.132,362.495c0-3.585,0.938-6.9,2.524-9.609
					c-4.943,0.419-8.828,4.557-8.828,9.609c0,5.054,3.885,9.192,8.828,9.61C492.07,369.396,491.132,366.08,491.132,362.495z"/>
				<path opacity="0.5" fill="#85DEFF" enable-background="new    " d="M494.481,352.844c-0.278,0-0.552,0.019-0.824,0.042
					c-1.587,2.709-2.524,6.024-2.524,9.609s0.938,6.9,2.524,9.61c0.272,0.023,0.546,0.041,0.824,0.041
					c5.33,0,9.651-4.321,9.651-9.651S499.811,352.844,494.481,352.844z"/>
			</svg>
			<svg id="lava_velka" y="0">
				<path opacity="0.5" fill="#54C1ED" enable-background="new    " d="M446.035,371.625c0-7.461,1.952-14.36,5.255-19.999
					c-10.289,0.871-18.371,9.484-18.371,19.999s8.082,19.128,18.371,19.999C447.988,385.985,446.035,379.086,446.035,371.625z"/>
				<path opacity="0.5" fill="#85DEFF" enable-background="new    " d="M453.004,351.539c-0.578,0-1.146,0.039-1.714,0.087
					c-3.303,5.639-5.255,12.538-5.255,19.999s1.952,14.36,5.255,19.999c0.567,0.048,1.136,0.087,1.714,0.087
					c11.094,0,20.086-8.993,20.086-20.086C473.09,360.533,464.098,351.539,453.004,351.539z"/>
			</svg>
			<svg id="lava_mala" y="0">
				<path opacity="0.5" fill="#54C1ED" enable-background="new    " d="M408.702,337.453c0-3.584,0.938-6.9,2.524-9.609
					c-4.943,0.419-8.828,4.558-8.828,9.609c0,5.053,3.885,9.191,8.828,9.61C409.64,344.354,408.702,341.038,408.702,337.453z"/>
				<path opacity="0.5" fill="#85DEFF" enable-background="new    " d="M412.051,327.802c-0.278,0-0.552,0.019-0.824,0.042
					c-1.587,2.709-2.524,6.025-2.524,9.609c0,3.585,0.938,6.9,2.524,9.61c0.272,0.023,0.546,0.041,0.824,0.041
					c5.33,0,9.651-4.321,9.651-9.651S417.381,327.802,412.051,327.802z"/>
			</svg>
			<svg id="prava_horna" y="0">
				<path opacity="0.5" fill="#54C1ED" enable-background="new    " d="M608.314,364.843c0-4.36,1.14-8.392,3.071-11.688
					c-6.014,0.509-10.737,5.542-10.737,11.688s4.724,11.18,10.737,11.688C609.453,373.235,608.314,369.203,608.314,364.843z"/>
				<path opacity="0.5" fill="#85DEFF" enable-background="new    " d="M612.386,353.104c-0.338,0-0.67,0.022-1.001,0.051
					c-1.932,3.296-3.071,7.327-3.071,11.688s1.14,8.393,3.071,11.688c0.331,0.028,0.663,0.051,1.001,0.051
					c6.483,0,11.738-5.256,11.738-11.738S618.869,353.104,612.386,353.104z"/>
			</svg>
			<svg id="prava_horna_1_" y="0">
				<path opacity="0.5" fill="#54C1ED" enable-background="new    " d="M633.036,362.495c0-3.585,0.938-6.9,2.525-9.609
					c-4.944,0.419-8.828,4.557-8.828,9.609c0,5.054,3.884,9.192,8.828,9.61C633.974,369.396,633.036,366.08,633.036,362.495z"/>
				<path opacity="0.5" fill="#85DEFF" enable-background="new    " d="M636.385,352.844c-0.278,0-0.552,0.019-0.823,0.042
					c-1.588,2.709-2.525,6.024-2.525,9.609s0.938,6.9,2.525,9.61c0.271,0.023,0.545,0.041,0.823,0.041
					c5.33,0,9.651-4.321,9.651-9.651S641.715,352.844,636.385,352.844z"/>
			</svg>
		</g>
		<g id="jakuzi_front">
			<polygon fill="#707272" points="339.376,400.006 339.376,282.309 440.901,354.722 440.901,472.419 			"/>
			<polygon fill="#4F2F18" points="339.376,408.458 339.376,290.761 440.901,362.998 440.901,480.871 			"/>
			<polygon fill="#603D20" points="417.007,463.863 440.901,480.871 440.901,362.998 417.007,346.062 			"/>
			<polygon fill="#603D20" points="387.686,442.891 411.58,460.003 411.58,342.201 387.686,325.193 			"/>
			<polygon fill="#603D20" points="358.366,422.021 382.26,439.029 382.26,321.332 358.366,304.221 			"/>
			<polygon fill="#603D20" points="339.376,408.458 352.941,418.161 352.941,300.36 339.376,290.761 			"/>
			<polygon fill="#FFFFFF" points="448.232,347.956 356.499,282.283 339.376,282.309 440.901,354.722 720.432,354.305 
				710.981,347.564 			"/>
			<polygon fill="#B3B3B3" points="440.901,354.722 440.901,472.419 720.432,472.105 720.432,354.305 			"/>
			<polygon fill="#8E6642" points="440.901,363.174 440.901,480.871 720.432,480.559 720.432,363.022 			"/>
			<polygon fill="#A07850" points="488.063,362.998 440.901,362.998 440.901,480.871 488.063,480.871 			"/>
			<polygon fill="#A07850" points="546.182,362.998 498.914,362.998 498.914,480.871 546.182,480.766 			"/>
			<polygon fill="#A07850" points="604.195,362.965 557.031,362.965 557.031,480.766 604.195,480.662 			"/>
			<polygon fill="#A07850" points="662.313,362.998 615.151,362.998 615.151,480.662 662.313,480.662 			"/>
			<polygon fill="#A07850" points="720.432,362.998 673.269,362.998 673.269,480.662 720.432,480.559 			"/>
			<polygon fill="#4F2F18" points="360.035,440.804 364.94,444.246 364.94,317.785 360.035,314.341 			"/>
			<polygon fill="#8E6642" points="375.896,316.324 364.94,317.785 364.94,444.246 374.435,444.246 374.435,326.236 
				389.042,326.236 389.042,317.785 			"/>
			<polygon fill="#BA9A83" points="389.042,317.785 364.94,317.785 360.035,314.341 384.243,314.341 			"/>
			<polygon fill="#FFFFFF" points="385.39,401.988 347.411,401.988 396.868,437.257 434.744,437.257 			"/>
			<rect x="396.868" y="437.257" fill="#B3B3B3" width="37.979" height="8.451"/>
			<polygon fill="#707272" points="347.411,401.988 347.411,410.44 396.868,445.708 396.868,437.257 			"/>
			<polygon fill="#FFFFFF" points="385.39,350.548 347.411,350.548 396.868,385.815 434.744,385.815 			"/>
			<rect x="396.868" y="385.815" fill="#B3B3B3" width="37.979" height="8.453"/>
			<polygon fill="#707272" points="347.411,350.548 347.411,359 396.868,394.268 396.868,385.815 			"/>
			<polygon fill="#4F2F18" points="411.894,477.74 416.692,481.184 416.692,354.722 411.894,351.278 			"/>
			<polygon fill="#8E6642" points="426.189,354.722 416.692,354.722 416.692,481.184 426.189,481.184 426.189,363.174 
				440.901,362.998 440.901,354.722 			"/>
			<polygon fill="#BA9A83" points="440.901,354.722 416.692,354.722 411.894,351.278 435.995,351.278 			"/>
		</g>
		<g id="duck">
			<g id="repro_5_" opacity="0.5">
				<polygon fill="#EAD88C" points="458.441,325.955 462.894,333.299 467.289,332.366 495.812,334.635 504.141,332.366 
					495.292,325.955 				"/>
				<polygon fill="#E2C447" points="504.141,332.366 467.289,332.366 467.289,338.691 504.141,338.691 				"/>
				<polygon fill="#AF891E" points="458.441,325.955 458.441,332.287 467.289,338.691 467.289,332.366 				"/>
			</g>
			<g id="repro_2_">
				<polygon fill="#EAD88C" points="458.441,308.217 462.894,315.561 467.289,314.628 495.812,316.897 504.141,314.628 
					495.292,308.217 				"/>
				<polygon fill="#E2C447" points="504.141,314.628 467.289,314.628 467.289,332.431 504.141,332.431 				"/>
				<polygon fill="#AF891E" points="458.441,308.217 458.441,326.027 467.289,332.431 467.289,314.628 				"/>
			</g>
			<g id="repro_3_">
				<polygon fill="#EAD88C" points="445.572,286.392 450.025,293.736 454.42,292.803 469.378,295.072 477.707,292.803 
					468.859,286.392 				"/>
				<polygon fill="#E2C447" points="477.707,292.803 454.42,292.803 454.42,314.78 477.707,314.78 				"/>
				<polygon fill="#70553A" points="469.048,297.469 460.992,297.469 460.992,305.07 469.048,305.07 				"/>
				<polygon fill="#AF891E" points="445.572,286.392 445.572,308.375 454.42,314.78 454.42,292.803 				"/>
			</g>
			<g id="repro_4_">
				<polygon fill="#D87760" points="436.875,300.359 439.832,305.234 442.748,304.614 447.136,306.121 452.665,304.614 
					446.792,300.359 				"/>
				<polygon fill="#BC4428" points="452.665,304.614 442.748,304.614 442.748,309.505 452.665,309.505 				"/>
				<polygon fill="#771C0E" points="436.875,300.359 436.875,305.255 442.748,309.505 442.748,304.614 				"/>
			</g>
		</g>
	</g>
    <g id="panaci">
		<svg id="developer" opacity="1">
		<g id="mate" display="inline">
			<path fill="#543C36" d="M248.6,411.3c-2.4-0.3-3.1-1.4-3.1-4.3c0-0.1-0.3-14.5-4.8-24.7c-3.5-7.9-4.5-9.5-5.2-10.6
				c0,0-1.2-0.8-1.4-2.7c-0.3-2.5,1.4-3.1,1.4-3.1c1.3,0,4.7,4.1,10.7,15c6.8,12.3,7.2,25.9,7.3,26.6c0.2,2.4-1.7,4-4.1,4
				C248.9,411.3,248.8,411.3,248.6,411.3z"/>
		
		</g>
		<polygon id="teleport_light_2_" display="inline" opacity="0.4" fill="#C1EF7F" enable-background="new    " points="164.5,193.2
			138.2,174.1 138.2,416.7 195.6,437.3 269.9,428.4 269.9,193.1 		"/>
		<g id="cvitkovic" display="inline">
			<g>
				
			</g>
		</g>
	</svg>
	<svg id="designer" opacity="0" style="display: block!important">
		<path display="inline" fill="transparent" d="M250,409.7c-2.4-0.3-3.1-1.4-3.1-4.3c0-0.1-0.3-14.5-4.8-24.7c-3.5-7.9-4.5-9.5-5.2-10.6
			c0,0-1.2-0.8-1.4-2.7c-0.3-2.5,1.4-3.1,1.4-3.1c1.3,0,4.7,4.1,10.7,15c6.8,12.3,7.2,25.9,7.3,26.6c0.2,2.4-1.7,4-4.1,4
			C250.4,409.8,250.2,409.8,250,409.7z"/>
	</svg>
	<svg id="businessman" opacity="0">
		<g id="postava_biznis">
			<path fill="#543C36" d="M242.8,376.3c4.4,7,11.1,19.5,13.2,27.5c0.9,3.7-1.1,6-2.8,6.8c-5.4,2.5-3.6-7.6-7.4-18.3
				c-2.2-6.1-3.4-9.1-6.9-13.8c-2.5-3.2-3.4-5.2-2.1-6.1C238.2,371.5,240.9,373.4,242.8,376.3z"/>
		</g>
		<polygon id="teleport_light" opacity="0.4" fill="#C1EF7F" enable-background="new    " points="164.5,193.2 138.2,174.1
			138.2,416.7 195.6,437.3 269.9,428.4 269.9,193.1 		"/>
		<g id="medved">
		</g>
	</svg>
	</g>

</g>
<g id="kaktus">
	<polygon fill="#C1932B" points="618.907,483.167 560.477,483.271 560.477,529.39 618.907,529.285 	"/>
	<polygon fill="#7A5B1E" points="529.381,460.628 529.381,506.852 560.477,529.39 560.477,483.271 	"/>
	<polygon fill="#F2CA72" points="529.381,460.628 560.477,483.271 618.907,483.167 587.812,460.524 	"/>
	<polygon fill="#736357" points="538.877,463.759 587.083,463.654 609.517,480.036 561.205,480.141 	"/>
	<polygon fill="#3C6829" points="598.665,409.397 598.665,449.881 606.908,455.933 606.908,415.345 	"/>
	<polygon fill="#A3D67B" points="598.665,409.397 606.908,415.345 622.56,415.345 614.212,409.292 	"/>
	<polygon fill="#6A9B4B" points="606.908,415.345 606.908,441.221 591.362,441.221 591.362,455.933 606.908,455.933 622.56,455.829 
		622.56,415.345 	"/>
	<polygon fill="#A3D67B" points="583.116,435.17 591.362,441.221 606.908,441.221 598.665,435.17 	"/>
	<polygon fill="#558436" points="595.222,318.307 567.675,318.411 567.675,477.428 595.222,477.323 	"/>
	<polygon fill="#315427" points="553.068,307.768 553.068,466.785 567.675,477.428 567.675,318.411 	"/>
	<polygon fill="#A3D67B" points="539.503,388.32 547.746,394.371 563.398,394.371 555.05,388.32 	"/>
	<polygon fill="#8DC667" points="553.068,307.768 567.675,318.411 595.222,318.307 580.614,307.664 	"/>
	<polygon fill="#3C6829" points="523.957,340.531 523.957,403.137 532.199,409.084 532.199,346.479 	"/>
	<polygon fill="#A3D67B" points="523.957,340.531 532.199,346.479 547.746,346.479 539.503,340.427 	"/>
	<polygon fill="#6A9B4B" points="547.746,394.371 547.746,346.479 532.199,346.479 532.199,409.084 547.746,409.084 
		563.398,409.084 563.398,394.371 	"/>
	<polygon fill="#8DC667" points="573.519,347.418 581.761,353.47 597.412,353.47 589.066,347.418 	"/>
	<polygon fill="#6A9B4B" points="605.656,340.636 590.109,340.636 590.109,373.816 605.656,373.816 	"/>
	<polygon fill="#A3D67B" points="581.761,334.688 590.109,340.636 605.656,340.636 597.412,334.584 	"/>
	<g>
		<polygon fill="#3C6829" points="581.761,334.688 581.761,367.869 590.109,373.816 590.109,340.636 		"/>
		<polygon fill="#F0FCE6" points="573.623,442.891 585.101,450.925 578.528,442.891 		"/>
		<polygon fill="#E1E8C5" points="573.623,442.891 573.623,447.69 585.101,450.925 		"/>
		<polygon fill="#F0FCE6" points="526.043,383.416 516.235,387.902 528.337,385.086 		"/>
		<polygon fill="#E1E8C5" points="528.337,385.086 528.337,389.989 516.235,387.902 		"/>
		<polygon fill="#F0FCE6" points="556.615,419.831 546.807,424.317 558.911,421.605 		"/>
		<polygon fill="#E1E8C5" points="558.911,421.605 558.911,426.404 546.807,424.317 		"/>
		<polygon fill="#F0FCE6" points="556.615,332.079 546.807,336.462 558.911,333.749 		"/>
		<polygon fill="#E1E8C5" points="558.911,333.749 558.911,338.549 546.807,336.462 		"/>
		<polygon fill="#F0FCE6" points="597.202,360.878 606.072,367.139 601.065,360.878 		"/>
		<polygon fill="#E1E8C5" points="597.202,360.878 597.202,364.634 606.072,367.139 		"/>
		<polygon fill="#F0FCE6" points="582.283,392.39 591.153,398.65 586.144,392.39 		"/>
		<polygon fill="#E1E8C5" points="582.283,392.39 582.283,396.249 591.153,398.65 		"/>
		<polygon fill="#3C6829" points="573.519,347.418 573.519,361.816 581.761,367.869 581.761,353.47 		"/>
	</g>
</g>
<g id="reproductors">
	<g id="repro_right">
		<polygon fill="#6B5E5A" points="651.776,471.759 669.34,494.227 682.868,494.289 709.859,502.747 741.3,494.289 710.206,471.759 
					"/>
		<polygon fill="#443935" points="741.3,494.289 682.868,494.289 682.868,620.967 741.3,620.967 		"/>
		<polygon fill="#301C13" points="651.776,471.759 651.776,598.464 682.868,620.967 682.868,494.289 		"/>
		<g>
			<path fill="#232323" d="M734.934,573.63c0,13.043-10.538,23.686-23.684,23.686c-13.043,0-23.687-10.643-23.687-23.686
				s10.644-23.685,23.687-23.685C724.292,549.945,734.934,560.483,734.934,573.63z"/>
		</g>
		<g>
			<circle fill="#232323" cx="687.147" cy="500.174" r="1.878"/>
		</g>
		<g>
			<circle fill="#232323" cx="736.814" cy="500.174" r="1.878"/>
		</g>
		<g>
			<circle fill="#232323" cx="687.147" cy="601.177" r="1.878"/>
		</g>
		<g>
			<circle fill="#232323" cx="736.814" cy="601.177" r="1.878"/>
		</g>
		<path fill="#EACF5E" d="M729.301,572.379c0,10.85-8.766,19.616-19.616,19.616c-10.853,0-19.618-8.766-19.618-19.616
			c0-10.853,8.766-19.618,19.618-19.618C720.535,552.762,729.301,561.526,729.301,572.379z"/>
		<path fill="#232323" d="M713.336,568.205c0,4.799-3.967,8.763-8.765,8.763c-4.799,0-8.765-3.965-8.765-8.763
			c0-4.802,3.966-8.766,8.765-8.766C709.369,559.439,713.336,563.404,713.336,568.205z"/>
		<g>
			<circle fill="#232323" cx="711.25" cy="520.208" r="18.573"/>
		</g>
		<circle fill="#EACF5E" cx="709.997" cy="519.269" r="15.442"/>
		<path fill="#232323" d="M712.919,516.034c0,3.756-3.131,6.886-6.887,6.886c-3.758,0-6.888-3.13-6.888-6.886
			c0-3.758,3.13-6.888,6.888-6.888C709.788,509.147,712.919,512.174,712.919,516.034z"/>
	</g>
	<g id="repro_left">
		<polygon fill="#6B5E5A" points="49.724,469.984 65.376,495.792 80.818,492.515 109.982,500.487 139.249,492.515 108.156,469.984 
					"/>
		<polygon fill="#443935" points="139.249,492.515 80.818,492.515 80.818,619.192 139.249,619.192 		"/>
		<polygon fill="#301C13" points="49.724,469.984 49.724,596.69 80.818,619.192 80.818,492.515 		"/>
		<g>
			<path fill="#232323" d="M132.883,571.855c0,13.043-10.538,23.687-23.684,23.687c-13.043,0-23.686-10.644-23.686-23.687
				c0-13.042,10.643-23.685,23.686-23.685C122.242,548.171,132.883,558.709,132.883,571.855z"/>
		</g>
		<g>
			<circle fill="#232323" cx="85.096" cy="498.4" r="1.878"/>
		</g>
		<g>
			<circle fill="#232323" cx="134.763" cy="498.4" r="1.878"/>
		</g>
		<g>
			<circle fill="#232323" cx="85.096" cy="599.402" r="1.878"/>
		</g>
		<g>
			<circle fill="#232323" cx="134.763" cy="599.402" r="1.878"/>
		</g>
		<path fill="#EACF5E" d="M127.25,570.604c0,10.851-8.765,19.616-19.616,19.616c-10.852,0-19.618-8.765-19.618-19.616
			s8.765-19.618,19.618-19.618C118.485,550.987,127.25,559.753,127.25,570.604z"/>
		<path fill="#232323" d="M111.286,566.431c0,4.8-3.967,8.764-8.765,8.764c-4.799,0-8.765-3.965-8.765-8.764
			c0-4.801,3.966-8.765,8.765-8.765C107.319,557.666,111.286,561.631,111.286,566.431z"/>
		<g>
			<circle fill="#232323" cx="109.199" cy="518.434" r="18.573"/>
		</g>
		<circle fill="#EACF5E" cx="107.947" cy="517.494" r="15.442"/>
		<path fill="#232323" d="M110.868,514.26c0,3.757-3.13,6.887-6.886,6.887c-3.758,0-6.888-3.13-6.888-6.887
			c0-3.758,3.13-6.888,6.888-6.888C107.738,507.373,110.868,510.399,110.868,514.26z"/>
	</g>
</g>

</svg>
