<?xml version="1.0" encoding="utf-8"?>
<!-- Generator: Adobe Illustrator 15.1.0, SVG Export Plug-In . SVG Version: 6.00 Build 0)  -->
<!DOCTYPE svg PUBLIC "-//W3C//DTD SVG 1.1//EN" "http://www.w3.org/Graphics/SVG/1.1/DTD/svg11.dtd">
<svg version="1.1" id="TOVAREN" xmlns="http://www.w3.org/2000/svg" xmlns:xlink="http://www.w3.org/1999/xlink" x="0px" y="0px"
	 width="761.5px" height="387px" viewBox="0 0 761.5 387" enable-background="new 0 0 761.5 387" xml:space="preserve">
    <style>
        svg {
            width: 100%;
            height: 100%;
            position: absolute;
            top: 0;
            left: 0;
        }

        @-moz-document url-prefix() {
           svg {
               position: static;
               width: auto;
               height: auto;
           }
        }
    </style>
<g id="krabica_otvorena_1_">
	<polygon fill="#9B9078" points="589.8,79.1 619.8,109.1 705.8,109 675.8,79 	"/>
	<polygon fill="#6B5644" points="705.8,109 619.8,109.1 663.3,144.6 744.4,143.7 749.3,140 	"/>
	<polygon fill="#514034" points="705.8,140 749.3,140 705.8,109 	"/>
	<path fill="#CCCCCC" d="M707.4,128.6c3,0.2,5.3,2.9,5.3,5.8c0,3-2.4,5.2-5.3,4.9s-5.3-2.9-5.3-5.8
		C702,130.5,704.4,128.3,707.4,128.6z"/>
	<path fill="#CCCCCC" d="M730.4,136.8c2.2,0.2,3.9,2.1,3.9,4.3c0,2.2-1.8,3.8-3.9,3.6c-2.2-0.2-3.9-2.1-3.9-4.3
		S728.2,136.6,730.4,136.8z"/>
	<path fill="#CCCCCC" d="M682.1,132.4c3.3,0.3,6,3.2,6,6.6c0,3.4-2.7,5.8-6,5.5c-3.3-0.3-6-3.2-6-6.6
		C676.1,134.6,678.8,132.1,682.1,132.4z"/>
	<path fill="#CCCCCC" d="M664.1,126.2c2.5,0.2,4.6,2.4,4.6,5s-2,4.4-4.6,4.2c-2.5-0.2-4.6-2.4-4.6-5
		C659.5,127.9,661.5,126,664.1,126.2z"/>
	<path fill="#CCCCCC" d="M674.8,121.9c2.5,0.2,4.6,2.4,4.6,5s-2,4.4-4.6,4.2c-2.5-0.2-4.6-2.4-4.6-5S672.2,121.6,674.8,121.9z"/>
	<path fill="#E6E6E6" d="M702.9,134.2c2.2,0.2,4.1,2.2,4.1,4.4c0,2.2-1.8,3.9-4.1,3.7c-2.2-0.2-4.1-2.2-4.1-4.4
		S700.6,134,702.9,134.2z"/>
	<path fill="#E6E6E6" d="M653.2,129.2c1.9,0.1,3.5,1.8,3.5,3.7s-1.6,3.3-3.5,3.2c-1.9-0.1-3.5-1.8-3.5-3.7
		C649.7,130.4,651.3,129,653.2,129.2z"/>
	<path fill="#B3B3B3" d="M661.8,136.1c1.8,0.1,3.3,1.7,3.3,3.5c0,1.8-1.5,3.1-3.3,3c-1.8-0.1-3.3-1.8-3.3-3.5S660,135.9,661.8,136.1
		z"/>
	<path fill="#E6E6E6" d="M668,136c1.9,0.1,3.5,1.8,3.5,3.7c0,1.9-1.6,3.3-3.5,3.2c-1.9-0.1-3.5-1.8-3.5-3.7
		C664.6,137.2,666.2,135.8,668,136z"/>
	<path fill="#E6E6E6" d="M691.6,136.6c2.1,0.2,3.7,2,3.7,4.1c0,2.1-1.7,3.6-3.7,3.4c-2.1-0.2-3.7-2-3.7-4.1
		C687.8,137.9,689.5,136.4,691.6,136.6z"/>
	<path fill="#B3B3B3" d="M698.1,135.9c1.8,0.1,3.3,1.8,3.3,3.5s-1.5,3.1-3.3,3c-1.8-0.1-3.3-1.8-3.3-3.5
		C694.9,137,696.3,135.7,698.1,135.9z"/>
	<path fill="#E6E6E6" d="M693.9,129.6c1.4,0.1,2.6,1.4,2.6,2.8s-1.2,2.5-2.6,2.3c-1.4-0.1-2.6-1.4-2.6-2.8
		C691.3,130.5,692.5,129.5,693.9,129.6z"/>
	<path fill="#FFFFFF" d="M714.3,133.7c1.4,0.1,2.6,1.4,2.6,2.8s-1.2,2.5-2.6,2.3c-1.4-0.1-2.6-1.4-2.6-2.8S712.9,133.6,714.3,133.7z
		"/>
	<path fill="#E6E6E6" d="M674.2,128.9c1.9,0.1,3.5,1.8,3.5,3.7s-1.6,3.3-3.5,3.2c-1.9-0.1-3.5-1.8-3.5-3.7
		C670.8,130.2,672.3,128.8,674.2,128.9z"/>
	<path fill="#FFFFFF" d="M687.4,130.3c1.4,0.1,2.6,1.4,2.6,2.8c0,1.5-1.2,2.5-2.6,2.3c-1.4-0.1-2.6-1.4-2.6-2.8
		C684.9,131.2,686,130.2,687.4,130.3z"/>
	<path fill="#B3B3B3" d="M702.1,126c1.5,0.1,2.7,1.5,2.7,3c0,1.5-1.2,2.6-2.7,2.5c-1.5-0.1-2.7-1.5-2.7-3
		C699.4,126.9,700.6,125.8,702.1,126z"/>
	<path fill="#E6E6E6" d="M698.1,125.2c2.2,0.2,4.1,2.2,4.1,4.4s-1.8,3.9-4.1,3.7s-4.1-2.2-4.1-4.4S695.9,125,698.1,125.2z"/>
	<path fill="#FFFFFF" d="M658.2,126.3c1.8,0.1,3.3,1.8,3.3,3.5c0,1.8-1.5,3.1-3.3,3c-1.8-0.1-3.3-1.8-3.3-3.5
		S656.4,126.2,658.2,126.3z"/>
	<path fill="#FFFFFF" d="M676,134.8c1.8,0.1,3.3,1.8,3.3,3.5c0,1.8-1.5,3.1-3.3,3c-1.8-0.1-3.3-1.8-3.3-3.5
		C672.7,135.9,674.2,134.6,676,134.8z"/>
	<path fill="#FFFFFF" d="M697.1,137c1.8,0.1,3.3,1.8,3.3,3.5s-1.5,3.1-3.3,3c-1.8-0.1-3.3-1.8-3.3-3.5S695.3,136.9,697.1,137z"/>
	<path fill="#FFFFFF" d="M722,134.7c1.8,0.1,3.3,1.8,3.3,3.5s-1.5,3.1-3.3,3c-1.8-0.1-3.3-1.8-3.3-3.5
		C718.8,135.9,720.2,134.6,722,134.7z"/>
	<path fill="#FFFFFF" d="M699.6,129.6c1.8,0.1,3.3,1.8,3.3,3.5s-1.5,3.1-3.3,3c-1.8-0.1-3.3-1.8-3.3-3.5S697.8,129.4,699.6,129.6z"
		/>
	<path fill="#E6E6E6" d="M710,133.8c2.2,0.2,4.1,2.2,4.1,4.4c0,2.2-1.8,3.9-4.1,3.7s-4.1-2.2-4.1-4.4S707.7,133.6,710,133.8z"/>
	<path fill="#E6E6E6" d="M691.3,133c2.2,0.2,4.1,2.2,4.1,4.4s-1.8,3.9-4.1,3.7c-2.2-0.2-4.1-2.2-4.1-4.4
		C687.3,134.4,689.1,132.8,691.3,133z"/>
	<path fill="#E6E6E6" d="M668,135.7c2.2,0.2,4.1,2.2,4.1,4.4c0,2.2-1.8,3.9-4.1,3.7c-2.2-0.2-4.1-2.2-4.1-4.4
		C664,137.1,665.8,135.5,668,135.7z"/>
	<path fill="#E6E6E6" d="M696.5,130.5c2.2,0.2,4.1,2.2,4.1,4.4c0,2.2-1.8,3.9-4.1,3.7c-2.2-0.2-4.1-2.2-4.1-4.4
		C692.5,132,694.3,130.3,696.5,130.5z"/>
	<path fill="#E6E6E6" d="M718,133c1.8,0.1,3.3,1.7,3.3,3.5s-1.5,3.1-3.3,3c-1.8-0.1-3.3-1.8-3.3-3.5
		C714.7,134.2,716.2,132.8,718,133z"/>
	<path fill="#E6E6E6" d="M667.1,130.5c1.8,0.1,3.3,1.7,3.3,3.5s-1.5,3.1-3.3,3c-1.8-0.1-3.3-1.8-3.3-3.5S665.3,130.3,667.1,130.5z"
		/>
	<path fill="#B3B3B3" d="M688.4,128.9c1.8,0.1,3.3,1.8,3.3,3.5s-1.5,3.1-3.3,3c-1.8-0.1-3.3-1.7-3.3-3.5
		C685.2,130.1,686.6,128.7,688.4,128.9z"/>
	<path fill="#B3B3B3" d="M680.3,132c1.8,0.1,3.3,1.8,3.3,3.5s-1.5,3.1-3.3,3c-1.8-0.1-3.3-1.7-3.3-3.5
		C677,133.2,678.5,131.9,680.3,132z"/>
	<path fill="#FFFFFF" d="M703.7,136.4c1.8,0.1,3.3,1.8,3.3,3.5c0,1.8-1.5,3.1-3.3,3c-1.8-0.1-3.3-1.8-3.3-3.5
		C700.4,137.5,701.9,136.2,703.7,136.4z"/>
	<path fill="#FFFFFF" d="M673.7,130.8c1.5,0.1,2.6,1.4,2.6,2.9c0,1.5-1.2,2.5-2.6,2.4c-1.5-0.1-2.6-1.4-2.6-2.9
		C671.1,131.7,672.3,130.7,673.7,130.8z"/>
	<path fill="#FFFFFF" d="M668.9,132.3c1.5,0.1,2.6,1.4,2.6,2.9c0,1.5-1.2,2.5-2.6,2.4c-1.5-0.1-2.6-1.4-2.6-2.9
		C666.2,133.3,667.4,132.2,668.9,132.3z"/>
	<path fill="#FFFFFF" d="M708.8,132.5c1.5,0.1,2.6,1.4,2.6,2.9c0,1.5-1.2,2.5-2.6,2.4c-1.5-0.1-2.6-1.4-2.6-2.9
		S707.4,132.4,708.8,132.5z"/>
	<path fill="#FFFFFF" d="M706.1,125.5c1.5,0.1,2.6,1.4,2.6,2.9c0,1.5-1.2,2.5-2.6,2.4c-1.5-0.1-2.6-1.4-2.6-2.9
		S704.7,125.4,706.1,125.5z"/>
	<path fill="#FFFFFF" d="M694.8,133.7c1.5,0.1,2.6,1.4,2.6,2.9s-1.2,2.5-2.6,2.4c-1.5-0.1-2.6-1.4-2.6-2.9
		C692.2,134.7,693.3,133.6,694.8,133.7z"/>
	<path fill="#FFFFFF" d="M673.1,135.2c1.5,0.1,2.6,1.4,2.6,2.9s-1.2,2.5-2.6,2.4c-1.5-0.1-2.6-1.4-2.6-2.9
		C670.4,136.2,671.6,135.1,673.1,135.2z"/>
	<path fill="#FFFFFF" d="M718.3,137.3c1.5,0.1,2.6,1.4,2.6,2.9c0,1.5-1.2,2.5-2.6,2.4c-1.5-0.1-2.6-1.4-2.6-2.9
		C715.7,138.3,716.9,137.2,718.3,137.3z"/>
	<path fill="#FFFFFF" d="M684.7,137c1.8,0.1,3.3,1.8,3.3,3.6s-1.5,3.2-3.3,3s-3.3-1.8-3.3-3.6C681.4,138.1,682.8,136.8,684.7,137z"
		/>
	<path fill="#FFFFFF" d="M677.8,131.9c1.4,0.1,2.5,1.3,2.5,2.7s-1.1,2.4-2.5,2.3c-1.4-0.1-2.5-1.3-2.5-2.7
		C675.3,132.9,676.5,131.8,677.8,131.9z"/>
	<path fill="#FFFFFF" d="M688.9,133.9c1.4,0.1,2.5,1.3,2.5,2.7s-1.1,2.4-2.5,2.3c-1.4-0.1-2.5-1.3-2.5-2.7S687.5,133.8,688.9,133.9z
		"/>
	<path fill="#FFFFFF" d="M684.3,133.2c1.4,0.1,2.5,1.3,2.5,2.7s-1.1,2.4-2.5,2.3c-1.4-0.1-2.5-1.3-2.5-2.7
		C681.9,134.1,683,133.1,684.3,133.2z"/>
	<path fill="#FFFFFF" d="M679.5,136.3c1.4,0.1,2.5,1.3,2.5,2.7c0,1.4-1.1,2.4-2.5,2.3c-1.4-0.1-2.5-1.3-2.5-2.7
		S678.1,136.2,679.5,136.3z"/>
	<path fill="#FFFFFF" d="M699.3,127.5c1.4,0.1,2.5,1.3,2.5,2.7s-1.1,2.4-2.5,2.3c-1.4-0.1-2.5-1.3-2.5-2.7
		C696.8,128.4,697.9,127.4,699.3,127.5z"/>
	<path fill="#FFFFFF" d="M663,132.7c1.4,0.1,2.5,1.3,2.5,2.7s-1.1,2.4-2.5,2.3c-1.4-0.1-2.5-1.3-2.5-2.7
		C660.5,133.6,661.6,132.6,663,132.7z"/>
	<path fill="#FFFFFF" d="M714.1,130c1.4,0.1,2.5,1.3,2.5,2.7c0,1.4-1.1,2.4-2.5,2.3c-1.4-0.1-2.5-1.3-2.5-2.7
		C711.7,130.9,712.8,129.9,714.1,130z"/>
	<path fill="#FFFFFF" d="M693,129.5c1.2,0.1,2.2,1.2,2.2,2.4c0,1.2-1,2.1-2.2,2c-1.2-0.1-2.2-1.2-2.2-2.4S691.8,129.3,693,129.5z"/>
	<path fill="#E6E6E6" d="M679.4,135.1c2.2,0.2,4.1,2.2,4.1,4.4c0,2.2-1.8,3.9-4.1,3.7c-2.2-0.2-4.1-2.2-4.1-4.4
		C675.3,136.5,677.1,134.9,679.4,135.1z"/>
	<path fill="#FFFFFF" d="M650.3,127.6c1.2,0.1,2.2,1.2,2.2,2.4c0,1.2-1,2.1-2.2,2c-1.2-0.1-2.2-1.2-2.2-2.4
		C648.1,128.4,649.1,127.5,650.3,127.6z"/>
	<path fill="#FFFFFF" d="M666.3,128.1c1.2,0.1,2.2,1.2,2.2,2.4c0,1.2-1,2.1-2.2,2c-1.2-0.1-2.2-1.2-2.2-2.4S665.1,128,666.3,128.1z"
		/>
	<path fill="#FFFFFF" d="M714.8,137.4c1.2,0.1,2.2,1.2,2.2,2.4c0,1.2-1,2.1-2.2,2c-1.2-0.1-2.2-1.2-2.2-2.4
		C712.5,138.3,713.6,137.3,714.8,137.4z"/>
	<path fill="#FFFFFF" d="M671.5,132.3c1.2,0.1,2.2,1.2,2.2,2.4s-1,2.1-2.2,2c-1.2-0.1-2.2-1.2-2.2-2.4
		C669.3,133.1,670.3,132.2,671.5,132.3z"/>
	<path fill="#FFFFFF" d="M687.9,136.6c1.2,0.1,2.2,1.2,2.2,2.4c0,1.2-1,2.1-2.2,2c-1.2-0.1-2.2-1.2-2.2-2.4
		C685.7,137.4,686.7,136.4,687.9,136.6z"/>
	<path fill="#B3B3B3" d="M725,136.1c1.8,0.1,3.3,1.8,3.3,3.5c0,1.8-1.5,3.1-3.3,3s-3.3-1.8-3.3-3.5C721.8,137.3,723.2,136,725,136.1
		z"/>
	<path fill="#E6E6E6" d="M672.5,129.1c1.8,0.1,3.2,1.7,3.2,3.5c0,1.8-1.4,3-3.2,2.9c-1.8-0.1-3.2-1.7-3.2-3.5
		S670.7,128.9,672.5,129.1z"/>
	<path fill="#E6E6E6" d="M683.6,130c1.5,0.1,2.8,1.5,2.8,3c0,1.5-1.3,2.7-2.8,2.5c-1.5-0.1-2.8-1.5-2.8-3S682,129.9,683.6,130z"/>
	<path fill="#E6E6E6" d="M657.2,130.4c2.2,0.2,4.1,2.2,4.1,4.4c0,2.2-1.8,3.9-4.1,3.7c-2.2-0.2-4.1-2.2-4.1-4.4
		C653.1,131.9,655,130.2,657.2,130.4z"/>
	<polygon fill="#514034" points="619.8,186.8 619.8,109.1 663.3,140.1 663.3,217.8 	"/>
	<polygon fill="#968868" points="663.3,140.1 663.3,217.8 749.3,217.8 749.3,140 	"/>
	<path fill="#8E8062" d="M715.9,190.2c-5.6,9.7-14.7,9.7-20.3,0l-5.9-10.3c-5.6-9.7-1-17.5,10.1-17.5h11.8
		c11.1,0,15.7,7.9,10.1,17.5L715.9,190.2z"/>
	<polygon fill="#B7AC91" points="663.3,140.1 673.3,200.1 759.3,200 749.3,140 	"/>
</g>
<g id="krabica_zatvorena">
	<g>
		<polygon fill="#B7AC91" points="434.7,75.8 316,75.9 375.9,226 494.6,118.5 		"/>
		<polygon fill="#514034" points="316,183.3 316,75.9 375.9,118.6 375.9,226 		"/>
		<polygon fill="#968868" points="375.9,118.6 375.9,226 494.6,225.9 494.6,118.5 		"/>
		<polygon fill="#E8DE7E" points="388.5,75.9 366.7,75.9 426.6,118.6 436.4,120.6 448.5,118.6 		"/>
		<polygon fill="#E2CF60" points="448.5,118.6 426.6,118.6 426.6,137.6 448.5,137.6 		"/>
		<path fill="#8E8062" d="M449.7,187.3c-6.7,11.5-17.5,11.5-24.3,0l-7-12.2c-6.7-11.6-1.2-21.1,12.1-20.9h14.2
			c13.3,0,18.8,9.6,12.1,21.1L449.7,187.3z"/>
	</g>
	<g>
		<polygon fill="#B7AC91" points="255.6,71.8 92.1,71.9 174.7,198 338.2,130.6 		"/>
		<polygon fill="#514034" points="92.1,219.7 92.1,71.9 174.7,130.7 174.7,278.6 		"/>
		<polygon fill="#968868" points="174.7,130.7 174.7,278.6 338.2,278.4 338.2,130.6 		"/>
		<polygon fill="#E8DE7E" points="192,71.8 161.9,71.9 244.4,130.7 258.5,132.7 274.6,130.7 		"/>
		<polygon fill="#E2CF60" points="274.6,130.7 244.4,130.7 244.4,157 274.6,157 		"/>
		<path fill="#8E8062" d="M276.3,225.3c-9.2,15.9-24.3,15.9-33.4,0l-9.7-16.8c-9.2-15.9-1.7-29,16.8-29h19.5c18.4,0,25.9,13,16.8,29
			L276.3,225.3z"/>
	</g>
	<g>
		<polygon fill="#B7AC91" points="593.5,141.4 475.4,141.5 535,290.9 653.2,183.9 		"/>
		<polygon fill="#514034" points="475.4,248.3 475.4,141.5 535,184.1 535,290.9 		"/>
		<polygon fill="#968868" points="535,184.1 535,290.9 653.2,290.7 653.2,183.9 		"/>
		<polygon fill="#E8DE7E" points="510.6,166.6 628.7,166.5 615.5,157 497.3,157.2 		"/>
		<polygon fill="#A39041" points="510.6,204.7 510.6,166.6 497.3,157.2 497.3,195.3 		"/>
		<path fill="#8E8062" d="M607.1,250.1c-7.2,12.4-18.9,12.5-26.1,0l-7.6-13.2c-7.2-12.5-1.3-22.6,13-22.7h15.2
			c14.4,0.1,20.2,10.2,13,22.6L607.1,250.1z"/>
	</g>
	<g>
		<polygon fill="#B7AC91" points="585.4,71.6 506,71.6 546,172 625.4,100.1 		"/>
		<polygon fill="#514034" points="506,143.4 506,71.6 546,100.2 546,172 		"/>
		<polygon fill="#968868" points="546,100.2 546,172 625.4,171.9 625.4,100.1 		"/>
		<polygon fill="#E8DE7E" points="554.4,71.6 539.9,71.6 579.9,100.2 586.5,101.5 594.6,100.2 		"/>
		<polygon fill="#E2CF60" points="594.6,100.2 579.9,100.2 579.9,112.9 594.6,112.9 		"/>
		<path fill="#8E8062" d="M595.4,146.1c-4.5,7.7-11.7,7.7-16.3,0l-4.7-8.2c-4.5-7.8-0.8-14.1,8.1-14h9.5c8.9,0,12.5,6.4,8.1,14.1
			L595.4,146.1z"/>
	</g>
	<g>
		<polygon fill="#B7AC91" points="422,207 329.7,207.2 376.3,323.9 468.7,240.3 		"/>
		<polygon fill="#514034" points="329.7,290.6 329.7,207.2 376.3,240.4 376.3,323.9 		"/>
		<polygon fill="#968868" points="376.3,240.4 376.3,323.9 468.7,323.8 468.7,240.3 		"/>
		<polygon fill="#E8DE7E" points="357.2,226.8 449.5,226.6 439.2,219.2 346.9,219.3 		"/>
		<polygon fill="#A39041" points="357.2,256.5 357.2,226.8 346.9,219.3 346.9,249.1 		"/>
		<path fill="#8E8062" d="M432.2,293.8c-6.4,11.1-16.9,11.1-23.3,0L402,282c-6.4-11.1-1.1-20.1,11.7-20.1h13.6
			c12.8,0,18,9.1,11.7,20.2L432.2,293.8z"/>
	</g>
	<g>
		<polygon fill="#B7AC91" points="252.1,10.8 173,11 212.9,110.9 292.1,39.3 		"/>
		<polygon fill="#514034" points="173,82.4 173,11 212.9,39.4 212.9,110.9 		"/>
		<polygon fill="#968868" points="212.9,39.4 212.9,110.9 292.1,110.8 292.1,39.3 		"/>
		<polygon fill="#E8DE7E" points="196.6,27.7 275.6,27.6 266.8,21.3 187.7,21.4 		"/>
		<polygon fill="#A39041" points="196.6,53.2 196.6,27.7 187.7,21.4 187.7,46.9 		"/>
		<path fill="#8E8062" d="M260.7,85.1c-5.5,9.5-14.5,9.5-20,0L235,75c-5.5-9.5-1-17.2,10-17.2h11.6c10.9,0,15.4,7.8,10,17.3
			L260.7,85.1z"/>
	</g>
</g>
<g id="krabica_otvorena">
	<polygon fill="#9B9078" points="312.7,159.2 231.6,195.2 304,246.7 385.1,210.8 	"/>
	<polygon fill="#6B5644" points="231.6,195.2 88.5,195.4 160.8,254.4 295.9,253 304,246.7 	"/>
	<polygon fill="#514034" points="231.6,246.8 304,246.7 231.6,195.2 	"/>
	<polygon fill="#F05A64" points="242.5,174.9 108.3,174.8 108.3,234.3 242.5,234.4 	"/>
	<path fill="#CCCCCC" d="M234.2,227.8c4.9,0.4,8.9,4.8,8.9,9.7c0,4.9-4,8.6-8.9,8.1c-4.9-0.5-8.9-4.8-8.9-9.7
		C225.3,231,229.3,227.3,234.2,227.8z"/>
	<path fill="#CCCCCC" d="M272.5,241.5c3.6,0.3,6.6,3.5,6.6,7.1c0,3.6-2.9,6.3-6.6,6c-3.6-0.3-6.6-3.5-6.6-7.1
		S268.9,241.2,272.5,241.5z"/>
	<path fill="#CCCCCC" d="M192.2,234.2c5.5,0.5,10,5.3,10,10.9s-4.5,9.6-10,9.1c-5.5-0.5-10-5.3-10-10.9
		C182.2,237.8,186.7,233.7,192.2,234.2z"/>
	<path fill="#CCCCCC" d="M162.1,223.8c4.2,0.4,7.6,4,7.6,8.3c0,4.2-3.4,7.3-7.6,7c-4.2-0.3-7.6-4-7.6-8.3S157.9,223.4,162.1,223.8z"
		/>
	<path fill="#CCCCCC" d="M179.9,216.6c4.2,0.4,7.6,4,7.6,8.3s-3.4,7.3-7.6,7c-4.2-0.3-7.6-4-7.6-8.3
		C172.3,219.4,175.7,216.2,179.9,216.6z"/>
	<path fill="#E6E6E6" d="M226.7,237.2c3.7,0.3,6.8,3.6,6.8,7.4s-3.1,6.6-6.8,6.2c-3.7-0.3-6.8-3.6-6.8-7.4
		C219.9,239.7,223,236.9,226.7,237.2z"/>
	<path fill="#E6E6E6" d="M144,228.8c3.2,0.2,5.7,3.1,5.7,6.2c0,3.2-2.6,5.5-5.7,5.3c-3.2-0.2-5.7-3.1-5.7-6.2S140.8,228.5,144,228.8
		z"/>
	<path fill="#B3B3B3" d="M158.3,240.3c3,0.2,5.4,2.9,5.4,5.9s-2.4,5.2-5.4,4.9c-3-0.2-5.4-2.9-5.4-5.9S155.3,240,158.3,240.3z"/>
	<path fill="#E6E6E6" d="M168.8,240.1c3.2,0.2,5.7,3.1,5.7,6.2c0,3.2-2.6,5.5-5.7,5.3c-3.2-0.2-5.7-3.1-5.7-6.2
		S165.6,239.8,168.8,240.1z"/>
	<path fill="#E6E6E6" d="M207.9,241.1c3.5,0.3,6.2,3.3,6.2,6.8c0,3.5-2.8,6-6.2,5.7c-3.5-0.3-6.2-3.3-6.2-6.8
		C201.7,243.3,204.4,240.8,207.9,241.1z"/>
	<path fill="#B3B3B3" d="M218.8,240c3,0.2,5.4,2.9,5.4,5.9s-2.4,5.2-5.4,4.9c-3-0.2-5.4-2.9-5.4-5.9
		C213.4,241.9,215.9,239.7,218.8,240z"/>
	<path fill="#E6E6E6" d="M211.8,229.5c2.3,0.2,4.3,2.3,4.3,4.7s-1.9,4.1-4.3,3.9c-2.3-0.2-4.3-2.3-4.3-4.7
		C207.5,231,209.5,229.4,211.8,229.5z"/>
	<path fill="#FFFFFF" d="M245.7,236.4c2.3,0.2,4.3,2.3,4.3,4.7s-1.9,4.1-4.3,3.9c-2.3-0.2-4.3-2.3-4.3-4.7S243.4,236.1,245.7,236.4z
		"/>
	<path fill="#E6E6E6" d="M179,228.4c3.2,0.2,5.7,3.1,5.7,6.2c0,3.2-2.6,5.5-5.7,5.3c-3.2-0.2-5.7-3.1-5.7-6.2S175.9,228.1,179,228.4
		z"/>
	<path fill="#FFFFFF" d="M201,230.7c2.3,0.2,4.3,2.3,4.3,4.7s-1.9,4.1-4.3,3.9c-2.3-0.2-4.3-2.3-4.3-4.7
		C196.8,232.2,198.7,230.5,201,230.7z"/>
	<path fill="#B3B3B3" d="M225.4,223.4c2.5,0.2,4.5,2.4,4.5,4.9s-2,4.4-4.5,4.1c-2.5-0.2-4.5-2.4-4.5-4.9
		C220.9,225.1,222.9,223.2,225.4,223.4z"/>
	<path fill="#E6E6E6" d="M218.8,222.2c3.7,0.3,6.8,3.6,6.8,7.4s-3.1,6.6-6.8,6.2c-3.7-0.3-6.8-3.6-6.8-7.4S215,221.9,218.8,222.2z"
		/>
	<path fill="#FFFFFF" d="M152.3,224c3,0.2,5.4,2.9,5.4,5.9c0,3-2.4,5.2-5.4,4.9c-3-0.2-5.4-2.9-5.4-5.9S149.3,223.8,152.3,224z"/>
	<polygon fill="#D24650" points="219.9,213.9 164.6,213.9 164.6,260.9 219.9,261 	"/>
	<path fill="#FFFFFF" d="M181.9,238.1c3,0.2,5.4,2.9,5.4,5.9s-2.4,5.2-5.4,4.9c-3-0.2-5.4-2.9-5.4-5.9
		C176.5,240,179,237.8,181.9,238.1z"/>
	<path fill="#FFFFFF" d="M217.1,241.9c3,0.2,5.4,2.9,5.4,5.9s-2.4,5.2-5.4,4.9c-3-0.2-5.4-2.9-5.4-5.9S214.1,241.7,217.1,241.9z"/>
	<path fill="#FFFFFF" d="M258.6,238c3,0.2,5.4,2.9,5.4,5.9s-2.4,5.2-5.4,4.9c-3-0.2-5.4-2.9-5.4-5.9S255.6,237.8,258.6,238z"/>
	<path fill="#FFFFFF" d="M221.3,229.5c3,0.2,5.4,2.9,5.4,5.9s-2.4,5.2-5.4,4.9c-3-0.2-5.4-2.9-5.4-5.9S218.3,229.2,221.3,229.5z"/>
	<path fill="#E6E6E6" d="M238.5,236.6c3.7,0.3,6.8,3.6,6.8,7.4c0,3.7-3.1,6.6-6.8,6.2c-3.7-0.3-6.8-3.6-6.8-7.4
		C231.7,239.1,234.8,236.2,238.5,236.6z"/>
	<path fill="#E6E6E6" d="M207.5,235.1c3.7,0.3,6.8,3.6,6.8,7.4c0,3.7-3.1,6.6-6.8,6.2c-3.7-0.3-6.8-3.6-6.8-7.4
		C200.7,237.5,203.8,234.8,207.5,235.1z"/>
	<path fill="#E6E6E6" d="M168.8,239.6c3.7,0.3,6.8,3.6,6.8,7.4s-3.1,6.6-6.8,6.2c-3.7-0.3-6.8-3.6-6.8-7.4
		C162,242.1,165,239.3,168.8,239.6z"/>
	<path fill="#E6E6E6" d="M216.2,231c3.7,0.3,6.8,3.6,6.8,7.4c0,3.7-3.1,6.6-6.8,6.2c-3.7-0.3-6.8-3.6-6.8-7.4
		C209.4,233.6,212.5,230.7,216.2,231z"/>
	<path fill="#E6E6E6" d="M251.9,235.2c3,0.2,5.4,2.9,5.4,5.9s-2.4,5.2-5.4,4.9c-3-0.2-5.4-2.9-5.4-5.9S248.9,234.9,251.9,235.2z"/>
	<path fill="#E6E6E6" d="M167.1,231c3,0.2,5.4,2.9,5.4,5.9s-2.4,5.2-5.4,4.9c-3-0.2-5.4-2.9-5.4-5.9S164.1,230.7,167.1,231z"/>
	<path fill="#B3B3B3" d="M202.7,228.3c3,0.2,5.4,2.9,5.4,5.9s-2.4,5.2-5.4,4.9c-3-0.2-5.4-2.9-5.4-5.9
		C197.2,230.3,199.7,228.1,202.7,228.3z"/>
	<path fill="#B3B3B3" d="M189.2,233.6c3,0.2,5.4,2.9,5.4,5.9s-2.4,5.2-5.4,4.9c-3-0.2-5.4-2.9-5.4-5.9S186.2,233.3,189.2,233.6z"/>
	<path fill="#FFFFFF" d="M228.1,240.8c3,0.2,5.4,2.9,5.4,5.9c0,3-2.4,5.2-5.4,4.9c-3-0.2-5.4-2.9-5.4-5.9
		C222.7,242.7,225.1,240.5,228.1,240.8z"/>
	<path fill="#FFFFFF" d="M178.2,231.5c2.4,0.2,4.4,2.3,4.4,4.8s-1.9,4.2-4.4,4c-2.4-0.2-4.4-2.3-4.4-4.8
		C173.9,233.1,175.8,231.3,178.2,231.5z"/>
	<path fill="#FFFFFF" d="M170.1,234c2.4,0.2,4.4,2.3,4.4,4.8s-1.9,4.2-4.4,4c-2.4-0.2-4.4-2.3-4.4-4.8
		C165.8,235.6,167.7,233.8,170.1,234z"/>
	<path fill="#FFFFFF" d="M236.7,234.4c2.4,0.2,4.4,2.3,4.4,4.8c0,2.4-1.9,4.2-4.4,4c-2.4-0.2-4.4-2.3-4.4-4.8
		S234.2,234.2,236.7,234.4z"/>
	<path fill="#FFFFFF" d="M232.1,222.6c2.4,0.2,4.4,2.3,4.4,4.8c0,2.4-1.9,4.2-4.4,4c-2.4-0.2-4.4-2.3-4.4-4.8
		S229.7,222.5,232.1,222.6z"/>
	<path fill="#FFFFFF" d="M213.3,236.4c2.4,0.2,4.4,2.3,4.4,4.8s-1.9,4.2-4.4,4c-2.4-0.2-4.4-2.3-4.4-4.8S210.8,236.1,213.3,236.4z"
		/>
	<path fill="#FFFFFF" d="M177.1,238.9c2.4,0.2,4.4,2.3,4.4,4.8s-1.9,4.2-4.4,4c-2.4-0.2-4.4-2.3-4.4-4.8
		C172.7,240.4,174.7,238.7,177.1,238.9z"/>
	<path fill="#FFFFFF" d="M252.4,242.3c2.4,0.2,4.4,2.3,4.4,4.8c0,2.4-1.9,4.2-4.4,4c-2.4-0.2-4.4-2.3-4.4-4.8
		C248.1,243.9,250,242.1,252.4,242.3z"/>
	<path fill="#FFFFFF" d="M196.4,241.7c3.1,0.2,5.5,2.9,5.5,6s-2.4,5.3-5.5,5c-3.1-0.2-5.5-2.9-5.5-6
		C190.9,243.7,193.4,241.4,196.4,241.7z"/>
	<path fill="#FFFFFF" d="M185,233.4c2.3,0.2,4.1,2.2,4.1,4.5s-1.9,4-4.1,3.8c-2.3-0.2-4.1-2.2-4.1-4.5
		C180.9,234.9,182.8,233.2,185,233.4z"/>
	<path fill="#FFFFFF" d="M203.4,236.7c2.3,0.2,4.1,2.2,4.1,4.5s-1.9,4-4.1,3.8c-2.3-0.2-4.1-2.2-4.1-4.5S201.1,236.6,203.4,236.7z"
		/>
	<path fill="#FFFFFF" d="M195.9,235.5c2.3,0.2,4.1,2.2,4.1,4.5s-1.9,4-4.1,3.8c-2.3-0.2-4.1-2.2-4.1-4.5S193.6,235.3,195.9,235.5z"
		/>
	<path fill="#FFFFFF" d="M187.8,240.6c2.3,0.2,4.1,2.2,4.1,4.5c0,2.3-1.9,4-4.1,3.8s-4.1-2.2-4.1-4.5S185.5,240.4,187.8,240.6z"/>
	<path fill="#FFFFFF" d="M220.7,226c2.3,0.2,4.1,2.2,4.1,4.5c0,2.3-1.9,4-4.1,3.8c-2.3-0.2-4.1-2.2-4.1-4.5
		C216.6,227.5,218.4,225.9,220.7,226z"/>
	<path fill="#FFFFFF" d="M160.3,234.7c2.3,0.2,4.1,2.2,4.1,4.5s-1.9,4-4.1,3.8s-4.1-2.2-4.1-4.5S158.1,234.4,160.3,234.7z"/>
	<path fill="#FFFFFF" d="M245.5,230.2c2.3,0.2,4.1,2.2,4.1,4.5s-1.9,4-4.1,3.8c-2.3-0.2-4.1-2.2-4.1-4.5
		C241.3,231.7,243.2,229.9,245.5,230.2z"/>
	<path fill="#FFFFFF" d="M210.3,229.3c2,0.2,3.7,2,3.7,4c0,2-1.7,3.6-3.7,3.4c-2-0.2-3.7-2-3.7-4C206.5,230.6,208.2,229,210.3,229.3
		z"/>
	<path fill="#E6E6E6" d="M187.6,238.6c3.7,0.3,6.8,3.6,6.8,7.4s-3.1,6.6-6.8,6.2c-3.7-0.3-6.8-3.6-6.8-7.4
		C180.8,241,183.9,238.3,187.6,238.6z"/>
	<path fill="#FFFFFF" d="M139.2,226.2c2,0.2,3.7,2,3.7,4c0,2-1.7,3.6-3.7,3.4s-3.7-2-3.7-4C135.5,227.6,137.2,226,139.2,226.2z"/>
	<path fill="#FFFFFF" d="M165.9,226.9c2,0.2,3.7,2,3.7,4c0,2-1.7,3.6-3.7,3.4c-2-0.2-3.7-2-3.7-4
		C162.2,228.3,163.9,226.8,165.9,226.9z"/>
	<path fill="#FFFFFF" d="M246.5,242.5c2,0.2,3.7,2,3.7,4c0,2-1.7,3.6-3.7,3.4s-3.7-2-3.7-4S244.5,242.4,246.5,242.5z"/>
	<path fill="#FFFFFF" d="M174.6,234c2,0.2,3.7,2,3.7,4c0,2-1.7,3.6-3.7,3.4c-2-0.2-3.7-2-3.7-4C170.9,235.3,172.6,233.8,174.6,234z"
		/>
	<path fill="#FFFFFF" d="M201.9,241.1c2,0.2,3.7,2,3.7,4c0,2-1.7,3.6-3.7,3.4c-2-0.2-3.7-2-3.7-4
		C198.1,242.5,199.8,240.8,201.9,241.1z"/>
	<path fill="#B3B3B3" d="M263.6,240.4c3,0.2,5.4,2.9,5.4,5.9c0,3-2.4,5.2-5.4,4.9c-3-0.2-5.4-2.9-5.4-5.9
		C258.2,242.4,260.6,240.1,263.6,240.4z"/>
	<path fill="#E6E6E6" d="M176.1,228.6c2.9,0.2,5.3,2.8,5.3,5.7s-2.3,5-5.3,4.8c-2.9-0.2-5.3-2.8-5.3-5.7S173.2,228.4,176.1,228.6z"
		/>
	<path fill="#E6E6E6" d="M194.6,230.2c2.5,0.2,4.6,2.5,4.6,5c0,2.5-2.1,4.5-4.6,4.2c-2.5-0.2-4.6-2.4-4.6-5
		C190,231.9,192.1,230,194.6,230.2z"/>
	<path fill="#E6E6E6" d="M150.7,230.9c3.7,0.3,6.8,3.6,6.8,7.4s-3.1,6.6-6.8,6.2c-3.7-0.3-6.8-3.6-6.8-7.4S147,230.6,150.7,230.9z"
		/>
	<polygon fill="#514034" points="88.5,324.8 88.5,195.4 160.8,246.9 160.8,376.3 	"/>
	<polygon fill="#968868" points="160.8,246.9 160.8,376.3 304,376.2 304,246.7 	"/>
	<polygon fill="#D3CCBA" points="12.1,161.5 88.5,195.4 160.8,246.9 84.4,213.1 	"/>
	<path fill="#8E8062" d="M248.5,330.4c-9.3,16.1-24.4,16.1-33.7,0l-9.9-17.1c-9.3-16.1-1.7-29.2,16.8-29.2h19.7
		c18.5,0,26.1,13.1,16.8,29.2L248.5,330.4z"/>
</g>
<path fill="#E2CF60" d="M589.4,327.2v20.2c0,7,28.7,22.4,59.9,22.5c31.1,0,56.4-5.7,56.4-12.7v-20.6L589.4,327.2z"/>
<path fill="#E2CF60" d="M647.5,336.2c32.1,2.8,58.1,12.6,58.1,21.8c0,9.2-26,14.4-58.1,11.6c-32.1-2.8-58.1-12.6-58.1-21.8
	S615.4,333.4,647.5,336.2z"/>
<path fill="#D6C25C" d="M650.9,344.5c-33.3,0-60.5-7.7-61.5-17.2l0,0v27h62.5v-9.7C651.5,344.5,651.2,344.5,650.9,344.5z"/>
<polygon fill="#E2CF60" points="544.2,370.4 665.1,370.4 668,357.3 665.1,349.8 544.2,349.7 "/>
<path fill="#E8DE7E" d="M647.5,315.6c32.1,2.8,58.1,12.6,58.1,21.8c0,9.2-26,14.4-58.1,11.6c-32.1-2.8-58.1-12.6-58.1-21.8
	S615.4,312.8,647.5,315.6z"/>
<linearGradient id="SVGID_1_" gradientUnits="userSpaceOnUse" x1="622.9824" y1="332.3203" x2="671.9668" y2="332.3203">
	<stop  offset="0" style="stop-color:#947D47"/>
	<stop  offset="1" style="stop-color:#755E33"/>
</linearGradient>
<path fill="url(#SVGID_1_)" d="M647.5,325.3c13.5,1.2,24.5,5.3,24.5,9.2c0,3.9-11,6.1-24.5,4.9c-13.5-1.2-24.5-5.3-24.5-9.2
	C623,326.3,633.9,324.1,647.5,325.3z"/>
</svg>
