<?xml version="1.0" encoding="utf-8"?>
<!-- Generator: Adobe Illustrator 15.1.0, SVG Export Plug-In . SVG Version: 6.00 Build 0)  -->
<!DOCTYPE svg PUBLIC "-//W3C//DTD SVG 1.1//EN" "http://www.w3.org/Graphics/SVG/1.1/DTD/svg11.dtd">
<svg version="1.1" id="business" xmlns="http://www.w3.org/2000/svg" xmlns:xlink="http://www.w3.org/1999/xlink" x="0px" y="0px"
	 width="790px" height="640px" viewBox="0 0 790 640" enable-background="new 0 0 790 640" xml:space="preserve">
    <style>
        #owl, #lamp {
            cursor: pointer
        }
        svg {
            width: 100%;
            height: 100%;
            position: absolute;
            top: 0;
            left: 0;
        }

        @-moz-document url-prefix() {
           svg {
               position: static;
               width: auto;
               height: auto;
           }
        }
    </style>
<g id="biznis">
	<rect x="571.7" y="285.8" fill="#FFFFF0" width="29.4" height="18.7"/>
	<g id="bussines">
		<polygon fill="#8FE2E2" points="601.2,507.6 89.4,508.6 268.1,638.4 779.9,637.4 		"/>
		<polygon fill="#88B539" points="601.2,464.5 89.4,465.6 268.1,594.9 586,599.5 779.9,594.9 		"/>
		<polygon id="spodna_hrna_3_" fill="#333333" points="759.7,575.7 761.5,575.7 761.5,581.5 759.7,581.5 		"/>
		<polygon id="vrch_3_" fill="#666666" points="760,581.5 760,575.7 759,575 759,580.7 		"/>
		<g id="cesta">
			<g>
				<polygon fill="#4D4D4D" points="166.9,465.4 89.4,465.6 268.1,600.7 345.5,594.9 				"/>
				<polygon fill="#E6E6E6" points="269,578.1 264.2,578.1 280.3,589.9 285.2,589.9 				"/>
				<polygon id="lava_strana_55_" fill="#846A55" points="89.4,465.6 89.4,470.7 268.1,600.7 268.1,594.9 				"/>
				<polygon fill="#E6E6E6" points="160.7,499.4 155.9,499.5 172,511.2 176.9,511.2 				"/>
				<polygon fill="#E6E6E6" points="187.8,519.1 182.9,519.1 199.1,530.9 203.9,530.9 				"/>
				<polygon fill="#E6E6E6" points="214.8,538.8 210,538.8 226.2,550.5 231,550.5 				"/>
				<polygon fill="#E6E6E6" points="241.9,558.5 237.1,558.5 253.3,570.2 258.1,570.2 				"/>
				<polygon fill="#E6E6E6" points="133.6,479.8 128.8,479.8 144.9,491.5 149.8,491.5 				"/>
				<polygon fill="#E6E6E6" points="113.9,465.5 109.1,465.5 117.9,471.9 122.7,471.8 				"/>
			</g>
		</g>
		<g id="trava">
			<polygon fill="#9ABF51" points="167,465.4 266.9,485.3 345.5,594.9 			"/>
			<polygon fill="#89A542" points="167,465.4 266.9,485.3 238.4,461.4 			"/>
			<polygon fill="#97C441" points="281.5,465.1 266.9,485.3 238.4,461.4 			"/>
			<polygon fill="#82AF41" points="372.8,528.8 266.9,485.3 345.5,594.9 			"/>
			<polygon fill="#7EA53A" points="372.8,528.8 391.6,590.3 345.5,594.9 			"/>
			<polygon fill="#97C441" points="372.8,528.8 391.6,590.3 426.5,594.9 			"/>
			<polygon fill="#88AD49" points="480.9,565.8 426.5,594.9 483.6,591.9 			"/>
			<polygon fill="#9ABF51" points="480.9,565.8 502.5,594.9 483.6,591.9 			"/>
			<polygon fill="#7B9B3E" points="480.9,565.8 426.5,594.9 436,554.4 			"/>
			<polygon fill="#7EA343" points="480.9,565.8 589,547.7 436,554.4 			"/>
			<polygon fill="#99C642" points="480.9,565.8 589,547.7 598.6,595.9 			"/>
			<polygon fill="#7EA53A" points="672.8,593.8 589,547.7 598.6,595.9 			"/>
			<polygon fill="#88BA38" points="672.8,593.8 700.5,536.7 779.9,594.9 			"/>
			<polygon fill="#82AF41" points="700.5,536.7 589,547.7 635.3,489.3 			"/>
			<polygon fill="#92BA3A" points="520.7,485.5 589,547.7 635.3,489.3 			"/>
			<polygon fill="#8CB53C" points="520.7,485.5 601.2,464.5 635.3,489.3 			"/>
			<polygon fill="#82AF41" points="520.7,485.5 589,547.7 490.3,503.8 			"/>
			<polygon fill="#88BA38" points="372.8,528.8 426.5,594.9 436,554.4 			"/>
			<polygon fill="#88B539" points="372.8,528.8 490.3,503.8 436,554.4 			"/>
			<polygon fill="#82AF3C" points="589,547.7 490.3,503.8 436,554.4 			"/>
			<polygon fill="#96BA3C" points="372.8,528.8 490.3,503.8 419.3,464.9 			"/>
			<polygon fill="#99C445" points="372.8,528.8 266.9,485.3 281.5,465.1 			"/>
			<polygon fill="#8CB53C" points="372.8,528.8 419.3,464.9 281.5,465.1 			"/>
		</g>
		<g id="strom">
			<polygon fill="#AF864A" points="266,487 266,433.2 269.7,433.2 269.7,487 			"/>
			<polygon fill="#CEA672" points="269.7,433.2 271.5,432.1 271.5,485.9 269.7,487 			"/>
			<polygon fill="#77622F" points="266,433.2 264.2,432.1 264.2,485.9 266,487 			"/>
			<polygon id="lava_strana_54_" fill="#687C2A" points="222.5,432.6 222.5,392.1 246.6,409.6 246.6,450.1 			"/>
			<polygon fill="#88BA38" points="311.4,409.5 246.6,409.6 246.6,450.1 311.4,450 			"/>
			<polygon fill="#CAE264" points="287.3,392 222.5,392.1 246.6,409.6 311.4,409.5 			"/>
			<polygon id="lava_strana_51_" fill="#687C2A" points="231.9,393.7 231.9,355.3 251.3,369.4 251.3,407.8 			"/>
			<polygon fill="#88BA38" points="303.4,369.3 251.3,369.4 251.3,407.8 303.4,407.7 			"/>
			<polygon fill="#CAE264" points="284,355.2 231.9,355.3 251.3,369.4 303.4,369.3 			"/>
			<polygon id="lava_strana_50_" fill="#687C2A" points="243,357.2 243,313.8 256.4,323.6 256.4,366.9 			"/>
			<polygon fill="#88BA38" points="292.3,323.5 256.4,323.6 256.4,366.9 292.3,366.8 			"/>
			<polygon fill="#CAE264" points="278.9,313.8 243,313.8 256.4,323.6 292.3,323.5 			"/>
			<polygon id="lava_strana_49_" fill="#687C2A" points="255.5,315.7 255.5,275.8 262.1,280.6 262.1,320.5 			"/>
			<polygon fill="#88BA38" points="279.8,280.6 262.1,280.6 262.1,320.5 279.8,320.4 			"/>
			<polygon fill="#CAE264" points="273.2,275.8 255.5,275.8 262.1,280.6 279.8,280.6 			"/>
		</g>
		<g id="kamen">
			<polygon fill="#9E9283" points="278.1,511.3 280.1,501.9 287.7,514.2 			"/>
			<polygon fill="#7A726C" points="278.1,511.3 280.1,501.9 275,503.5 			"/>
			<polygon fill="#89817C" points="284,497.8 280.1,501.9 275,503.5 			"/>
			<polygon fill="#B5B1AC" points="294.8,507.2 280.1,501.9 287.7,514.2 			"/>
			<polygon fill="#DBD7D1" points="294.8,507.2 280.1,501.9 292.1,500.1 			"/>
			<polygon fill="#897866" points="294.8,507.2 293.9,512.1 287.7,514.2 			"/>
			<polygon fill="#C9C4BD" points="284,497.8 280.1,501.9 292.1,500.1 			"/>
			<polygon fill="#DBD7D1" points="217.7,478.4 217.7,480.2 224.8,483.9 			"/>
			<polygon fill="#9E9283" points="210.4,484.3 217.7,480.2 219.5,487.1 			"/>
			<polygon fill="#7A726C" points="210.4,484.3 217.7,480.2 208.5,480.6 			"/>
			<polygon fill="#89817C" points="217.7,478.4 217.7,480.2 208.5,480.6 			"/>
			<polygon fill="#C9C4BD" points="217.7,480.2 224.8,483.9 219.5,487.1 			"/>
		</g>
		<g id="skrina">
			<polygon fill="#808080" points="607.3,326.2 607.3,473.3 628.8,488.8 628.8,341.8 			"/>
			<polygon fill="#374993" points="531.9,326.4 531.9,473.5 553.3,489 553.3,341.9 			"/>
			<polygon fill="#999999" points="531.9,326.4 531.9,473.5 607.3,473.3 607.3,326.2 			"/>
			<polygon fill="#F2F2F2" points="632.6,337.9 611.3,322.4 528.1,322.6 549.3,338.1 			"/>
			<polygon fill="#B2B2B2" points="628.8,481.2 607.3,465.7 528.1,465.8 549.3,481.4 			"/>
			<polygon fill="#B2B2B2" points="628.8,454.2 607.4,438.7 530.8,438.9 552.1,454.4 			"/>
			<g id="oblek">
				<polygon fill="#333333" points="596.8,363.6 598.6,361.2 577.9,346.2 576.1,348.6 				"/>
				<path fill="#E6E6E6" d="M599.1,362.4c0,0.8-0.7,1.5-1.5,1.5s-1.5-0.7-1.5-1.5c0-0.8,0.7-1.5,1.5-1.5S599.1,361.5,599.1,362.4z"
					/>
				<path fill="#333333" d="M578.4,347.4c0,0.8-0.7,1.5-1.5,1.5s-1.5-0.7-1.5-1.5c0-0.8,0.7-1.5,1.5-1.5
					C577.8,345.9,578.4,346.6,578.4,347.4z"/>
				<polygon fill="#F2F2F2" points="559.4,428.6 567.4,428.6 567.3,398.6 559.4,386.1 				"/>
				<polygon fill="#1C4280" points="558.2,426.9 568.6,426.9 568.5,389.2 558.2,376.5 				"/>
				<polygon fill="#F2F2F2" points="574,369 574.8,425 602.5,425.6 602,369 595.3,365.6 578.9,365.9 				"/>
				<polygon fill="#CCCCCC" points="578.1,366.6 578.2,377.6 579.9,381.2 587.2,373.8 587.9,374.3 587.9,374.9 589.4,374.9 
					589.4,374.4 590,373.8 598.1,380.4 598.8,377.2 596,366 				"/>
				<polygon fill="#D3B63C" points="585,374.4 587.9,377.6 584.7,409.2 588.6,415.2 592.4,409.4 589.1,377.6 592.1,374.4 
					589.5,373.9 587.5,373.9 				"/>
				<polygon fill="#153863" points="576.6,424.8 576.6,442.6 600.8,442.6 600.7,424.8 				"/>
				<polygon fill="#E6E6E6" points="596.6,364.3 578.4,364.8 578.7,367.6 595.5,367.2 				"/>
				<polygon fill="#333333" points="580.8,348.4 579.1,350.8 582.6,353.3 584.4,350.9 				"/>
				<polygon fill="#333333" points="587.3,353 585.3,355.3 588.9,357.9 590.8,355.5 				"/>
				<path fill="#876345" d="M611.4,377.7l-21.9-14.2v-2.3c2.1-0.5,3.6-2.4,3.6-4.6c0-1.3-0.5-2.5-1.4-3.5c-0.9-0.9-2.2-1.5-3.5-1.5
					c-1.6,0-3.1,0.8-4,2.2c-0.3,0.5-0.2,1.3,0.4,1.7s1.3,0.3,1.7-0.3c0.5-0.7,1.3-1.2,2.1-1.2c0.6,0,1.2,0.2,1.6,0.7
					c0.4,0.4,0.7,1,0.7,1.6c0,1.4-1.2,2.5-2.5,2.5c-0.1,0-0.1,0-0.2,0c-0.1,0-0.2,0-0.2,0c-0.1,0-0.1,0.1-0.2,0.1
					c-0.1,0-0.1,0.1-0.2,0.1s-0.1,0.1-0.1,0.2c0,0.1-0.1,0.1-0.1,0.2c0,0.1,0,0.2,0,0.2c0,0.1,0,0.1,0,0.2v3.4l-21.4,13.7
					c-0.5,0.3-0.7,1.1-0.3,1.7c0.2,0.3,0.6,0.5,1,0.6c0.2,0,0.5,0,0.7-0.2l21.3-13.6l21.8,14.2c0.6,0.4,1.3,0.2,1.6-0.3
					C612.1,378.9,611.9,378.1,611.4,377.7z"/>
				<polygon fill="#333333" points="590.3,355.1 588.4,357.5 591.9,360 593.8,357.7 				"/>
				<polygon fill="#1C4280" points="588.6,418 588.6,399.4 574,369 569.5,370.3 569.5,430.2 583.1,430.1 				"/>
				<polygon fill="#193E72" points="588.1,418.9 588.1,400.3 602,369 607.8,370.3 607.8,430.2 596.6,430.1 				"/>
				<polygon fill="#1C4280" points="558.2,376.5 561.6,393.3 572.2,392.7 569.5,370.3 				"/>
				<polygon fill="#F2F2F2" points="610.3,428.5 618,428.5 617.9,398.5 610.3,386 				"/>
				<polygon fill="#193E72" points="609,426.8 619.2,426.8 619.1,377.2 609,376.5 				"/>
				<polygon fill="#193E72" points="613.4,377.2 612.8,392.2 603.3,392.9 604.3,370.3 				"/>
				<polygon fill="#193E72" points="618.2,377 617.5,392 605.8,392.7 606.9,370.1 				"/>
				<polygon fill="#193E72" points="588.6,399.4 575.3,382.8 577.6,380.5 573.8,379.4 572.8,369.4 574,369 				"/>
				<polygon fill="#1C4280" points="588.6,399.4 602.8,379.9 600.4,378.2 604.7,376.9 603.6,369.5 602,369 				"/>
				<polygon fill="#F2F2F2" points="578.4,364.8 574,369 577.7,378.6 587.5,373.9 581.1,367.5 				"/>
				<polygon fill="#F2F2F2" points="595.1,364.3 599.6,369 596.8,378.7 589.3,373.9 593.3,367.1 				"/>
				<path fill="#1C4280" d="M590,403c0,0.5-0.2,1-0.6,1c-0.2,0-0.6-0.4-0.6-1s0.2-1,0.6-1C589.7,402.1,590,402.5,590,403z"/>
				<path fill="#1C4280" d="M590.1,413.6c0,0.5-0.2,1-0.6,1c-0.2,0-0.6-0.4-0.6-1c0-0.6,0.2-1,0.6-1
					C589.9,412.6,590.1,413.1,590.1,413.6z"/>
				<polygon fill="#F2F2F2" points="597.7,390.1 597.7,391.1 603.6,391.1 603.6,390.1 				"/>
			</g>
			<polygon fill="#CCCCCC" points="552.1,458.2 628.8,458.1 628.8,454.2 552.1,454.4 			"/>
			<polygon fill="#808080" points="528.1,322.6 528.1,473.5 549.3,489 549.3,338.1 			"/>
			<polygon fill="#CCCCCC" points="549.3,489 553.3,489 553.3,341.9 549.3,341.9 			"/>
			<polygon fill="#CCCCCC" points="549.3,341.9 632.6,341.8 632.6,337.9 549.3,338.1 			"/>
			<polygon fill="#CCCCCC" points="549.3,485.2 632.6,485 632.6,481.2 549.3,481.4 			"/>
			<polygon fill="#CCCCCC" points="628.8,488.8 632.6,488.8 632.6,341.8 628.8,341.8 			"/>
		</g>
		<g id="gauc">
			<polygon fill="#F9E78F" points="394.7,468.3 456.8,473.6 516.9,468.1 533.9,443.4 485.8,418.4 486.3,395.1 355.3,389 
				358.8,455.5 			"/>
			<polygon id="lava_strana_33_" fill="#AF6610" points="355.3,421.8 355.3,389 364.1,395.4 364.1,428.2 			"/>
			<g>
				<polygon fill="#CCCCCC" points="377.7,499.3 384.7,499.3 384.7,495.9 377.7,495.9 				"/>
				<polygon fill="#4D4D4D" points="372,491.7 372,495.2 377.7,499.3 377.7,495.9 				"/>
			</g>
			<g>
				<polygon fill="#CCCCCC" points="344,474.8 348.8,474.8 344,471.3 				"/>
				<polygon fill="#4D4D4D" points="338.3,467.2 338.3,470.7 344,474.8 344,471.3 				"/>
			</g>
			<polygon id="lava_strana_29_" fill="#AF6610" points="477.5,439.5 477.5,414.9 516.9,443.5 516.9,468.1 			"/>
			<g>
				<polygon fill="#CCCCCC" points="526.9,499.1 533.9,499.1 533.9,495.5 526.9,495.6 				"/>
				<polygon fill="#4D4D4D" points="526.9,495.6 522.1,495.6 526.9,499.1 				"/>
			</g>
			<polygon id="lava_strana_28_" fill="#F9E78F" points="494.6,414.9 477.5,414.9 516.9,443.5 533.9,443.4 			"/>
			<polygon fill="#F2BB4C" points="364.1,446.1 486.3,445.9 486.3,395.1 364.1,395.4 			"/>
			<polygon fill="#F9E78F" points="477.5,388.8 355.3,389 364.1,395.4 486.3,395.1 			"/>
			<polygon id="lava_strana_27_" fill="#AF6610" points="338.3,467.2 338.3,415.2 377.7,443.8 377.7,495.9 			"/>
			<polygon id="lava_strana_26_" fill="#F9E78F" points="355.3,415.2 338.3,415.2 377.7,443.8 394.7,443.8 			"/>
			<polygon fill="#F2BB4C" points="516.9,443.5 516.9,468.1 394.7,468.3 394.7,443.8 377.7,443.8 377.7,468.3 377.7,495.9 
				533.9,495.5 533.9,469.3 533.9,468.1 533.9,443.4 			"/>
		</g>
		<g id="stolik">
			<g>
				<polygon fill="#52CEE2" points="490,546.1 494.4,546.1 494.4,513.5 490,513.5 				"/>
				<polygon fill="#218A9B" points="486.6,511 486.6,543.6 490,546.1 490,513.5 				"/>
			</g>
			<g>
				<polygon fill="#52CEE2" points="469.6,531.2 473.8,531.2 473.8,501.8 469.6,498.6 				"/>
				<polygon fill="#218A9B" points="466,496 466,528.6 469.6,531.2 469.6,498.6 				"/>
			</g>
			<g>
				<polygon fill="#218A9B" points="512.2,513.5 512.2,528.5 515.7,531.1 515.7,513.4 				"/>
				<polygon fill="#52CEE2" points="515.7,531.1 520.1,531.1 520.1,513.4 515.7,513.4 				"/>
			</g>
			<g>
				<polygon fill="#52CEE2" points="534.7,546 539.1,546 539.1,513.4 534.7,513.4 				"/>
				<polygon fill="#218A9B" points="531.3,513.4 531.3,543.5 534.7,546 534.7,513.4 				"/>
			</g>
			<polygon fill="#52CEE2" points="490,513.5 539.1,513.4 539.1,504.8 490,504.9 			"/>
			<polygon fill="#92F5FF" points="490,504.9 539.1,504.8 515.1,487.3 466,487.4 			"/>
			<polygon id="lava_strana_13_" fill="#218A9B" points="466,496 466,487.4 490,504.9 490,513.5 			"/>
		</g>
		<path id="predna_strana_3_" fill="#685443" d="M268.1,594.9h77.5l46.1-4.7l34.9,4.7l57-3.1l19,3.1l96.1,1l74.1-2.1l107.2,1.1v5.8
			H268.1V594.9L268.1,594.9z"/>
		<g id="kufor">
			<path fill="#4D555B" d="M695.4,537.3l-1.9-1.3c-0.9-0.9-2.1-1.4-3.5-1.3c-2.6,0.2-4.7,2.5-4.7,5.2c0,1.7,0.9,3.1,2.3,3.8v0.1
				l1.9,1.4v-0.9c0.2,0,0.4,0,0.5,0c2.6-0.2,4.7-2.5,4.7-5.2c0-0.3,0-0.6-0.1-0.9l0.7,0.5L695.4,537.3L695.4,537.3L695.4,537.3z"/>
			<g>
				<path fill="#83898C" d="M697.5,541.1c0,2.6-2.1,4.9-4.7,5.2c-2.6,0.2-4.7-1.7-4.7-4.3s2.1-4.9,4.7-5.2
					C695.4,536.5,697.5,538.5,697.5,541.1z"/>
			</g>
			<polygon fill="#4D555B" points="655.7,530.7 655.7,537.2 665.8,544.4 666.5,537.4 			"/>
			<polygon fill="#706D72" points="676,471.8 648.9,471.9 667.7,540.2 694.8,485.5 			"/>
			<polygon fill="#83898C" points="667.3,537.4 665.8,537.4 665.8,544.4 667.3,544.4 			"/>
			<polygon fill="#2B292D" points="648.9,471.9 648.9,526.5 667.7,540.2 667.7,485.6 			"/>
			<polygon fill="#ADAAAF" points="671.3,473.5 680.7,482.5 688.2,480.1 678.9,473.3 			"/>
			<polygon fill="#83898C" points="688.2,480.1 680.7,480.3 680.7,482.5 688.2,482.4 			"/>
			<polygon fill="#4D555B" points="671.3,473.5 671.3,475.7 680.7,482.5 680.7,480.3 			"/>
			<path fill="#464149" d="M692.8,535.5c0.7-0.1,1.4,0,2.1,0.2v-50.2l-27.1,0.1v54.6h19.4C687.9,537.7,690.1,535.8,692.8,535.5z"/>
			<polygon fill="#706D72" points="673.9,452 682.2,461.5 686.1,458 677.8,451.9 			"/>
			<polygon fill="#4D555B" points="682,459.6 682,478.6 682.9,479.3 683.2,471.3 682.9,460.3 			"/>
			<polygon fill="#83898C" points="684.4,460.3 682.9,460.3 682.9,479.3 684.4,479.3 			"/>
			<polygon fill="#4D555B" points="675.4,454.9 675.4,473.9 676.4,474.6 676.7,466.6 676.4,455.6 			"/>
			<polygon fill="#83898C" points="677.9,455.6 676.4,455.6 676.4,474.6 677.9,474.6 			"/>
			<polygon fill="#464149" points="686.1,458 682.2,458.1 682.2,461.5 686.1,461.4 			"/>
			<polygon fill="#2B292D" points="673.9,452 673.9,455.5 682.2,461.5 682.2,458.1 			"/>
		</g>
	</g>
	<g id="rura">
		<polygon id="diera" fill="#3A706F" points="10.8,589.2 34.2,602.4 82,602.4 105.5,589.2 82,575.2 34.2,575.2 		"/>
		<polygon id="tien_1_" fill="#8FE2E2" points="105.5,582.5 105.5,589.2 82,603.4 224.1,603 187.7,574.9 92.6,574.8 		"/>
		<g id="rura1_1_">
			<g>
				<g>
					<polygon opacity="0.4" fill="#95AAAF" enable-background="new    " points="34.2,568.5 82,568.5 105.5,582.5 105.5,589.2 
						82,575.2 34.2,575.2 10.8,589.2 10.8,582.5 					"/>
					<polygon fill="#95AAAF" points="34.2,603.4 82,603.4 105.5,589.2 105.5,582.5 82,596.7 34.2,596.8 10.8,582.5 10.8,589.2 					
						"/>
				</g>
				<polygon opacity="0.6" fill="#91A9AA" enable-background="new    " points="10.8,533.4 10.8,582.5 34.2,603.4 82,603.4 
					105.5,582.5 105.5,527.9 215.5,527.9 229.4,504.6 229.4,457.5 215.5,434 105.5,434 105.5,377.5 82,391.6 34.2,391.7 10.8,377.5 
					10.8,439.6 				"/>
				<polygon id="lava_predna_12_" opacity="0.2" fill="#FFFFFF" enable-background="new    " points="105.5,589.2 105.5,527.9 
					82,504.6 82,603.4 				"/>
			</g>
			<polygon id="prava_zadna_13_" opacity="0.3" fill="#465051" enable-background="new    " points="34.2,391.7 34.2,603.4 
				10.8,589.2 10.8,377.5 			"/>
		</g>
		<g id="rura2_1_">
			<g>
				<g>
					<polygon opacity="0.4" fill="#95AAAF" enable-background="new    " points="34.2,357 82,356.9 105.5,370.9 105.5,377.6 
						82,363.5 34.2,363.8 10.8,377.6 10.8,371 					"/>
					<polygon fill="#95AAAF" points="34.2,391.9 82,391.8 105.5,377.6 105.5,370.9 82,385.1 34.2,385.2 10.8,371 10.8,377.6 					
						"/>
				</g>
				<polygon id="stredna_predna_1_" opacity="0.6" fill="#91A9AA" enable-background="new    " points="34.2,176.2 10.8,161.9 
					10.8,371 34.2,391.9 82,391.8 105.5,370.9 105.5,161.9 82,176.1 				"/>
				<polygon id="lava_predna_1_" opacity="0.2" fill="#FFFFFF" enable-background="new    " points="105.5,161.9 105.5,377.6 
					82,391.8 82,176.1 				"/>
			</g>
			<polygon id="prava_zadna_2_" opacity="0.3" fill="#465051" enable-background="new    " points="34.2,176.2 34.2,391.9 
				10.8,377.6 10.8,161.9 			"/>
		</g>
		<g id="rura3_1_">
			<g>
				<polygon opacity="0.4" fill="#95AAAF" enable-background="new    " points="34.2,141.2 82,141.1 105.5,155.2 105.5,161.9 
					82,147.8 34.2,148.1 10.8,161.9 10.8,155.2 				"/>
				<polygon fill="#95AAAF" points="34.2,176.1 82,176.1 105.5,161.9 105.5,155.2 82,169.4 34.2,169.5 10.8,155.2 10.8,161.9 				
					"/>
			</g>
			<polygon opacity="0.6" fill="#91A9AA" enable-background="new    " points="10.8,0 10.8,155.2 34.2,176.1 82,176.1 105.5,155.2 
				105.5,0 			"/>
			<polygon opacity="0.2" fill="#FFFFFF" enable-background="new    " points="82,0 82,176.1 105.5,161.9 105.5,0 			"/>
			<polygon id="prava_zadna_1_" opacity="0.3" fill="#465051" enable-background="new    " points="34.2,0 34.2,176.2 10.8,161.9 
				10.8,0 			"/>
		</g>
		<polygon opacity="0.2" fill="#FFFFFF" enable-background="new    " points="215.5,434 105.5,434 105.5,377.5 82,391.6 82,457.5 
			229.4,457.5 		"/>
		<polygon id="lava_predna_9_" opacity="0.3" fill="#465051" enable-background="new    " points="215.5,527.9 105.5,527.9 
			82,504.6 229.4,504.6 		"/>
		<g id="bocnarura">
			<polygon opacity="0.4" fill="#95AAAF" enable-background="new    " points="208.8,434 215.5,434 200.8,457.5 200.8,504.6 
				215.5,527.9 208.8,527.9 194.7,504.6 194.7,457.5 			"/>
			<polygon fill="#95AAAF" points="215.5,434 208.8,434 222.5,457.5 222.5,504.6 208.8,527.9 215.5,527.9 229.5,504.6 229.4,457.5 
							"/>
		</g>
	</g>
	<g id="fan">
		<g id="poloha1">
			<g id="lopatky1">
				<g>
					<g>
						<polygon fill="#353535" points="433.5,286.8 397,286.9 397,288.9 433.5,288.9 						"/>
					</g>
				</g>
				<polygon fill="#666666" points="395.6,285.9 397,286.9 433.3,286.8 432,285.8 				"/>
				<polygon fill="#808080" points="406.7,280.5 404.2,280.5 420.5,292.4 423,292.4 				"/>
				<polygon fill="#333333" points="420.5,292.3 404.2,280.5 404.2,282.6 420.5,294.3 				"/>
				<polygon fill="#F2F2F2" points="383.2,258.3 371.5,258.3 401.9,280.6 413.6,280.6 				"/>
				<polygon fill="#7F7973" points="371.5,258.3 371.5,260.2 401.9,282.5 401.9,280.6 				"/>
				<polygon fill="#CCCCCC" points="401.9,280.6 401.9,282.5 413.6,282.5 413.6,280.6 				"/>
				<polygon fill="#F2F2F2" points="495,283.2 426.8,283.2 431.5,286.7 499.7,286.7 				"/>
				<polygon fill="#ADADAD" points="499.7,288.5 499.7,286.7 431.5,286.7 431.5,288.5 				"/>
				<polygon fill="#7F7973" points="431.5,288.5 431.5,286.7 426.8,283.2 426.8,285.1 				"/>
				<polygon fill="#F2F2F2" points="396.1,283.2 329.2,283.2 333.9,286.7 400.8,286.7 				"/>
				<polygon fill="#ADADAD" points="400.8,288.5 400.8,286.7 333.9,286.7 333.9,288.5 				"/>
				<polygon fill="#7F7973" points="333.9,288.5 333.9,286.7 329.2,283.2 329.2,285.2 				"/>
				<polygon fill="#F2F2F2" points="428.2,291 416.5,291 446.5,312.8 458.2,312.8 				"/>
				<polygon fill="#7F7973" points="416.5,291 416.5,292.9 446.5,314.7 446.5,312.8 				"/>
				<polygon fill="#ADADAD" points="446.5,312.8 446.5,314.7 458.2,314.7 458.2,312.8 				"/>
			</g>
		</g>
		<g id="poloha2">
			<g id="lopatky2">
				<polygon fill="#666666" points="394.5,282.7 393.8,283.8 411.8,288.2 435.1,291.2 435.7,290.1 				"/>
				<g>
					<g>
						<polygon fill="#353535" points="435.1,291.2 393.8,283.8 393.8,285.8 435.1,293.2 						"/>
					</g>
				</g>
				<polygon fill="#666666" points="409.8,292.3 412,292.6 415.1,288 419.5,279 417.2,278.6 				"/>
				<g>
					<g>
						<polygon fill="#353535" points="419.5,279 412,292.6 412,294.6 419.5,281 						"/>
					</g>
				</g>
				<polygon fill="#F2F2F2" points="419.9,291 405.4,288.9 395.4,308 409.9,310 				"/>
				<polygon fill="#DDDDDD" points="419.8,291 419.8,292.9 409.9,311.9 409.9,310 				"/>
				<polygon fill="#969292" points="395.4,308 395.4,309.9 409.9,311.9 409.9,310 				"/>
				<polygon fill="#F2F2F2" points="434.5,262.9 420.1,260.8 409.8,280.4 424.3,282.4 				"/>
				<polygon fill="#DDDDDD" points="434.5,262.9 434.5,264.8 424.3,284.3 424.3,282.4 				"/>
				<polygon fill="#969292" points="409.8,280.4 409.8,282.3 424.3,284.3 424.3,282.4 				"/>
				<polygon fill="#F2F2F2" points="505.2,298.9 432.1,286.8 429.5,290.8 502.6,302.9 				"/>
				<polygon fill="#969292" points="502.6,304.7 502.6,302.9 429.5,290.8 429.5,292.7 				"/>
				<polygon fill="#F2F2F2" points="398.7,281.1 325.6,268.8 323,272.8 396.1,285.1 				"/>
				<polygon fill="#969292" points="396.1,286.9 396.1,285.1 323,272.8 323,274.7 				"/>
				<polygon fill="#CCCCCC" points="502.6,304.7 502.6,302.9 505.2,298.9 505.2,300.7 				"/>
				<polygon fill="#CCCCCC" points="396.1,286.9 396.1,285.1 398.7,281.1 398.7,282.9 				"/>
			</g>
		</g>
		<g id="poloha3">
			<g id="lopatky3">
				<polygon fill="#666666" points="399.3,281.6 397,282 414.1,288.3 431,293.3 433.3,292.8 				"/>
				<g>
					<polygon fill="#353535" points="431,293.3 397,282 397,284.1 431,295.3 					"/>
				</g>
				<polygon fill="#666666" points="402.8,289.3 405.1,290 419.3,287.8 430.5,284 428.2,283.2 				"/>
				<g>
					<g>
						<polygon fill="#353535" points="430.5,284 405.1,290 405.1,292.1 430.5,286 						"/>
					</g>
				</g>
				<polygon fill="#F2F2F2" points="408.6,291 398.8,287.7 355.5,296.5 365.3,299.8 				"/>
				<polygon fill="#D3D3D3" points="408.6,291 408.6,292.9 365.2,301.7 365.2,299.8 				"/>
				<polygon fill="#848383" points="355.5,296.5 355.5,298.4 365.3,301.7 365.3,299.8 				"/>
				<polygon fill="#F2F2F2" points="478.9,275.2 469.2,271.8 421.6,282.2 431.3,285.5 				"/>
				<polygon fill="#D3D3D3" points="478.9,275.2 478.9,277 431.3,287.4 431.3,285.5 				"/>
				<polygon fill="#848383" points="421.6,282.2 421.6,284.1 431.3,287.4 431.3,285.5 				"/>
				<polygon fill="#F2F2F2" points="404.6,280.6 345.4,260.8 336.9,262.2 396.1,282 				"/>
				<polygon fill="#848383" points="396.1,283.8 396.1,282 336.9,262.2 336.9,264.1 				"/>
				<polygon fill="#D3D3D3" points="478.6,311.2 478.6,309.4 487.1,308 487.1,309.8 				"/>
				<polygon fill="#F2F2F2" points="487.1,308 431.8,289.6 423.3,291 478.6,309.4 				"/>
				<polygon fill="#848383" points="478.6,311.2 478.6,309.4 423.3,291 423.3,292.9 				"/>
				<polygon fill="#CCCCCC" points="396.1,283.8 396.1,282 404.6,280.6 404.6,282.4 				"/>
			</g>
		</g>
		<g>
			<path fill="#383838" d="M422.3,282.2c0.2-0.4,0-0.8-0.6-1.2c-1.8-1.3-6.4-2.3-10.4-2.3c-2.9,0-4.7,0.6-4.6,1.4l0,0v4.5
				c0,0.3,0.2,0.6,0.7,1c1.8,1.3,6.4,2.3,10.4,2.3c3,0,4.7-0.6,4.6-1.5L422.3,282.2z"/>
			<path fill="#302F2F" d="M424.6,275.8h-9.1v-2.4h-11v5.8l0,0c0,0.4,0.2,0.8,0.9,1.3c2.3,1.7,8.2,3,13.3,3c3.8,0,6-0.8,5.9-1.9l0,0
				V275.8L424.6,275.8z"/>
			<path fill="#808080" d="M423.7,274.6c2.3,1.7,0,3-5,3s-11-1.3-13.3-3c-2.3-1.7,0-3,5-3C415.5,271.6,421.4,273,423.7,274.6z"/>
			<polygon fill="#333333" points="412.6,253.7 412.6,274.6 413.8,275.5 413.8,254.5 			"/>
			<polygon fill="#4D4D4D" points="416.5,254.5 413.8,254.5 413.8,275.5 416.5,275.5 			"/>
			<polygon fill="#CCCCCC" points="416.4,254.4 415.2,253.6 412.5,253.6 413.7,254.4 			"/>
		</g>
	</g>
</g>
<g id="lamp">
	<g id="off">
		<polygon id="vrch_svetla_2_" fill="#EF6F81" points="670,394 636.9,394 657.2,437.7 690.3,408.7 		"/>
		<polygon id="prava_strana_svetla_2_" fill="#E53871" points="657.2,437.7 690.3,437.7 690.3,408.7 657.2,408.7 		"/>
		<polygon id="lava_strana_svetla_2_" fill="#A52153" points="636.9,394 636.9,422.9 657.2,437.7 657.2,408.7 		"/>
	</g>
	<g id="on" display="none">
		<polygon id="vrch_svetla_7_" display="inline" fill="#ECBB77" points="670,394 636.9,394 657.2,437.7 690.3,408.7 		"/>
		<polygon id="vrch_svetla_8_" display="inline" opacity="0.4" fill="#EAED70" enable-background="new    " points="673.4,566.1 
			625.8,567.9 655.5,590.6 665,589.6 675.1,589.3 699.9,589.6 682.9,573 		"/>
		<polygon id="prava_strana_svetla_5_" display="inline" fill="#E19E4F" points="657.2,437.7 690.3,437.7 690.3,408.7 657.2,408.7 
					"/>
		<polygon id="lava_strana_svetla_6_" display="inline" fill="#A46935" points="636.9,394 636.9,422.9 657.2,437.7 657.2,408.7 		
			"/>
	</g>
	<g id="construction">
		<g id="podstavec_2_">
			<polygon id="vrch_1_" fill="#666666" points="745,575.2 753.4,575.4 761.5,575.2 760.5,574.5 744,574.5 			"/>
			<polygon id="spodna_hrna_2_" fill="#333333" points="745,576.7 761.5,576.7 761.5,575.2 745,575.2 			"/>
		</g>
		<polygon fill="#808080" points="663.2,401.2 664.8,388.8 689.8,388.1 687.8,386.7 661.2,386.7 		"/>
		<g id="podstavec_1_">
			<polygon id="spodna_hrna_1_" fill="#333333" points="711.9,584.6 755.7,584.6 755.7,582.9 711.9,582.9 			"/>
			<polygon id="vrch_2_" fill="#666666" points="711.9,582.9 755.7,582.9 734.2,567.3 690.4,567.3 			"/>
			<polygon id="lava_strana_1_" points="690.4,569 690.4,567.3 711.9,582.9 711.9,584.6 			"/>
		</g>
		<polygon fill="#1A1A1A" points="720.3,423.3 720.3,573.9 722.3,575.3 722.3,424.7 		"/>
		<polygon fill="#1A1A1A" points="661.2,386.7 661.2,399.8 663.2,401.2 663.2,388.1 		"/>
		<polygon fill="#1A1A1A" points="720.3,423.3 722.3,424.7 688.7,390.6 688.2,390.6 		"/>
		<polygon fill="#4D4D4D" points="689.8,388.1 663.2,388.1 663.2,390.8 663.2,401.2 665.6,401.2 665.6,390.6 688.7,390.6 
			722.3,424.7 722.3,575.3 724.7,575.3 724.7,423.9 		"/>
	</g>
</g>
<g id="owl">
	<g id="body">
		<polygon fill="#595955" points="590.1,328.7 590.1,331.3 596.1,335.8 595.4,332.7 		"/>
		<polygon fill="#CCCCCA" points="590.1,328.7 595,328.7 600.3,332.7 595.4,332.7 		"/>
		<polygon fill="#AFAFAC" points="596.1,335.8 601.1,335.8 600.3,332.7 595.4,332.7 		"/>
		<polygon fill="#7C6942" points="598.7,307.6 600.7,314.9 607.7,320.1 598.6,305.9 		"/>
		<polygon fill="#AA966D" points="598.6,305.9 607.7,320.1 610.2,318.8 601.1,304.6 		"/>
		<polygon fill="#595955" points="570.4,328.7 570.4,331.3 576.5,335.8 575.7,332.7 		"/>
		<polygon fill="#CCCCCA" points="570.4,328.7 575.4,328.7 580.6,332.7 575.7,332.7 		"/>
		<polygon fill="#AFAFAC" points="576.5,335.8 581.4,335.8 580.6,332.7 575.7,332.7 		"/>
		<polygon points="577,298 580.5,298 580.5,292.8 577,292.8 		"/>
		<polygon points="592.8,298 596.4,298 596.4,292.8 592.8,292.8 		"/>
		<polygon points="577,298 580.5,298 580.5,292.8 577,292.8 		"/>
		<polygon fill="#776540" points="561.3,273.1 558.8,324.5 569.1,331.9 572.5,309.3 571.5,280.7 		"/>
		<polygon fill="#AA966D" points="560.8,301 552.2,315 559.2,320.1 567.7,306.2 		"/>
		<polygon fill="#8E7A51" points="558.7,299.5 550.2,313.6 557.2,318.6 565.7,304.7 		"/>
		<polygon fill="#E2D5B5" points="591.3,273.1 561.3,273.1 571.5,280.7 586,284.5 601.5,280.7 		"/>
		<path fill="#BCAA79" d="M601.5,280.7h-30l-2.5,51.2h35L601.5,280.7z M583.9,303.5h-10.2v-17.1h10.2V303.5z M589.4,303.5v-17.1
			h10.3v17.1H589.4z"/>
		<polygon fill="#896B21" points="584.1,307.4 584.1,312.5 586.4,314.1 585.4,310.1 		"/>
		<polygon fill="#E2C139" points="584.1,307.4 589.3,307.4 590.5,310.1 585.4,310.1 		"/>
		<polygon fill="#E8C949" points="586.4,314.1 591.5,314.1 590.5,310.1 585.4,310.1 		"/>
	</g>
	<g id="opened">
		<rect x="589" y="303" fill="#A8986D" width="11.3" height="0.8"/>
		<rect x="573.2" y="303" fill="#A8986D" width="11.3" height="0.8"/>
		<rect x="589" y="286" fill="#D1C199" width="11.3" height="0.8"/>
		<rect x="573.2" y="286" fill="#D1C199" width="11.3" height="0.8"/>
	</g>
	<g id="closed" display="none">
		<rect x="589" y="297.4" display="inline" fill="#A8986D" width="11.3" height="6.4"/>
		<rect x="573.2" y="297.4" display="inline" fill="#A8986D" width="11.3" height="6.4"/>
		<rect x="589" y="286" display="inline" fill="#D1C199" width="11.3" height="11.4"/>
		<rect x="573.2" y="286" display="inline" fill="#D1C199" width="11.3" height="11.4"/>
	</g>
</g>
<g id="postava_biznis" style="display:none!important">
	<path fill="#543C36" d="M414.1,499c5.2,8.3,13.1,23.1,15.6,32.5c1.1,4.4-1.3,7.1-3.3,8c-6.4,3-4.3-9-8.8-21.6
		c-2.6-7.2-4-10.8-8.2-16.3c-2.9-3.8-4-6.1-2.5-7.2C408.7,493.3,411.9,495.6,414.1,499z"/>
	<g id="taska">
		<g id="vrch_lampy_1_">
			<polygon id="vrch_svetla_3_" fill="#706D72" points="422.2,535.6 411.1,535.6 426,575 437.1,546.4 			"/>
			<polygon id="prava_strana_svetla_4_" fill="#464149" points="426,575 437.1,575 437.1,546.4 426,546.4 			"/>
			<polygon id="lava_strana_svetla_3_" fill="#323133" points="411.1,535.6 411.1,564.1 426,575 426,546.4 			"/>
		</g>
		<g id="vrch_lampy_5_">
			<polygon id="vrch_svetla_5_" fill="#706D72" points="423.7,530.6 418.8,530.6 420,539.8 424.9,531.5 			"/>
			<polygon id="prava_strana_svetla_6_" fill="#464149" points="420,539.8 424.9,539.8 424.9,531.5 420,531.5 			"/>
			<polygon id="lava_strana_svetla_5_" fill="#323133" points="418.8,530.6 418.8,538.9 420,539.8 420,531.5 			"/>
			<g id="vrch_lampy_4_">
				<polygon id="vrch_svetla_4_" fill="#706D72" points="429,534.4 424.2,534.4 425.4,543.6 430.3,535.3 				"/>
				<polygon id="prava_strana_svetla_3_" fill="#464149" points="425.4,543.6 430.3,543.6 430.3,535.3 425.4,535.3 				"/>
				<polygon id="lava_strana_svetla_4_" fill="#323133" points="424.2,534.4 424.2,542.7 425.4,543.6 425.4,535.3 				"/>
			</g>
		</g>
		<g id="vrch_lampy_3_">
			<polygon id="vrch_svetla_1_" fill="#706D72" points="423.7,530.6 418.8,530.6 425.4,539.4 430.3,535.3 			"/>
			<polygon id="prava_strana_svetla_1_" fill="#464149" points="425.4,539.4 430.3,539.4 430.3,535.3 425.4,535.3 			"/>
			<polygon id="lava_strana_svetla_1_" fill="#323133" points="418.8,530.6 418.8,534.6 425.4,539.4 425.4,535.3 			"/>
		</g>
	</g>
	<ellipse opacity="0.1" enable-background="new    " cx="368.8" cy="572.1" rx="43.8" ry="6.7"/>
	<path fill="#543C36" d="M383.1,572.3c0.3-1.1,14.9-34.8,4.2-54.2c-9.5-17.2-29.5-18.4-31.5-18.4c0,0-2.7,1-2.1,5
		c0.4,2.9,3.3,3.5,3.3,3.5c3.6,0.1,11.9,4.2,17.3,16.6c7,16.1,5.4,42.6,5,47c-0.1,1.7,0.8,2.1,1.8,2.1
		C382,573.9,382.8,573.6,383.1,572.3z"/>
	<path fill="#896ACE" d="M395.7,457.1c0,0-3.6-14.3,8.5-21.3c4.4-2.6,6.7,2.3,2.8,4.8c-9.5,6.2-8.6,17.1-8.6,17.1s0.2,1.3-1.2,1.3
		C395.9,459.1,395.7,457.1,395.7,457.1z"/>
	<path fill="#B17DF4" d="M408.2,435.7c-0.8-0.7-2.2-0.9-3.9,0.1c-12.1,7-8.5,21.3-8.5,21.3s0,0,0,0.1c0.2,0.1,0.4,0.2,0.7,0.2
		c1.4,0,1.2-1.3,1.2-1.3s-0.9-10.9,8.6-17.1C407.7,438.1,408.3,436.8,408.2,435.7z"/>
	<path fill="#896ACE" d="M401.4,457.3c0,0,3.9-6.2,13.3-9.2c7.3-2.3,8.7,6,1.6,5.9c-6.2-0.1-13,7.1-13,7.1s-1.4,1.7-2.8,0.1
		C399.1,459.5,401.4,457.3,401.4,457.3z"/>
	<path fill="#B17DF4" d="M420,448.6c-1-0.9-2.8-1.3-5.3-0.6c-9.4,3-13.3,9.2-13.3,9.2s-1.1,1.1-1.3,2.3c1.2,0.7,2.2-0.5,2.2-0.5
		s6.8-7.2,13-7.1C418.5,452,420,450.3,420,448.6z"/>
	<path fill="#B17DF4" d="M403.5,461.2c-9.5-26.1-23.7-29.8-33.8-29.8v126c20.7,0,40.1-12.5,52-31.8
		C434,505.6,414.6,491.5,403.5,461.2z"/>
	<path fill="#896ACE" d="M336.2,461.2c9.5-26.1,23.7-29.8,33.8-29.8v126c-20.7,0-40.1-12.5-52-31.8
		C305.6,505.6,325.1,491.5,336.2,461.2z"/>
	<path fill="#B17DF4" d="M351.7,461.2c5.3-26.1,13.1-29.8,18.7-29.8v126c-11.5,0-22.3-12.5-28.9-31.8
		C334.7,505.6,345.5,491.5,351.7,461.2z"/>
	<path fill="#896ACE" d="M374,471.1c-11.4,0.4-25.2,7.5-28.6-3.6c-1.9-6.1-1.8-17,6.4-23.8c1.6-1.3,9.1-7.8,8.2-5.9
		c-0.8,1.7-0.3,1.9,1,1.6c13.4-2.9,30.8,4.1,30.9,18.2C392,471.8,383.5,470.8,374,471.1z"/>
	<path fill="#E2C6A8" d="M376.6,468.3c-9.5,0-22.8,2.9-25.7-6.5c-1.7-5.5-1.7-13.4,5.6-19.5c11.1-9.2,35.7-1,35.8,15.1
		C392.4,469.9,384.9,468.3,376.6,468.3z"/>
	<path fill="#F7E7D5" d="M392.3,457.3c-0.1-10.8-11.3-18.1-22-18.8c-3,0.1-5.7,1-7.9,2.8c-6.4,5.3-5.7,15-4.2,19.8
		c2.4,7.7,12,6.3,19.9,7.3C385.8,468.5,392.4,469.1,392.3,457.3z"/>
	<circle fill="#684033" cx="372.8" cy="459.2" r="3.7"/>
	<path fill="#543C36" d="M308.2,554.4c-2.8,0-5-1.8-4.9-4.7c0-0.9,0.5-17,8.6-31.6c7.1-12.9,11.2-17.7,12.7-17.7c0,0,2,0.8,1.6,3.7
		c-0.3,2.2-1.7,3.2-1.7,3.2c-0.9,1.2-2.1,3.3-6.2,12.6c-5.3,12.1-5.7,29-5.7,29.2c0,3.4-1,4.9-3.6,5.1
		C308.6,554.4,308.5,554.4,308.2,554.4z"/>
	<path fill="#896ACE" d="M384.2,530.1c-3.7,2-7.1,2.7-9.3,2.9c-2,0.2-5.8,0.3-9.9-1c-0.9-0.3-1.9,0-0.9,1.6
		c2.4,3.7,7.1,9.7,11.7,9.4l0,0h0.1h0.1l0,0c4.6-0.7,7.9-7.6,9.5-11.6C386.2,529.7,385.1,529.6,384.2,530.1z"/>
	<path opacity="0.2" fill="#FCFFD9" enable-background="new    " d="M372.4,512.2c5-1,8-2.4,9.7-3.7c1.9-1.5,1.4-3.3-0.1-3.1
		c-2.8,0.2-5.9,1.4-10.5,2.2c-3.9,0.6-8.3,1.4-11.5,2c-1,0.2-1.4,2.2,1,2.7c3.5,0.9,7.5,0.6,11.2,0l0,0L372.4,512.2L372.4,512.2
		L372.4,512.2z"/>
	<path fill="#896ACE" d="M340.4,456.1c0,0-5.7-6-16.2-6.3c-7.9-0.2-3.3,9.2,3.8,8c6.5-1,10.8,2.1,10.8,2.1s1.6,1.6,2.8-0.1
		C342.9,458.2,340.4,456.1,340.4,456.1z"/>
	<path fill="#B17DF4" d="M340.4,456.1c0,0-5.7-6-16.2-6.3c-2.6-0.1-3.9,0.9-4.1,2.2c0.9,2.3,3.9,4.5,7.6,3.9
		c6.5-1,10.8,2.1,10.8,2.1s1.6,1.6,2.8-0.1c0.1-0.1,0.2-0.3,0.2-0.5C341.2,456.7,340.4,456.1,340.4,456.1z"/>
	<path fill="#896ACE" d="M342.9,452c0,0-2.8-18-17.6-20c-5.4-0.7-5.4,6-0.6,6.9c11.9,2.3,15.9,15.2,15.9,15.2s0.4,1.6,1.7,0.9
		S342.9,452,342.9,452z"/>
	<path fill="#543C36" d="M352.6,572.4c-1-2.7-3.9-11.8-5.4-20.8c-0.6-4,11,0.9,10.1,3.8c-1.9,6.6-1.8,11.4-1.2,16.6
		c0.2,1.5-0.8,1.9-1.7,1.9C353.7,573.9,353.1,573.6,352.6,572.4z"/>
	<path fill="#352960" d="M371.2,517.3c-5.8,0.5-10.1-0.9-11.4,1.1c-1.6,2.5,0.6,4.9,4.5,7.5c2.6,1.7,6.1,0.1,9.7,0.1
		c3,0,6,1.7,8.4,0.6c4.8-2.2,11.1-10.7,5.6-13.3C383.8,511.3,379.9,516.5,371.2,517.3z"/>
	<path fill="#D86D4C" d="M382.3,526.6c-1.6-2.1-5.1-3.5-9.2-3.5c-3.7,0-6.9,1.2-8.6,2.9C369.3,529,377.1,529,382.3,526.6z"/>
	<path fill="#B17DF4" d="M325.3,432c-1.2-0.2-2.1,0-2.7,0.5c-0.8,1.9,0.3,4.6,3.2,5.2c11.9,2.3,15.9,15.2,15.9,15.2s0.3,1.3,1.3,1
		c0.2-0.9-0.1-1.9-0.1-1.9S340.1,434,325.3,432z"/>
	<path id="ofina1" fill="#3A2825" d="M344.2,446.3c0,0-4.1-15.2,4.1-19.8c4.3-2.4,10.4-0.1,10.4-0.1s2.9-11,15.6-7.6
		c6.5,1.7,18.3,0,25.8-11.5c0,0,6.4,32.4-21,29.3c-11.5-3.8-14.1,3-19.2-3c0,0-0.6,4.3-7.4,4.5C349.6,438.1,344.2,446.3,344.2,446.3
		z"/>
	<path id="ofina2" display="none" fill="#3A2825" d="M344.2,446.3c0,0-4.1-15.2,4.1-19.8c4.3-2.4,10.4-0.1,10.4-0.1s2.9-11,15.6-7.6
		c6.5,1.7,26.4,6.5,33.9-5c0,0-1.7,25.9-29.1,22.8c-11.5-3.8-14.1,3-19.2-3c0,0-0.6,4.3-7.4,4.5
		C349.6,438.1,344.2,446.3,344.2,446.3z"/>
	<path fill="#3A2825" d="M385,435.6c4.7,2.9,9.3,8.3,9.3,8.3s-0.4-6.9-7.2-12.7L385,435.6z"/>
	<circle fill="#E8E091" cx="309.4" cy="536.8" r="10.2"/>
	<circle fill="#3E4242" cx="309.4" cy="536.8" r="8.7"/>
	
		<rect x="310.7" y="529.9" transform="matrix(-0.9034 -0.4288 0.4288 -0.9034 363.9024 1147.4949)" fill="#E8E091" width="1" height="5.7"/>
	
		<rect x="311.8" y="536.1" transform="matrix(0.3665 -0.9304 0.9304 0.3665 -302.4884 631.2092)" fill="#E8E091" width="1" height="3.3"/>
	<circle fill="#7F7A55" cx="309.4" cy="536.8" r="1.9"/>
	<path fill="#543C36" d="M424.2,540.8v-2.3l-1.1-0.8c0,0-0.3-3-2.4-3.2C418.6,534.3,417.3,541.4,424.2,540.8z"/>
</g>
</svg>
