<?xml version="1.0" encoding="utf-8"?>
<!-- Generator: Adobe Illustrator 15.1.0, SVG Export Plug-In . SVG Version: 6.00 Build 0)  -->
<!DOCTYPE svg PUBLIC "-//W3C//DTD SVG 1.1//EN" "http://www.w3.org/Graphics/SVG/1.1/DTD/svg11.dtd">
<svg version="1.1" id="retaz" xmlns="http://www.w3.org/2000/svg" xmlns:xlink="http://www.w3.org/1999/xlink" x="0px" y="0px"
	 width="32.7px" height="144px" viewBox="0 0 32.7 144" enable-background="new 0 0 32.7 144" xml:space="preserve">
<path fill="#484D4C" d="M21.8,68.5c0.6-5.8,3-11.2,6.8-15.6c3.6-4.1,4.9-9.9,3.4-15.2c-0.8-2.7-2.3-4.8-4-6.9
	c-1.7-2.1-3.2-4.4-4.2-7c-2.2-5.2-2.7-11-1.6-16.5c0.5-2.5,1.4-5,2.6-7.3C19.1,0,13.5,0,7.9,0c5.3,10.2,3.7,22.8-3.8,31.4
	c-3.6,4.1-5,10-3.4,15.3c0.8,2.8,2.3,4.9,4.1,7.1c1.7,2.1,3,4.3,4.1,6.8c4.3,10.1,2,21.8-5.2,29.9c-3.5,3.9-4.4,10.1-2.9,15
	c0.8,2.7,2.4,4.8,4.2,6.9c1.7,2.1,3.1,4.5,4.1,7c3.3,8.1,2.5,17.6-2.1,25.1c6.3,0,12.5,0,18.8,0c-5.9-9.7-5.3-22.6,1.7-31.6
	c1.7-2.2,3.4-4.1,4.4-6.8c0.9-2.6,1.2-5.3,0.7-8c-0.4-2.7-1.5-5.2-3.2-7.3c-1.7-2.2-3.4-4.2-4.7-6.7C22.2,79.2,21.2,73.8,21.8,68.5
	C21.9,67.9,21.8,68.7,21.8,68.5z M16.3,103c-3.1,0-3.1-4.8,0-4.8C19.4,98.3,19.4,103,16.3,103C15,103,17.6,103,16.3,103z M16.3,44.5
	c-3.1,0-3.1-4.8,0-4.8C19.4,39.8,19.4,44.5,16.3,44.5C15,44.5,17.6,44.5,16.3,44.5z"/>
<path fill="#969696" d="M16.3,29.8c-6.8,0-12.4,5.5-12.4,12.4s5.5,12.4,12.4,12.4c6.8,0,12.4-5.5,12.4-12.4S23.2,29.8,16.3,29.8z
	 M16.3,47.6c-3,0-5.5-2.5-5.5-5.5c0-3,2.5-5.5,5.5-5.5c3,0,5.5,2.5,5.5,5.5C21.8,45.2,19.4,47.6,16.3,47.6z"/>
<path fill="#969696" d="M16.3,88.3c-6.8,0-12.4,5.5-12.4,12.4S9.5,113,16.3,113c6.8,0,12.4-5.5,12.4-12.4S23.2,88.3,16.3,88.3z
	 M16.3,106.1c-3,0-5.5-2.5-5.5-5.5c0-3,2.5-5.5,5.5-5.5c3,0,5.5,2.5,5.5,5.5C21.8,103.7,19.4,106.1,16.3,106.1z"/>
</svg>
