<?xml version="1.0" encoding="utf-8"?>
<?xml-stylesheet type="text/css" href="../css/svg_fix.css" ?>
<!-- Generator: Adobe Illustrator 15.1.0, SVG Export Plug-In . SVG Version: 6.00 Build 0)  -->
<!DOCTYPE svg PUBLIC "-//W3C//DTD SVG 1.1//EN" "http://www.w3.org/Graphics/SVG/1.1/DTD/svg11.dtd">
<svg version="1.1" id="Vrstva_1" xmlns="http://www.w3.org/2000/svg" xmlns:xlink="http://www.w3.org/1999/xlink" x="0px" y="0px"
	 width="204px" height="103.854px" viewBox="721.204 377.917 204 103.854" enable-background="new 721.204 377.917 204 103.854"
	 xml:space="preserve">
    <link rel="stylesheet" href="css/svg_fix.html"/>
<polygon fill="#94A8AF" points="908.513,382.863 853.5,391.667 803.731,392.753 757.368,377.917 721.204,416.862 750.501,470.644 
	776.005,472.976 803.731,481.771 847.333,473.667 889.735,471.571 925.204,413.957 "/>
<g>
	<polygon fill="#828F93" points="757.368,377.917 721.204,416.862 775.913,443.753 	"/>
	<polygon fill="#5C6A6D" points="750.501,470.644 721.204,416.862 775.913,443.753 	"/>
	<polygon fill="#CCDCE2" points="757.368,377.917 803.731,392.753 775.913,443.753 	"/>
	<polygon fill="#94A8AF" points="834.795,427.063 803.731,392.753 775.913,443.753 	"/>
	<polygon fill="#AEC3CE" points="834.795,427.063 803.731,392.753 908.513,382.863 	"/>
	<polygon fill="#75878E" points="834.795,427.263 881.667,417.167 925.204,414.157 889.735,471.771 	"/>
	<polygon fill="#617075" points="834.795,427.063 803.731,481.771 889.735,471.571 	"/>
	<polygon fill="#C7E1EA" points="834.795,427.063 925.204,413.957 908.513,382.863 	"/>
	<polygon fill="#516368" points="834.795,427.063 803.731,481.771 783.699,467.199 775.913,443.753 	"/>
	<polygon fill="#4B5960" points="750.501,470.644 803.731,481.771 775.913,443.753 	"/>
</g>
</svg>
