<?xml version="1.0" encoding="utf-8"?>
<!-- Generator: Adobe Illustrator 15.1.0, SVG Export Plug-In . SVG Version: 6.00 Build 0)  -->
<!DOCTYPE svg PUBLIC "-//W3C//DTD SVG 1.1//EN" "http://www.w3.org/Graphics/SVG/1.1/DTD/svg11.dtd">
<svg version="1.1" id="code" xmlns="http://www.w3.org/2000/svg" xmlns:xlink="http://www.w3.org/1999/xlink" x="0px" y="0px"
	 width="790px" height="640px" viewBox="0 0 790 640" enable-background="new 0 0 790 640" xml:space="preserve">
    <style>
        #right_top {
          cursor: pointer;
        }
        svg {
            width: 100%;
            height: 100%;
            position: absolute;
            top: 0;
            left: 0;
        }

        @-moz-document url-prefix() {
           svg {
               position: static;
               width: auto;
               height: auto;
           }
        }
    </style>
<g id="Vrstva_1_2_" >
	<g id="Vrstva_1_1_">
		<g id="RURY">
			<g id="bocnarura">
				<polygon opacity="0.4" fill="#95AAAF" enable-background="new    " points="595.8,498.4 595.8,545.5 581.7,568.7 575,568.7 
					589.7,545.5 589.7,498.4 575,474.8 581.7,474.8 				"/>
				<polygon fill="#95AAAF" points="561,498.4 561,545.5 575,568.7 581.7,568.7 568,545.5 568,498.4 581.7,474.8 575,474.8 				"/>
			</g>
			<polygon id="tien" fill="#B22B4B" points="697.9,575.6 573.9,575.6 568.5,604.3 708.5,604.3 685,590 685,583.3 			"/>
			<polygon id="diera" fill="#681833" points="756.3,576.1 708.5,576.1 685,590 708.5,603.2 756.3,603.2 779.7,590 			"/>
		</g>
	</g>
	<g id="RURY_kopie_1_">
		<g id="rura1_2_">
			<g>
				<g>
					<polygon opacity="0.4" fill="#95AAAF" enable-background="new    " points="779.7,583.3 779.7,590 756.3,576.1 708.5,576.1 
						685,590 685,583.3 708.5,569.3 756.3,569.3 					"/>
					<polygon fill="#95AAAF" points="779.7,590 779.7,583.3 756.3,597.6 708.5,597.5 685,583.3 685,590 708.5,604.3 756.3,604.3 
											"/>
				</g>
				<polygon opacity="0.6" fill="#91A9AA" enable-background="new    " points="779.7,440.5 779.7,378.3 756.3,392.5 708.5,392.4 
					685,378.3 685,474.8 575,474.8 561,498.4 561,545.5 575,568.7 685,568.7 685,583.3 708.5,604.3 756.3,604.3 779.7,583.3 
					779.7,534.3 				"/>
				<polygon id="lava_predna_12_" opacity="0.3" fill="#465051" enable-background="new    " points="708.5,604.3 708.5,545.5 
					685,568.7 685,590 				"/>
			</g>
			<polygon id="prava_zadna_5_" opacity="0.2" fill="#FFFFFF" enable-background="new    " points="779.7,378.3 779.7,590 
				756.3,604.3 756.3,392.5 			"/>
		</g>
		<g id="rura2_2_">
			<g>
				<g>
					<polygon opacity="0.4" fill="#95AAAF" enable-background="new    " points="779.7,371.8 779.7,378.4 756.3,364.6 708.5,364.3 
						685,378.4 685,371.8 708.5,357.8 756.3,357.8 					"/>
					<polygon fill="#95AAAF" points="779.7,378.4 779.7,371.8 756.3,386 708.5,385.9 685,371.8 685,378.4 708.5,392.6 756.3,392.8 
											"/>
				</g>
				<polygon id="stredna_predna_2_" opacity="0.6" fill="#91A9AA" enable-background="new    " points="708.5,176.9 685,162.8 
					685,371.8 708.5,392.6 756.3,392.8 779.7,371.8 779.7,162.8 756.3,177 				"/>
				<polygon id="lava_predna_3_" opacity="0.3" fill="#465051" enable-background="new    " points="708.5,176.9 708.5,392.6 
					685,378.4 685,162.8 				"/>
			</g>
			<polygon id="prava_zadna_4_" opacity="0.2" fill="#FFFFFF" enable-background="new    " points="779.7,162.8 779.7,378.4 
				756.3,392.8 756.3,177 			"/>
		</g>
		<g id="rura3_2_">
			<g>
				<polygon opacity="0.4" fill="#95AAAF" enable-background="new    " points="779.7,156 779.7,162.8 756.3,148.9 708.5,148.6 
					685,162.8 685,156 708.5,141.9 756.3,142 				"/>
				<polygon fill="#95AAAF" points="779.7,162.8 779.7,156 756.3,170.3 708.5,170.3 685,156 685,162.8 708.5,176.9 756.3,176.9 				
					"/>
			</g>
			<polygon opacity="0.6" fill="#91A9AA" enable-background="new    " points="685,0 685,156 708.5,176.9 756.3,176.9 779.7,156 
				779.7,0 			"/>
			<polygon opacity="0.3" fill="#465051" enable-background="new    " points="685,0 685,162.8 708.5,176.9 708.5,0 			"/>
			<polygon id="prava_zadna_3_" opacity="0.2" fill="#FFFFFF" enable-background="new    " points="779.7,0 779.7,162.8 756.3,177 
				756.3,0 			"/>
		</g>
	</g>
	<polygon opacity="0.3" fill="#465051" enable-background="new    " points="685,474.8 685,378.3 708.5,392.4 708.5,498.4 	"/>
	<polygon opacity="0.2" fill="#FFFFFF" enable-background="new    " points="575,474.8 685,474.8 708.5,498.4 561,498.4 	"/>
	<polygon id="lava_predna_9_" opacity="0.3" fill="#465051" enable-background="new    " points="561,545.5 708.5,545.5 685,568.7 
		575,568.7 	"/>
	<g id="tien_pod_kobercom">
		<polygon fill="#B22B4B" points="495.5,519.3 470.7,519 620.8,626.3 645.5,626.5 		"/>
		<polygon fill="#B22B4B" points="450.8,613.6 394.4,613.8 430.1,639 486.9,639 		"/>
		<polygon fill="#B22B4B" points="559.7,594.6 503.3,594.8 539,620 595.8,620 		"/>
		<polygon fill="#B22B4B" points="579.5,608.8 559.4,608.8 562.4,611 582.4,611 		"/>
		<polygon fill="#B22B4B" points="584.5,612 564.5,612 567.5,614.3 587.5,614.1 		"/>
		<polygon fill="#B22B4B" points="591,617.5 570.9,617.5 573.9,619.6 593.9,619.6 		"/>
		<polygon fill="#B22B4B" points="598.7,622.8 578.7,623 581.6,625 601.7,625 		"/>
		<polygon fill="#B22B4B" points="609.2,629.3 589.1,629.5 592.1,631.5 612.1,631.5 		"/>
		<polygon fill="#B22B4B" points="164.3,635.6 597.7,634.8 446.3,525.5 12.8,526.3 		"/>
	</g>
	<g id="Vrstva_22">
		<path id="predna_strana_136_" fill="#231F20" d="M208.3,404.5v84.3l10.8,10.3l5-34.5l-5-28l2.1-12.1L208.3,404.5z"/>
		<path id="predna_strana_133_" fill="#424445" d="M644.3,514.1v94.7h-20.1l-6.4-31.2l6.4-31.4l7.5-14.6L644.3,514.1z"/>
		<polygon fill="#8CC63F" points="255.2,283.3 258.9,283.6 258.9,412.1 255.2,411.8 		"/>
		<polygon fill="#3FA9F5" points="249.2,282.8 252.9,283.1 252.9,411.6 249.2,411.3 		"/>
		<polygon fill="#8CC63F" points="397.7,284.6 401.4,285 401.4,413.5 397.7,413.1 		"/>
		<polygon fill="#3FA9F5" points="391.7,284.1 395.4,284.4 395.4,412.9 391.7,412.6 		"/>
		<polygon fill="#8CC63F" points="515.8,300 518.3,300.3 518.3,428.8 515.8,428.5 		"/>
		<polygon fill="#3FA9F5" points="511.9,299.6 514.4,299.8 514.4,428.3 511.9,428.1 		"/>
		<polygon fill="#8CC63F" points="591.3,369.1 593.8,369.3 593.8,497.8 591.3,497.6 		"/>
		<polygon fill="#3FA9F5" points="587.3,368.8 589.8,368.9 589.8,497.5 587.3,497.3 		"/>
		<path id="predna_strana_302_" fill="#5B5F60" d="M208.3,404.5l282-0.3l10.7,32.2L470.2,498l-251.1-61.2L208.3,404.5z"/>
		<polygon fill="#3D393A" points="490.4,404.3 470.3,436.5 540.5,494 624.2,546.3 644.3,514.1 		"/>
		<g>
			<g>
				<g>
					<polygon fill="#B3B3B3" points="487.7,433.6 485.5,437.1 489.4,440 491.6,436.3 					"/>
					<polygon fill="#808080" points="491.6,436.3 489.4,440 489.4,441.5 491.6,438 					"/>
					<polygon fill="#333333" points="485.5,437.1 485.5,438.8 489.4,441.5 489.4,440 					"/>
				</g>
			</g>
			<g>
				<g>
					<polygon fill="#B3B3B3" points="494.6,438.5 492.4,442 496.3,444.8 498.5,441.3 					"/>
					<polygon fill="#808080" points="498.5,441.3 496.3,444.8 496.3,446.5 498.5,443 					"/>
					<polygon fill="#333333" points="492.4,442 492.4,443.8 496.3,446.5 496.3,444.8 					"/>
				</g>
			</g>
			<g>
				<g>
					<polygon fill="#B3B3B3" points="501.6,443.5 499.4,447 503.2,449.8 505.4,446.3 					"/>
					<polygon fill="#808080" points="505.4,446.3 503.2,449.8 503.2,451.5 505.4,448 					"/>
					<polygon fill="#333333" points="499.4,447 499.4,448.6 503.2,451.5 503.2,449.8 					"/>
				</g>
			</g>
			<g>
				<g>
					<polygon fill="#B3B3B3" points="508.5,448.5 506.3,452 510.1,454.8 512.3,451.3 					"/>
					<polygon fill="#808080" points="512.3,451.3 510.1,454.8 510.1,456.5 512.3,453 					"/>
					<polygon fill="#333333" points="506.3,452 506.3,453.6 510.1,456.5 510.1,454.8 					"/>
				</g>
			</g>
			<g>
				<g>
					<polygon fill="#B3B3B3" points="515.4,453.5 513.2,457 517,459.8 519.2,456.3 					"/>
					<polygon fill="#808080" points="519.2,456.3 517,459.8 517,461.3 519.2,457.8 					"/>
					<polygon fill="#333333" points="513.2,457 513.2,458.5 517,461.3 517,459.8 					"/>
				</g>
			</g>
		</g>
		<g>
			<g>
				<g>
					<polygon fill="#B3B3B3" points="492.3,426.1 490.1,429.6 493.9,432.5 496.1,429 					"/>
					<polygon fill="#808080" points="496.1,429 493.9,432.5 493.9,434 496.1,430.5 					"/>
					<polygon fill="#333333" points="490.1,429.6 490.1,431.3 493.9,434 493.9,432.5 					"/>
				</g>
			</g>
			<g>
				<g>
					<polygon fill="#B3B3B3" points="499.2,431.1 497,434.6 500.9,437.5 503.1,434 					"/>
					<polygon fill="#808080" points="503,433.8 500.9,437.5 500.9,439.1 503.1,435.6 					"/>
					<polygon fill="#333333" points="497,434.6 497,436.3 500.9,439.1 500.9,437.5 					"/>
				</g>
			</g>
			<g>
				<g>
					<polygon fill="#B3B3B3" points="506.1,436 503.9,439.5 507.8,442.3 510,438.8 					"/>
					<polygon fill="#808080" points="510,438.8 507.8,442.3 507.8,444 510,440.5 					"/>
					<polygon fill="#333333" points="503.9,439.5 503.9,441.3 507.8,444 507.8,442.3 					"/>
				</g>
			</g>
			<g>
				<g>
					<polygon fill="#B3B3B3" points="513,441 510.9,444.5 514.7,447.3 516.9,443.8 					"/>
					<polygon fill="#808080" points="516.9,443.8 514.7,447.3 514.7,449 516.9,445.5 					"/>
					<polygon fill="#333333" points="510.9,444.5 510.9,446.1 514.7,449 514.7,447.3 					"/>
				</g>
			</g>
			<g>
				<g>
					<polygon fill="#B3B3B3" points="520,446 517.8,449.5 521.6,452.3 523.8,448.8 					"/>
					<polygon fill="#808080" points="523.8,448.8 521.6,452.3 521.6,454 523.8,450.5 					"/>
					<polygon fill="#333333" points="517.8,449.5 517.8,451.1 521.6,454 521.6,452.3 					"/>
				</g>
			</g>
		</g>
		<g>
			<g>
				<g>
					<polygon fill="#B3B3B3" points="496.9,418.8 494.7,422.3 498.5,425.1 500.7,421.5 					"/>
					<polygon fill="#808080" points="500.7,421.5 498.5,425.1 498.5,426.8 500.7,423.1 					"/>
					<polygon fill="#333333" points="494.7,422.3 494.7,424 498.5,426.8 498.5,425.1 					"/>
				</g>
			</g>
			<g>
				<g>
					<polygon fill="#B3B3B3" points="503.8,423.8 501.6,427.3 505.5,430 507.7,426.5 					"/>
					<polygon fill="#808080" points="507.7,426.5 505.5,430 505.5,431.8 507.7,428.3 					"/>
					<polygon fill="#333333" points="501.6,427.3 501.6,429 505.5,431.8 505.5,430 					"/>
				</g>
			</g>
			<g>
				<g>
					<polygon fill="#B3B3B3" points="510.7,428.8 508.5,432.3 512.4,435 514.6,431.5 					"/>
					<polygon fill="#808080" points="514.6,431.5 512.4,435 512.4,436.6 514.6,433.1 					"/>
					<polygon fill="#333333" points="508.5,432.3 508.5,433.8 512.4,436.6 512.4,435 					"/>
				</g>
			</g>
			<g>
				<g>
					<polygon fill="#B3B3B3" points="517.7,433.6 515.5,437.1 519.3,440 521.5,436.5 					"/>
					<polygon fill="#808080" points="521.5,436.5 519.3,440 519.3,441.6 521.5,438.1 					"/>
					<polygon fill="#333333" points="515.5,437.1 515.5,438.8 519.3,441.6 519.3,440 					"/>
				</g>
			</g>
			<g>
				<g>
					<polygon fill="#B3B3B3" points="524.6,438.5 522.4,442 526.2,445 528.4,441.5 					"/>
					<polygon fill="#808080" points="528.4,441.5 526.2,445 526.2,446.5 528.4,443 					"/>
					<polygon fill="#333333" points="522.4,442 522.4,443.8 526.2,446.5 526.2,445 					"/>
				</g>
			</g>
		</g>
		<g>
			<g>
				<g>
					<polygon fill="#B3B3B3" points="548.6,476.8 546.5,480.5 550.3,483.1 552.5,479.6 					"/>
					<polygon fill="#808080" points="552.5,479.6 550.3,483.1 550.3,484.8 552.5,481.3 					"/>
					<polygon fill="#333333" points="546.5,480.5 546.5,482 550.3,484.8 550.3,483.1 					"/>
				</g>
			</g>
			<g>
				<g>
					<polygon fill="#B3B3B3" points="555.6,481.8 553.4,485.3 557.2,488 559.4,484.5 					"/>
					<polygon fill="#808080" points="559.4,484.5 557.2,488 557.2,489.8 559.4,486.3 					"/>
					<polygon fill="#333333" points="553.4,485.3 553.4,487 557.2,489.8 557.2,488 					"/>
				</g>
			</g>
			<g>
				<g>
					<polygon fill="#B3B3B3" points="562.5,486.8 560.3,490.3 564.1,493 566.3,489.5 					"/>
					<polygon fill="#808080" points="566.3,489.5 564.1,493 564.1,494.6 566.3,491.1 					"/>
					<polygon fill="#333333" points="560.3,490.3 560.3,492 564.1,494.6 564.1,493 					"/>
				</g>
			</g>
			<g>
				<g>
					<polygon fill="#B3B3B3" points="569.4,491.8 567.2,495.3 571,498 573.2,494.5 					"/>
					<polygon fill="#808080" points="573.2,494.5 571,498 571,499.6 573.2,496.1 					"/>
					<polygon fill="#333333" points="567.2,495.3 567.2,497 571,499.6 571,498 					"/>
				</g>
			</g>
			<g>
				<g>
					<polygon fill="#B3B3B3" points="576.3,496.6 574.1,500.1 578,503 580.1,499.5 					"/>
					<polygon fill="#808080" points="580.1,499.5 578,503 578,504.5 580.1,501 					"/>
					<polygon fill="#333333" points="574.1,500.1 574.1,501.8 578,504.5 578,503 					"/>
				</g>
			</g>
		</g>
		<polygon fill="#4E6875" points="611.4,503.1 599.7,494.8 589.2,511.5 600.8,519.8 		"/>
		<g>
			<polygon fill="#9DAF80" points="599.2,505.1 597.9,507.3 601.7,510 603.1,507.8 			"/>
			<polygon fill="#97C630" points="605.5,504 606.8,502 602.9,499.3 601.6,501.3 			"/>
			<polygon fill="#999999" points="599.8,513 601.2,510.8 597.3,508 596,510.3 			"/>
			<polygon fill="#999999" points="595.5,511 594.1,513.1 598,516 599.3,513.8 			"/>
			<polygon fill="#A4C469" points="601.1,502.1 599.7,504.3 603.6,507 604.9,505 			"/>
		</g>
		<polygon fill="#424445" points="599.7,494.8 589.2,511.5 588.5,511 599.7,493.3 		"/>
		<polygon fill="#231F20" points="599.7,494.8 599.7,493.3 612,502 611.4,503.1 		"/>
		<polygon fill="#4E6875" points="628.7,515.5 617.1,507.3 606.6,524 618.2,532.3 		"/>
		<g>
			<polygon fill="#9DAF80" points="616.6,517.6 615.2,519.8 619.1,522.5 620.5,520.3 			"/>
			<polygon fill="#97C630" points="622.8,516.5 624.1,514.5 620.3,511.8 619,513.8 			"/>
			<polygon fill="#999999" points="617.2,525.5 618.6,523.3 614.7,520.5 613.4,522.8 			"/>
			<polygon fill="#999999" points="612.8,523.5 611.5,525.5 615.4,528.3 616.7,526.3 			"/>
			<polygon fill="#A4C469" points="618.5,514.6 617.1,516.8 621,519.5 622.3,517.5 			"/>
		</g>
		<polygon fill="#424445" points="617.1,507.3 606.6,524 605.9,523.5 617.1,505.8 		"/>
		<polygon fill="#231F20" points="617.1,507.3 617.1,505.8 629.4,514.5 628.7,515.5 		"/>
		<g>
			<g>
				<g>
					<polygon fill="#B3B3B3" points="553.2,469.3 551,472.8 554.9,475.6 557.1,472.1 					"/>
					<polygon fill="#808080" points="557.1,472.1 554.9,475.6 554.9,477.3 557.1,473.8 					"/>
					<polygon fill="#333333" points="551,472.8 551,474.5 554.9,477.3 554.9,475.6 					"/>
				</g>
			</g>
			<g>
				<g>
					<polygon fill="#B3B3B3" points="560.1,474.3 557.9,477.8 561.8,480.6 564,477.1 					"/>
					<polygon fill="#808080" points="564,477.1 561.8,480.6 561.8,482.3 564,478.8 					"/>
					<polygon fill="#333333" points="557.9,477.8 557.9,479.5 561.8,482.3 561.8,480.6 					"/>
				</g>
			</g>
			<g>
				<g>
					<polygon fill="#B3B3B3" points="567.1,479.3 564.9,482.8 568.7,485.5 570.9,482 					"/>
					<polygon fill="#808080" points="570.9,482 568.7,485.5 568.7,487.3 570.9,483.8 					"/>
					<polygon fill="#333333" points="564.9,482.8 564.9,484.5 568.7,487.3 568.7,485.5 					"/>
				</g>
			</g>
			<g>
				<g>
					<polygon fill="#B3B3B3" points="574,484.3 571.8,487.8 575.6,490.5 577.8,487 					"/>
					<polygon fill="#808080" points="577.8,487 575.6,490.5 575.6,492.1 577.8,488.6 					"/>
					<polygon fill="#333333" points="571.8,487.8 571.8,489.5 575.6,492.1 575.6,490.5 					"/>
				</g>
			</g>
			<g>
				<g>
					<polygon fill="#B3B3B3" points="580.9,489.3 578.7,492.8 582.5,495.5 584.7,492 					"/>
					<polygon fill="#808080" points="584.7,492 582.5,495.5 582.5,497.1 584.7,493.6 					"/>
					<polygon fill="#333333" points="578.7,492.8 578.7,494.5 582.5,497.1 582.5,495.5 					"/>
				</g>
			</g>
		</g>
		<g>
			<g>
				<g>
					<polygon fill="#B3B3B3" points="557.8,462 555.6,465.5 559.5,468.3 561.7,464.8 					"/>
					<polygon fill="#808080" points="561.7,464.8 559.5,468.3 559.5,470 561.7,466.5 					"/>
					<polygon fill="#333333" points="555.6,465.5 555.6,467.1 559.5,470 559.5,468.3 					"/>
				</g>
			</g>
			<g>
				<g>
					<polygon fill="#B3B3B3" points="564.7,467 562.5,470.5 566.4,473.3 568.6,469.8 					"/>
					<polygon fill="#808080" points="568.6,469.8 566.4,473.3 566.4,475 568.6,471.5 					"/>
					<polygon fill="#333333" points="562.5,470.5 562.5,472.1 566.4,475 566.4,473.3 					"/>
				</g>
			</g>
			<g>
				<g>
					<polygon fill="#B3B3B3" points="571.7,472 569.5,475.5 573.3,478.3 575.5,474.8 					"/>
					<polygon fill="#808080" points="575.5,474.8 573.3,478.3 573.3,479.8 575.5,476.3 					"/>
					<polygon fill="#333333" points="569.5,475.5 569.5,477.1 573.3,479.8 573.3,478.3 					"/>
				</g>
			</g>
			<g>
				<g>
					<polygon fill="#B3B3B3" points="578.6,477 576.4,480.5 580.2,483.1 582.4,479.6 					"/>
					<polygon fill="#808080" points="582.4,479.6 580.2,483.1 580.2,484.8 582.4,481.3 					"/>
					<polygon fill="#333333" points="576.4,480.5 576.4,482 580.2,484.8 580.2,483.1 					"/>
				</g>
			</g>
			<g>
				<g>
					<polygon fill="#B3B3B3" points="585.5,481.8 583.3,485.3 587.1,488.1 589.3,484.6 					"/>
					<polygon fill="#808080" points="589.3,484.6 587.1,488.1 587.1,489.8 589.3,486.3 					"/>
					<polygon fill="#333333" points="583.3,485.3 583.3,487 587.1,489.8 587.1,488.1 					"/>
				</g>
			</g>
		</g>
		<polygon fill="#B8BABC" points="350,312.4 486.4,312.4 489.8,314.9 353.5,314.9 		"/>
		<polygon fill="#231F20" points="350,312.4 350,394.6 353.5,397.1 353.5,314.9 		"/>
		<polygon fill="#231F20" points="374.7,403.5 374.7,415.9 375.7,418.9 375.7,404.3 		"/>
		<path id="predna_strana_301_" fill="#424445" d="M353.5,314.9h136.4v82.3H353.5V314.9z"/>
		<polygon fill="#B8BABC" points="350,222.4 486.4,222.4 489.8,224.8 353.5,224.8 		"/>
		<polygon fill="#231F20" points="350,222.4 350,304.5 353.5,306.9 353.5,224.8 		"/>
		<path id="predna_strana_299_" fill="#424445" d="M353.5,224.8h136.4v81.6L353.5,307V224.8z"/>
		<path id="predna_strana_298_" fill="#636868" d="M356.1,227.4h131.6v77.3H356.1V227.4z"/>
		<polygon fill="#B8BABC" points="204.9,312.4 341.2,312.4 344.7,314.9 208.3,314.9 		"/>
		<polygon fill="#231F20" points="204.9,312.4 204.9,395.1 208.3,397.1 208.3,314.9 		"/>
		<path id="predna_strana_297_" fill="#424445" d="M208.3,314.9h136.4v82.3H208.3V314.9L208.3,314.9z"/>
		<path id="predna_strana_293_" fill="#4D4D4D" d="M369.9,415.5l11.8-0.1l2.2,6.6l-11.8,0.1L369.9,415.5z"/>
		<path id="predna_strana_292_" fill="#333333" d="M372.1,422.1l11.8-0.1v2.4l-11.8,0.1V422.1z"/>
		<path id="predna_strana_291_" d="M369.9,417.8v-2.4l2.2,6.6v2.4L369.9,417.8z"/>
		<path id="predna_strana_290_" fill="#B3B3B3" d="M296.7,424.8h6.4l1.2,3.6h-6.4L296.7,424.8z"/>
		<path id="predna_strana_289_" fill="#808080" d="M297.9,428.3h6.4v2.2h-6.4V428.3z"/>
		<path id="predna_strana_288_" fill="#333333" d="M296.7,427v-2.2l1.2,3.6v2.2L296.7,427z"/>
		<path id="predna_strana_287_" fill="#B3B3B3" d="M309.6,424.6h6.4l1.2,3.6h-6.4L309.6,424.6z"/>
		<path id="predna_strana_286_" fill="#808080" d="M310.8,428.3h6.4v2.2h-6.4V428.3z"/>
		<path id="predna_strana_285_" fill="#333333" d="M309.6,426.8v-2.2l1.2,3.6v2.2L309.6,426.8z"/>
		<g>
			<path id="predna_strana_284_" fill="#B3B3B3" d="M322.5,424.6h6.4l1.2,3.6h-6.4L322.5,424.6z"/>
			<path id="predna_strana_283_" fill="#808080" d="M323.7,428.3h6.4v2.2h-6.4V428.3z"/>
			<path id="predna_strana_282_" fill="#333333" d="M322.5,426.8v-2.2l1.2,3.6v2.2L322.5,426.8z"/>
			<path id="predna_strana_281_" fill="#B3B3B3" d="M335.4,424.5h6.4l1.2,3.6h-6.4L335.4,424.5z"/>
			<path id="predna_strana_280_" fill="#808080" d="M336.6,428.1h6.4v2.2h-6.4V428.1z"/>
			<path id="predna_strana_279_" fill="#333333" d="M335.4,426.8v-2.2l1.2,3.6v2.2L335.4,426.8z"/>
		</g>
		<g>
			<path id="predna_strana_278_" fill="#B3B3B3" d="M348.3,424.5h6.4l1.2,3.6h-6.4L348.3,424.5z"/>
			<path id="predna_strana_277_" fill="#808080" d="M349.5,428h6.4v2.2h-6.4V428z"/>
			<path id="predna_strana_276_" fill="#333333" d="M348.3,426.8v-2.2l1.2,3.6v2.2L348.3,426.8z"/>
		</g>
		<g>
			<path id="predna_strana_275_" fill="#B3B3B3" d="M291.9,410.4h6.4l1.2,3.6h-6.4L291.9,410.4z"/>
			<path id="predna_strana_274_" fill="#808080" d="M293.1,414h6.4v2.2h-6.4V414z"/>
			<path id="predna_strana_273_" fill="#333333" d="M291.9,412.6v-2.2l1.2,3.6v2.2L291.9,412.6z"/>
			<path id="predna_strana_272_" fill="#B3B3B3" d="M304.8,410.3h6.4l1.2,3.6H306L304.8,410.3z"/>
			<path id="predna_strana_271_" fill="#808080" d="M306,413.9h6.4v2.2H306V413.9z"/>
			<path id="predna_strana_270_" fill="#333333" d="M304.8,412.5v-2.2l1.2,3.6v2.2L304.8,412.5z"/>
			<g>
				<path id="predna_strana_269_" fill="#B3B3B3" d="M317.7,410.3h6.4l1.2,3.6h-6.4L317.7,410.3z"/>
				<path id="predna_strana_268_" fill="#808080" d="M318.9,413.8h6.4v2.2h-6.4V413.8z"/>
				<path id="predna_strana_267_" fill="#333333" d="M317.7,412.4v-2.2l1.2,3.6v2.2L317.7,412.4z"/>
				<path id="predna_strana_266_" fill="#B3B3B3" d="M330.6,410.3h6.4l1.2,3.6h-6.4L330.6,410.3z"/>
				<path id="predna_strana_265_" fill="#808080" d="M331.8,413.8h6.4v2.2h-6.4V413.8z"/>
				<path id="predna_strana_264_" fill="#333333" d="M330.6,412.4v-2.2l1.2,3.6v2.2L330.6,412.4z"/>
			</g>
			<g>
				<path id="predna_strana_263_" fill="#B3B3B3" d="M343.5,410.3h6.4l1.2,3.6h-6.4L343.5,410.3z"/>
				<path id="predna_strana_262_" fill="#808080" d="M344.7,413.8h6.4v2.2h-6.4V413.8z"/>
				<path id="predna_strana_261_" fill="#333333" d="M343.5,412.4v-2.2l1.2,3.6v2.2L343.5,412.4z"/>
			</g>
		</g>
		<g>
			<path id="predna_strana_260_" fill="#B3B3B3" d="M294.3,417.6h6.4l1.2,3.6h-6.4L294.3,417.6z"/>
			<path id="predna_strana_259_" fill="#808080" d="M295.5,421.1h6.4v2.2h-6.4V421.1z"/>
			<path id="predna_strana_258_" fill="#333333" d="M294.3,419.8v-2.2l1.2,3.6v2.2L294.3,419.8z"/>
			<path id="predna_strana_257_" fill="#B3B3B3" d="M307.2,417.5h6.4l1.2,3.6h-6.4L307.2,417.5z"/>
			<path id="predna_strana_256_" fill="#808080" d="M308.4,421h6.4v2.2h-6.4V421z"/>
			<path id="predna_strana_255_" fill="#333333" d="M307.2,419.8v-2.2l1.2,3.6v2.2L307.2,419.8z"/>
			<g>
				<path id="predna_strana_254_" fill="#B3B3B3" d="M320.1,417.4h6.4l1.2,3.6h-6.4L320.1,417.4z"/>
				<path id="predna_strana_253_" fill="#808080" d="M321.3,421h6.4v2.2h-6.4V421z"/>
				<path id="predna_strana_252_" fill="#333333" d="M320.1,419.6v-2.2l1.2,3.6v2.2L320.1,419.6z"/>
				<path id="predna_strana_251_" fill="#B3B3B3" d="M333,417.4h6.4l1.2,3.6h-6.4L333,417.4z"/>
				<path id="predna_strana_250_" fill="#808080" d="M334.2,421h6.4v2.2h-6.4V421z"/>
				<path id="predna_strana_249_" fill="#333333" d="M333,419.6v-2.2l1.2,3.6v2.2L333,419.6z"/>
			</g>
			<g>
				<path id="predna_strana_248_" fill="#B3B3B3" d="M345.9,417.3h6.4l1.2,3.6h-6.4L345.9,417.3z"/>
				<path id="predna_strana_247_" fill="#808080" d="M347.1,421h6.4v2.2h-6.4V421z"/>
				<path id="predna_strana_246_" fill="#333333" d="M345.9,419.5v-2.2l1.2,3.6v2.2L345.9,419.5z"/>
			</g>
		</g>
		<path id="predna_strana_245_" fill="#B3B3B3" d="M403.3,424.3h6.4l1.2,3.6h-6.4L403.3,424.3z"/>
		<path id="predna_strana_244_" fill="#808080" d="M404.5,428h6.4v2.2h-6.4V428z"/>
		<path id="predna_strana_243_" fill="#333333" d="M403.3,426.6v-2.2l1.2,3.6v2.2L403.3,426.6z"/>
		<g>
			<path id="predna_strana_242_" fill="#B3B3B3" d="M416.2,424.5h6.4l1.2,3.6h-6.4L416.2,424.5z"/>
			<path id="predna_strana_241_" fill="#808080" d="M417.4,428h6.4v2.2h-6.4V428z"/>
			<path id="predna_strana_240_" fill="#333333" d="M416.2,426.6v-2.2l1.2,3.6v2.2L416.2,426.6z"/>
			<path id="predna_strana_239_" fill="#B3B3B3" d="M429.1,424.3h6.4l1.2,3.6h-6.4L429.1,424.3z"/>
			<path id="predna_strana_238_" fill="#808080" d="M430.3,427.8h6.4v2.2h-6.4V427.8z"/>
			<path id="predna_strana_237_" fill="#333333" d="M429.1,426.5v-2.2l1.2,3.6v2.2L429.1,426.5z"/>
		</g>
		<g>
			<path id="predna_strana_236_" fill="#B3B3B3" d="M442,424.3h6.4l1.2,3.6h-6.4L442,424.3z"/>
			<path id="predna_strana_235_" fill="#808080" d="M443.2,427.8h6.4v2.2h-6.4V427.8z"/>
			<path id="predna_strana_234_" fill="#333333" d="M442,426.5v-2.2l1.2,3.6v2.2L442,426.5z"/>
			<path id="predna_strana_233_" fill="#B3B3B3" d="M454.9,424.1h6.4l1.2,3.6h-6.4L454.9,424.1z"/>
			<path id="predna_strana_232_" fill="#808080" d="M456.1,427.8h6.4v2.2h-6.4V427.8z"/>
			<path id="predna_strana_231_" fill="#333333" d="M454.9,426.3v-2.2l1.2,3.6v2.2L454.9,426.3z"/>
		</g>
		<g>
			<path id="predna_strana_215_" fill="#B3B3B3" d="M398.5,410h6.4l1.2,3.6h-6.4L398.5,410z"/>
			<path id="predna_strana_214_" fill="#808080" d="M399.7,413.6h6.4v2.2h-6.4V413.6z"/>
			<path id="predna_strana_213_" fill="#333333" d="M398.5,412.3v-2.2l1.2,3.6v2.2L398.5,412.3z"/>
			<g>
				<path id="predna_strana_197_" fill="#B3B3B3" d="M411.4,410h6.4l1.2,3.6h-6.4L411.4,410z"/>
				<path id="predna_strana_196_" fill="#808080" d="M412.6,413.5h6.4v2.2h-6.4V413.5z"/>
				<path id="predna_strana_195_" fill="#333333" d="M411.4,412.3v-2.2l1.2,3.6v2.2L411.4,412.3z"/>
				<path id="predna_strana_194_" fill="#B3B3B3" d="M424.3,410h6.4l1.2,3.6h-6.4L424.3,410z"/>
				<path id="predna_strana_193_" fill="#808080" d="M425.5,413.5h6.4v2.2h-6.4V413.5z"/>
				<path id="predna_strana_192_" fill="#333333" d="M424.3,412.3v-2.2l1.2,3.6v2.2L424.3,412.3z"/>
			</g>
			<g>
				<path id="predna_strana_191_" fill="#B3B3B3" d="M437.2,409.9h6.4l1.2,3.6h-6.4L437.2,409.9z"/>
				<path id="predna_strana_190_" fill="#808080" d="M438.4,413.5h6.4v2.2h-6.4V413.5z"/>
				<path id="predna_strana_189_" fill="#333333" d="M437.2,412.1v-2.2l1.2,3.6v2.2L437.2,412.1z"/>
				<path id="predna_strana_188_" fill="#B3B3B3" d="M450.1,409.8h6.4l1.2,3.6h-6.4L450.1,409.8z"/>
				<path id="predna_strana_187_" fill="#808080" d="M451.3,413.4h6.4v2.2h-6.4V413.4z"/>
				<path id="predna_strana_186_" fill="#333333" d="M450.1,412v-2.2l1.2,3.6v2.2L450.1,412z"/>
			</g>
		</g>
		<g>
			<path id="predna_strana_163_" fill="#B3B3B3" d="M400.9,417.3h6.4l1.2,3.6h-6.4L400.9,417.3z"/>
			<path id="predna_strana_162_" fill="#808080" d="M402.1,420.8h6.4v2.2h-6.4V420.8z"/>
			<path id="predna_strana_161_" fill="#333333" d="M400.9,419.5v-2.2l1.2,3.6v2.2L400.9,419.5z"/>
			<g>
				<path id="predna_strana_160_" fill="#B3B3B3" d="M413.8,417.1h6.4l1.2,3.6H415L413.8,417.1z"/>
				<path id="predna_strana_159_" fill="#808080" d="M415,420.8h6.4v2.2H415V420.8z"/>
				<path id="predna_strana_158_" fill="#333333" d="M413.8,419.3v-2.2l1.2,3.6v2.2L413.8,419.3z"/>
				<path id="predna_strana_157_" fill="#B3B3B3" d="M426.7,417.1h6.4l1.2,3.6h-6.4L426.7,417.1z"/>
				<path id="predna_strana_156_" fill="#808080" d="M427.9,420.8h6.4v2.2h-6.4V420.8z"/>
				<path id="predna_strana_155_" fill="#333333" d="M426.7,419.3v-2.2l1.2,3.6v2.2L426.7,419.3z"/>
			</g>
			<g>
				<path id="predna_strana_154_" fill="#B3B3B3" d="M439.6,417h6.4l1.2,3.6h-6.4L439.6,417z"/>
				<path id="predna_strana_153_" fill="#808080" d="M440.8,420.6h6.4v2.2h-6.4V420.6z"/>
				<path id="predna_strana_152_" fill="#333333" d="M439.6,419.3v-2.2l1.2,3.6v2.2L439.6,419.3z"/>
				<path id="predna_strana_151_" fill="#B3B3B3" d="M452.5,416.9h6.4l1.2,3.6h-6.4L452.5,416.9z"/>
				<path id="predna_strana_150_" fill="#808080" d="M453.7,420.5h6.4v2.2h-6.4V420.5z"/>
				<path id="predna_strana_149_" fill="#333333" d="M452.5,419.3v-2.2l1.2,3.6v2.2L452.5,419.3z"/>
			</g>
		</g>
		<path id="predna_strana_148_" fill="#9780ED" d="M248.5,423.1L284,423l1.1,3.3l-35.5,0.1L248.5,423.1z"/>
		<path id="predna_strana_147_" fill="#7A5AAD" d="M249.6,426.5l35.5-0.1v1.5l-35.5,0.1V426.5z"/>
		<path id="predna_strana_146_" fill="#36215E" d="M248.5,424.6v-1.5l1.1,3.3v1.5L248.5,424.6z"/>
		<path id="predna_strana_145_" fill="#65D855" d="M245.2,414h8.6l1.1,3.3h-8.6L245.2,414z"/>
		<path id="predna_strana_144_" fill="#51BC3F" d="M246.3,417.3h8.6v1.5h-8.6V417.3z"/>
		<path id="predna_strana_143_" fill="#3F7035" d="M245.2,415.5V414l1.1,3.3v1.5L245.2,415.5z"/>
		<g>
			<path id="predna_strana_142_" fill="#E0A64B" d="M259.2,414h8.6l1.1,3.3h-8.6L259.2,414z"/>
			<path id="predna_strana_141_" fill="#B58A35" d="M260.3,417.3h8.6v1.5h-8.6V417.3z"/>
			<path id="predna_strana_140_" fill="#54401E" d="M259.2,415.5V414l1.1,3.3v1.5L259.2,415.5z"/>
		</g>
		<g>
			<path id="predna_strana_139_" fill="#ED4062" d="M272.3,414h8.6l1.1,3.3h-8.6L272.3,414z"/>
			<path id="predna_strana_138_" fill="#BC2247" d="M273.4,417.3h8.6v1.5h-8.6V417.3z"/>
			<path id="predna_strana_137_" fill="#561A2B" d="M272.3,415.5V414l1.1,3.3v1.5L272.3,415.5z"/>
		</g>
		<path id="predna_strana_135_" fill="#424445" d="M470.3,436.5v62.7l-251.2,0.3v-62.7L470.3,436.5z"/>
		<path id="predna_strana_134_" fill="#231F20" d="M470.3,436.5v62.6L624.2,609v-62.6L470.3,436.5z"/>
		<path id="predna_strana_132_" fill="#636868" d="M210.9,317.6h131.6v77.3H210.9V317.6z"/>
		<polygon fill="#B8BABC" points="503.6,319.4 508.3,319.3 576.5,368 571.8,368.1 		"/>
		<polygon fill="#231F20" points="503.6,319.4 503.6,401.8 571.8,450.5 571.8,368.1 		"/>
		<path id="predna_strana_131_" fill="#424445" d="M571.8,368.1h4.7v82.3h-4.7V368.1z"/>
		<polygon fill="#B8BABC" points="204.9,222.4 341.2,222.4 344.7,224.8 208.3,224.8 		"/>
		<polygon fill="#231F20" points="204.9,222.4 204.9,305 208.3,307.5 208.3,224.8 		"/>
		<path id="predna_strana_130_" fill="#424445" d="M208.3,224.8h136.4V307l-136.4,0.6V224.8L208.3,224.8z"/>
		<path id="predna_strana_129_" fill="#636868" d="M210.9,227.4h131.6v77.3H210.9V227.4z"/>
		<polygon fill="#636868" points="506.5,324.8 506.5,400.3 568.9,445 568.9,369.4 		"/>
		<polygon fill="#B8BABC" points="503.6,230.9 508.3,230.8 576.5,279.5 571.8,279.6 		"/>
		<polygon fill="#231F20" points="503.6,230.9 503.6,313.3 571.8,361.9 571.8,279.6 		"/>
		<path id="predna_strana_111_" fill="#424445" d="M571.8,279.6l4.7-0.1v82.3l-4.7,0.1V279.6z"/>
		<polygon fill="#636868" points="506.5,236.3 506.5,311.8 568.9,356.5 568.9,280.9 		"/>
		<polygon fill="#B8BABC" points="579.1,373.3 583.7,373.1 651.9,421.8 647.2,422 		"/>
		<polygon fill="#231F20" points="579.1,373.3 579.1,455.5 647.2,504.3 647.2,422 		"/>
		<path id="predna_strana_110_" fill="#424445" d="M647.2,422h4.7v82.3h-4.7V422z"/>
		<polygon fill="#636868" points="581.9,378.4 581.9,454 644.4,498.8 644.4,423.3 		"/>
		<polygon fill="#B8BABC" points="579.1,284.8 583.7,284.6 651.9,333.3 647.2,333.4 		"/>
		<polygon fill="#231F20" points="579.1,284.8 579.1,367 647.2,415.8 647.2,333.4 		"/>
		<path id="predna_strana_107_" fill="#424445" d="M647.2,333.4l4.7-0.1v82.3l-4.7,0.1V333.4z"/>
		<polygon fill="#636868" points="581.9,289.9 581.9,365.5 644.4,410.3 644.4,334.8 		"/>
		<polygon fill="#F7B737" points="378.1,404.3 375.7,404.3 375.7,418.9 378.1,418.8 		"/>
		<path id="predna_strana_106_" fill="#9E215A" d="M376,401h4.7v4.8H376V401z"/>
		<polygon id="lava_strana_42_" fill="#7F133F" points="373.1,399 373.1,403.8 376,405.8 376,401 		"/>
		<polygon fill="#E57FA8" points="377.7,399 373.1,399 376,401 380.7,401 		"/>
		<path id="predna_strana_103_" fill="#424445" d="M52.4,249.8l85.5,1.2v37.5l-83.4,0.3L52.4,249.8z"/>
		<polygon fill="#B8BABC" points="52.4,249.8 135.8,249.4 137.9,250.9 54.5,251.3 		"/>
		<polygon fill="#231F20" points="52.4,249.8 52.4,287.3 54.5,288.8 54.5,251.3 		"/>
		<path id="predna_strana_88_" fill="#E8EF60" d="M95.4,273.4l2.5-0.1v2.8l-2.5,0.1V273.4z"/>
		<path id="predna_strana_87_" fill="#E8EF60" d="M95.4,263.3l2.5-0.1v2.8l-2.5,0.1V263.3z"/>
		<polygon fill="#E8EF60" points="89.9,258.9 78.5,259.1 78.5,262.4 89.9,262.3 89.9,268.3 78.5,268.4 78.5,271.8 89.9,271.5 
			89.9,277.3 78.5,277.4 78.5,280.8 89.9,280.5 92.4,280.5 92.4,258.8 		"/>
		<path fill="#E8EF60" d="M72.5,259.3l-11.4,0.2l0,0l0,0v21.6l2.5-0.1l0,0l8.9-0.1l2.5-0.1v-21.6L72.5,259.3z M72.5,277.6l-8.9,0.1
			v-15l8.9-0.1V277.6z"/>
		<path fill="#E8EF60" d="M130.2,258.1l-11.4,0.2v3.3l0,0v5.9l0,0v3.3l11.4-0.2v9.1l2.5-0.1V258L130.2,258.1z M130.2,267.3l-8.9,0.1
			v-5.9l8.9-0.1V267.3z"/>
		<path id="predna_strana_62_" fill="#E8EF60" d="M112.8,258.4l2.5-0.1v21.6l-2.5,0.1V258.4z"/>
		<g>
			<polygon fill="#EFEDEA" points="473.4,507 453.7,507 456.6,509.1 476.3,509 			"/>
			<path id="predna_strana_61_" fill="#CEC2AF" d="M456.6,509.1h19.7v1.9h-19.7V509.1z"/>
		</g>
		<g>
			<polygon fill="#EFEDEA" points="481.5,513 461.8,513 464.7,515.1 484.4,515.1 			"/>
			<path id="predna_strana_60_" fill="#CEC2AF" d="M464.7,515.1h19.7v1.9h-19.7V515.1z"/>
		</g>
		<g>
			<polygon fill="#EFEDEA" points="490,518.6 470.3,518.8 473.2,520.8 492.9,520.8 			"/>
			<path id="predna_strana_59_" fill="#CEC2AF" d="M473.2,520.8h19.7v1.9h-19.7V520.8z"/>
		</g>
		<g>
			<polygon fill="#EFEDEA" points="496,523.3 476.3,523.5 479.2,525.5 498.9,525.5 			"/>
			<path id="predna_strana_58_" fill="#CEC2AF" d="M479.2,525.5h19.7v1.9h-19.7V525.5z"/>
		</g>
		<g>
			<polygon fill="#EFEDEA" points="502.8,528.3 483,528.3 486,530.5 505.7,530.5 			"/>
			<path id="predna_strana_56_" fill="#CEC2AF" d="M486,530.5h19.7v1.9H486V530.5z"/>
		</g>
		<g>
			<polygon fill="#EFEDEA" points="509.6,533 489.9,533 492.8,535.1 512.5,535.1 			"/>
			<path id="predna_strana_55_" fill="#CEC2AF" d="M492.8,535.1h19.7v1.9l-19.7,0.1V535.1z"/>
		</g>
		<g>
			<polygon fill="#EFEDEA" points="514.9,536.8 495.2,536.8 498.1,539 517.8,538.8 			"/>
			<path id="predna_strana_54_" fill="#CEC2AF" d="M498.1,539l19.7-0.1v1.9h-19.7V539L498.1,539z"/>
		</g>
		<g>
			<polygon fill="#EFEDEA" points="519.8,540.8 500.1,540.8 503,543 522.7,543 			"/>
			<path id="predna_strana_53_" fill="#CEC2AF" d="M503,543l19.7-0.1v1.9H503V543z"/>
		</g>
		<g>
			<polygon fill="#EFEDEA" points="526.8,545.5 507,545.6 510,547.8 529.7,547.8 			"/>
			<path id="predna_strana_52_" fill="#CEC2AF" d="M510,547.8h19.7v1.9H510V547.8z"/>
		</g>
		<g>
			<polygon fill="#EFEDEA" points="533.1,550.3 513.4,550.3 516.3,552.3 536,552.3 			"/>
			<path id="predna_strana_51_" fill="#CEC2AF" d="M516.3,552.3l19.7-0.1v1.9h-19.7V552.3z"/>
		</g>
		<g>
			<polygon fill="#EFEDEA" points="541.7,556.5 522,556.5 524.9,558.6 544.6,558.6 			"/>
			<path id="predna_strana_50_" fill="#CEC2AF" d="M524.9,558.6l19.7-0.1v1.9h-19.7V558.6z"/>
		</g>
		<g>
			<polygon fill="#EFEDEA" points="548.5,561.6 528.7,561.6 531.7,563.8 551.4,563.8 			"/>
			<path id="predna_strana_49_" fill="#CEC2AF" d="M531.7,563.8h19.7v1.9h-19.7V563.8z"/>
		</g>
		<g>
			<polygon fill="#EFEDEA" points="554.5,566.8 534.7,566.8 537.7,569 557.4,569 			"/>
			<path id="predna_strana_48_" fill="#CEC2AF" d="M537.7,569h19.7v1.9h-19.7V569z"/>
		</g>
		<g>
			<polygon fill="#EFEDEA" points="564.3,572.8 544.6,572.8 547.5,575 567.3,575 			"/>
			<path id="predna_strana_47_" fill="#CEC2AF" d="M547.5,575h19.7v1.9h-19.7V575z"/>
		</g>
		<g>
			<polygon fill="#EFEDEA" points="575.7,581.1 555.9,581.1 558.9,583.3 578.6,583.3 			"/>
			<path id="predna_strana_46_" fill="#CEC2AF" d="M558.9,583.3h19.7v1.9h-19.7V583.3z"/>
		</g>
		<g>
			<polygon fill="#EFEDEA" points="580.6,584.3 560.9,584.3 563.8,586.5 583.6,586.5 			"/>
			<path id="predna_strana_45_" fill="#CEC2AF" d="M563.8,586.5l19.7-0.1v1.9l-19.7,0.1V586.5z"/>
		</g>
		<g>
			<polygon fill="#EFEDEA" points="587,589.8 567.3,589.8 570.2,591.8 589.9,591.8 			"/>
			<path id="predna_strana_34_" fill="#CEC2AF" d="M570.2,591.8h19.7v1.9h-19.7V591.8z"/>
		</g>
		<g>
			<polygon fill="#EFEDEA" points="594.6,595 574.9,595 577.8,597.1 597.5,597.1 			"/>
			<path id="predna_strana_33_" fill="#CEC2AF" d="M577.8,597.1l19.7-0.1v1.9l-19.7,0.1V597.1z"/>
		</g>
		<g>
			<polygon fill="#EFEDEA" points="604.9,601.5 585.2,601.5 588.1,603.5 607.8,603.5 			"/>
			<path id="predna_strana_32_" fill="#CEC2AF" d="M588.1,603.5l19.7-0.1v1.9l-19.7,0.1V603.5z"/>
		</g>
		<polygon fill="#39AAC9" points="453.3,506.3 27.5,506.8 167.8,608.1 593.6,607.6 		"/>
		<polygon fill="#39AAC9" points="171.3,607.5 168.7,610 162.9,609.5 157,605 155.4,598.6 		"/>
		<polygon id="lava_strana_41_" fill="#267391" points="30.1,486.8 20.3,487 15.1,495.8 18.2,508 158.5,609.3 154.7,597 162,588.3 
			170.7,588.5 		"/>
		<polygon id="lava_strana_37_" fill="#267391" points="96.9,541.8 92.3,542 89.8,546 91.3,551.8 162,603 160.2,597.1 169.1,598.3 
			172.3,593.1 		"/>
		<path id="predna_strana_31_" fill="#E5DAC7" d="M167.8,608.1l425.8-0.6v4.1l-425.8,0.6V608.1L167.8,608.1z"/>
		<path fill="#E5DAC7" d="M167.6,612.3c-4.2,0-8.1-1.6-11.1-4.6c-5.1-5-5.1-13.3,0-18.4c2-2,4.8-3.2,7.6-3.1c2.9,0,5.6,1.1,7.6,3.2
			c1.7,1.7,2.6,3.9,2.6,6.4s-0.9,4.7-2.6,6.4c-1.4,1.5-3.4,2.2-5.4,2.2s-4-0.8-5.4-2.3c-1.2-1.2-1.9-2.9-1.9-4.6s0.7-3.3,1.9-4.6
			c2.2-2.2,5.8-2.2,8,0c0.9,0.9,1.3,1.9,1.4,3.1c0-0.1,0-0.2,0-0.3c0-1.3-0.5-2.5-1.5-3.5c-1.3-1.3-3-2-4.8-2c-1.8,0-3.5,0.7-4.8,2
			c-3.5,3.5-3.5,9.1,0,12.6c2.2,2.2,5.2,3.5,8.4,3.4V612.3C167.7,612.3,167.7,612.3,167.6,612.3z M164.1,595.6l1.6,1.6l0.1-0.1
			c0-0.1,0-0.1-0.1-0.1c0.1,0.1,0.3,0.1,0.4,0c0.3-0.3,0.3-0.9,0-1.2C165.5,595.3,164.7,595.1,164.1,595.6z"/>
		<path fill="#267391" d="M27.4,511c-4.2,0-8.1-1.6-11.1-4.6c-5.1-5-5.1-13.3,0-18.4c2-2,4.8-3.2,7.6-3.1c2.9,0,5.6,1.1,7.6,3.2
			c1.7,1.7,2.6,3.9,2.6,6.4c0,2.4-0.9,4.7-2.6,6.4c-1.4,1.5-3.4,2.2-5.4,2.2s-4-0.8-5.4-2.3c-1.2-1.2-1.9-2.9-1.9-4.6
			s0.7-3.3,1.9-4.6c2.2-2.2,5.8-2.2,8,0c0.9,0.9,1.3,2,1.4,3.1c0-0.1,0-0.2,0-0.3c0-1.3-0.5-2.5-1.5-3.5c-1.3-1.3-3-2-4.8-2
			s-3.5,0.7-4.8,2c-3.5,3.5-3.5,9.1,0,12.6c2.2,2.3,5.2,3.5,8.4,3.4V511C27.5,510.8,27.4,511,27.4,511z M23.8,494.3l1.6,1.6l0.1-0.1
			c0-0.1,0-0.1-0.1-0.1c0.1,0.1,0.3,0.1,0.4,0c0.3-0.4,0.3-0.9,0-1.2C25.2,493.8,24.4,493.8,23.8,494.3z"/>
		<line fill="none" x1="564.3" y1="606" x2="544.6" y2="606.1"/>
	</g>
	<g id="pizza">
		<g>
			<polygon fill="#F2EDEB" points="507.4,572.5 451.8,572.5 486.9,603 542.9,597.3 			"/>
			<path id="predna_strana_30_" fill="#A8A19D" d="M486.9,597.3h56v5.6h-56V597.3L486.9,597.3z"/>
			<polygon id="lava_strana_36_" fill="#6D645F" points="451.8,572.5 451.8,578 486.9,603 486.9,597.3 			"/>
		</g>
		<g>
			<polygon fill="#F2EDEB" points="512.2,568.3 456.7,568.3 491.8,598.6 547.7,593.1 			"/>
			<path id="predna_strana_2_" fill="#A8A19D" d="M491.8,593.1h56v5.6h-56V593.1z"/>
			<polygon id="lava_strana_12_" fill="#6D645F" points="456.7,568.3 456.7,573.8 491.8,598.6 491.8,593.1 			"/>
		</g>
		<g>
			<polygon fill="#F2EDEB" points="451.9,582.1 396.3,582.1 431.4,612.6 487.4,607 			"/>
			<path id="predna_strana_20_" fill="#A8A19D" d="M431.4,607.1h56v5.6h-56V607.1z"/>
			<polygon id="lava_strana_28_" fill="#6D645F" points="396.3,582.1 396.3,587.8 431.4,612.6 431.4,607.1 			"/>
		</g>
		<g>
			<polygon fill="#F2EDEB" points="496.4,556.1 440.8,556.3 475.9,586.6 531.9,581 			"/>
			<path id="predna_strana_3_" fill="#A8A19D" d="M475.9,581.1h56v5.6h-56V581.1L475.9,581.1z"/>
			<polygon id="lava_strana_29_" fill="#6D645F" points="440.8,556.3 440.8,561.8 475.9,586.6 475.9,581.1 			"/>
		</g>
		<g>
			<polygon fill="#F2EDEB" points="506.2,554.5 450.7,554.5 485.8,585 541.7,579.5 			"/>
			<path id="predna_strana_21_" fill="#A8A19D" d="M485.8,579.5h56v5.6h-56V579.5z"/>
			<polygon id="lava_strana_33_" fill="#6D645F" points="450.7,554.5 450.7,560 485.8,585 485.8,579.5 			"/>
		</g>
		<g>
			<polygon fill="#F2EDEB" points="507.9,545.6 452.3,545.8 487.4,576.3 543.4,570.6 			"/>
			<path id="predna_strana_22_" fill="#A8A19D" d="M487.4,570.6h56v5.6h-56V570.6L487.4,570.6z"/>
			<polygon id="lava_strana_34_" fill="#6D645F" points="452.3,545.8 452.3,551.3 487.4,576.3 487.4,570.6 			"/>
		</g>
		<g>
			<polygon fill="#CEC8C2" points="509.5,543.3 513.5,538 533.9,549.1 549,563 545,568.3 526.1,558.8 			"/>
			<polygon fill="#E8E5E3" points="509.5,543.3 479.3,542.1 453.9,543.3 473.3,555.6 489,568.3 508,566.8 545,568.3 			"/>
			<polygon fill="#A8A19D" points="509.5,537.8 453.9,537.8 453.9,543.3 509.5,543.3 			"/>
			<polygon id="lava_strana_22_" fill="#6D645F" points="453.9,537.8 453.9,543.3 489,568.3 489,562.8 			"/>
			<path id="predna_strana_16_" fill="#A8A19D" d="M489,562.8h56v5.6h-56V562.8z"/>
			<polygon fill="#E8E5E3" points="560.4,536.5 537.1,536.5 513.5,538 549,563 572.5,560.8 596,561.5 571.4,543.3 			"/>
			<polygon id="lava_strana_15_" fill="#847C79" points="560.4,531 560.4,536.5 596,561.5 596,556 			"/>
			<path id="predna_strana_7_" fill="#A8A19D" d="M596,556l-46.9,1.6v5.6l46.9-1.6V556z"/>
			<polygon fill="#A8A19D" points="513.5,532.5 560.4,531 560.4,536.5 513.5,538 			"/>
		</g>
		<g id="pizzabig">
			<polygon fill="#CEC8C2" points="132.6,508.5 136.6,503.3 157,514.5 172.1,528.3 168.1,533.5 149.2,524.1 			"/>
			<polygon fill="#E8E5E3" points="132.6,508.5 102.4,507.5 77,508.6 96.4,521 112.1,533.5 131.1,532 168.1,533.5 			"/>
			<polygon fill="#A8A19D" points="132.6,503 77,503 77,508.6 132.6,508.5 			"/>
			<polygon fill="#E8E5E3" points="183.5,501.8 160.2,501.8 136.6,503.3 172.1,528.3 195.6,526 219,526.8 194.5,508.5 			"/>
			<polygon id="lava_strana_35_" fill="#847C79" points="183.5,496.3 183.5,501.8 219,526.8 219,521.1 			"/>
			<path id="predna_strana_23_" fill="#A8A19D" d="M219,521.1l-46.9,1.6v5.6l46.9-1.6V521.1z"/>
			<polygon fill="#A8A19D" points="136.6,497.8 183.5,496.3 183.5,501.8 136.6,503.3 			"/>
			<g>
				<path fill="#C6832C" d="M147.8,522c0.5,5.2-10.4,8.6-24.4,7.4c-14-1.2-25.8-6.5-26.3-11.8c-0.5-5.2,10.4-8.6,24.4-7.4
					C135.5,511.3,147.3,516.5,147.8,522z"/>
				<path fill="#E1AC5E" d="M147.8,519.8c0.5,5.2-10.4,8.6-24.4,7.4s-25.8-6.5-26.3-11.8c-0.5-5.2,10.4-8.6,24.4-7.4
					S147.3,514.5,147.8,519.8z"/>
				<path fill="#E1626D" d="M134.1,512.8c0.1,0.7-1.4,1.2-3.3,1c-1.9-0.2-3.5-0.9-3.5-1.6c-0.1-0.7,1.4-1.2,3.3-1
					C132.4,511.3,134,512,134.1,512.8z"/>
				<path fill="#E1626D" d="M144.1,519.8c0.1,0.7-1.5,1.3-3.5,1.1c-2-0.2-3.7-0.9-3.8-1.7c-0.1-0.8,1.5-1.3,3.5-1.1
					C142.3,518.3,144,519,144.1,519.8z"/>
				<path fill="#E1626D" d="M132,524.3c0.1,0.6-1.3,1.1-3,0.9c-1.7-0.1-3.2-0.8-3.2-1.5c-0.1-0.6,1.3-1.1,3-0.9S132,523.5,132,524.3
					z"/>
				<path fill="#E1626D" d="M124.2,519.5c0.1,0.6-1.3,1.1-3,0.9c-1.7-0.2-3.2-0.8-3.2-1.5c-0.1-0.6,1.3-1.1,3-0.9
					C122.7,518.1,124.1,518.8,124.2,519.5z"/>
				<path fill="#E1626D" d="M132.9,517.5c0.1,0.6-1.3,1.1-3,0.9c-1.7-0.1-3.2-0.8-3.2-1.5c-0.1-0.6,1.3-1.1,3-0.9
					C131.4,516.3,132.8,517,132.9,517.5z"/>
				<path fill="#E1626D" d="M115.4,520.5c0.1,0.7-1.4,1.2-3.3,1s-3.5-0.9-3.6-1.6c-0.1-0.7,1.4-1.2,3.3-1
					C113.8,519,115.4,519.8,115.4,520.5z"/>
				<path fill="#E1626D" d="M109.1,515c0.1,0.8-1.5,1.3-3.6,1.1c-2.1-0.2-3.8-0.9-3.9-1.7c-0.1-0.8,1.5-1.3,3.6-1.1
					C107.3,513.3,109.1,514.3,109.1,515z"/>
				<path fill="#E1626D" d="M122.6,510.8c0.1,0.7-1.5,1.2-3.5,1s-3.7-0.9-3.7-1.6c-0.1-0.7,1.5-1.2,3.5-1
					C120.9,509.1,122.6,510,122.6,510.8z"/>
				<path fill="#E1626D" d="M120.2,514.8c0.1,0.7-1.5,1.2-3.5,1s-3.7-0.9-3.7-1.6c-0.1-0.7,1.5-1.2,3.5-1
					C118.4,513.1,120.1,513.8,120.2,514.8z"/>
				<path fill="#62874D" d="M114,514.5c0,0.3-0.6,0.5-1.4,0.5c-0.8-0.1-1.5-0.4-1.6-0.7c0-0.3,0.6-0.5,1.4-0.5
					S113.9,514.3,114,514.5z"/>
				<path fill="#62874D" d="M105.8,518.3c0,0.3-0.6,0.5-1.4,0.5c-0.8-0.1-1.5-0.4-1.6-0.7c0-0.3,0.6-0.5,1.4-0.5
					C105.1,517.5,105.8,518,105.8,518.3z"/>
				<path fill="#62874D" d="M119.6,523.1c0,0.3-0.6,0.5-1.4,0.5c-0.8-0.1-1.5-0.4-1.6-0.7c0-0.3,0.6-0.5,1.4-0.5
					C118.9,522.5,119.6,522.8,119.6,523.1z"/>
				<path fill="#62874D" d="M125,511.1c0,0.3-0.6,0.5-1.4,0.5c-0.8-0.1-1.5-0.4-1.6-0.7c0-0.3,0.6-0.5,1.4-0.5
					C124.2,510.5,124.9,510.8,125,511.1z"/>
				<path fill="#62874D" d="M124.4,516c0,0.3-0.6,0.5-1.4,0.5c-0.8-0.1-1.5-0.4-1.6-0.7c0-0.3,0.6-0.5,1.4-0.5
					C123.7,515.5,124.4,515.6,124.4,516z"/>
				<path fill="#EDD058" d="M121.1,519.3c0,0.2-0.4,0.4-0.8,0.3c-0.4,0-0.9-0.3-0.9-0.5c0-0.2,0.4-0.4,0.8-0.3
					C120.7,519,121.1,519,121.1,519.3z"/>
				<path fill="#EDD058" d="M119.7,515.3c0,0.3-0.5,0.5-1.2,0.4c-0.7-0.1-1.3-0.3-1.3-0.6c0-0.3,0.5-0.5,1.2-0.4
					C119.1,514.8,119.7,515,119.7,515.3z"/>
				<path fill="#EDD058" d="M118.6,517.8c0,0.3-0.5,0.5-1.1,0.4c-0.6-0.1-1.2-0.3-1.2-0.6c0-0.3,0.5-0.5,1.1-0.4
					C118.1,517.3,118.6,517.5,118.6,517.8z"/>
				<path fill="#EDD058" d="M111.5,513c0,0.2-0.4,0.4-0.8,0.3c-0.5,0-0.9-0.3-0.9-0.5s0.4-0.4,0.8-0.3
					C111,512.5,111.5,512.8,111.5,513z"/>
				<path fill="#EDD058" d="M113.2,516.3c0,0.2-0.4,0.4-1,0.3c-0.6-0.1-1.1-0.3-1.1-0.5c0-0.2,0.4-0.4,1-0.3
					C112.7,515.8,113.2,516,113.2,516.3z"/>
				<path fill="#EDD058" d="M123.1,513.8c0,0.2-0.4,0.4-0.8,0.3c-0.4,0-0.9-0.3-0.9-0.5c0-0.2,0.4-0.4,0.8-0.3
					C122.6,513.3,123.1,513.5,123.1,513.8z"/>
				<path fill="#EDD058" d="M126.9,513.3c0,0.2-0.4,0.4-0.8,0.3c-0.5,0-0.9-0.3-0.9-0.5c0-0.2,0.4-0.4,0.8-0.3
					C126.5,513,126.9,513,126.9,513.3z"/>
				<path fill="#EDD058" d="M128.3,515.1c0,0.3-0.4,0.5-1,0.4c-0.6-0.1-1.1-0.3-1.1-0.6c0-0.3,0.4-0.5,1-0.4
					C127.8,514.5,128.3,514.8,128.3,515.1z"/>
				<path fill="#EDD058" d="M124.9,518.8c0,0.2-0.4,0.4-0.8,0.3c-0.5,0-0.9-0.3-0.9-0.5c0-0.2,0.4-0.4,0.8-0.3
					C124.5,518.3,124.9,518.5,124.9,518.8z"/>
				<path fill="#EDD058" d="M132.9,516.3c0,0.2-0.4,0.4-0.8,0.3c-0.4,0-0.9-0.3-0.9-0.5c0-0.2,0.4-0.4,0.8-0.3
					C132.5,515.8,132.9,516,132.9,516.3z"/>
				<path fill="#EDD058" d="M132.9,519.8c0,0.3-0.4,0.5-1,0.4c-0.6-0.1-1.1-0.3-1.1-0.6c0-0.2,0.4-0.5,1-0.4
					C132.4,519.1,132.9,519.5,132.9,519.8z"/>
				<path fill="#EDD058" d="M135.1,524.3c0,0.3-0.4,0.5-1,0.4c-0.6-0.1-1.1-0.3-1.1-0.6c0-0.3,0.4-0.5,1-0.4
					C134.6,523.6,135.1,524,135.1,524.3z"/>
				<path fill="#EDD058" d="M114.6,522.1c0,0.2-0.4,0.4-0.8,0.3c-0.4,0-0.9-0.3-0.9-0.5c0-0.2,0.4-0.4,0.8-0.3
					C114.2,521.8,114.6,522,114.6,522.1z"/>
				<path fill="#EDD058" d="M106.9,511.3c0,0.2-0.4,0.4-1,0.3c-0.6-0.1-1-0.3-1.1-0.5c-0.1-0.2,0.4-0.4,1-0.3
					C106.4,510.8,106.9,511.1,106.9,511.3z"/>
				<path fill="#EDD058" d="M114.6,509.6c0,0.2-0.4,0.4-0.8,0.3c-0.4,0-0.9-0.3-0.9-0.5c0-0.2,0.4-0.4,0.8-0.3
					C114.2,509.1,114.6,509.5,114.6,509.6z"/>
				<path fill="#EDD058" d="M136.7,513.3c0,0.2-0.4,0.4-0.8,0.3c-0.4,0-0.9-0.3-0.9-0.5c0-0.2,0.4-0.4,0.8-0.3
					C136.3,513,136.7,513,136.7,513.3z"/>
				<path fill="#EDD058" d="M141.8,517c0,0.2-0.4,0.4-0.8,0.3c-0.5,0-0.9-0.3-0.9-0.5s0.4-0.4,0.8-0.3
					C141.3,516.6,141.8,516.8,141.8,517z"/>
				<path fill="#EDD058" d="M142.5,521.3c0,0.2-0.4,0.4-0.8,0.3c-0.4,0-0.9-0.3-0.9-0.5c0-0.2,0.4-0.4,0.8-0.3
					C142.1,520.8,142.5,521,142.5,521.3z"/>
				<path fill="#62874D" d="M140.1,515.1c0,0.3-0.6,0.5-1.4,0.5c-0.8-0.1-1.5-0.4-1.6-0.7c0-0.3,0.6-0.5,1.4-0.5
					C139.3,514.5,140,514.8,140.1,515.1z"/>
				<path fill="#62874D" d="M128.7,519c0,0.3-0.6,0.5-1.4,0.5c-0.8-0.1-1.5-0.4-1.6-0.7c0-0.3,0.6-0.5,1.4-0.5
					C128,518.5,128.7,518.8,128.7,519z"/>
				<path fill="#62874D" d="M137,523.1c0,0.3-0.6,0.5-1.4,0.5c-0.8-0.1-1.5-0.4-1.6-0.7c0-0.3,0.6-0.5,1.4-0.5
					C136.3,522.5,137,522.8,137,523.1z"/>
			</g>
			<polygon id="lava_strana_38_" fill="#6D645F" points="77,503 77,508.6 112.1,533.5 112.1,528 			"/>
			<path id="predna_strana_24_" fill="#A8A19D" d="M112.1,528h56v5.6h-56V528z"/>
		</g>
		<g>
			<path fill="#E1AC5E" d="M493.8,558.1l22.1-8.9c0,0-8.8-4.7-21.7-4.3L493.8,558.1z"/>
			<path fill="#E1626D" d="M501.1,554.3c0.1,0.6-1.3,1.1-3,0.9c-1.7-0.1-3.2-0.8-3.2-1.5c-0.1-0.6,1.3-1.1,3-0.9
				C499.6,552.8,501.1,553.5,501.1,554.3z"/>
			<path fill="#E1626D" d="M510.2,551.5c0.1,0.6-1.3,1.1-3,0.9c-1.7-0.1-3.2-0.8-3.2-1.5c-0.1-0.6,1.3-1.1,3-0.9
				C508.7,550.1,510.2,551,510.2,551.5z"/>
			<path fill="#E1626D" d="M501.5,547.8c0.1,0.6-1.3,1.1-3,0.9c-1.7-0.2-3.2-0.8-3.2-1.5c-0.1-0.6,1.3-1.1,3-0.9
				S501.4,547.1,501.5,547.8z"/>
			<path fill="#62874D" d="M509.7,548.8c0,0.3-0.6,0.5-1.4,0.5s-1.5-0.4-1.6-0.7c0-0.3,0.6-0.5,1.4-0.5
				C508.9,548,509.7,548.5,509.7,548.8z"/>
			<path fill="#62874D" d="M500.4,552.5c0,0.3-0.6,0.5-1.4,0.5c-0.8-0.1-1.5-0.4-1.6-0.7c0-0.3,0.6-0.5,1.4-0.5
				C499.7,551.8,500.4,552,500.4,552.5z"/>
			<path fill="#EDD058" d="M496.7,556c0,0.2-0.4,0.4-0.8,0.3c-0.4,0-0.9-0.3-0.9-0.5s0.4-0.4,0.8-0.3
				C496.2,555.5,496.7,555.8,496.7,556z"/>
			<path fill="#EDD058" d="M500.1,549.6c0,0.2-0.4,0.5-1,0.4s-1.1-0.3-1.1-0.6c0-0.3,0.4-0.5,1-0.4
				C499.6,549,500.1,549.3,500.1,549.6z"/>
			<path fill="#EDD058" d="M504,552.8c0,0.2-0.4,0.4-0.8,0.3c-0.4,0-0.9-0.3-0.9-0.5c0-0.2,0.4-0.4,0.8-0.3
				C503.6,552.3,504,552.5,504,552.8z"/>
			<path fill="#EDD058" d="M503.7,548.5c0,0.2-0.4,0.4-0.8,0.3c-0.5,0-0.9-0.3-0.9-0.5s0.4-0.4,0.8-0.3
				C503.3,548,503.7,548.1,503.7,548.5z"/>
			<path fill="#EDD058" d="M496.2,549.6c0,0.2-0.4,0.4-0.8,0.3c-0.4,0-0.9-0.3-0.9-0.5c0-0.2,0.4-0.4,0.8-0.3
				C495.8,549.3,496.2,549.5,496.2,549.6z"/>
			<path fill="#C6832C" d="M493.8,560.5l22.1-8.9c0,0,0-1.9,0-2.4l-22.1,8.9V560.5L493.8,560.5z"/>
		</g>
	</g>
</g>
<g id="mate" style="display:none!important">
	<ellipse opacity="0.1" enable-background="new    " cx="276" cy="591.3" rx="43.8" ry="6.7"/>
	<path fill="#543C36" d="M290.3,591.5c0.3-1.1,14.9-34.8,4.2-54.2C285,520,265,518.9,263,518.9c0,0-2.7,1-2.1,5
		c0.4,3,3.2,3.5,3.2,3.5c3.6,0.2,11.9,4.2,17.3,16.7c7,16.1,5.4,42.6,5,47c-0.1,1.7,0.9,2,1.8,2C289.2,593.2,290,592.8,290.3,591.5z
		"/>
	<path fill="#B2AF38" d="M303,476.3c0,0-3.6-14.3,8.5-21.3c4.3-2.5,6.6,2.3,2.8,4.8c-9.5,6.2-8.6,17.2-8.6,17.2s0.3,1.4-1.2,1.3
		C303.2,478.3,303,476.3,303,476.3z"/>
	<path fill="#C9C941" d="M315.4,454.9c-0.9-0.7-2.2-0.8-3.9,0.2c-12.1,7.1-8.5,21.3-8.5,21.3s0,0,0,0.1c0.2,0.2,0.4,0.3,0.7,0.3
		c1.4,0,1.2-1.3,1.2-1.3s-0.9-10.9,8.6-17.2C314.9,457.2,315.5,456,315.4,454.9z"/>
	<path fill="#B2AF38" d="M308.6,476.4c0,0,3.9-6.2,13.3-9.2c7.3-2.3,8.8,6,1.5,5.9c-6.2-0.1-13,7.1-13,7.1s-1.4,1.6-2.8,0.1
		C306.3,478.7,308.6,476.4,308.6,476.4z"/>
	<path fill="#C9C941" d="M327.2,467.9c-1-0.9-2.8-1.4-5.3-0.6c-9.4,3-13.3,9.2-13.3,9.2s-1.1,1.1-1.4,2.3c1.2,0.7,2.2-0.5,2.2-0.5
		s6.8-7.2,13-7.1C325.8,471.2,327.2,469.5,327.2,467.9z"/>
	<path fill="#543C36" d="M335.5,547.6c-3.4-3-3.7-2.1-9.2-7.7c-12.2-12.2-11-24.1-11.2-25.8c0,0-0.9-4,2.6-4.1
		c2.5-0.1,4.4,3.4,4.4,3.4c2.1,5.3,1,9.3,8.2,20.1c4.7,6.9,14.5,7.6,15.1,10.8c0.5,3.1,1.4,6.5-2,6.4
		C340.1,550.6,338,549.8,335.5,547.6z"/>
	<path fill="#C9C941" d="M310.7,480.4c-9.5-26.1-23.6-29.8-33.7-29.8v126c20.7,0,40.1-12.5,52-31.8
		C341.2,524.8,321.8,510.7,310.7,480.4z"/>
	<path fill="#B2AF38" d="M243.4,480.4c9.5-26.1,23.6-29.8,33.7-29.8v126c-20.7,0-40.1-12.5-52-31.8
		C212.8,524.8,232.3,510.7,243.4,480.4z"/>
	<path fill="#C9C941" d="M259,480.4c5.3-26.1,13.2-29.8,18.8-29.8v126c-11.5,0-22.3-12.5-28.9-31.8C242,524.8,252.7,510.7,259,480.4
		z"/>
	<path fill="#B2AF38" d="M281.2,490.3c-11.4,0.3-25.2,7.5-28.6-3.7c-1.9-6.1-1.8-17.1,6.5-23.8c1.5-1.3,9.1-7.8,8.2-6
		c-0.8,1.7-0.3,2,1,1.6c13.3-2.9,30.8,4.1,30.9,18.3C299.2,491,290.7,490,281.2,490.3z"/>
	<path fill="#E2C6A8" d="M283.9,487.5c-9.4,0-22.8,2.9-25.8-6.5c-1.7-5.5-1.7-13.4,5.6-19.6c11.1-9.2,35.7-0.9,35.8,15
		C299.6,489.1,292.1,487.5,283.9,487.5z"/>
	<path fill="#F7E7D5" d="M299.5,476.4c-0.1-10.8-11.2-18-21.9-18.8c-3,0.2-5.7,1-7.9,2.8c-6.4,5.3-5.7,15-4.2,19.8
		c2.4,7.7,12.1,6.3,19.9,7.3C293,487.7,299.6,488.3,299.5,476.4z"/>
	<circle fill="#684033" cx="280" cy="478.4" r="3.7"/>
	<path fill="#543C36" d="M215.3,573.6c-2.8,0-5-1.8-4.8-4.7c0.1-0.8,0.5-17,8.6-31.5c7.1-12.9,11.2-17.7,12.7-17.7
		c0,0,2,0.8,1.6,3.7c-0.3,2.2-1.7,3.2-1.7,3.2c-0.9,1.3-2.1,3.2-6.2,12.6c-5.3,12.1-5.7,29.1-5.7,29.2c0,3.4-0.9,4.8-3.7,5.1
		C215.9,573.6,215.7,573.6,215.3,573.6z"/>
	<path fill="#B2AF38" d="M290.8,551c-3.8,1.6-7.3,2-9.6,2c-2,0-5.9-0.3-9.7-2c-0.9-0.3-2-0.2-1.1,1.5c2,3.9,6,10.4,10.7,10.5l0,0
		h0.1h0.1l0,0c4.7-0.2,8.7-6.7,10.7-10.5C293,550.7,291.8,550.7,290.8,551z"/>
	<path opacity="0.2" fill="#FCFFD9" enable-background="new    " d="M283.6,532.5c6,1.7,10.1,2,12.7,1.7c2.9-0.3,3.1-2.1,1.4-2.8
		c-3.2-1.3-7.3-1.8-12.8-3.5c-4.7-1.4-9.9-3-13.9-4.1c-1.3-0.3-2.6,1.2-0.3,2.9c3.5,2.5,8.1,4.4,12.6,5.7l0,0
		C283.4,532.5,283.4,532.5,283.6,532.5C283.5,532.5,283.6,532.5,283.6,532.5L283.6,532.5z"/>
	<path fill="#B2AF38" d="M247.6,475.3c0,0-5.7-6-16.2-6.3c-7.9-0.3-3.3,9.2,3.7,8c6.5-1,10.8,2.1,10.8,2.1s1.5,1.5,2.8-0.2
		C250.1,477.4,247.6,475.3,247.6,475.3z"/>
	<path fill="#C9C941" d="M247.6,475.3c0,0-5.7-6-16.2-6.3c-2.6-0.1-3.9,0.9-4.2,2.2c0.9,2.3,3.9,4.5,7.7,3.9
		c6.5-1,10.8,2.1,10.8,2.1s1.5,1.5,2.8-0.2c0.1-0.2,0.2-0.3,0.3-0.4C248.4,475.9,247.6,475.3,247.6,475.3z"/>
	<path fill="#B2AF38" d="M250.1,471.2c0,0-2.8-18-17.6-20c-5.4-0.8-5.4,5.9-0.6,6.9c12,2.4,15.9,15.2,15.9,15.2s0.3,1.6,1.7,0.9
		C250.9,473.5,250.1,471.2,250.1,471.2z"/>
	<path fill="#543C36" d="M259.9,591.6c-1-2.7-3.9-11.7-5.4-20.8c-0.7-4,11,0.9,10.1,3.8c-1.9,6.5-1.8,11.4-1.3,16.6
		c0.2,1.5-0.8,1.9-1.7,1.9C260.9,593.2,260.3,592.8,259.9,591.6z"/>
	<path fill="#543C33" d="M297.4,540.1c0,0-0.3-1.4-1.7-1.4c-1.4,0-13.6-0.3-20.4-4.3c-6.8-3.9-8.2-1.4-8.2-1.4s-3.4,6.9,1.1,11.4
		c0.7,0.7,1.6,1.3,2.7,1.9c2.7,1.3,6.4,0.3,10,0.5c3.7,0.2,7.2,1.5,9.6,0.7c0.2-0.1,0.3-0.1,0.4-0.2
		C296.1,545.1,297.4,540.1,297.4,540.1z"/>
	<path fill="#D86D4C" d="M271.1,546.3c5.5,2.5,14.5,2.8,19.2,1.2c-1.3-2.3-5.5-4.7-9.9-4.7C276.2,542.8,272.8,544.2,271.1,546.3z"/>
	<path fill="#543C36" d="M311.4,539.9c-1.6,0-7.5-12-8.8-13c-1.4-1-39.1-5-40.5-4s-7.1,17-8.6,17s-18.4-8.8-18.4-8.8
		s4.5,13.4,7.7,18.6c3.1,5.2,9.4,16.4,23.9,20.7c7.7,2.3,15.9,1.5,15.9,1.5s8.1-0.8,15.2-4.6c11.6-6.1,18.1-13.5,21.8-18.3
		c5.8-7.4,8.2-17.4,8.2-17.4S312.9,539.9,311.4,539.9z M300.5,549.5c-0.8,5.4-3.9,9.6-7.3,11.6c-3.4,2-4.3,1.4-4.3,1.4
		s-2-3.1-0.3-4.3c4.7-3.2,0.8-5.6,0.8-5.6c-3.4,0.4-7.1,0.5-7.1,0.5s-3.7-0.1-7.1-0.5c0,0-3.9,2.5,0.8,5.6c1.7,1.2-0.3,4.3-0.3,4.3
		s-0.9,0.7-4.3-1.4c-3.4-2.1-6.6-6.3-7.3-11.6s0.5-18.8,3.7-19c3.1-0.3,25.7,3.7,28.7,4C299.8,534.8,301.3,544.2,300.5,549.5z"/>
	<path fill="#3A2825" d="M264.8,569.8c-12.7-10-15.8-26.8-16.4-31.9c-5.5-2.6-13.4-6.8-13.4-6.8s4.5,13.4,7.6,18.6
		C245.6,554.7,251.6,565.2,264.8,569.8z"/>
	<g>
		<polygon fill="#4C4C4C" points="299.2,449.5 308.8,458.9 310.4,458.9 300.8,449.5 		"/>
		<rect x="308.8" y="458.9" fill="#3A3A3A" width="1.6" height="9.9"/>
		<polygon fill="#1E1E1E" points="299.2,449.5 299.2,455.2 308.8,468.9 308.8,458.9 		"/>
		<path fill="#3A3A3A" d="M284.6,460.5v2.5h8.8h3.1c4.7,0,8.5,3.8,8.5,8.5v6.9l0,0v7.4c0,0.1,0,4.4-3.2,7.7c-2.6,2.6-6.6,4-12,4
			h-5.4v2.6h5.4c18.1,0,17.8-14.3,17.8-14.3s0-2.6,0-7.5c0-6.8,4.6-8.1,4.6-8.1v-9.9h-27.6V460.5L284.6,460.5z"/>
		<path fill="#3A3A3A" d="M284.8,460.5v2.5H276h-3.1c-4.7,0-8.5,3.8-8.5,8.5v6.9l0,0v7.4c0,0.1,0,4.4,3.2,7.7c2.6,2.6,6.6,4,12,4
			h5.4v2.6h-5.4c-18.1,0-17.8-14.3-17.8-14.3s0-2.6,0-7.5c0-6.8-4.6-8.1-4.6-8.1v-9.9h27.6V460.5L284.8,460.5z"/>
		<rect x="259.7" y="463.2" fill="#E6E6E6" width="2.4" height="4.9"/>
		<polygon fill="#4C4C4C" points="238.7,449.5 255,458.9 256.7,458.9 240.3,449.5 		"/>
		<rect x="255" y="458.9" fill="#3A3A3A" width="1.6" height="9.9"/>
		<polygon fill="#1E1E1E" points="238.7,449.5 238.7,455.2 255.1,468.9 255.1,458.9 		"/>
		<polygon fill="#4C4C4C" points="255.6,459.4 257.1,460.5 312.2,460.5 310.7,459.4 		"/>
		<rect x="307.3" y="463.2" fill="#E6E6E6" width="2.4" height="4.9"/>
		<polygon fill="#1E1E1E" points="255.6,459.4 255.6,469.3 257.2,470.3 257.2,460.4 		"/>
	</g>
	<path fill="#C9C941" d="M232.5,451.1c-1.2-0.2-2,0.1-2.7,0.4c-0.9,1.9,0.3,4.7,3.2,5.2c12,2.4,15.9,15.2,15.9,15.2s0.3,1.3,1.4,1
		c0.2-0.9-0.1-2-0.1-2S247.3,453.2,232.5,451.1z"/>
	<g id="coffe">
		<g id="back_coffee">
			<polygon fill="#FFFFFF" points="359.3,528.6 340.5,528.6 350.2,535.4 369.2,535.4 			"/>
			<polygon fill="#E6E6E6" points="358.6,529.1 342.9,529.1 351,534.7 366.7,534.8 			"/>
			<polygon fill="#B3B3B3" points="358.6,529.1 358.6,534.7 366.7,534.8 			"/>
			<polygon fill="#603813" points="358.6,531.4 346.2,531.4 351,534.7 363.4,534.8 			"/>
		</g>
		<g id="smoke">
            <svg>
			<polygon id="smoke1" opacity="0.5" fill="#F2F2F2" enable-background="new    " points="354.6,553.9 349.5,535.4 361.3,544.1 			
				"/>
            </svg>
            <svg>
			<polygon id="smoke2" opacity="0.5" fill="#F2F2F2" enable-background="new    " points="353.1,556.1 349.5,535.4 361.5,539.1 			
				"/>
            </svg>
            <svg>
			<polygon id="smoke3" opacity="0.5" fill="#F2F2F2" enable-background="new    " points="357.8,556.8 349.5,535.4 360.9,539.3 			
				"/>
            </svg>
		</g>
		<g id="fron_coffee">
			<polygon fill="#FFFFFF" points="351,534.7 342.2,528.6 340.5,528.6 350.2,535.4 369.2,535.4 368.3,534.8 			"/>
			<path id="predna_strana_82_" fill="#E6E6E6" d="M350.2,535.4h19v25.2h-19V535.4z"/>
			<polygon id="lava_strana_2_" fill="#B3B3B3" points="340.5,528.6 340.5,553.8 350.2,560.5 350.2,535.4 			"/>
			<polygon fill="#FFFFFF" points="344.1,548.4 338.7,548.4 341.3,550.2 346.8,550.2 			"/>
			<polygon fill="#E6E6E6" points="341.3,550.2 341.3,539.9 346.8,539.9 346.8,537.7 339,537.7 339,552.2 346.8,552.2 346.8,550.2 
							"/>
			<polygon id="lava_strana_1_" fill="#B3B3B3" points="336.4,536 336.4,550.5 339,552.2 339,537.7 			"/>
			<polygon fill="#FFFFFF" points="344.1,535.9 336.4,536 339,537.7 346.8,537.7 			"/>
		</g>
	</g>
	<path fill="#543C36" d="M341.4,540.4c0,0,4,1.1,4.3,4c0.3,2.9-1.4,6.5-5.2,6.8c-3.7,0.3-6.9-8.8-3.1-9.2s3.9-1,3.9-1v-0.6H341.4z"
		/>
</g>
<g id="rightbottom">
	<g id="code1" class="screen">
		<path id="predna_strana_79_" fill="#959999" d="M356.1,317.6h131.6v77.3H356.1V317.6z"/>
		<path id="predna_strana_78_" fill="#2B2B2B" d="M371.8,323.6h111.4v68.7H371.8V323.6L371.8,323.6z"/>
		<g>
			<polygon fill="#3E7754" points="395.4,338.9 395.4,340.3 453.1,340.3 453.1,338.9 			"/>
			<polygon fill="#3E7754" points="429.9,334.9 385.4,334.9 385.4,336.3 429.9,336.3 			"/>
			<polygon fill="#3E7754" points="385.4,344.3 418.4,344.3 418.4,342.9 385.4,342.9 			"/>
		</g>
		<g>
			<polygon fill="#3E7754" points="385.5,366.4 418.5,366.4 418.5,365.2 385.5,365.2 			"/>
		</g>
		<g>
			<polygon fill="#3E7754" points="403.4,384.3 436.4,384.3 436.4,382.8 403.4,382.8 			"/>
		</g>
		<polygon fill="#787597" points="397.1,348.6 385.4,348.6 385.4,350 397.1,350 		"/>
		<polygon fill="#A9B7C6" points="411.6,348.6 400,348.6 400,350 411.6,350 		"/>
		<polygon fill="#787597" points="397.1,356.9 385.4,356.9 385.4,358.3 397.1,358.3 		"/>
		<polygon fill="#787597" points="393,360.6 385.4,360.6 385.4,361.9 393,361.9 		"/>
		<polygon fill="#A9B7C6" points="407.8,360.6 396.1,360.6 396.1,361.9 407.8,361.9 		"/>
		<polygon fill="#CB772F" points="392.8,330.2 377.3,330.2 377.3,331.4 392.8,331.4 		"/>
		<polygon fill="#CB772F" points="392.8,369.8 377.3,369.8 377.3,371.1 392.8,371.1 		"/>
		<polygon fill="#787597" points="395.8,352.8 385.4,352.8 385.4,354.3 395.8,354.3 		"/>
		<polygon fill="#A9B7C6" points="408.2,352.8 398.9,352.8 398.9,354.3 408.2,354.3 		"/>
		<polygon fill="#A9B7C6" points="406.2,356.9 400.6,356.9 400.6,358.3 406.2,358.3 		"/>
		<polygon fill="#3E7754" points="407.6,374.7 385.5,374.7 385.5,375.9 407.6,375.9 		"/>
		<polygon fill="#3E7754" points="407.2,378.4 395.5,378.4 395.5,379.8 407.2,379.8 		"/>
	</g>
	<g id="code2" class="screen">
		<path id="predna_strana_17_" fill="#959999" d="M356.1,317.6h131.6v77.3H356.1V317.6z"/>
		<path id="predna_strana_15_" fill="#2B2B2B" d="M371.8,323.6h111.4v68.7H371.8V323.6L371.8,323.6z"/>
		<polygon fill="#3E7754" points="385.4,341.6 385.4,343 443.1,343 443.1,341.6 		"/>
		<polygon fill="#3E7754" points="409.5,356.9 385.4,356.9 385.4,358.3 409.5,358.3 		"/>
		<polygon fill="#3E7754" points="409.5,333.9 385.4,333.9 385.4,335.3 409.5,335.3 		"/>
		<polygon fill="#3E7754" points="395.4,362.1 428.4,362.1 428.4,360.7 395.4,360.7 		"/>
		<polygon fill="#3E7754" points="385.5,377.3 418.5,377.3 418.5,376.1 385.5,376.1 		"/>
		<polygon fill="#3E7754" points="403.5,365.9 436.5,365.9 436.5,364.4 403.5,364.4 		"/>
		<polygon fill="#787597" points="397.1,379.8 385.4,379.8 385.4,381.2 397.1,381.2 		"/>
		<polygon fill="#A9B7C6" points="411.6,379.8 400,379.8 400,381.2 411.6,381.2 		"/>
		<polygon fill="#787597" points="397.1,372.1 385.4,372.1 385.4,373.5 397.1,373.5 		"/>
		<polygon fill="#787597" points="393,337.8 385.4,337.8 385.4,339.1 393,339.1 		"/>
		<polygon fill="#A9B7C6" points="407.8,337.6 396.1,337.6 396.1,338.9 407.8,338.9 		"/>
		<polygon fill="#CB772F" points="392.8,330.2 377.3,330.2 377.3,331.4 392.8,331.4 		"/>
		<polygon fill="#CB772F" points="392.8,345.4 377.3,345.4 377.3,346.7 392.8,346.7 		"/>
		<polygon fill="#CB772F" points="392.8,368.4 377.3,368.4 377.3,369.7 392.8,369.7 		"/>
		<polygon fill="#787597" points="395.8,353 385.4,353 385.4,354.5 395.8,354.5 		"/>
		<polygon fill="#A9B7C6" points="407.5,352.9 398.2,352.9 398.2,354.4 407.5,354.4 		"/>
		<polygon fill="#A9B7C6" points="406.2,372.1 400.6,372.1 400.6,373.5 406.2,373.5 		"/>
		<polygon fill="#3E7754" points="407.6,383.7 385.5,383.7 385.5,384.9 407.6,384.9 		"/>
		<polygon fill="#3E7754" points="397.2,349.2 385.5,349.2 385.5,350.6 397.2,350.6 		"/>
	</g>
	<g id="code3" class="screen">
		<path id="predna_strana_4_" fill="#959999" d="M356.1,317.6h131.6v77.3H356.1V317.6z"/>
		<path id="predna_strana_1_" fill="#2B2B2B" d="M371.8,323.6h111.4v68.7H371.8V323.6L371.8,323.6z"/>
		<polygon fill="#3E7754" points="405.4,334.7 405.4,336.1 463.1,336.1 463.1,334.7 		"/>
		<polygon fill="#3E7754" points="417.2,359.2 385.4,359.2 385.4,360.6 417.2,360.6 		"/>
		<polygon fill="#3E7754" points="400.2,327.7 385.4,327.7 385.4,329.1 400.2,329.1 		"/>
		<polygon fill="#3E7754" points="400.2,366.2 385.4,366.2 385.4,367.6 400.2,367.6 		"/>
		<polygon fill="#3E7754" points="418.3,369.7 395.4,369.7 395.4,371.1 418.3,371.1 		"/>
		<polygon fill="#3E7754" points="418.3,383.7 395.4,383.7 395.4,385.1 418.3,385.1 		"/>
		<polygon fill="#3E7754" points="437.1,373.2 405.4,373.2 405.4,374.6 437.1,374.6 		"/>
		<polygon fill="#3E7754" points="437.1,380.2 405.4,380.2 405.4,381.6 437.1,381.6 		"/>
		<polygon fill="#3E7754" points="473.5,376.7 415.4,376.7 415.4,378.1 473.5,378.1 		"/>
		<polygon fill="#3E7754" points="395.4,332.6 428.4,332.6 428.4,331.2 395.4,331.2 		"/>
		<polygon fill="#3E7754" points="395.4,339.6 415.6,339.6 415.6,338.2 395.4,338.2 		"/>
		<polygon fill="#3E7754" points="395.4,353.6 422.7,353.6 422.7,352.2 395.4,352.2 		"/>
		<polygon fill="#3E7754" points="405.4,343.1 430.6,343.1 430.6,341.7 405.4,341.7 		"/>
		<polygon fill="#3E7754" points="405.4,350.1 448.8,350.1 448.8,348.7 405.4,348.7 		"/>
		<polygon fill="#CB772F" points="396.5,362.8 377.3,362.8 377.3,364.1 396.5,364.1 		"/>
		<polygon fill="#787597" points="403.6,355.7 385.4,355.7 385.4,357.2 403.6,357.2 		"/>
		<polygon fill="#A9B7C6" points="423,355.7 406.2,355.7 406.2,357.2 423,357.2 		"/>
		<polygon fill="#3E7754" points="427,345.2 415.3,345.2 415.3,346.6 427,346.6 		"/>
	</g>
	<g id="code4" class="screen">
		<path id="predna_strana_14_" fill="#959999" d="M356.1,317.6h131.6v77.3H356.1V317.6z"/>
		<path id="predna_strana_5_" fill="#2B2B2B" d="M371.8,323.6h111.4v68.7H371.8V323.6L371.8,323.6z"/>
		<polygon fill="#3E7754" points="385.4,341.6 385.4,343 443.1,343 443.1,341.6 		"/>
		<polygon fill="#3E7754" points="409.5,356.9 385.4,356.9 385.4,358.3 409.5,358.3 		"/>
		<polygon fill="#3E7754" points="409.5,372.4 385.4,372.4 385.4,373.8 409.5,373.8 		"/>
		<polygon fill="#3E7754" points="419.5,376 395.4,376 395.4,377.4 419.5,377.4 		"/>
		<polygon fill="#3E7754" points="395.4,362.1 428.4,362.1 428.4,360.7 395.4,360.7 		"/>
		<polygon fill="#3E7754" points="395.5,346.6 428.5,346.6 428.5,345.4 395.5,345.4 		"/>
		<polygon fill="#3E7754" points="403.5,365.9 436.5,365.9 436.5,364.4 403.5,364.4 		"/>
		<polygon fill="#787597" points="397.1,384.2 385.4,384.2 385.4,385.6 397.1,385.6 		"/>
		<polygon fill="#A9B7C6" points="411.6,384.2 400,384.2 400,385.6 411.6,385.6 		"/>
		<polygon fill="#787597" points="397.1,334 385.4,334 385.4,335.4 397.1,335.4 		"/>
		<polygon fill="#CB772F" points="392.8,338.5 377.3,338.5 377.3,339.7 392.8,339.7 		"/>
		<polygon fill="#CB772F" points="392.8,368.4 377.3,368.4 377.3,369.7 392.8,369.7 		"/>
		<polygon fill="#CB772F" points="392.8,380.7 377.3,380.7 377.3,382 392.8,382 		"/>
		<polygon fill="#787597" points="395.8,353 385.4,353 385.4,354.5 395.8,354.5 		"/>
		<polygon fill="#A9B7C6" points="407.5,352.9 398.2,352.9 398.2,354.4 407.5,354.4 		"/>
		<polygon fill="#A9B7C6" points="404.8,334 399.2,334 399.2,335.4 404.8,335.4 		"/>
		<polygon fill="#3E7754" points="417.6,330 395.5,330 395.5,331.2 417.6,331.2 		"/>
		<polygon fill="#3E7754" points="417.2,349.2 405.5,349.2 405.5,350.6 417.2,350.6 		"/>
	</g>
</g>
<g id="leftbottom">
	<g id="website_leftbottom">
		<path id="predna_strana_13_" fill="#636868" d="M210.9,317.7h131.6V395H210.9V317.7z"/>
		<path id="predna_strana_12_" fill="#32323A" d="M210.9,317.7h131.6v18.5H210.9V317.7z"/>
		<path id="predna_strana_11_" fill="#F4E956" d="M210.9,355.5h131.6v-21.9H210.9V355.5z"/>
		<path id="predna_strana_10_" fill="#D8D8D8" d="M210.9,332.2h131.6v3.6H210.9V332.2z"/>
		<path id="predna_strana_9_" fill="#9F9FA3" d="M210.9,334.8h131.6v1.4H210.9V334.8z"/>
		<path id="predna_strana_8_" fill="#BC3958" d="M210.9,355.5h131.6v21.2H210.9V355.5z"/>
		<path id="predna_strana_6_" fill="#A2EDED" d="M210.9,394.7h131.6v-18H210.9V394.7z"/>
		<g opacity="0.3">
			<line fill="none" stroke="#000000" stroke-miterlimit="10" x1="251.2" y1="360" x2="281.6" y2="372"/>
			<line fill="none" stroke="#000000" stroke-miterlimit="10" x1="281.6" y1="360" x2="251.2" y2="372"/>
			<rect x="251.2" y="360" fill="none" stroke="#000000" stroke-miterlimit="10" width="30.4" height="12"/>
		</g>
		<line fill="none" stroke="#DB334B" stroke-miterlimit="10" x1="251" y1="340" x2="265.2" y2="340"/>
		<line fill="none" stroke="#DB334B" stroke-miterlimit="10" x1="269.8" y1="321.9" x2="284" y2="321.9"/>
		<line fill="none" stroke="#FFFFFF" stroke-miterlimit="10" x1="269.8" y1="324.9" x2="284" y2="324.9"/>
		<line fill="none" stroke="#000000" stroke-miterlimit="10" x1="251" y1="349" x2="265.2" y2="349"/>
		<line fill="none" stroke="#000000" stroke-miterlimit="10" x1="251" y1="346" x2="265.2" y2="346"/>
		<line fill="none" stroke="#000000" stroke-miterlimit="10" x1="251" y1="343" x2="265.2" y2="343"/>
		<line fill="none" stroke="#000000" stroke-miterlimit="10" x1="251" y1="352" x2="265.2" y2="352"/>
		<line fill="none" stroke="#F2701F" stroke-miterlimit="10" x1="251" y1="380" x2="265.2" y2="380"/>
		<line fill="none" stroke="#000000" stroke-miterlimit="10" x1="251" y1="389" x2="265.2" y2="389"/>
		<line fill="none" stroke="#000000" stroke-miterlimit="10" x1="251" y1="386" x2="265.2" y2="386"/>
		<line fill="none" stroke="#000000" stroke-miterlimit="10" x1="251" y1="383" x2="265.2" y2="383"/>
		<line fill="none" stroke="#000000" stroke-miterlimit="10" x1="251" y1="392" x2="265.2" y2="392"/>
		<line fill="none" stroke="#FFD01F" stroke-miterlimit="10" x1="287.8" y1="360.1" x2="302" y2="360.1"/>
		<line fill="none" stroke="#FFFFFF" stroke-miterlimit="10" x1="287.8" y1="369.1" x2="302" y2="369.1"/>
		<line fill="none" stroke="#FFFFFF" stroke-miterlimit="10" x1="287.8" y1="366.1" x2="302" y2="366.1"/>
		<line fill="none" stroke="#FFFFFF" stroke-miterlimit="10" x1="287.8" y1="363.1" x2="302" y2="363.1"/>
		<line fill="none" stroke="#FFFFFF" stroke-miterlimit="10" x1="287.8" y1="372.1" x2="302" y2="372.1"/>
		<g opacity="0.3">
			<line fill="none" stroke="#000000" stroke-miterlimit="10" x1="271.8" y1="339.9" x2="302.2" y2="351.9"/>
			<line fill="none" stroke="#000000" stroke-miterlimit="10" x1="302.2" y1="339.9" x2="271.8" y2="351.9"/>
			<rect x="271.8" y="339.9" fill="none" stroke="#000000" stroke-miterlimit="10" width="30.4" height="12"/>
		</g>
		<g opacity="0.3">
			<line fill="none" stroke="#000000" stroke-miterlimit="10" x1="271.8" y1="379.7" x2="302.2" y2="391.7"/>
			<line fill="none" stroke="#000000" stroke-miterlimit="10" x1="302.2" y1="379.7" x2="271.8" y2="391.7"/>
			<rect x="271.8" y="379.7" fill="none" stroke="#000000" stroke-miterlimit="10" width="30.4" height="12"/>
		</g>
	</g>
	<g id="overflow_leftbottom">
		<g>
			<path id="predna_strana_36_" fill="#FFFFFF" d="M210.9,321h131.6v73.9H210.9V321z"/>
			<path id="predna_strana_35_" fill="#959999" d="M210.9,317.6h131.6v3.5H210.9V317.6z"/>
			<g>
				<g>
					<polygon fill="#AAAAAA" points="240.3,346.3 240.3,347.7 285.9,347.7 285.9,346.3 					"/>
					<polygon fill="#DDDDDD" points="309.5,335 240.3,335 240.3,336.4 309.5,336.4 					"/>
					<polygon fill="#AAAAAA" points="240.3,344.4 273.4,344.4 273.4,343 240.3,343 					"/>
				</g>
				<g>
					<polygon fill="#AAAAAA" points="240.3,367.5 273.5,367.5 273.5,366.3 240.3,366.3 					"/>
				</g>
				<g>
					<polygon fill="#AAAAAA" points="240.3,382.3 273.3,382.3 273.3,380.8 240.3,380.8 					"/>
				</g>
				<polygon fill="#AAAAAA" points="265,350 240.3,350 240.3,351.4 265,351.4 				"/>
				<polygon fill="#A7E9FF" points="309.7,348.7 298.1,348.7 298.1,350.1 309.7,350.1 				"/>
				<polygon fill="#A7E9FF" points="309.7,352 298.1,352 298.1,353.4 309.7,353.4 				"/>
				<polygon fill="#A7E9FF" points="309.7,355.3 298.1,355.3 298.1,356.7 309.7,356.7 				"/>
				<polygon fill="#A7E9FF" points="309.7,358.6 298.1,358.6 298.1,360 309.7,360 				"/>
				<polygon fill="#A7E9FF" points="309.7,361.9 298.1,361.9 298.1,363.3 309.7,363.3 				"/>
				<polygon fill="#A7E9FF" points="309.7,365.2 298.1,365.2 298.1,366.6 309.7,366.6 				"/>
				<polygon fill="#A7E9FF" points="309.7,372.6 298.1,372.6 298.1,374 309.7,374 				"/>
				<polygon fill="#A7E9FF" points="309.7,375.5 298.1,375.5 298.1,376.9 309.7,376.9 				"/>
				<polygon fill="#A7E9FF" points="293.1,370.8 281.5,370.8 281.5,372.1 293.1,372.1 				"/>
				<polygon fill="#A7E9FF" points="309.7,378.4 298.1,378.4 298.1,379.8 309.7,379.8 				"/>
				<polygon fill="#AAAAAA" points="247.5,358 240.3,358 240.3,359.4 247.5,359.4 				"/>
				<polygon fill="#AAAAAA" points="248,361.7 240.3,361.7 240.3,363 248,363 				"/>
				<polygon fill="#AAAAAA" points="262.8,361.7 251.1,361.7 251.1,363 262.8,363 				"/>
				<polygon fill="#FF9900" points="245,327.8 240.3,327.8 240.3,329 245,329 				"/>
				<polygon fill="#FF9900" points="269.5,330.3 259.6,330.3 259.6,331.5 269.5,331.5 				"/>
				<polygon fill="#AAAAAA" points="255.4,330.3 240.3,330.3 240.3,331.5 255.4,331.5 				"/>
				<polygon fill="#AAAAAA" points="278,330.3 270.6,330.3 270.6,331.5 278,331.5 				"/>
				<polygon fill="#AAAAAA" points="286.7,330.3 279.2,330.3 279.2,331.5 286.7,331.5 				"/>
				<polygon fill="#7E7F7F" points="308.8,330.3 298.4,330.3 298.4,331.5 308.8,331.5 				"/>
				<polygon fill="#AAAAAA" points="256,370.9 240.3,370.9 240.3,372.1 256,372.1 				"/>
				<polygon fill="#AAAAAA" points="266.2,353.9 240.3,353.9 240.3,355.3 266.2,355.3 				"/>
				<polygon fill="#A7E9FF" points="261.2,358 250.5,358 250.5,359.4 261.2,359.4 				"/>
				<polygon fill="#AAAAAA" points="262.6,374.2 240.3,374.2 240.3,375.5 262.6,375.5 				"/>
				<polygon fill="#A7E9FF" points="252.2,377.3 240.3,377.3 240.3,378.7 252.2,378.7 				"/>
			</g>
		</g>
	</g>
	<g id="coding_leftbottom">
		<path id="predna_strana_69_" fill="#959999" d="M210.9,317.6h131.6v77.3H210.9V317.6z"/>
		<path id="predna_strana_68_" fill="#2B2B2B" d="M226.6,323.6H338v68.7H226.6V323.6L226.6,323.6z"/>
		<g>
			<polygon fill="#3E7754" points="240.2,338.9 240.2,340.3 297.9,340.3 297.9,338.9 			"/>
			<polygon fill="#3E7754" points="284.7,334.9 240.2,334.9 240.2,336.3 284.7,336.3 			"/>
			<polygon fill="#3E7754" points="240.2,344.3 273.2,344.3 273.2,342.9 240.2,342.9 			"/>
		</g>
		<g>
			<polygon fill="#3E7754" points="240.3,366.4 273.3,366.4 273.3,365.2 240.3,365.2 			"/>
		</g>
		<g>
			<polygon fill="#3E7754" points="248.2,384.3 281.2,384.3 281.2,382.8 248.2,382.8 			"/>
		</g>
		<polygon fill="#787597" points="251.9,348.6 240.2,348.6 240.2,350 251.9,350 		"/>
		<polygon fill="#A9B7C6" points="266.4,348.6 254.8,348.6 254.8,350 266.4,350 		"/>
		<polygon fill="#787597" points="251.9,356.9 240.2,356.9 240.2,358.3 251.9,358.3 		"/>
		<polygon fill="#787597" points="247.8,360.6 240.2,360.6 240.2,361.9 247.8,361.9 		"/>
		<polygon fill="#A9B7C6" points="262.6,360.6 250.9,360.6 250.9,361.9 262.6,361.9 		"/>
		<polygon fill="#CB772F" points="247.6,330.2 232.1,330.2 232.1,331.4 247.6,331.4 		"/>
		<polygon fill="#CB772F" points="247.6,369.8 232.1,369.8 232.1,371.1 247.6,371.1 		"/>
		<polygon fill="#787597" points="250.6,352.8 240.2,352.8 240.2,354.3 250.6,354.3 		"/>
		<polygon fill="#A9B7C6" points="263,352.8 253.7,352.8 253.7,354.3 263,354.3 		"/>
		<polygon fill="#A9B7C6" points="261,356.9 255.4,356.9 255.4,358.3 261,358.3 		"/>
		<polygon fill="#3E7754" points="262.4,374.7 240.3,374.7 240.3,375.9 262.4,375.9 		"/>
		<polygon fill="#3E7754" points="252,378.4 240.3,378.4 240.3,379.8 252,379.8 		"/>
	</g>
</g>
<g id="right_top">
	<g id="coding_righttop" class="screen">
		<g>
			<path id="predna_strana_40_" fill="#959999" d="M356.1,227.5h131.6v77.3H356.1V227.5z"/>
			<path id="predna_strana_39_" fill="#2B2B2B" d="M371.8,233.5h111.4v68.7H371.8V233.5L371.8,233.5z"/>
			<g>
				<polygon fill="#3E7754" points="385.4,248.8 385.4,250.2 443.1,250.2 443.1,248.8 				"/>
				<polygon fill="#3E7754" points="429.9,244.9 385.4,244.9 385.4,246.3 429.9,246.3 				"/>
				<polygon fill="#3E7754" points="385.4,254.3 418.4,254.3 418.4,252.9 385.4,252.9 				"/>
			</g>
			<g>
				<polygon fill="#3E7754" points="385.5,276.4 418.5,276.4 418.5,275.1 385.5,275.1 				"/>
			</g>
			<g>
				<polygon fill="#3E7754" points="393.4,294.2 426.4,294.2 426.4,292.8 393.4,292.8 				"/>
			</g>
			<polygon fill="#787597" points="397.1,258.5 385.4,258.5 385.4,259.9 397.1,259.9 			"/>
			<polygon fill="#A9B7C6" points="411.6,258.5 400,258.5 400,259.9 411.6,259.9 			"/>
			<polygon fill="#787597" points="397.1,266.8 385.4,266.8 385.4,268.2 397.1,268.2 			"/>
			<polygon fill="#787597" points="393,270.5 385.4,270.5 385.4,271.8 393,271.8 			"/>
			<polygon fill="#A9B7C6" points="407.8,270.5 396.1,270.5 396.1,271.8 407.8,271.8 			"/>
			<polygon fill="#CB772F" points="392.8,240.1 377.3,240.1 377.3,241.4 392.8,241.4 			"/>
			<polygon fill="#CB772F" points="392.8,279.7 377.3,279.7 377.3,281 392.8,281 			"/>
			<polygon fill="#787597" points="395.8,262.7 385.4,262.7 385.4,264.2 395.8,264.2 			"/>
			<polygon fill="#A9B7C6" points="408.2,262.7 398.9,262.7 398.9,264.2 408.2,264.2 			"/>
			<polygon fill="#A9B7C6" points="406.2,266.8 400.6,266.8 400.6,268.2 406.2,268.2 			"/>
			<polygon fill="#3E7754" points="407.6,284.6 385.5,284.6 385.5,285.9 407.6,285.9 			"/>
			<polygon fill="#3E7754" points="397.2,288.4 385.5,288.4 385.5,289.8 397.2,289.8 			"/>
		</g>
	</g>
	<g id="website_righttop_1_" class="screen">
		<path id="predna_strana_38_" fill="#636868" d="M356.1,227.5h131.6v77.3H356.1V227.5z"/>
		<path id="predna_strana_37_" fill="#32323A" d="M356.1,227.5h131.6V246H356.1V227.5z"/>
		<path id="predna_strana_29_" fill="#F4E956" d="M356.1,265.3h131.6v-21.9H356.1V265.3z"/>
		<path id="predna_strana_28_" fill="#D8D8D8" d="M356.1,242h131.6v3.6H356.1V242z"/>
		<path id="predna_strana_27_" fill="#9F9FA3" d="M356.1,244.6h131.6v1.4H356.1V244.6z"/>
		<path id="predna_strana_26_" fill="#BC3958" d="M356.1,265.3h131.6v21.2H356.1V265.3z"/>
		<path id="predna_strana_25_" fill="#A2EDED" d="M356.1,304.5h131.6v-18H356.1V304.5z"/>
		<g opacity="0.3">
			<line fill="none" stroke="#000000" stroke-miterlimit="10" x1="396.4" y1="269.8" x2="426.8" y2="281.8"/>
			<line fill="none" stroke="#000000" stroke-miterlimit="10" x1="426.8" y1="269.8" x2="396.4" y2="281.8"/>
			<rect x="396.4" y="269.8" fill="none" stroke="#000000" stroke-miterlimit="10" width="30.4" height="12"/>
		</g>
		<line fill="none" stroke="#DB334B" stroke-miterlimit="10" x1="396.2" y1="249.8" x2="410.4" y2="249.8"/>
		<line fill="none" stroke="#DB334B" stroke-miterlimit="10" x1="415" y1="231.7" x2="429.2" y2="231.7"/>
		<line fill="none" stroke="#FFFFFF" stroke-miterlimit="10" x1="415" y1="234.7" x2="429.2" y2="234.7"/>
		<line fill="none" stroke="#000000" stroke-miterlimit="10" x1="396.2" y1="258.8" x2="410.4" y2="258.8"/>
		<line fill="none" stroke="#000000" stroke-miterlimit="10" x1="396.2" y1="255.8" x2="410.4" y2="255.8"/>
		<line fill="none" stroke="#000000" stroke-miterlimit="10" x1="396.2" y1="252.8" x2="410.4" y2="252.8"/>
		<line fill="none" stroke="#000000" stroke-miterlimit="10" x1="396.2" y1="261.8" x2="410.4" y2="261.8"/>
		<line fill="none" stroke="#F2701F" stroke-miterlimit="10" x1="396.2" y1="289.8" x2="410.4" y2="289.8"/>
		<line fill="none" stroke="#000000" stroke-miterlimit="10" x1="396.2" y1="298.8" x2="410.4" y2="298.8"/>
		<line fill="none" stroke="#000000" stroke-miterlimit="10" x1="396.2" y1="295.8" x2="410.4" y2="295.8"/>
		<line fill="none" stroke="#000000" stroke-miterlimit="10" x1="396.2" y1="292.8" x2="410.4" y2="292.8"/>
		<line fill="none" stroke="#000000" stroke-miterlimit="10" x1="396.2" y1="301.8" x2="410.4" y2="301.8"/>
		<line fill="none" stroke="#FFD01F" stroke-miterlimit="10" x1="433" y1="269.9" x2="447.2" y2="269.9"/>
		<line fill="none" stroke="#FFFFFF" stroke-miterlimit="10" x1="433" y1="278.9" x2="447.2" y2="278.9"/>
		<line fill="none" stroke="#FFFFFF" stroke-miterlimit="10" x1="433" y1="275.9" x2="447.2" y2="275.9"/>
		<line fill="none" stroke="#FFFFFF" stroke-miterlimit="10" x1="433" y1="272.9" x2="447.2" y2="272.9"/>
		<line fill="none" stroke="#FFFFFF" stroke-miterlimit="10" x1="433" y1="281.9" x2="447.2" y2="281.9"/>
		<g opacity="0.3">
			<line fill="none" stroke="#000000" stroke-miterlimit="10" x1="417" y1="249.7" x2="447.4" y2="261.7"/>
			<line fill="none" stroke="#000000" stroke-miterlimit="10" x1="447.4" y1="249.7" x2="417" y2="261.7"/>
			<rect x="417" y="249.7" fill="none" stroke="#000000" stroke-miterlimit="10" width="30.4" height="12"/>
		</g>
		<g opacity="0.3">
			<line fill="none" stroke="#000000" stroke-miterlimit="10" x1="417" y1="289.5" x2="447.4" y2="301.5"/>
			<line fill="none" stroke="#000000" stroke-miterlimit="10" x1="447.4" y1="289.5" x2="417" y2="301.5"/>
			<rect x="417" y="289.5" fill="none" stroke="#000000" stroke-miterlimit="10" width="30.4" height="12"/>
		</g>
	</g>
	<g id="overflow_righttop_1_" display="none" class="screen">
		<g display="inline">
			<path id="predna_strana_19_" fill="#FFFFFF" d="M356.1,230.8h131.6v73.9H356.1V230.8z"/>
			<path id="predna_strana_18_" fill="#959999" d="M356.1,227.4h131.6v3.5H356.1V227.4z"/>
			<g>
				<g>
					<polygon fill="#AAAAAA" points="385.5,256.1 385.5,257.5 431.1,257.5 431.1,256.1 					"/>
					<polygon fill="#DDDDDD" points="454.7,244.8 385.5,244.8 385.5,246.2 454.7,246.2 					"/>
					<polygon fill="#AAAAAA" points="385.5,254.2 418.6,254.2 418.6,252.8 385.5,252.8 					"/>
				</g>
				<g>
					<polygon fill="#AAAAAA" points="385.5,277.3 418.7,277.3 418.7,276.1 385.5,276.1 					"/>
				</g>
				<g>
					<polygon fill="#AAAAAA" points="385.5,292.1 418.5,292.1 418.5,290.6 385.5,290.6 					"/>
				</g>
				<polygon fill="#AAAAAA" points="410.2,259.8 385.5,259.8 385.5,261.2 410.2,261.2 				"/>
				<polygon fill="#A7E9FF" points="454.9,258.5 443.3,258.5 443.3,259.9 454.9,259.9 				"/>
				<polygon fill="#A7E9FF" points="454.9,261.8 443.3,261.8 443.3,263.2 454.9,263.2 				"/>
				<polygon fill="#A7E9FF" points="454.9,265.1 443.3,265.1 443.3,266.5 454.9,266.5 				"/>
				<polygon fill="#A7E9FF" points="454.9,268.4 443.3,268.4 443.3,269.8 454.9,269.8 				"/>
				<polygon fill="#A7E9FF" points="454.9,271.7 443.3,271.7 443.3,273.1 454.9,273.1 				"/>
				<polygon fill="#A7E9FF" points="454.9,275 443.3,275 443.3,276.4 454.9,276.4 				"/>
				<polygon fill="#A7E9FF" points="454.9,282.4 443.3,282.4 443.3,283.8 454.9,283.8 				"/>
				<polygon fill="#A7E9FF" points="454.9,285.3 443.3,285.3 443.3,286.7 454.9,286.7 				"/>
				<polygon fill="#A7E9FF" points="438.3,280.6 426.7,280.6 426.7,281.9 438.3,281.9 				"/>
				<polygon fill="#A7E9FF" points="454.9,288.2 443.3,288.2 443.3,289.6 454.9,289.6 				"/>
				<polygon fill="#AAAAAA" points="392.7,267.8 385.5,267.8 385.5,269.2 392.7,269.2 				"/>
				<polygon fill="#AAAAAA" points="393.2,271.5 385.5,271.5 385.5,272.8 393.2,272.8 				"/>
				<polygon fill="#AAAAAA" points="408,271.5 396.3,271.5 396.3,272.8 408,272.8 				"/>
				<polygon fill="#FF9900" points="390.2,237.6 385.5,237.6 385.5,238.8 390.2,238.8 				"/>
				<polygon fill="#FF9900" points="414.7,240.1 404.8,240.1 404.8,241.3 414.7,241.3 				"/>
				<polygon fill="#AAAAAA" points="400.6,240.1 385.5,240.1 385.5,241.3 400.6,241.3 				"/>
				<polygon fill="#AAAAAA" points="423.2,240.1 415.8,240.1 415.8,241.3 423.2,241.3 				"/>
				<polygon fill="#AAAAAA" points="431.9,240.1 424.4,240.1 424.4,241.3 431.9,241.3 				"/>
				<polygon fill="#7E7F7F" points="454,240.1 443.6,240.1 443.6,241.3 454,241.3 				"/>
				<polygon fill="#AAAAAA" points="401.2,280.7 385.5,280.7 385.5,281.9 401.2,281.9 				"/>
				<polygon fill="#AAAAAA" points="411.4,263.7 385.5,263.7 385.5,265.1 411.4,265.1 				"/>
				<polygon fill="#A7E9FF" points="406.4,267.8 395.7,267.8 395.7,269.2 406.4,269.2 				"/>
				<polygon fill="#AAAAAA" points="407.8,284 385.5,284 385.5,285.3 407.8,285.3 				"/>
				<polygon fill="#A7E9FF" points="397.4,287.1 385.5,287.1 385.5,288.5 397.4,288.5 				"/>
			</g>
		</g>
	</g>
</g>
<g id="buttons">
	<g id="greenbutton_ON">
		<polygon fill="#65D855" points="526,462 524.3,464.6 537.3,474 539,471.3 		"/>
		<polygon fill="#51BC3F" points="539,471.3 537.3,474 537.3,475.5 539,472.8 		"/>
		<polygon fill="#42683A" points="524.3,464.6 524.3,466.1 537.3,475.5 537.3,474 		"/>
	</g>
	<g id="orangebutton_ON">
		<polygon fill="#E0A64B" points="530.6,454.5 528.9,457.3 541.9,466.5 543.6,463.8 		"/>
		<polygon fill="#B58A35" points="543.6,463.8 541.9,466.5 541.9,468 543.6,465.3 		"/>
		<polygon fill="#7C5B21" points="528.9,457.3 528.9,458.8 541.9,468 541.9,466.5 		"/>
	</g>
	<g id="redbutton_ON">
		<polygon fill="#ED4062" points="535.1,447.3 533.4,450 546.4,459.1 548.2,456.5 		"/>
		<polygon fill="#BC2247" points="548.2,456.5 546.4,459.1 546.4,460.8 548.2,458 		"/>
		<polygon fill="#753246" points="533.4,450 533.4,451.5 546.4,460.8 546.5,459.3 		"/>
	</g>
	<g id="bluebutton_ON">
		<path id="predna_strana_296_" fill="#3FA9F5" d="M222.7,416.9h11.8l2.2,6.6h-11.8L222.7,416.9z"/>
		<path id="predna_strana_295_" fill="#3A7EA0" d="M224.9,423.5h11.8v2.4h-11.8V423.5z"/>
		<path id="predna_strana_294_" fill="#1C3E4F" d="M222.7,419.3v-2.4l2.2,6.6v2.4L222.7,419.3z"/>
	</g>
	<g id="bluebutton_OFF" display="none">
		<path id="predna_strana_43_" display="inline" fill="#B8BCBF" d="M222.7,416.9h11.8l2.2,6.6h-11.8L222.7,416.9z"/>
		<path id="predna_strana_42_" display="inline" fill="#6A6C6D" d="M224.9,423.5h11.8v2.4h-11.8V423.5z"/>
		<path id="predna_strana_41_" display="inline" fill="#2F3335" d="M222.7,419.3v-2.4l2.2,6.6v2.4L222.7,419.3z"/>
	</g>
	<g id="greenbutton_OFF" display="none">
		<polygon display="inline" fill="#A3AFA1" points="526,462 524.3,464.6 537.3,474 539,471.3 		"/>
		<polygon display="inline" fill="#858C84" points="539,471.3 537.3,474 537.3,475.5 539,472.8 		"/>
		<polygon display="inline" fill="#484C47" points="524.3,464.6 524.3,466.1 537.3,475.5 537.3,474 		"/>
	</g>
	<g id="orangebutton_OFF" display="none">
		<polygon display="inline" fill="#A8A39D" points="530.6,454.5 528.9,457.3 541.9,466.5 543.6,463.8 		"/>
		<polygon display="inline" fill="#8C877D" points="543.6,463.8 541.9,466.5 541.9,468 543.6,465.3 		"/>
		<polygon display="inline" fill="#605A4F" points="528.9,457.3 528.9,458.8 541.9,468 541.9,466.5 		"/>
	</g>
	<g id="redbutton_OFF" display="none">
		<polygon display="inline" fill="#AF979C" points="535.1,447.3 533.4,450 546.4,459.1 548.2,456.5 		"/>
		<polygon display="inline" fill="#99878C" points="548.2,456.5 546.4,459.1 546.4,460.8 548.2,458 		"/>
		<polygon display="inline" fill="#56474C" points="533.4,450 533.4,451.5 546.4,460.8 546.5,459.3 		"/>
	</g>
</g>
<polygon fill="#603813" points="349.3,533.5 351,534.7 363.5,534.8 361.6,533.5 "/>
</svg>
