<?xml version="1.0" encoding="utf-8"?>
<!-- Generator: Adobe Illustrator 15.1.0, SVG Export Plug-In . SVG Version: 6.00 Build 0)  -->
<!DOCTYPE svg PUBLIC "-//W3C//DTD SVG 1.1//EN" "http://www.w3.org/Graphics/SVG/1.1/DTD/svg11.dtd">
<svg version="1.1" id="Vrstva_1" xmlns="http://www.w3.org/2000/svg" xmlns:xlink="http://www.w3.org/1999/xlink" x="0px" y="0px"
	 width="8000px" height="1077.8px" viewBox="0 0 8000 1077.8" enable-background="new 0 0 8000 1077.8" xml:space="preserve">
<polygon id="bg_farba_2_" fill="#323235" points="1,-2.2 1,767.6 8000,763.4 8000,-2.2 "/>
<rect x="1" y="751.5" fill="#47474A" width="7999" height="170.4"/>
<polygon fill="#363638" points="1,903.6 1,1077.9 8000,1077.9 8000,903.6 "/>
<polygon id="kolajnice_7_" opacity="0.5" fill="#5F6264" enable-background="new    " points="1,940.3 1,948.6 8000,945.4 
	8000,940.3 "/>
<polygon id="kolajnice_6_" fill="#29292B" points="1,944.8 1,951.4 8000,951.4 8000,944.8 "/>
<polygon id="kolajnice_2_" opacity="0.5" fill="#5F6264" enable-background="new    " points="1,969.6 1,978 8000,974.7 8000,969.6 
	"/>
<polygon id="kolajnice_1_" fill="#29292B" points="1,974.1 1,980.7 8000,980.7 8000,974.1 "/>
<polygon id="bok_koljnc_1_" fill="#29292B" points="1,855.1 1,907.3 8000,907.3 8000,855.1 "/>
<rect x="3389.3" y="-2.2" fill="#2B2A2B" width="1222.8" height="718.2"/>
<g id="linie_na_stene_1_">
	<rect x="3389.3" y="624.2" fill="#272626" width="1218" height="9.9"/>
	<rect x="3389.3" y="522.8" fill="#272626" width="1218" height="9.9"/>
	<rect x="3389.3" y="421.4" fill="#272626" width="1218" height="9.9"/>
	<rect x="3389.3" y="320" fill="#272626" width="1218" height="9.9"/>
	<rect x="4612.1" y="686" fill="#2D2D30" width="3387.9" height="9.9"/>
	<rect x="4612.1" y="584.5" fill="#2D2D30" width="3387.9" height="9.9"/>
	<rect x="4612.1" y="483.1" fill="#2D2D30" width="3387.9" height="9.9"/>
	<rect x="4612.1" y="381.7" fill="#2D2D30" width="3387.9" height="9.9"/>
	<rect x="1" y="683.4" fill="#2D2D30" width="3388.3" height="9.9"/>
	<rect x="1" y="582" fill="#2D2D30" width="3388.3" height="9.9"/>
	<rect x="1" y="480.5" fill="#2D2D30" width="3388.3" height="9.9"/>
	<rect x="1" y="379.1" fill="#2D2D30" width="3388.3" height="9.9"/>
	<rect x="3389.3" y="210.3" fill="#272626" width="1218" height="9.9"/>
	<rect x="4612.1" y="272.1" fill="#2D2D30" width="3387.9" height="9.9"/>
	<rect x="1" y="269.5" fill="#2D2D30" width="3388.3" height="9.9"/>
	<rect x="3389.3" y="96.8" fill="#272626" width="1218" height="9.9"/>
	<rect x="4612.1" y="158.6" fill="#2D2D30" width="3387.9" height="9.9"/>
	<rect x="1" y="156" fill="#2D2D30" width="3388.3" height="9.9"/>
	<rect x="4612.1" y="40.7" fill="#2D2D30" width="3387.9" height="9.9"/>
	<rect x="1" y="38.1" fill="#2D2D30" width="3388.3" height="9.9"/>
</g>
<polyline fill="#47474A" points="3389.3,798 3389.3,699.1 4612.1,699.1 4612.1,773.2 "/>
<g id="chair5_6_">
	<polygon fill="#CDCCCC" points="3759.1,672.6 3754.8,668.5 3764.8,668.5 	"/>
	<g>
		<polygon fill="#5C5C5C" points="3764.8,638.6 3759.4,672 3754.8,668.5 3754.8,679.1 3763.8,685.7 3771.3,643.5 		"/>
		<polygon fill="#CDCCCC" points="3787.1,643.5 3771.3,643.5 3763.8,685.7 3779.6,685.7 		"/>
		<polygon fill="#ED7474" points="3729,631.3 3744.4,646.1 3756.2,651.5 3787.6,656.1 3821.2,651.5 3794.1,631.1 		"/>
		<polygon fill="#C13836" points="3821.2,651.5 3756.2,651.5 3753.8,654.4 3756.2,657.3 3821.2,657.3 		"/>
		<polygon fill="#822D2D" points="3729,631.3 3729,637.1 3756.2,657.3 3756.2,651.5 		"/>
		<polygon fill="#C13836" points="3795.5,612.5 3730.4,612.5 3731,634.3 3798.2,634.2 		"/>
		<polygon fill="#822D2D" points="3729,611.3 3729,636.3 3733.4,637.3 3730.4,612.5 		"/>
		<polygon fill="#ED7474" points="3729,611.3 3730.4,612.5 3795.5,612.5 3794.1,611.3 		"/>
	</g>
</g>
<g id="chair5_2_">
	<polygon fill="#CDCCCC" points="3858.7,672.6 3854.4,668.5 3864.4,668.5 	"/>
	<g>
		<polygon fill="#5C5C5C" points="3864.4,638.6 3859,672 3854.4,668.5 3854.4,679.1 3863.4,685.7 3870.9,643.5 		"/>
		<polygon fill="#CDCCCC" points="3886.7,643.5 3870.9,643.5 3863.4,685.7 3879.2,685.7 		"/>
		<polygon fill="#ED7474" points="3828.6,631.3 3844,646.1 3855.8,651.5 3887.2,656.1 3920.8,651.5 3893.7,631.1 		"/>
		<polygon fill="#C13836" points="3920.8,651.5 3855.8,651.5 3853.4,654.4 3855.8,657.3 3920.8,657.3 		"/>
		<polygon fill="#822D2D" points="3828.6,631.3 3828.6,637.1 3855.8,657.3 3855.8,651.5 		"/>
		<polygon fill="#C13836" points="3895.1,612.5 3830,612.5 3830.6,634.3 3897.8,634.2 		"/>
		<polygon fill="#822D2D" points="3828.6,611.3 3828.6,636.3 3833,637.3 3830,612.5 		"/>
		<polygon fill="#ED7474" points="3828.6,611.3 3830,612.5 3895.1,612.5 3893.7,611.3 		"/>
	</g>
</g>
<g id="chair5_3_">
	<polygon fill="#CDCCCC" points="3958.3,672.6 3954,668.5 3964,668.5 	"/>
	<g>
		<polygon fill="#5C5C5C" points="3964,638.6 3958.6,672 3954,668.5 3954,679.1 3963,685.7 3970.5,643.5 		"/>
		<polygon fill="#CDCCCC" points="3986.3,643.5 3970.5,643.5 3963,685.7 3978.8,685.7 		"/>
		<polygon fill="#ED7474" points="3928.2,631.3 3943.6,646.1 3955.4,651.5 3986.8,656.1 4020.4,651.5 3993.3,631.1 		"/>
		<polygon fill="#C13836" points="4020.4,651.5 3955.4,651.5 3953,654.4 3955.4,657.3 4020.4,657.3 		"/>
		<polygon fill="#822D2D" points="3928.2,631.3 3928.2,637.1 3955.4,657.3 3955.4,651.5 		"/>
		<polygon fill="#C13836" points="3994.7,612.5 3929.6,612.5 3930.2,634.3 3997.4,634.2 		"/>
		<polygon fill="#822D2D" points="3928.2,611.3 3928.2,636.3 3932.6,637.3 3929.6,612.5 		"/>
		<polygon fill="#ED7474" points="3928.2,611.3 3929.6,612.5 3994.7,612.5 3993.3,611.3 		"/>
	</g>
</g>
<g id="chair5_4_">
	<polygon fill="#CDCCCC" points="4057.9,672.6 4053.6,668.5 4063.6,668.5 	"/>
	<g>
		<polygon fill="#5C5C5C" points="4063.6,638.6 4058.2,672 4053.6,668.5 4053.6,679.1 4062.6,685.7 4070.1,643.5 		"/>
		<polygon fill="#CDCCCC" points="4085.9,643.5 4070.1,643.5 4062.6,685.7 4078.4,685.7 		"/>
		<polygon fill="#ED7474" points="4027.8,631.3 4043.2,646.1 4055,651.5 4086.4,656.1 4120,651.5 4092.9,631.1 		"/>
		<polygon fill="#C13836" points="4120,651.5 4055,651.5 4052.6,654.4 4055,657.3 4120,657.3 		"/>
		<polygon fill="#822D2D" points="4027.8,631.3 4027.8,637.1 4055,657.3 4055,651.5 		"/>
		<polygon fill="#C13836" points="4094.3,612.5 4029.2,612.5 4029.8,634.3 4097,634.2 		"/>
		<polygon fill="#822D2D" points="4027.8,611.3 4027.8,636.3 4032.2,637.3 4029.2,612.5 		"/>
		<polygon fill="#ED7474" points="4027.8,611.3 4029.2,612.5 4094.3,612.5 4092.9,611.3 		"/>
	</g>
</g>
<g id="chair5_5_">
	<polygon fill="#CDCCCC" points="4157.5,672.6 4153.2,668.5 4163.2,668.5 	"/>
	<g>
		<polygon fill="#5C5C5C" points="4163.2,638.6 4157.8,672 4153.2,668.5 4153.2,679.1 4162.2,685.7 4169.7,643.5 		"/>
		<polygon fill="#CDCCCC" points="4185.5,643.5 4169.7,643.5 4162.2,685.7 4178,685.7 		"/>
		<polygon fill="#ED7474" points="4127.4,631.3 4142.8,646.1 4154.6,651.5 4186,656.1 4219.6,651.5 4192.5,631.1 		"/>
		<polygon fill="#C13836" points="4219.6,651.5 4154.6,651.5 4152.2,654.4 4154.6,657.3 4219.6,657.3 		"/>
		<polygon fill="#822D2D" points="4127.4,631.3 4127.4,637.1 4154.6,657.3 4154.6,651.5 		"/>
		<polygon fill="#C13836" points="4193.9,612.5 4128.8,612.5 4129.4,634.3 4196.6,634.2 		"/>
		<polygon fill="#822D2D" points="4127.4,611.3 4127.4,636.3 4131.8,637.3 4128.8,612.5 		"/>
		<polygon fill="#ED7474" points="4127.4,611.3 4128.8,612.5 4193.9,612.5 4192.5,611.3 		"/>
	</g>
</g>
<g id="chair5_7_">
	<polygon fill="#CDCCCC" points="4257.1,672.6 4252.8,668.5 4262.8,668.5 	"/>
	<g>
		<polygon fill="#5C5C5C" points="4262.8,638.6 4257.4,672 4252.8,668.5 4252.8,679.1 4261.8,685.7 4269.3,643.5 		"/>
		<polygon fill="#CDCCCC" points="4285.1,643.5 4269.3,643.5 4261.8,685.7 4277.6,685.7 		"/>
		<polygon fill="#ED7474" points="4227,631.3 4242.4,646.1 4254.2,651.5 4285.6,656.1 4319.2,651.5 4292.1,631.1 		"/>
		<polygon fill="#C13836" points="4319.2,651.5 4254.2,651.5 4251.8,654.4 4254.2,657.3 4319.2,657.3 		"/>
		<polygon fill="#822D2D" points="4227,631.3 4227,637.1 4254.2,657.3 4254.2,651.5 		"/>
		<polygon fill="#C13836" points="4293.5,612.5 4228.4,612.5 4229,634.3 4296.2,634.2 		"/>
		<polygon fill="#822D2D" points="4227,611.3 4227,636.3 4231.4,637.3 4228.4,612.5 		"/>
		<polygon fill="#ED7474" points="4227,611.3 4228.4,612.5 4293.5,612.5 4292.1,611.3 		"/>
	</g>
</g>
<polygon fill="#212121" points="4595.8,-3.4 4612.1,-3.4 4612.1,751.5 4595.8,738.3 "/>
<polygon fill="#AD9531" points="1,808.6 1,826.8 8000,826.8 8000,808.6 "/>
<g>
	<polygon fill="#2B2C2B" points="4430.4,575.8 4430.4,666.9 4433.8,669.5 4433.8,578.3 	"/>
	<polygon fill="#4E4E4E" points="4441.9,578.3 4433.8,578.3 4433.8,669.5 4441.9,669.4 	"/>
	<polygon fill="#B9BABC" points="4430.4,575.8 4433.8,578.3 4441.9,578.3 4438.5,575.7 	"/>
</g>
<g>
	<polygon fill="#272626" points="4412,589.2 4412,668.8 4433.3,684.7 4433.3,605.1 	"/>
	<polygon fill="#4E4E4E" points="4484.3,605 4433.3,605.1 4433.3,684.7 4484.3,684.6 	"/>
	<polygon fill="#B9BABC" points="4412,589.2 4433.3,605.1 4484.3,605 4463,589.1 	"/>
	<polygon fill="#4E4E4E" points="4417.3,590.3 4435.5,603.9 4479.1,603.8 4460.9,590.3 	"/>
	<polygon fill="#2B2C2B" points="4460.9,603.9 4479.1,603.8 4460.9,590.3 	"/>
</g>
</svg>
