<?xml version="1.0" encoding="utf-8"?>
<!-- Generator: Adobe Illustrator 15.1.0, SVG Export Plug-In . SVG Version: 6.00 Build 0)  -->
<!DOCTYPE svg PUBLIC "-//W3C//DTD SVG 1.1//EN" "http://www.w3.org/Graphics/SVG/1.1/DTD/svg11.dtd">
<svg version="1.1" id="Vrstva_1" xmlns="http://www.w3.org/2000/svg" xmlns:xlink="http://www.w3.org/1999/xlink" x="0px" y="0px"
	 width="2000px" height="1729.8px" viewBox="3000 0 2000 1729.8" enable-background="new 3000 0 2000 1729.8" xml:space="preserve">
<polygon id="bg_farba_2_" fill="#323235" points="3000,0 3000,1414.9 5000,1407.2 5000,0 "/>
<rect x="3000" y="1398.8" fill="#47474A" width="2000" height="170.4"/>
<polygon fill="#363638" points="3000,1550.9 3000,1730.2 5000,1730.2 5000,1550.9 "/>
<polygon id="kolajnice_7_" opacity="0.5" fill="#5F6264" enable-background="new    " points="3000,1587.6 3000,1595.9 5000,1592.7 
	5000,1587.6 "/>
<polygon id="kolajnice_6_" fill="#29292B" points="3000,1592.1 3000,1598.7 5000,1598.7 5000,1592.1 "/>
<polygon id="kolajnice_2_" opacity="0.5" fill="#5F6264" enable-background="new    " points="3000,1616.9 3000,1625.3 5000,1622 
	5000,1616.9 "/>
<polygon id="kolajnice_1_" fill="#29292B" points="3000,1621.4 3000,1628 5000,1628 5000,1621.4 "/>
<polygon id="bok_koljnc_1_" fill="#29292B" points="3000,1502.4 3000,1554.6 5000,1554.6 5000,1502.4 "/>
<rect x="3389.3" y="645.1" fill="#2B2A2B" width="1222.8" height="718.2"/>
<g id="linie_na_stene_1_">
	<rect x="3389.3" y="1271.5" fill="#272626" width="1218" height="9.9"/>
	<rect x="3389.3" y="1170.1" fill="#272626" width="1218" height="9.9"/>
	<rect x="3389.3" y="1068.7" fill="#272626" width="1218" height="9.9"/>
	<rect x="3389.3" y="967.3" fill="#272626" width="1218" height="9.9"/>
	<rect x="4612.1" y="1333.3" fill="#2D2D30" width="387.9" height="9.9"/>
	<rect x="4612.1" y="1231.8" fill="#2D2D30" width="387.9" height="9.9"/>
	<rect x="4612.1" y="1130.4" fill="#2D2D30" width="387.9" height="9.9"/>
	<rect x="4612.1" y="1029" fill="#2D2D30" width="387.9" height="9.9"/>
	<rect x="3000" y="1330.7" fill="#2D2D30" width="389.3" height="9.9"/>
	<rect x="3000" y="1229.3" fill="#2D2D30" width="389.3" height="9.9"/>
	<rect x="3000" y="1127.8" fill="#2D2D30" width="389.3" height="9.9"/>
	<rect x="3000" y="1026.4" fill="#2D2D30" width="389.3" height="9.9"/>
	<rect x="3389.3" y="857.6" fill="#272626" width="1218" height="9.9"/>
	<rect x="4612.1" y="919.4" fill="#2D2D30" width="387.9" height="9.9"/>
	<rect x="3000" y="916.8" fill="#2D2D30" width="389.3" height="9.9"/>
	<rect x="3389.3" y="744.1" fill="#272626" width="1218" height="9.9"/>
	<rect x="4612.1" y="805.9" fill="#2D2D30" width="387.9" height="9.9"/>
	<rect x="3000" y="803.3" fill="#2D2D30" width="389.3" height="9.9"/>
	<rect x="4612.1" y="688" fill="#2D2D30" width="387.9" height="9.9"/>
	<rect x="3000" y="685.4" fill="#2D2D30" width="389.3" height="9.9"/>
</g>
<rect x="3389.3" y="0.1" fill="#2B2A2B" width="1222.8" height="718.2"/>
<g id="linie_na_stene_2_">
	<rect x="3389.3" y="626.5" fill="#272626" width="1218" height="9.9"/>
	<rect x="3389.3" y="525.1" fill="#272626" width="1218" height="9.9"/>
	<rect x="3389.3" y="423.7" fill="#272626" width="1218" height="9.9"/>
	<rect x="3389.3" y="322.3" fill="#272626" width="1218" height="9.9"/>
	<rect x="4612.1" y="586.8" fill="#2D2D30" width="387.9" height="9.9"/>
	<rect x="4612.1" y="485.4" fill="#2D2D30" width="387.9" height="9.9"/>
	<rect x="4612.1" y="384" fill="#2D2D30" width="387.9" height="9.9"/>
	<rect x="3000" y="584.3" fill="#2D2D30" width="389.3" height="9.9"/>
	<rect x="3000" y="482.8" fill="#2D2D30" width="389.3" height="9.9"/>
	<rect x="3000" y="381.4" fill="#2D2D30" width="389.3" height="9.9"/>
	<rect x="3389.3" y="212.6" fill="#272626" width="1218" height="9.9"/>
	<rect x="4612.1" y="274.4" fill="#2D2D30" width="387.9" height="9.9"/>
	<rect x="3000" y="271.8" fill="#2D2D30" width="389.3" height="9.9"/>
	<rect x="3389.3" y="99.1" fill="#272626" width="1218" height="9.9"/>
	<rect x="4612.1" y="160.9" fill="#2D2D30" width="387.9" height="9.9"/>
	<rect x="3000" y="158.3" fill="#2D2D30" width="389.3" height="9.9"/>
	<rect x="4612.1" y="43" fill="#2D2D30" width="387.9" height="9.9"/>
	<rect x="3000" y="40.4" fill="#2D2D30" width="389.3" height="9.9"/>
</g>
<polyline fill="#47474A" points="3389.3,1445.3 3389.3,1346.4 4612.1,1346.4 4612.1,1420.5 "/>
<g id="chair5_6_">
	<polygon fill="#CDCCCC" points="3739.1,1320.9 3734.8,1316.8 3744.8,1316.8 	"/>
	<g>
		<polygon fill="#5C5C5C" points="3744.8,1286.9 3739.4,1320.3 3734.8,1316.8 3734.8,1327.4 3743.8,1334 3751.3,1291.8 		"/>
		<polygon fill="#CDCCCC" points="3767.1,1291.8 3751.3,1291.8 3743.8,1334 3759.6,1334 		"/>
		<polygon fill="#ED7474" points="3709,1279.6 3724.4,1294.4 3736.2,1299.8 3767.6,1304.4 3801.2,1299.8 3774.1,1279.4 		"/>
		<polygon fill="#C13836" points="3801.2,1299.8 3736.2,1299.8 3733.8,1302.7 3736.2,1305.6 3801.2,1305.6 		"/>
		<polygon fill="#822D2D" points="3709,1279.6 3709,1285.4 3736.2,1305.6 3736.2,1299.8 		"/>
		<polygon fill="#C13836" points="3775.5,1260.8 3710.4,1260.8 3711,1282.6 3778.2,1282.5 		"/>
		<polygon fill="#822D2D" points="3709,1259.6 3709,1284.6 3713.4,1285.6 3710.4,1260.8 		"/>
		<polygon fill="#ED7474" points="3709,1259.6 3710.4,1260.8 3775.5,1260.8 3774.1,1259.6 		"/>
	</g>
</g>
<g id="chair5_2_">
	<polygon fill="#CDCCCC" points="3838.7,1320.9 3834.4,1316.8 3844.4,1316.8 	"/>
	<g>
		<polygon fill="#5C5C5C" points="3844.4,1286.9 3839,1320.3 3834.4,1316.8 3834.4,1327.4 3843.4,1334 3850.9,1291.8 		"/>
		<polygon fill="#CDCCCC" points="3866.7,1291.8 3850.9,1291.8 3843.4,1334 3859.2,1334 		"/>
		<polygon fill="#ED7474" points="3808.6,1279.6 3824,1294.4 3835.8,1299.8 3867.2,1304.4 3900.8,1299.8 3873.7,1279.4 		"/>
		<polygon fill="#C13836" points="3900.8,1299.8 3835.8,1299.8 3833.4,1302.7 3835.8,1305.6 3900.8,1305.6 		"/>
		<polygon fill="#822D2D" points="3808.6,1279.6 3808.6,1285.4 3835.8,1305.6 3835.8,1299.8 		"/>
		<polygon fill="#C13836" points="3875.1,1260.8 3810,1260.8 3810.6,1282.6 3877.8,1282.5 		"/>
		<polygon fill="#822D2D" points="3808.6,1259.6 3808.6,1284.6 3813,1285.6 3810,1260.8 		"/>
		<polygon fill="#ED7474" points="3808.6,1259.6 3810,1260.8 3875.1,1260.8 3873.7,1259.6 		"/>
	</g>
</g>
<g id="chair5_3_">
	<polygon fill="#CDCCCC" points="3938.3,1320.9 3934,1316.8 3944,1316.8 	"/>
	<g>
		<polygon fill="#5C5C5C" points="3944,1286.9 3938.6,1320.3 3934,1316.8 3934,1327.4 3943,1334 3950.5,1291.8 		"/>
		<polygon fill="#CDCCCC" points="3966.3,1291.8 3950.5,1291.8 3943,1334 3958.8,1334 		"/>
		<polygon fill="#ED7474" points="3908.2,1279.6 3923.6,1294.4 3935.4,1299.8 3966.8,1304.4 4000.4,1299.8 3973.3,1279.4 		"/>
		<polygon fill="#C13836" points="4000.4,1299.8 3935.4,1299.8 3933,1302.7 3935.4,1305.6 4000.4,1305.6 		"/>
		<polygon fill="#822D2D" points="3908.2,1279.6 3908.2,1285.4 3935.4,1305.6 3935.4,1299.8 		"/>
		<polygon fill="#C13836" points="3974.7,1260.8 3909.6,1260.8 3910.2,1282.6 3977.4,1282.5 		"/>
		<polygon fill="#822D2D" points="3908.2,1259.6 3908.2,1284.6 3912.6,1285.6 3909.6,1260.8 		"/>
		<polygon fill="#ED7474" points="3908.2,1259.6 3909.6,1260.8 3974.7,1260.8 3973.3,1259.6 		"/>
	</g>
</g>
<g id="chair5_4_">
	<polygon fill="#CDCCCC" points="4037.9,1320.9 4033.6,1316.8 4043.6,1316.8 	"/>
	<g>
		<polygon fill="#5C5C5C" points="4043.6,1286.9 4038.2,1320.3 4033.6,1316.8 4033.6,1327.4 4042.6,1334 4050.1,1291.8 		"/>
		<polygon fill="#CDCCCC" points="4065.9,1291.8 4050.1,1291.8 4042.6,1334 4058.4,1334 		"/>
		<polygon fill="#ED7474" points="4007.8,1279.6 4023.2,1294.4 4035,1299.8 4066.4,1304.4 4100,1299.8 4072.9,1279.4 		"/>
		<polygon fill="#C13836" points="4100,1299.8 4035,1299.8 4032.6,1302.7 4035,1305.6 4100,1305.6 		"/>
		<polygon fill="#822D2D" points="4007.8,1279.6 4007.8,1285.4 4035,1305.6 4035,1299.8 		"/>
		<polygon fill="#C13836" points="4074.3,1260.8 4009.2,1260.8 4009.8,1282.6 4077,1282.5 		"/>
		<polygon fill="#822D2D" points="4007.8,1259.6 4007.8,1284.6 4012.2,1285.6 4009.2,1260.8 		"/>
		<polygon fill="#ED7474" points="4007.8,1259.6 4009.2,1260.8 4074.3,1260.8 4072.9,1259.6 		"/>
	</g>
</g>
<g id="chair5_5_">
	<polygon fill="#CDCCCC" points="4137.5,1320.9 4133.2,1316.8 4143.2,1316.8 	"/>
	<g>
		<polygon fill="#5C5C5C" points="4143.2,1286.9 4137.8,1320.3 4133.2,1316.8 4133.2,1327.4 4142.2,1334 4149.7,1291.8 		"/>
		<polygon fill="#CDCCCC" points="4165.5,1291.8 4149.7,1291.8 4142.2,1334 4158,1334 		"/>
		<polygon fill="#ED7474" points="4107.4,1279.6 4122.8,1294.4 4134.6,1299.8 4166,1304.4 4199.6,1299.8 4172.5,1279.4 		"/>
		<polygon fill="#C13836" points="4199.6,1299.8 4134.6,1299.8 4132.2,1302.7 4134.6,1305.6 4199.6,1305.6 		"/>
		<polygon fill="#822D2D" points="4107.4,1279.6 4107.4,1285.4 4134.6,1305.6 4134.6,1299.8 		"/>
		<polygon fill="#C13836" points="4173.9,1260.8 4108.8,1260.8 4109.4,1282.6 4176.6,1282.5 		"/>
		<polygon fill="#822D2D" points="4107.4,1259.6 4107.4,1284.6 4111.8,1285.6 4108.8,1260.8 		"/>
		<polygon fill="#ED7474" points="4107.4,1259.6 4108.8,1260.8 4173.9,1260.8 4172.5,1259.6 		"/>
	</g>
</g>
<g id="chair5_7_">
	<polygon fill="#CDCCCC" points="4237.1,1320.9 4232.8,1316.8 4242.8,1316.8 	"/>
	<g>
		<polygon fill="#5C5C5C" points="4242.8,1286.9 4237.4,1320.3 4232.8,1316.8 4232.8,1327.4 4241.8,1334 4249.3,1291.8 		"/>
		<polygon fill="#CDCCCC" points="4265.1,1291.8 4249.3,1291.8 4241.8,1334 4257.6,1334 		"/>
		<polygon fill="#ED7474" points="4207,1279.6 4222.4,1294.4 4234.2,1299.8 4265.6,1304.4 4299.2,1299.8 4272.1,1279.4 		"/>
		<polygon fill="#C13836" points="4299.2,1299.8 4234.2,1299.8 4231.8,1302.7 4234.2,1305.6 4299.2,1305.6 		"/>
		<polygon fill="#822D2D" points="4207,1279.6 4207,1285.4 4234.2,1305.6 4234.2,1299.8 		"/>
		<polygon fill="#C13836" points="4273.5,1260.8 4208.4,1260.8 4209,1282.6 4276.2,1282.5 		"/>
		<polygon fill="#822D2D" points="4207,1259.6 4207,1284.6 4211.4,1285.6 4208.4,1260.8 		"/>
		<polygon fill="#ED7474" points="4207,1259.6 4208.4,1260.8 4273.5,1260.8 4272.1,1259.6 		"/>
	</g>
</g>
<polygon fill="#212121" points="4595.8,0.1 4612.1,0.1 4612.1,1398.8 4595.8,1385.6 "/>
<polygon fill="#AD9531" points="3000,1455.9 3000,1474.1 5000,1474.1 5000,1455.9 "/>
<g>
	<polygon fill="#2B2C2B" points="4421.9,1211.1 4421.9,1302.2 4425.3,1304.8 4425.3,1213.6 	"/>
	<polygon fill="#4E4E4E" points="4433.4,1213.6 4425.3,1213.6 4425.3,1304.8 4433.4,1304.7 	"/>
	<polygon fill="#B9BABC" points="4421.9,1211.1 4425.3,1213.6 4433.4,1213.6 4430,1211 	"/>
</g>
<g>
	<polygon fill="#272626" points="4403.5,1224.5 4403.5,1304.1 4424.8,1320 4424.8,1240.4 	"/>
	<polygon fill="#4E4E4E" points="4475.8,1240.3 4424.8,1240.4 4424.8,1320 4475.8,1319.9 	"/>
	<polygon fill="#B9BABC" points="4403.5,1224.5 4424.8,1240.4 4475.8,1240.3 4454.5,1224.4 	"/>
	<polygon fill="#4E4E4E" points="4408.8,1225.6 4427,1239.2 4470.6,1239.1 4452.4,1225.6 	"/>
	<polygon fill="#2B2C2B" points="4452.4,1239.2 4470.6,1239.1 4452.4,1225.6 	"/>
</g>
</svg>
