<?xml version="1.0" encoding="utf-8"?>
<!-- Generator: Adobe Illustrator 15.1.0, SVG Export Plug-In . SVG Version: 6.00 Build 0)  -->
<!DOCTYPE svg PUBLIC "-//W3C//DTD SVG 1.1//EN" "http://www.w3.org/Graphics/SVG/1.1/DTD/svg11.dtd">
<svg version="1.1" id="design" xmlns="http://www.w3.org/2000/svg" xmlns:xlink="http://www.w3.org/1999/xlink" x="0px" y="0px"
	 width="790px" height="640px" viewBox="0 0 790 640" enable-background="new 0 0 790 640" xml:space="preserve">
     <style>
        #plant:hover, #tabula_poznamky svg {
            cursor: pointer;
        }
        svg {
            width: 100%;
            height: 100%;
            position: absolute;
            top: 0;
            left: 0;
        }

        @-moz-document url-prefix() {
           svg {
               position: static;
               width: auto;
               height: auto;
           }
        }
    </style>
<g id="Vrstva_1_1_">
	<g id="design_room">
		<polygon id="podklad_2_" fill="#775C46" points="776.9,584.5 257.1,595.7 97.8,480 618.1,469.1 		"/>
		<polygon fill="#E5DD48" points="619.5,515.4 97.8,519 254.4,637.2 776.6,633.6 		"/>
		<path id="predna_strana_11_" fill="#8E6C55" d="M97.8,470.2l520.3-1.1L777,594.3l-520.3,1.1L97.8,470.2z"/>
		<polygon id="lava_strana_136_" fill="#846A55" points="230.1,566.3 230.1,576.2 256.6,595.4 256.6,585.6 		"/>
		<polygon fill="#AF8B6E" points="750.5,565.3 587.9,565.6 614.9,584.8 776.9,584.5 		"/>
		<polygon fill="#8E6C55" points="587.9,565.6 230.1,566.3 256.6,585.6 614.9,584.8 		"/>
		<polygon id="lava_strana_135_" fill="#705542" points="203.7,547.1 203.7,556.9 230.1,576.2 230.1,566.3 		"/>
		<polygon fill="#89664C" points="375.9,546.7 203.7,547.1 230.1,566.3 402.4,566 		"/>
		<polygon fill="#A0785D" points="723.9,546 375.9,546.7 402.4,566 750.5,565.3 		"/>
		<polygon id="lava_strana_134_" fill="#91725D" points="177.2,527.9 177.2,537.7 203.7,556.9 203.7,547.1 		"/>
		<polygon fill="#82624D" points="697.5,526.8 535,527.1 561.8,546.3 723.9,546 		"/>
		<polygon fill="#AF8B6E" points="535,527.1 177.2,527.9 203.7,547.1 561.8,546.3 		"/>
		<polygon id="lava_strana_133_" fill="#826551" points="150.7,508.7 150.7,518.5 177.2,537.7 177.2,527.9 		"/>
		<polygon fill="#AA8163" points="323,508.3 150.7,508.7 177.2,527.9 349.5,527.5 		"/>
		<polygon fill="#8C644F" points="671,507.5 323,508.3 349.5,527.5 697.5,526.8 		"/>
		<polygon id="lava_strana_132_" fill="#70533F" points="124.3,489.4 124.3,499.3 150.7,518.5 150.7,508.7 		"/>
		<polygon fill="#AF8B6E" points="644.6,488.3 482,488.7 508.9,507.9 671,507.5 		"/>
		<polygon fill="#997258" points="482,488.7 124.3,489.4 150.7,508.7 508.9,507.9 		"/>
		<polygon id="lava_strana_131_" fill="#5E4232" points="97.8,470.2 97.8,480 124.3,499.3 124.3,489.4 		"/>
		<polygon fill="#87614E" points="270.1,469.8 97.8,470.2 124.3,489.4 296.6,489.1 		"/>
		<polygon fill="#A88062" points="618.1,469.1 270.1,469.8 296.6,489.1 644.6,488.3 		"/>
		<path id="predna_strana_437_" fill="#685443" d="M256.6,585.6l520.3-1.1v9.8l-520.3,1.1V585.6L256.6,585.6z"/>
		<polygon id="lava_strana_13_" fill="#605D36" points="173.3,315.9 173.3,322 205.7,345.5 205.7,339.4 		"/>
		<polygon fill="#D8D8A3" points="366.6,315.5 173.3,315.9 205.7,339.4 343.8,341.3 400.4,340 		"/>
		<path id="predna_strana_5_" fill="#999664" d="M205.7,339.4l194.7,0.6v6.1l-194.7-0.6V339.4z"/>
		<g id="tabula_poznamky">
			<path id="predna_strana_431_" opacity="0.2" fill="#808080" enable-background="new" d="M777.5,360.3h3.5v178.3h-3.5V360.3z"/>
			<polygon id="lava_strana_116_" opacity="0.2" fill="#242D2D" enable-background="new" points="676.8,288.1 676.8,466.4 777.5,538.7 777.5,360.3"/>
            <svg>
			    <polygon class="note" fill="#B4F734" points="714.4,320.7 703.7,313.1 703.7,333 714.4,340.6"/>
            </svg>
            <svg>
			    <polygon class="note" fill="#FFC32E" points="685.4,446.6 674.7,439 674.7,458.9 685.4,466.5"/>
            </svg>
            <svg>
			    <polygon class="note" fill="#FFC32E" points="683.1,366.7 672.4,359.1 672.4,379.1 683.1,386.7"/>
            </svg>
            <svg>
			    <polygon class="note" fill="#FFC32E" points="713.7,351 703,343.4 703,363.4 713.7,370.9"/>
            </svg>
            <svg>
			    <polygon class="note" fill="#B4F734" points="690.8,337.2 680.1,329.6 680.1,349.5 690.8,357.1"/>
            </svg>
            <svg>
			    <polygon class="note" fill="#B4F734" points="703.8,375.5 693.1,367.9 693.1,387.8 703.8,395.4"/>
            </svg>
            <svg>
			    <polygon fill="#B4F734" points="689.4,401.1 678.7,393.5 678.7,413.4 689.4,421"/>
            </svg>
            <svg>
			    <polygon fill="#B4F734" points="724.2,379.7 713.5,372.1 713.5,392 724.2,399.6"/>
            </svg>
            <svg>
			    <polygon fill="#F2F2F2" points="760.2,451.5 737.5,435.4 737.5,492.2 760.2,508.4"/>
            </svg>
            <svg>
			    <polygon fill="#F2F2F2" points="756.9,372.5 734.2,356.4 734.2,413.2 756.9,429.4"/>
            </svg>
            <svg>
			    <polygon fill="#FFC32E" points="717.7,407.4 707,399.8 707,419.8 717.7,427.4"/>
            </svg>
            <svg>
			    <polygon fill="#B4F734" points="709.1,475.7 698.4,468.2 698.4,488.1 709.1,495.7"/>
            </svg>
            <svg>
			    <polygon fill="#B4F734" points="709,441.5 698.3,433.9 698.3,453.9 709,461.5"/>
            </svg>
            <svg>
			    <polygon fill="#FFC32E" points="694.8,299 684.1,291.4 684.1,311.3 694.8,318.9"/>
            </svg>
			<polygon opacity="0.2" fill="#B3B3B3" enable-background="new" points="678.8,288.1 676.8,288.1 777.5,360.3 781,360.4"/>
		</g>
		<polygon fill="#73898C" points="256.7,459 225.1,459.1 228.1,461.2 260.1,461.2 		"/>
		<path id="predna_strana_388_" fill="#313D3D" d="M228.1,461.2l31.9-0.1v4.7l-31.9,0.1V461.2z"/>
		<polygon fill="#415051" points="255.2,461.2 255.2,465.8 261.7,470.1 261.7,465.4 		"/>
		<polygon fill="#415051" points="268.3,466.6 268.3,471.2 254.4,476.1 254.4,471.5 		"/>
		<polygon fill="#AFE548" points="252.2,471.1 211.5,471.2 322.4,551.9 364,552.5 		"/>
		<polygon fill="#AFE548" points="325.2,497.5 283.6,496.9 319,522.7 360.7,523.2 		"/>
		<polygon fill="#AFE548" points="257.3,500.8 215.8,500.3 279.3,546.4 320.7,546.9 		"/>
		<path fill="#99BC39" d="M251.1,453.6c-0.4-0.4-0.8-0.6-1.2-0.6c-1.2,0-40.3,0-40.3,0l2.3,18.3l40.3-0.2c1.2,0,2.1-2.1,2.1-5.7
			C254.4,460.8,252.9,455.5,251.1,453.6z"/>
		<path fill="#404F34" d="M214.2,465.6c0,4.7-1.5,6.9-3.3,5.1c-1.8-1.8-3.3-7.1-3.3-11.8c0-4.7,1.5-6.9,3.3-5.1
			C212.7,455.7,214.2,461,214.2,465.6z"/>
		<polygon fill="#73898C" points="260.8,475.6 255.9,475.6 255.9,480.3 260.8,480.3 		"/>
		<polygon fill="#BD2B3B" points="269.9,481.2 265.1,488.5 255.6,481.6 260.8,474.5 		"/>
		<g>
			<polygon fill="#EDDC94" points="657.7,557.5 664.6,557.4 633.9,535.9 627,535.9"/>
			<polygon fill="#D3C96E" points="654.3,563.4 657.7,557.5 627,535.9 623.7,541.9 			"/>
			<polygon fill="#8C771C" points="657.8,569.2 654.3,563.4 623.7,541.9 627.1,547.7 			"/>
			<polygon fill="#E0C7A9" points="673.2,571.8 664.6,557.4 657.7,557.5 			"/>
			<polygon fill="#C4A98C" points="673.2,571.8 654.3,563.4 657.7,557.5 			"/>
			<polygon fill="#7F6957" points="673.2,571.8 654.3,563.4 657.8,569.2 			"/>
			<polygon fill="#EDDC94" points="673.2,571.8 669.4,565.4 666.3,565.4 			"/>
			<polygon fill="#D3C96E" points="673.2,571.8 664.8,568 666.3,565.4 			"/>
			<polygon fill="#8C771C" points="673.2,571.8 664.8,568 666.3,570.6 			"/>
		</g>
		<polygon fill="#415051" points="247.7,470.2 247.7,474.9 255.9,480.3 255.9,475.6 		"/>
		<polygon fill="#73898C" points="268.3,466.6 256.7,459 253.8,459 254.1,460.4 261.7,465.4 247.7,470.2 255.9,475.6 260.8,475.6 
			254.4,471.5 		"/>
		<g>
			<circle fill="#BD2B3B" cx="258.2" cy="478.1" r="4.4"/>
		</g>
		<g>
			<circle fill="#612B3B" cx="267.5" cy="484.8" r="4.4"/>
		</g>
		<g>
			<polygon fill="#4C4C4C" points="686.4,502 647.4,498.1 652.5,534.6 686.4,534.9 			"/>
			<polygon fill="#5E5E5E" points="680.9,498.2 647.2,498 652.5,501.8 686.4,502 			"/>
			<polygon id="lava_strana_111_" fill="#282726" points="647.2,498 647.2,530.8 652.5,534.6 652.5,501.8 			"/>
		</g>
		<polygon id="lava_strana_108_" fill="#726B6D" points="665.7,516.4 665.7,523.3 718.6,561.8 718.6,554.8 		"/>
		<polygon fill="#DFE0DE" points="673.2,516.3 665.7,516.4 718.6,554.8 726.3,554.9 		"/>
		<path id="predna_strana_14_" fill="#999664" d="M718.6,554.8l7.7,0.1v6.9l-7.7-0.1V554.8z"/>
		<g>
			<polygon fill="#4C4C4C" points="744.5,544.3 705.4,540.3 710.5,576.9 744.5,577.1 			"/>
			<polygon fill="#5E5E5E" points="739,540.5 705.3,540.2 710.5,544 744.5,544.3 			"/>
			<polygon id="lava_strana_109_" fill="#282726" points="705.3,540.2 705.3,573 710.5,576.9 710.5,544 			"/>
		</g>
		<g>
			<polygon fill="#5E5E5E" points="739.8,548.7 715.6,548.5 719.3,551.3 743.7,551.4 			"/>
			<polygon fill="#4C4C4C" points="743.7,551.4 719.3,551.3 719.3,574.9 743.7,575.1 			"/>
			<polygon id="lava_strana_110_" fill="#282726" points="715.6,548.5 715.6,572.1 719.3,574.9 719.3,551.3 			"/>
		</g>
		<polygon fill="#BEBFBE" points="741.9,573.2 734.3,573.1 726.7,560.6 741.9,566.3 		"/>
		<polygon fill="#DFE0DE" points="734.1,560.6 726.6,560.6 734.3,566.2 741.9,566.3 		"/>
		<polygon fill="#726B6D" points="734.3,566.2 726.6,560.6 726.6,567.6 734.3,573.1 		"/>
		<g>
			<polygon fill="#768C93" points="622.3,517.5 581.1,517.6 599.3,530.3 640.7,530.3 			"/>
			<polygon fill="#374042" points="622.3,517.5 618.6,569.4 640.7,530.3 			"/>
			<polygon fill="#EDEDE2" points="598.5,519.4 612.8,533.8 611.1,515.6 			"/>
			<polygon fill="#E4EDEF" points="616.9,521.5 606.8,532.6 622.7,535.4 			"/>
			<polygon fill="#EFF4F4" points="634.5,533.3 626.9,518.8 622,525.7 612.7,528 617.1,534.2 622.2,540.6 			"/>
			<polygon fill="#E2E2D5" points="592.5,519.3 597.7,538.5 607.9,525.8 			"/>
			<polygon fill="#EAE250" points="622.7,513 617,530.3 604.9,530.3 			"/>
			<path id="predna_strana_425_" fill="#596366" d="M599.3,530.3l41.5-0.1l-8.3,47.1l-29.5,0.1L599.3,530.3z"/>
			<polygon id="lava_strana_115_" fill="#252A2B" points="581.1,517.6 588.9,567.5 602.9,577.5 599.3,530.3 			"/>
			<polygon fill="#D6CB45" points="621.1,514.5 624.7,511.1 622.1,509.6 			"/>
		</g>
		<polygon fill="#BF88A4" points="322.3,327.4 329.2,327.3 298.5,305.8 291.6,305.8 		"/>
		<polygon fill="#845D6F" points="318.9,333.3 322.3,327.4 291.6,305.8 288.3,311.8 		"/>
		<polygon fill="#4C2D3B" points="322.4,339.1 318.9,333.3 288.3,311.8 291.7,317.6 		"/>
		<polygon fill="#E0C7A9" points="337.8,341.7 329.2,327.3 322.3,327.4 		"/>
		<polygon fill="#C4A98C" points="337.8,341.7 318.9,333.3 322.3,327.4 		"/>
		<polygon fill="#7F6957" points="337.8,341.7 318.9,333.3 322.4,339.1 		"/>
		<polygon fill="#BF88A4" points="337.8,341.7 334,335.3 330.9,335.3 		"/>
		<polygon fill="#845D6F" points="337.8,341.7 329.4,337.9 330.9,335.3 		"/>
		<polygon fill="#4C2D3B" points="337.8,341.7 329.4,337.9 331,340.5 		"/>
		<polygon fill="#4DB5EF" points="300.8,327 307.7,327 277,305.4 270.1,305.5 		"/>
		<polygon fill="#2E91BC" points="297.4,333 300.8,327 270.1,305.5 266.8,311.4 		"/>
		<polygon fill="#13546B" points="300.9,338.8 297.4,333 266.8,311.4 270.2,317.2 		"/>
		<polygon fill="#E0C7A9" points="316.3,341.3 307.7,327 300.8,327 		"/>
		<polygon fill="#C4A98C" points="316.3,341.3 297.4,333 300.8,327 		"/>
		<polygon fill="#7F6957" points="316.3,341.3 297.4,333 300.9,338.8 		"/>
		<polygon fill="#4DB5EF" points="316.3,341.3 312.5,334.9 309.4,335 		"/>
		<polygon fill="#2E91BC" points="316.3,341.3 307.9,337.6 309.4,335 		"/>
		<polygon fill="#13546B" points="316.3,341.3 307.9,337.6 309.4,340.2 		"/>
		<g>
			<polygon fill="#B0C963" points="633.1,481.4 640,481.3 609.3,459.8 602.4,459.8 			"/>
			<polygon fill="#7E9358" points="629.7,487.3 633.1,481.4 602.4,459.8 599.1,465.8 			"/>
			<polygon fill="#4C6612" points="633.2,493.1 629.7,487.3 599.1,465.8 602.5,471.6 			"/>
			<polygon fill="#E0C7A9" points="648.6,495.7 640,481.3 633.1,481.4 			"/>
			<polygon fill="#C4A98C" points="648.6,495.7 629.7,487.3 633.1,481.4 			"/>
			<polygon fill="#7F6957" points="648.6,495.7 629.7,487.3 633.2,493.1 			"/>
			<polygon fill="#B0C963" points="648.6,495.7 644.8,489.3 641.7,489.3 			"/>
			<polygon fill="#7E9358" points="648.6,495.7 640.2,491.9 641.7,489.3 			"/>
			<polygon fill="#4C6612" points="648.6,495.7 640.2,491.9 641.7,494.5 			"/>
		</g>
		<polygon fill="#808080" points="272.5,327 279.4,326.9 248.7,305.4 241.8,305.4 		"/>
		<polygon fill="#4D4D4D" points="269.1,332.9 272.5,327 241.8,305.4 238.5,311.4 		"/>
		<polygon fill="#1A1A1A" points="272.6,338.7 269.1,332.9 238.5,311.4 241.9,317.2 		"/>
		<polygon fill="#E0C7A9" points="288,341.3 279.4,326.9 272.5,327 		"/>
		<polygon fill="#C4A98C" points="288,341.3 269.1,332.9 272.5,327 		"/>
		<polygon fill="#7F6957" points="288,341.3 269.1,332.9 272.6,338.7 		"/>
		<polygon fill="#808080" points="288,341.3 284.2,334.9 281.1,334.9 		"/>
		<polygon fill="#4D4D4D" points="288,341.3 279.6,337.5 281.1,334.9 		"/>
		<polygon fill="#1A1A1A" points="288,341.3 279.6,337.5 281.1,340.1 		"/>
		<g>
			<polygon fill="#1E687C" points="545.3,424.1 537.3,424.2 527.3,478.8 535.3,478.8 			"/>
		</g>
		<polygon fill="#0F596D" points="514.8,495.8 513.2,494.7 485.8,361.6 487.4,362.8 		"/>
		<polygon fill="#0F596D" points="527.3,478.8 525.6,477.7 535.6,423 537.3,424.2 		"/>
		<polygon fill="#0F596D" points="597.3,495.8 595.6,494.6 553.2,360 554.9,361.1 		"/>
		<polygon fill="#AFDAE8" points="588.8,469 587.2,467.8 516.8,468 509.5,469.2 		"/>
		<polygon fill="#0F596D" points="549,469.1 547.4,467.9 513.1,336.2 514.7,337.4 		"/>
		<g>
			<polygon fill="#2D99C9" points="562.9,361.1 554.9,361.1 597.3,495.8 605.3,495.8 			"/>
		</g>
		<g>
			<polygon fill="#2D99C9" points="522.7,337.4 514.7,337.4 549.7,471.7 557.7,471.6 			"/>
		</g>
		<g>
			<polygon fill="#2D99C9" points="495.4,362.8 487.4,362.8 514.8,495.8 522.8,495.8 			"/>
		</g>
		<polygon fill="#2D99C9" points="509.5,469.2 593.9,469 596.2,474.8 511.1,475 		"/>
		<polygon fill="#AFDAE8" points="592.6,446.2 500.3,446.4 505.8,450.4 598.3,450.1 		"/>
		<polygon fill="#F2F2F2" points="642.1,446.3 449.1,446.8 437.1,310.3 630.6,309.8 		"/>
		<polygon fill="#238BAF" points="598.3,452.7 505.8,452.9 505.8,450.4 598.3,450.1 		"/>
		<polygon fill="#0F596D" points="505.8,452.9 500.3,448.9 500.3,446.4 505.8,450.4 		"/>
		<polygon fill="#B3B3B3" points="449.1,446.8 447.6,445.7 435.6,309.2 437.1,310.3 		"/>
		<polygon fill="#FFFFFF" points="630.6,309.8 629.1,308.7 435.6,309.2 437.1,310.3 		"/>
		<path fill="#4D4D4D" d="M543.5,404.8c0.2,2.2-1.1,4-3,4l-80.9,0.1c-1.8,0-3.5-1.8-3.7-3.9l-5.5-62.1c-0.2-2.2,1.1-4,3-4l80.9-0.1
			c1.8,0,3.5,1.8,3.7,3.9L543.5,404.8z"/>
		<polygon fill="#F2F2F2" points="540.7,402.7 458.3,402.8 452.9,341.8 535.3,341.6 		"/>
		<polygon fill="#84B7CE" points="533.5,352.2 456.5,352.3 455.9,345 532.9,344.9 		"/>
		<polygon fill="#EDDC94" points="535.2,371.1 458.2,371.2 456.8,355.9 533.8,355.8 		"/>
		<polygon fill="#B0C963" points="497.1,398.8 460.5,398.8 458.3,374.1 494.9,374 		"/>
		<polygon fill="#BF88A4" points="537.5,398.7 500.9,398.8 498.7,374 535.3,374 		"/>
		
			<line fill="none" stroke="#333333" stroke-linecap="round" stroke-linejoin="round" stroke-miterlimit="10" x1="493" y1="340.2" x2="494.9" y2="340.2"/>
		<polygon fill="#4D4D4D" points="510.7,425.3 490.7,425.3 489.2,408.4 509.2,408.4 		"/>
		
			<line fill="none" stroke="#4D4D4D" stroke-width="3" stroke-linecap="round" stroke-linejoin="round" stroke-miterlimit="10" x1="472.9" y1="425.5" x2="528.5" y2="425.5"/>
		<path fill="#4D4D4D" d="M611.7,321.7c1.8,0,3.5,1.8,3.7,3.9l4.2,47.8c0.2,2.2-1.1,4-3,4l-54.4,0.1c-1.8,0-3.5-1.8-3.7-3.9
			l-4.2-47.8c-0.2-2.2,1.1-4,3-4L611.7,321.7z"/>
		<polygon fill="#F2F2F2" points="611.1,324.8 615.4,374.3 563.7,374.4 559.4,324.9 		"/>
		<polygon fill="#84B7CE" points="609.5,335.2 562.3,335.3 561.7,328 608.9,327.9 		"/>
		<polygon fill="#EDDC94" points="611.2,354.2 564,354.2 562.6,338.9 609.9,338.8 		"/>
		<polygon fill="#B0C963" points="612.8,371.6 565.3,371.6 564,357.1 611.5,357 		"/>
		
			<line fill="none" stroke="#E6E6E6" stroke-linecap="round" stroke-linejoin="round" stroke-miterlimit="10" x1="559.5" y1="350.8" x2="559.3" y2="348.5"/>
		<path fill="#4D4D4D" d="M605.1,433.8c0.1,1.5-0.8,2.6-2,2.6h-17.6c-1.2,0-2.3-1.2-2.5-2.6l-3.8-42.9c-0.1-1.5,0.8-2.6,2-2.6h17.6
			c1.2,0,2.3,1.2,2.5,2.6L605.1,433.8z"/>
		<polygon fill="#F2F2F2" points="603.9,432.7 584.1,432.7 580.7,394.6 600.5,394.5 		"/>
		<polygon fill="#84B7CE" points="599.8,400 582.4,400 582.1,395.9 599.4,395.9 		"/>
		<polygon fill="#EDDC94" points="600.7,410.6 583.4,410.6 582.6,402 599.9,402 		"/>
		<polygon fill="#B0C963" points="601.7,421.7 584.3,421.7 583.4,412.2 600.9,412.2 		"/>
		<polygon fill="#BF88A4" points="602.6,431.1 585.1,431.1 584.5,424.1 601.9,424 		"/>
		<polygon fill="none" stroke="#E6E6E6" stroke-linecap="round" stroke-linejoin="round" stroke-miterlimit="10" points="
			592.2,391.9 588.6,391.9 588.6,391.4 592.1,391.4 		"/>
		<g style="display:none!important">
			<ellipse opacity="0.2" enable-background="new    " cx="414.3" cy="558.4" rx="43.8" ry="6.7"/>
			<path fill="#543C36" d="M428.5,558.6c0.3-1.1,14.9-34.8,4.2-54.2c-9.5-17.3-29.5-18.4-31.5-18.4c0,0-2.7,1-2.1,5
				c0.4,3,3.2,3.5,3.2,3.5c3.6,0.2,11.9,4.2,17.3,16.7c7,16.1,5.4,42.6,5,47c-0.1,1.7,0.8,2,1.8,2
				C427.4,560.2,428.3,559.9,428.5,558.6z"/>
			<path fill="#C16C33" d="M441.2,443.4c0,0-3.6-14.3,8.5-21.3c4.3-2.5,6.6,2.3,2.8,4.8c-9.5,6.2-8.6,17.2-8.6,17.2s0.3,1.4-1.2,1.3
				C441.4,445.3,441.2,443.4,441.2,443.4z"/>
			<path fill="#E87F38" d="M453.6,421.9c-0.8-0.7-2.2-0.8-3.9,0.2c-12.1,7.1-8.5,21.3-8.5,21.3s0,0,0,0.1c0.2,0.2,0.4,0.3,0.7,0.3
				c1.4,0,1.2-1.3,1.2-1.3s-0.9-10.9,8.6-17.2C453.2,424.3,453.7,423,453.6,421.9z"/>
			<path fill="#C16C33" d="M446.8,443.5c0,0,3.9-6.2,13.3-9.2c7.3-2.3,8.8,6,1.5,5.9c-6.2-0.1-13,7.1-13,7.1s-1.4,1.6-2.8,0.1
				C444.5,445.8,446.8,443.5,446.8,443.5z"/>
			<path fill="#E87F38" d="M465.4,434.9c-1-0.9-2.8-1.4-5.3-0.6c-9.4,3-13.3,9.2-13.3,9.2s-1.1,1.1-1.4,2.3c1.2,0.7,2.2-0.5,2.2-0.5
				s6.8-7.2,13-7.1C464,438.3,465.5,436.6,465.4,434.9z"/>
			<path fill="#543C36" d="M455.4,483.4c0,0,8.9-1.6,17-7.5c8.2-6,15.7-16.2,17.4-18.6c2.8-4,7.1-3.5,8.8-1.8c1.3,1.3,1.8,4.9-3,7.6
				c-6.9,3.8-11,7.6-19.4,15.4C467.6,486.5,457,493,457,493L455.4,483.4z"/>
			<path fill="#E87F38" d="M448.9,447.4c-9.5-26.1-23.6-29.8-33.7-29.8v126c20.7,0,40.1-12.5,52-31.8
				C479.5,491.8,460,477.8,448.9,447.4z"/>
			<path fill="#C16C33" d="M381.6,447.4c9.5-26.1,23.6-29.8,33.7-29.8v126c-20.7,0-40.1-12.5-52-31.8
				C351.1,491.8,370.6,477.8,381.6,447.4z"/>
			<path fill="#E87F38" d="M397.2,447.4c5.3-26.1,13.2-29.8,18.8-29.8v126c-11.5,0-22.3-12.5-28.9-31.8
				C380.2,491.8,391.1,477.8,397.2,447.4z"/>
			<path fill="#C16C33" d="M419.5,457.4c-11.4,0.3-25.2,7.5-28.6-3.7c-1.9-6.1-1.8-17.1,6.5-23.8c0.5-0.4,3.1-5,7.7-6.5
				c16.5-5.6,25.8,2.6,24.5,2.4c-18.2-3.4-24.3,4.1-22.9,3.8c13.3-2.9,30.8,0.2,30.9,14.4C437.6,458.1,429,457,419.5,457.4z"/>
			<path fill="#E2C6A8" d="M422.1,454.6c-9.4,0-22.8,2.9-25.8-6.5c-1.7-5.5-1.7-11,5.6-17c2.4-2,10.1-3.4,12.9-3.3
				c5.8,0.1,22.8,3.3,22.9,15.9C437.9,456.2,430.3,454.6,422.1,454.6z"/>
			<path fill="#F7E7D5" d="M437.8,443.5c-0.1-10.8-11.2-15-21.9-15.8c-3,0.2-5.7,0.7-7.9,2.5c-6.4,5.3-5.7,12.4-4.2,17.2
				c2.4,7.7,12.1,6.3,19.9,7.3C431.3,454.7,437.9,455.4,437.8,443.5z"/>
			<circle fill="#684033" cx="418.3" cy="442.8" r="3.7"/>
			<path fill="#543C36" d="M373.4,491c0,0-0.1-3.7-3.9-3.7c-9.1,0-22.9,5.2-27.9,11.4c-4.9,6.1-6.2,13,2.8,13.3
				c9,0.3,10.5-5.9,8.2-8.5c-2.4-2.6-6.9-1.8-4.8-3.5s9.9-5.2,21.2-5.2C373.7,494.9,373.4,491,373.4,491z"/>
			<g>
				<path fill="#A38366" d="M350.7,502.7c0.9-13-3.1-23-3.8-23c-0.9,0-1.4,1.3-1.4,1.3c-2.8,7.6-3.2,15.9-2.7,22.8
					C344.9,503.2,348.4,502.4,350.7,502.7z"/>
				<path fill="#A38366" d="M344.4,511.9c-0.2,0-0.3,0-0.5,0c0.8,4,1.9,6.5,2.4,6.5c0,0,0.3,0,0.5,0c0.3,0,0.4-0.2,0.4-0.2
					c0.9-2.4,1.6-4.7,2.2-7.1C348.1,511.7,346.4,512,344.4,511.9z"/>
			</g>
			<g>
				<path fill="#C1A384" d="M350.7,502.7c0.8-11.4-2.2-20.6-3.4-22.6c-0.2,0.3-0.6,0.6-0.6,0.6c-1.3,3.4-2,7.8-2,22.6
					C346.3,502.9,349.3,502.5,350.7,502.7z"/>
				<path fill="#C1A384" d="M345.5,511.9c0.2,2.5,0.8,5.2,0.9,6.3c0.1,0.4,0.7,0.2,0.8,0c0.9-2.4,1.6-4.7,2.2-7
					C348.6,511.5,347.4,511.9,345.5,511.9z"/>
			</g>
			<path opacity="0.2" fill="#EFE85E" enable-background="new    " d="M420.7,486.8c3.9,0,6.4,0.8,7.9,1.8c1.7,1,1.5,2.8,0.3,3
				c-2.1,0.3-4.7-0.3-8.2-0.2c-3.1,0.1-6.5,0.2-9,0.2c-0.8,0-1.4-1.8,0.3-2.7c2.5-1.4,5.6-2,8.5-2l0,0H420.7L420.7,486.8
				L420.7,486.8z"/>
			<path fill="#C16C33" d="M385.9,442.3c0,0-5.7-6-16.2-6.3c-7.9-0.3-3.3,9.2,3.7,8c6.5-1,10.8,2.1,10.8,2.1s1.5,1.5,2.8-0.2
				C388.3,444.5,385.9,442.3,385.9,442.3z"/>
			<path fill="#E87F38" d="M385.9,442.3c0,0-5.7-6-16.2-6.3c-2.6-0.1-3.9,0.9-4.2,2.2c0.9,2.3,3.9,4.5,7.6,3.9
				c6.5-1,10.8,2.1,10.8,2.1s1.5,1.5,2.8-0.2c0.1-0.2,0.2-0.3,0.3-0.4C386.6,443,385.9,442.3,385.9,442.3z"/>
			<path fill="#C16C33" d="M388.4,438.3c0,0-2.8-18-17.6-20c-5.4-0.8-5.4,6-0.6,6.9c12,2.4,15.9,15.2,15.9,15.2s0.3,1.6,1.7,0.9
				C389.1,440.5,388.4,438.3,388.4,438.3z"/>
			<path fill="#E87F38" d="M370.8,418.2c-1.2-0.2-2,0.1-2.7,0.4c-0.8,1.9,0.3,4.7,3.2,5.3c12,2.4,15.9,15.2,15.9,15.2s0.3,1.3,1.4,1
				c0.2-0.9-0.1-2-0.1-2S385.5,420.2,370.8,418.2z"/>
			<path fill="#543C36" d="M398.1,558.7c-1-2.7-3.9-11.7-5.4-20.8c-0.7-4,11,0.9,10.1,3.8c-1.9,6.5-1.8,11.4-1.3,16.6
				c0.2,1.5-0.8,1.9-1.7,1.9C399.1,560.2,398.5,559.9,398.1,558.7z"/>
			<path fill="#333333" d="M345.6,481.7c0,0-5.2-1.4-5.5-5.5c-0.4-4.2,1.2-6.7,4.3-11.5c2.8-4.4,0.7-10.5-0.9-12
				c-0.9-0.8-1.3-1.7,0.9-0.4c1.4,0.8,3.8,3.7,5.1,7.7c2.5,7.6,5.1,9.2,4.8,14.3C353.8,481.8,349.4,481.8,345.6,481.7z"/>
			<path fill="#543C33" d="M428.7,506.1c-1.2,4.3-4.6,8.4-7.9,8.4c-3.3,0-6.5-2.9-8.8-8.4c-1-2.5-2.4-6.1,0.7-8.5
				c3.7-2.9,11.7-2.6,14.8-0.3C431.1,499.9,429.4,503.5,428.7,506.1z"/>
			<path fill="#C16C33" d="M428,517.6c-0.1-1.1-0.8-1.2-2.4-0.2c-1.5,0.9-4.6,0.9-5.1,0.9l0,0l0,0l0,0l0,0c-0.5,0-3.6,0-5.1-0.9
				c-1.6-1-2.3-0.9-2.4,0.2c-0.2,1.8,4.7,7.1,7.4,7.1l0,0l0,0l0,0l0,0l0,0l0,0l0,0l0,0C423.3,524.6,428.1,519.3,428,517.6z"/>
			<g>
				<g>
					<path fill="#543C33" d="M457.4,484.1c0,0,0,3.7-6.2,5.4c-6.2,1.7-11.3-2-17-8.2c-5.7-6.2-10.2,0.3-10.2,0.3
						c-4,6.2,3.1,9.1,8.8,10.5c5.7,1.4,9.9,2,17.9,1.1C458.5,492.3,457.4,484.1,457.4,484.1z M411.2,481.3c-5.7,6.2-10.8,9.9-17,8.2
						c-6.2-1.7-6.2-5.4-6.2-5.4s-1.1,8.2,6.8,9.1c7.9,0.9,12.2,0.3,17.8-1.1c5.7-1.4,12.8-4.3,8.8-10.5
						C421.4,481.5,416.9,475.1,411.2,481.3z"/>
				</g>
			</g>
			<path fill="#D86D4C" d="M420.8,514.4c1.8,0,3.7-1.2,5.1-3c-0.1-2.9-2.8-6-6.2-6c-2.6,0-4.9,2-5.8,4.3
				C416,512.8,418.3,514.4,420.8,514.4z"/>
			<path fill="#F2F2E9" d="M417.3,498.9l0.8-2.6c0-0.1,0.2-0.5,0.3-0.8c-2.2,0.3-4.3,0.8-5.6,2l0.4,1.5c0.4,1.2,1.4,1.9,2.4,1.9
				C416.5,500.8,416.9,500.1,417.3,498.9z"/>
			<path fill="#F2F2E9" d="M426.3,498.8l0.7-1.9c-1.4-0.8-3.6-1.4-5.9-1.4c0.2,0.5,0.3,1.1,0.3,1.3l0.6,2c0.4,1.2,1.4,1.9,2.4,1.9
				C425.6,500.6,426,500,426.3,498.8z"/>
			<path fill="#00A99D" d="M418.1,406.7c0.2-3.7,2.3-8.5,2.3-8.5s-1.4-0.3-2.9,0.3c-1.3,0.5-1.3,0.5-2.5,1.2c-1.1,2.6,0.3,5.4,1.4,7
				c-12.2,0.7-21.4,8.4-24.6,13.3c-3.5,5.2,2.3,5,2.3,5c4.8,1.3,8.4-3.7,22.4-3.4c14.2,0.3,21.8,11.6,21.8,11.6
				c1.9,2.8,7.3,2.7,7.4-2.8C445.7,421.6,437,407.5,418.1,406.7z"/>
			<g>
				<path fill="#098C7F" d="M426.9,419c-13.9-4.1-19.9,0.4-24.4-2c0,0-3.5-3.1,0.3-6.4c-5.3,2.8-9.2,6.6-11.1,9.4
					c-3.5,5.2,1,7.8,1,7.8c4.8,1.3,9.4-5.5,23.4-5.3c14.2,0.3,22.1,10.6,22.1,10.6c1.6,2.5,5.5,2.2,4.2-0.2
					C440.1,429.8,437.4,422,426.9,419z"/>
			</g>
			<path fill="#098C7F" d="M417.2,406.7c0,0-1.2-6.3,0.6-8.3c-0.1,0-0.2,0.1-0.3,0.1c-1.3,0.5-1.3,0.5-2.5,1.2
				c-1.1,2.5,0.3,5.4,1.4,7c-0.1,0-0.1,0-0.2,0C416.5,406.7,416.7,406.8,417.2,406.7z"/>
			<path fill="#99BC39" d="M343.6,466.4c0,0,2.4-0.3,2.3,2.6c-0.2,2.9,2.3,5.7,2.8,3.4c0.6-2.3-2.5-2.3-1.3-4.2
				c1.2-1.9,2.6-0.4,3.5-0.9c0.9-0.5,1.5-1,0.8-2.6c-0.7-1.6-3.5-13.9-8.8-13.4c-2.6,0.3,1,4.9-0.8,7.4c-1.9,2.5-0.9,4.2,0.2,3.7
				s0-1.7,0.5-4.1c0.3-1.2,0-3.3,0.5-4.3c0.4-0.9,0.9-0.3,1.2,0.3c0.3,0.7,1.7,6.5-0.5,10.3C342.3,467.4,343.1,466.5,343.6,466.4z"
				/>
		</g>
	</g>
	<g id="plant">
		<g id="pot">
			<polygon fill="#EF7FAD" points="219.9,296.2 185.1,296.3 201.8,308.1 236.8,308"/>
			<polygon fill="#705848" points="190.3,297.9 219.5,297.9 231.6,306.3 202.2,306.4"/>
			<path id="predna_strana_1_" fill="#C93A56" d="M201.8,308.1l35-0.1v23.1l-35,0.1V308.1z"/>
			<polygon id="lava_strana_1_" fill="#8E192F" points="185.1,296.3 185.1,319.4 201.8,331.2 201.8,308.1"/>
		</g>
		<g id="leaves_big" display="none">
			<polygon display="inline" fill="#66CE29" points="207.5,301.7 187.2,233.3 203.5,195.4"/>
			<polygon display="inline" fill="#529E21" points="206.3,303 170.5,217.2 214.8,241.9"/>
			<polygon display="inline" fill="#57AA21" points="212.9,302.2 243.5,250.4 229.8,185.2"/>
			<polygon display="inline" fill="#89D836" points="210.2,303.4 232.5,209.7 204.5,174.3"/>
		</g>
		<g id="leaves_small">
			<polygon fill="#66CE29" points="207.5,301.7 204.5,283.8 211.1,265.1"/>
			<polygon fill="#529E21" points="206.3,303 195.9,275.1 205.6,289.1"/>
			<polygon fill="#57AA21" points="212.9,302.2 214.1,289.1 223.3,276.6"/>
			<polygon fill="#89D836" points="210.2,303.4 215.8,280.6 212.4,269.2"/>
		</g>
	</g>
	<g id="Vrstva_3">
	</g>
	<g id="pipes">
		<g id="Vrstva_1_2_">
			<g id="RURY_1_">
				<g id="bocnarura_1_">
					<polygon opacity="0.4" fill="#95AAAF" enable-background="new    " points="203.1,434 209.8,434 195.1,457.5 195.1,504.6 
						209.8,527.9 203.1,527.9 189,504.6 189,457.5		"/>
					<polygon fill="#95AAAF" points="209.8,434 203.1,434 216.8,457.5 216.8,504.6 203.1,527.9 209.8,527.9 223.8,504.6 
						223.8,457.5 					"/>
				</g>
				<polygon id="tien_1_" fill="#E5DD48" points="99.8,582.5 99.8,589.2 76.3,603.4 218.4,603 182,574.9 86.9,574.8 				"/>
				<polygon id="diera_1_" fill="#7C762D" points="5.1,589.2 28.5,602.4 76.3,602.4 99.8,589.2 76.3,575.2 28.5,575.2 				"/>
			</g>
		</g>
		<g id="RURY_kopie_1_">
			<g id="rura1_2_">
				<g>
					<g>
						<polygon opacity="0.4" fill="#95AAAF" enable-background="new    " points="28.5,568.5 76.3,568.5 99.8,582.5 99.8,589.2 
							76.3,575.2 28.5,575.2 5.1,589.2 5.1,582.5 						"/>
						<polygon fill="#95AAAF" points="28.5,603.4 76.3,603.4 99.8,589.2 99.8,582.5 76.3,596.7 28.5,596.8 5.1,582.5 5.1,589.2 
													"/>
					</g>
					<polygon opacity="0.6" fill="#91A9AA" enable-background="new    " points="5.1,533.4 5.1,582.5 28.5,603.4 76.3,603.4 
						99.8,582.5 99.8,527.9 209.8,527.9 223.8,504.6 223.8,457.5 209.8,434 99.8,434 99.8,377.5 76.3,391.6 28.5,391.7 5.1,377.5 
						5.1,439.6 					"/>
					<polygon id="lava_predna_4_" opacity="0.2" fill="#FFFFFF" enable-background="new    " points="99.8,589.2 99.8,527.9 
						76.3,504.6 76.3,603.4 					"/>
				</g>
				<polygon id="prava_zadna_5_" opacity="0.3" fill="#465051" enable-background="new    " points="28.5,391.7 28.5,603.4 
					5.1,589.2 5.1,377.5 				"/>
			</g>
			<g id="rura2_2_">
				<g>
					<g>
						<polygon opacity="0.4" fill="#95AAAF" enable-background="new    " points="28.5,357 76.3,356.9 99.8,370.9 99.8,377.6 
							76.3,363.5 28.5,363.8 5.1,377.6 5.1,371 						"/>
						<polygon fill="#95AAAF" points="28.5,391.9 76.3,391.8 99.8,377.6 99.8,370.9 76.3,385.1 28.5,385.2 5.1,371 5.1,377.6 						
							"/>
					</g>
					<polygon id="stredna_predna_2_" opacity="0.6" fill="#91A9AA" enable-background="new    " points="28.5,176.2 5.1,161.9 
						5.1,371 28.5,391.9 76.3,391.8 99.8,370.9 99.8,161.9 76.3,176.1 					"/>
					<polygon id="lava_predna_3_" opacity="0.2" fill="#FFFFFF" enable-background="new    " points="99.8,161.9 99.8,377.6 
						76.3,391.8 76.3,176.1 					"/>
				</g>
				<polygon id="prava_zadna_4_" opacity="0.3" fill="#465051" enable-background="new    " points="28.5,176.2 28.5,391.9 
					5.1,377.6 5.1,161.9 				"/>
			</g>
			<g id="rura3_2_">
				<g>
					<polygon opacity="0.4" fill="#95AAAF" enable-background="new    " points="28.5,141.2 76.3,141.1 99.8,155.2 99.8,161.9 
						76.3,147.8 28.5,148.1 5.1,161.9 5.1,155.2 					"/>
					<polygon fill="#95AAAF" points="28.5,176.1 76.3,176.1 99.8,161.9 99.8,155.2 76.3,169.4 28.5,169.5 5.1,155.2 5.1,161.9 					
						"/>
				</g>
				<polygon opacity="0.6" fill="#91A9AA" enable-background="new    " points="5.1,0 5.1,155.2 28.5,176.1 76.3,176.1 99.8,155.2 
					99.8,0 				"/>
				<polygon opacity="0.2" fill="#FFFFFF" enable-background="new    " points="76.3,0 76.3,176.1 99.8,161.9 99.8,0 				"/>
				<polygon id="prava_zadna_3_" opacity="0.3" fill="#465051" enable-background="new    " points="28.5,0 28.5,176.2 5.1,161.9 
					5.1,0 				"/>
			</g>
		</g>
		<polygon id="lava_predna_2_" opacity="0.3" fill="#465051" enable-background="new    " points="209.8,527.9 99.8,527.9 
			76.3,504.6 223.8,504.6 		"/>
		<polygon opacity="0.2" fill="#FFFFFF" enable-background="new    " points="209.8,434 99.8,434 99.8,377.5 76.3,391.6 76.3,457.5 
			223.8,457.5 		"/>
	</g>
</g>
<g id="hat">
	<g id="predna_cast">
		<path fill="#706969" d="M333,288.8L333,288.8c0-3.3,9.2-5.2,20.5-5.2c11.3,0,20.5,1.9,20.5,5.2l0,0h11.7l0,0
			c0-5.1-14.4-9.3-32.2-9.3c-17.8,0-32.2,4.2-32.2,9.3l0,0H333z"/>
		<path fill="#302F2F" d="M353.5,282.9c11.3,0,20.5,2.6,20.5,5.9c0,3.3-9.2,6.3-20.5,6.3c-11.3,0-20.5-3.1-20.5-6.3
			C333,285.5,342.2,282.9,353.5,282.9z"/>
	</g>
	<svg id="palicka">
		<path fill="#333333" d="M350.1,325.6l18.5-56.7l-3.6-1.1l-18.5,56.8C347.7,325.1,349.5,325.7,350.1,325.6z"/>
		<polygon fill="#CCCCCC" points="368.7,268.9 373.6,253.6 370,252.5 365,267.8 		"/>
		<path fill="#CCCCCC" d="M368.7,268.9c-0.1,0.3-1,0.2-2-0.1c-1-0.3-1.7-0.8-1.7-1.1c0.1-0.3,1-0.2,2,0.1
			C368,268.1,368.8,268.6,368.7,268.9z"/>
		<path fill="#333333" d="M350.2,325.6c-0.1,0.3-1,0.2-2-0.1s-1.7-0.8-1.7-1.1c0.1-0.3,1-0.2,2,0.1
			C349.5,324.9,350.2,325.4,350.2,325.6z"/>
		<path fill="#F2F2F2" d="M373.6,253.6c-0.1,0.3-1,0.2-2-0.1s-1.7-0.8-1.7-1.1c0.1-0.3,1-0.2,2,0.1
			C373,252.9,373.7,253.3,373.6,253.6z"/>
        <svg id="stars" y="20" x="10">
            <svg>
                <polygon fill="#FFFFFF" points="340.703,257.976 338.826,255.446 335.678,255.558 337.504,252.991 336.424,250.031
                339.431,250.975 341.911,249.034 341.943,252.185 344.556,253.943 341.569,254.946"/>
            </svg>
            <svg>
                <polygon fill="#FFFFFF" points="379.35,245.474 377.177,242.546 373.534,242.675 375.647,239.706 374.398,236.279 377.877,237.371
                    380.748,235.126 380.784,238.771 383.808,240.807 380.351,241.967"/>
            </svg>
            <svg>
                <polygon fill="#FFFFFF" points="344.176,226.437 341.695,223.093 337.535,223.241 339.948,219.851 338.522,215.939
                    342.494,217.186 345.772,214.622 345.813,218.784 349.266,221.108 345.319,222.433"/>
            </svg>
            <svg>
                <polygon fill="#FFFFFF" points="374.667,203.787 373.031,201.581 370.286,201.679 371.878,199.442 370.937,196.861
                    373.557,197.684 375.72,195.992 375.747,198.738 378.025,200.271 375.421,201.146"/>
            </svg>
        </svg>
	</svg>
	<g id="zadna_cast">
		<polygon id="prava_strana_svetla_1_" fill="#302F2F" points="332,327.7 374.9,327.6 374.9,295.5 332,295.6	"/>
		<path fill="#B3B3B3" d="M374.9,297c-0.5,0.1-0.9,0.2-1.4,0.3c-3.1,2.3-10.9,4-20,4c-9.1,0-16.9-1.6-20-4c-0.5-0.1-1-0.2-1.5-0.4
			v6.9h0.1l0,0c0,3.4,9.6,6.2,21.4,6.2c11.8,0,21.4-2.8,21.4-6.2c0-0.1,0-0.3,0-0.4V297z"/>
		<path fill="#443F40" d="M373.9,289c-0.3,3.2-9.3,5.7-20.4,5.7c-11.1,0-20.1-2.5-20.4-5.7h-11.7c0,0.4,0,0.7,0,1.1
			c0,5.1,14.4,9.3,32.2,9.3s32.2-4.2,32.2-9.3c0-0.4,0-1.3,0-1.3L373.9,289z"/>
		<path fill="#302F2F" d="M374.9,327.7c0,3.4-9.6,6.2-21.4,6.2c-11.8,0-21.4-2.8-21.4-6.2c0-3.4,9.6-6.2,21.4-6.2
			C365.3,321.5,374.9,324.3,374.9,327.7z"/>
		<path fill="#706969" d="M374,288.8c0,3.3-9.2,5.9-20.5,5.9c-11.3,0-20.4-2.6-20.5-5.9l-0.3-1.3l-11.1,0.4l-0.3,0.9
			c0,5.1,14.4,9.3,32.2,9.3c17.7,0,32.1-4.2,32.2-9.3l-0.7-1.1l-10.6,0.1L374,288.8z"/>
	</g>
</g>
<g id="policka_icons">
	<polygon id="lava_strana_2_" fill="#605D36" points="420.3,265.4 420.3,271.6 452.7,295.3 452.7,289.2 	"/>
	<polygon fill="#D8D8A3" points="613.6,265.4 420.3,265.4 452.7,289.2 590.8,290.9 647.4,289.2 	"/>
	<path id="predna_strana_2_" fill="#999664" d="M452.7,289.2h194.7v6.1H452.7V289.2z"/>
	<g id="DIZAJN">
		<g id="Vrstva_108_1_">
			<g>
				<polygon fill="#FEE554" points="616.2,229.9 569.8,229.9 573.2,258.3 575.9,258.6 597.5,260.2 622.3,234.2 				"/>
				<polygon fill="#DD7626" points="569.8,229.9 569.8,276.2 575.9,280.6 593,257.5 575.9,234.2 				"/>
				<polygon fill="#FFC939" points="575.9,234.2 575.9,280.6 622.3,280.5 622.3,234.2 				"/>
				<polygon fill="#FFFFFF" points="614.1,266.3 605.9,241.3 587.8,247.2 592.1,260.1 588.5,256.9 584.1,261.8 592.9,269.4
					594.5,267.6 596.1,272.2 				"/>
			</g>
		</g>
	</g>
	<g id="DIZAJN_1_">
		<g id="Vrstva_108_2_">
			<g>
				<polygon fill="#CCE081" points="555.8,229.9 509.4,229.9 512.3,250.7 515.5,250.5 538.7,252.9 561.9,234.2 				"/>
				<polygon fill="#415F2C" points="509.4,229.9 509.4,276.2 515.5,280.6 529.2,254.9 515.5,234.2 				"/>
				<polygon fill="#AFD24B" points="515.5,234.2 515.5,280.6 561.9,280.5 561.9,234.2 				"/>
				<polygon fill="#FFFFFF" points="546.4,260.7 553.3,257.6 546.4,254.4 549,247.2 541.9,249.9 538.7,242.9 535.6,249.9
					528.4,247.2 531.1,254.4 524.2,257.6 531.1,260.6 528.4,267.8 535.6,265.2 538.7,272 541.9,265.2 549,267.8 				"/>
			</g>
		</g>
	</g>
	<g id="DIZAJN_2_">
		<g id="Vrstva_108_3_">
			<g>
				<polygon fill="#90D5DC" points="495.4,229.9 449,229.9 452.1,258.1 455.1,258.6 475.2,260.2 501.5,234.2 				"/>
				<polygon fill="#125859" points="449,229.9 449,276.2 455.1,280.6 473.4,257 455.1,234.2 				"/>
				<polygon fill="#45C0BE" points="455.1,234.2 455.1,280.6 501.5,280.5 501.5,234.2 				"/>
				<polygon fill="#FFFFFF" points="465.1,244.2 475.6,271.1 480.3,263.7 487,270.7 488.7,269.1 490.5,267.3 483.8,260.4
					491.6,256.1 				"/>
			</g>
		</g>
	</g>
</g>
</svg>
