<?xml version="1.0" encoding="utf-8"?>
<!-- Generator: Adobe Illustrator 15.1.0, SVG Export Plug-In . SVG Version: 6.00 Build 0)  -->
<!DOCTYPE svg PUBLIC "-//W3C//DTD SVG 1.1//EN" "http://www.w3.org/Graphics/SVG/1.1/DTD/svg11.dtd">
<svg version="1.1" id="enter" xmlns="http://www.w3.org/2000/svg" xmlns:xlink="http://www.w3.org/1999/xlink" x="0px" y="0px"
	 width="2154px" height="578.6px" viewBox="68.7 -72.4 2154 578.6" enable-background="new 68.7 -72.4 2154 578.6"
	 xml:space="preserve">
    <style>
        #button_glow {
            cursor: pointer;
        }
        svg {
            width: 100%;
            height: 100%;
            position: absolute;
            top: 0;
            left: 0;
        }

        @-moz-document url-prefix() {
           svg {
               position: static;
               width: auto;
               height: auto;
           }
        }
    </style>
<g id="Vrstva_1_1_">
	<g id="rura">
		<polygon fill="#5B6B6D" points="1725.8,486.8 1749,499.7 1796.1,499.8 1819.3,486.8 1796.1,473 1749,472.8 		"/>
		<g id="rura_uvod">
			<g>
				<g>
					<polygon opacity="0.4" fill="#95AAAF" enable-background="new    " points="1819.3,480.1 1819.3,486.8 1796.1,473 1749,472.8 
						1725.8,486.8 1725.8,480.1 1749,466.2 1796.1,466.3 					"/>
					<polygon fill="#95AAAF" points="1819.3,486.8 1819.3,480.1 1796.1,494.2 1749,494.2 1725.8,480.1 1725.8,486.8 1749,500.7 
						1796.1,500.7 					"/>
				</g>
			</g>
			<g>
				<g>
					<polygon id="lava_predna_27_" opacity="0.6" fill="#7B8687" enable-background="new    " points="1749,354.2 1749,325.4 
						1725.8,339.3 1725.8,340.3 					"/>
					<polygon id="prava_zadna_29_" opacity="0.6" fill="#AFBEBF" enable-background="new    " points="1819.3,340.3 1819.3,339.3 
						1796.1,325.5 1796.1,354.3 					"/>
					<polygon id="stredna_predna_26_" opacity="0.6" fill="#91A9AA" enable-background="new    " points="1749,354.2 1729.9,339.2 
						1749,325.4 1796.1,325.5 1819.3,339.3 1796.1,354.3 					"/>
				</g>
			</g>
			<g>
				<g>
					<polygon opacity="0.4" fill="#95AAAF" enable-background="new    " points="1819.3,339.3 1819.3,345.9 1796.1,332.2 1749,332 
						1725.8,345.9 1725.8,339.3 1749,325.4 1796.1,325.5 					"/>
				</g>
			</g>
			<path fill="#C0CECE" d="M1796.1,325.5l-47.1-0.1l-23.2,13.9l23.2,14l47.2,0.1l23.2-14L1796.1,325.5z M1796.1,351.4l-47.2-0.1
				l-19-12l19.1-11.8l47.2,0.1l19.6,11.9L1796.1,351.4z"/>
		</g>
		<g>
			<polygon fill="#B4BFC1" points="1796.1,402.5 1748.9,402.6 1752.3,450 1799.4,404.8 			"/>
			<polygon fill="#475B5F" points="1748.9,402.6 1748.9,447.7 1752.3,450 1752.3,404.9 			"/>
		</g>
	</g>
</g>
<g id="postavicka_uvod" style="display:none!important">
	<ellipse opacity="0.1" enable-background="new    " cx="1910.6" cy="488.2" rx="43.2" ry="6.6"/>
	<path fill="#543C36" d="M1924.7,488.4c0.3-1.1,14.7-34.3,4.1-53.5c-9.4-17-29.1-18.2-31.1-18.2c0,0-2.7,1-2.1,4.9
		c0.4,2.9,3.3,3.5,3.3,3.5c3.6,0.1,11.7,4.1,17.1,16.4c6.9,15.9,5.3,42,4.9,46.4c-0.1,1.7,0.8,2.1,1.8,2.1
		C1923.6,490,1924.4,489.7,1924.7,488.4z"/>
	<path fill="#3D7A89" d="M1937.2,374.7c0,0-3.6-14,8.4-21c4.3-2.6,6.6,2.3,2.8,4.7c-9.4,6.1-8.5,16.9-8.5,16.9s0.2,1.3-1.2,1.3
		C1937.3,376.7,1937.2,374.7,1937.2,374.7z"/>
	<path fill="#488FA8" d="M1949.5,353.5c-0.8-0.7-2.2-0.9-3.8,0.1c-11.9,6.9-8.4,21-8.4,21s0,0,0,0.1c0.2,0.1,0.4,0.2,0.7,0.2
		c1.4,0,1.2-1.3,1.2-1.3s-0.9-10.8,8.5-16.9C1949,355.9,1949.6,354.6,1949.5,353.5z"/>
	<path fill="#3D7A89" d="M1942.7,374.8c0,0,3.8-6.1,13.1-9.1c7.2-2.3,8.6,5.9,1.6,5.8c-6.1-0.1-12.8,7-12.8,7s-1.4,1.7-2.8,0.1
		C1940.5,377.1,1942.7,374.8,1942.7,374.8z"/>
	<path fill="#488FA8" d="M1961.1,366.4c-1-0.9-2.8-1.3-5.2-0.6c-9.3,3-13.1,9.1-13.1,9.1s-1.1,1.1-1.3,2.3c1.2,0.7,2.2-0.5,2.2-0.5
		s6.7-7.1,12.8-7C1959.7,369.6,1961.2,367.9,1961.1,366.4z"/>
	<path fill="#543C36" d="M1973.5,467.8c-0.9-0.4-10.9-5.8-13.7-23.9c-2.6-16.8-10.4-30.1-10.6-31.8c0,0-0.8-3.9,2.5-3.9
		c2.5-0.1,4.3,3.4,4.3,3.4c2.1,5.1,5.4,14.4,7.4,27.1c2.5,15.2,11.8,20.1,14.1,21.2c3.2,1.5,4.7,3.2,2.5,6.6
		C1978.9,468.3,1976.2,468.9,1973.5,467.8z"/>
	<path fill="#488FA8" d="M1944.8,378.8c-9.4-25.8-23.4-29.4-33.4-29.4v124.3c20.4,0,39.6-12.3,51.3-31.4
		C1975,422.5,1955.8,408.7,1944.8,378.8z"/>
	<path fill="#3D7A89" d="M1878.4,378.8c9.4-25.8,23.4-29.4,33.4-29.4v124.3c-20.4,0-39.6-12.3-51.3-31.4
		C1848.3,422.5,1867.4,408.7,1878.4,378.8z"/>
	<path fill="#488FA8" d="M1893.7,378.8c5.2-25.8,12.9-29.4,18.5-29.4v124.3c-11.3,0-22-12.3-28.5-31.4
		C1877,422.5,1887.7,408.7,1893.7,378.8z"/>
	<path fill="#3D7A89" d="M1915.8,388.6c-11.3,0.4-24.9,7.4-28.2-3.6c-1.9-6-1.8-16.8,6.3-23.5c1.6-1.3,9-7.7,8.1-5.8
		c-0.8,1.7-0.3,1.9,1,1.6c13.2-2.9,30.4,4,30.5,18C1933.6,389.2,1925.1,388.3,1915.8,388.6z"/>
	<path fill="#543C33" d="M1915.1,422c-6.6,0-12.8-0.8-18.5-2.1c-0.8-0.2-2.8,0.4-3.1,2.1c-0.2,1.4-0.4,2.9-0.4,4.3
		c0,7,2.9,13.3,7.3,17.6c3.8,3.7,9,4.9,14.5,4.9c5.6,0,10.7-1.2,14.5-4.9c4.5-4.3,7.3-10.6,7.3-17.6c0-1.5-0.1-3-0.4-4.3
		c-0.2-0.9-0.9-2.5-3-2C1927.9,421.2,1921.7,422,1915.1,422z"/>
	<g id="zuby_1_">
		<path fill="#F2F2E9" d="M1932.3,422.2l0.5-1.8c0-0.2,0-0.3,0-0.4c-1.2,0.3-2.5,0.6-3.8,0.8l0.4,1.4c0.3,0.8,1,1.3,1.6,1.3
			C1931.7,423.5,1932,423,1932.3,422.2z"/>
		<path fill="#F2F2E9" d="M1918.4,422.3l0.4,1.4c0.3,0.8,1,1.3,1.6,1.3c0.7,0,1-0.5,1.3-1.3l0.5-1.8c0-0.1,0-0.2,0-0.3
			c-1.3,0.2-2.6,0.2-3.9,0.3C1918.3,422,1918.3,422.1,1918.4,422.3z"/>
		<path fill="#F2F2E9" d="M1908.1,421.7c0,0.1,0,0.3,0.1,0.5l0.4,1.4c0.3,0.8,1,1.3,1.6,1.3c0.7,0,1-0.5,1.3-1.3l0.5-1.7
			C1910.6,421.9,1909.3,421.8,1908.1,421.7z"/>
		<path fill="#F2F2E9" d="M1901.6,420.9c-1.3-0.2-2.6-0.4-3.8-0.7c-0.1,0.2-0.1,0.5,0,0.9l0.4,1.4c0.3,0.8,1,1.3,1.6,1.3
			c0.7,0,1-0.5,1.3-1.3L1901.6,420.9z"/>
	</g>
	<path fill="#E2C6A8" d="M1918.4,385.8c-9.4,0-22.5,2.9-25.4-6.4c-1.7-5.4-1.7-13.2,5.5-19.2c11-9.1,35.2-1,35.3,14.9
		C1933.9,387.4,1926.5,385.8,1918.4,385.8z"/>
	<path fill="#F7E7D5" d="M1933.8,374.8c-0.1-10.7-11.2-17.9-21.7-18.6c-3,0.1-5.6,1-7.8,2.8c-6.3,5.2-5.6,14.8-4.1,19.5
		c2.4,7.6,11.8,6.2,19.6,7.2C1927.3,385.9,1933.9,386.6,1933.8,374.8z"/>
	<circle fill="#684033" cx="1914.9" cy="376.3" r="3.7"/>
	<path fill="#543C36" d="M1847.2,472.6c-2.8,0-3.7-1.2-4.2-4c-0.1-0.9-0.9-20.5,7-34.9c7-12.7,15.4-16.1,16.9-16.1
		c0,0,2,0.8,1.6,3.7c-0.3,2.2-2.4,2.6-2.4,2.6c-2.7,0.1-6.6,3.8-10.7,12.9c-5.2,11.9-2.9,30.8-2.9,30.9c0.5,3.2-1.3,4.3-4.4,4.8
		C1847.9,472.5,1847.5,472.6,1847.2,472.6z"/>
	<path fill="#3D7A89" d="M1925.3,452.6c-3.8,1.6-7.2,1.9-9.5,1.9c-2,0-5.7-0.3-9.6-2c-0.9-0.4-1.9-0.2-1.1,1.5
		c2,3.8,5.9,10.3,10.6,10.5l0,0h0.1h0.1l0,0c4.6-0.2,8.6-6.6,10.6-10.5C1927.3,452.4,1926.2,452.2,1925.3,452.6z"/>
	<path opacity="0.2" fill="#83CCCC" enable-background="new    " d="M1915.5,416.9c6.2-0.1,10.1-1,12.4-2c2.7-1.1,2.4-3,0.5-3.1
		c-3.4-0.2-7.3,0.4-13,0.4c-4.8,0-10.3,0-14.2,0c-1.3,0-2.2,1.9,0.6,2.9c4,1.5,8.9,1.9,13.5,1.9l0,0L1915.5,416.9
		C1915.4,417,1915.4,417,1915.5,416.9L1915.5,416.9z"/>
	<path fill="#3D7A89" d="M1882.6,373.8c0,0-5.6-5.9-16-6.2c-7.8-0.2-3.3,9.1,3.8,7.9c6.4-1,10.7,2.1,10.7,2.1s1.6,1.6,2.8-0.1
		C1885,375.8,1882.6,373.8,1882.6,373.8z"/>
	<path fill="#488FA8" d="M1882.6,373.8c0,0-5.6-5.9-16-6.2c-2.6-0.1-3.8,0.9-4,2.2c0.9,2.3,3.8,4.4,7.5,3.8c6.4-1,10.7,2.1,10.7,2.1
		s1.6,1.6,2.8-0.1c0.1-0.1,0.2-0.3,0.2-0.5C1883.3,374.4,1882.6,373.8,1882.6,373.8z"/>
	<path fill="#3D7A89" d="M1885.1,369.6c0,0-2.8-17.8-17.4-19.7c-5.3-0.7-5.3,5.9-0.6,6.8c11.7,2.3,15.7,15,15.7,15s0.4,1.6,1.7,0.9
		C1885.8,371.9,1885.1,369.6,1885.1,369.6z"/>
	<path fill="#488FA8" d="M1867.7,349.9c-1.2-0.2-2.1,0-2.7,0.5c-0.8,1.9,0.3,4.5,3.2,5.1c11.7,2.3,15.7,15,15.7,15s0.3,1.3,1.3,1
		c0.2-0.9-0.1-1.9-0.1-1.9S1882.2,351.9,1867.7,349.9z"/>
	<path fill="#D86D4C" d="M1929,444.5c-1.8-2.8-7.5-4.8-14.1-4.8c-6.4,0-11.9,1.9-13.9,4.5c3.8,3.6,8.8,5.6,14.2,5.6
		C1920.3,449.9,1925.3,447.9,1929,444.5z"/>
	<path fill="#543C36" d="M1894.7,488.5c-1-2.7-3.8-11.6-5.3-20.5c-0.6-3.9,10.9,0.9,10,3.7c-1.9,6.5-1.8,11.3-1.2,16.4
		c0.2,1.5-0.8,1.9-1.7,1.9C1895.7,490,1895.1,489.7,1894.7,488.5z"/>
</g>
<g id="plane">
	<polygon fill="#D8D6B2" points="32.6,5.8 38.4,3.5 32.6,0.1 0,0 0,3.4 "/>
    <polygon fill="#A8A488" points="19.7,15.8 23.5,32.6 71.5,25.7 113.5,25.8 104,17.2 56.7,12.7 "/>
    <polygon fill="#EFECD5" points="0,3.4 19.7,15.8 104,17.2 38.4,3.5 "/>
    <polygon fill="#59535B" points="30.8,23.2 23.5,32.6 113.5,25.8 112.4,21.2 74.9,23 "/>
    <polygon fill="#EFECD5" points="30.8,23.2 40.6,34.9 64.3,34 80.2,35.2 112.4,21.2 "/>
    <polygon fill="#8A838E" points="40.6,34.9 41.2,31 75,31.4 80.2,35.2 "/>
</g>
<path id="route" display="none" fill="none" stroke="#000000" stroke-miterlimit="10" d="M128,140.4c54,0,63.5-22.1,101.7-39
	c151.2-66.6,919.2-48,1420.9,128.5c271.5,95.5,478,63.7,531.1-123.3c42.7-150.4-100.7-173.7-215.1-133
	c-147.3,52.4-186.2,176-188.5,325.1c-0.7,46,0,86,0,129.1"/>
<g id="front_pipe">
	<polygon id="stredna_predna_28_" opacity="0.6" fill="#91A9AA" enable-background="new    " points="1749,359.8 1725.8,345.9 
		1725.8,480.1 1749,500.7 1796.1,500.7 1819.3,480.1 1819.3,345.9 1796.1,359.9 	"/>
	<polygon id="lava_predna_29_" opacity="0.3" fill="#465051" enable-background="new    " points="1749,359.8 1749,500.7 
		1725.8,486.8 1725.8,345.9 	"/>
	<polygon fill="#C0CECE" points="1815.8,339.4 1796.1,351.4 1748.9,351.3 1730.2,339.4 1726,339.4 1749,353.3 1796.2,353.4 
		1819.4,339.4 1819.4,339.4 	"/>
	<polygon fill="#95AAAF" points="1819.3,345.9 1819.3,339.3 1796.1,353.3 1749,353.3 1725.8,339.3 1725.8,345.9 1749,359.8 
		1796.1,359.9 	"/>
	<polygon id="prava_zadna_31_" opacity="0.2" fill="#FFFFFF" enable-background="new    " points="1819.3,345.9 1819.3,486.8 
		1796.1,500.7 1796.1,359.9 	"/>
</g>
<g id="button">
	<polygon fill="#808E91" points="1799.4,404.8 1752.3,404.9 1752.3,450 1799.4,449.9 	"/>
	<polygon fill="#FFE3E4" points="1791.5,414.7 1760.2,414.7 1764.9,442.9 1796.2,418.1 	"/>
	<polygon fill="#CC465F" points="1760.2,414.7 1760.2,439.5 1764.9,442.9 1764.9,418.2 	"/>
	<polygon fill="#F47D86" points="1796.2,418.1 1764.9,418.2 1764.9,442.9 1796.2,442.9 	"/>
</g>
<g id="button_glow">
	<polygon fill="#A3818F" points="1799.4,404.8 1752.3,404.9 1752.3,450 1799.4,449.9 	"/>
	<polygon fill="#FF5F6F" points="1791.5,414.7 1760.2,414.7 1764.9,442.9 1796.2,418.1 	"/>
	<polygon fill="#750A2D" points="1760.2,414.7 1760.2,439.5 1764.9,442.9 1764.9,418.2 	"/>
	<polygon fill="#FC1048" points="1796.2,418.1 1764.9,418.2 1764.9,442.9 1796.2,442.9 	"/>
</g>
<g id="button_green" display="none">
	<polygon fill="#919B89" points="1799.4,404.8 1752.3,404.9 1752.3,450 1799.4,449.9 	"/>
	<polygon fill="#C5E591" points="1791.5,414.7 1760.2,414.7 1761.2,440.3 1792.3,415.4 	"/>
	<polygon fill="#72933E" points="1760.2,414.7 1760.2,439.5 1761.2,440.3 1761.2,415.4 	"/>
	<polygon fill="#ACDD68" points="1792.3,415.4 1761.2,415.4 1761.2,440.3 1792.3,440.2 	"/>
</g>
</svg>
