<?xml version="1.0" encoding="utf-8"?>
<!-- Generator: Adobe Illustrator 15.1.0, SVG Export Plug-In . SVG Version: 6.00 Build 0)  -->
<!DOCTYPE svg PUBLIC "-//W3C//DTD SVG 1.1//EN" "http://www.w3.org/Graphics/SVG/1.1/DTD/svg11.dtd">
<svg version="1.1" id="factory" xmlns="http://www.w3.org/2000/svg" xmlns:xlink="http://www.w3.org/1999/xlink" x="0px" y="0px"
	 width="1236px" height="527.5px" viewBox="0 0 1236 527.5" enable-background="new 0 0 1236 527.5" xml:space="preserve">
    <style>
        svg {
            width: 100%;
            height: 100%;
            position: absolute;
            top: 0;
            left: 0;
        }

        @-moz-document url-prefix() {
           svg {
               position: static;
               width: auto;
               height: auto;
           }
        }
    </style>
<g id="exit">
	<polygon fill="#564743" points="1199.5,503.9 1155.8,500.3 78.8,494.8 65,528.3 1187.8,528.3 	"/>
	<polygon fill="#564743" points="1195.8,462.8 76.6,455.4 61,483.7 1186.3,482.1 	"/>
	<polygon fill="#453833" points="1199.5,503.9 1171,503.9 76.6,503.9 63.5,490.1 65,479.7 1187.8,479.7 	"/>
	<polygon fill="#332523" points="44,480.4 52.3,482.4 76.6,503.9 65,528.3 32.3,504.5 	"/>
	<polygon fill="#1D1615" points="32.3,455.9 51.8,463.7 65,479.7 76.6,503.9 44,480.4 	"/>
	<polygon fill="#332523" points="44,431.7 76.6,455.4 65,479.7 32.3,455.9 	"/>
	<polygon fill="#2D3432" points="338.8,264 338.8,246.5 384,278.3 384,295.8 	"/>
</g>
<g id="box6">
	<polygon fill="#2D3432" points="1020.9,279.8 1021,440.3 1056.3,465.8 1056.3,304.5 	"/>
	<polygon fill="#CFD4D3" points="1164.2,314.9 1018.9,279.8 1054,320 1199.6,339.7 	"/>
	<polygon fill="#777D7C" points="1199.6,339.7 1054.3,304.5 1054.3,465.8 1199.6,465.6 	"/>
	<polygon fill="#333333" points="1124.1,447.4 1181.4,447.4 1181.4,444.1 1124.1,444.1 	"/>
	<polygon fill="#333333" points="1124.1,440.6 1181.4,440.6 1181.4,437.3 1124.1,437.3 	"/>
	<polygon fill="#333333" points="1124.1,433.9 1181.4,433.9 1181.4,430.6 1124.1,430.6 	"/>
	<polygon fill="#333333" points="1124.1,427.1 1181.4,427.1 1181.4,423.8 1124.1,423.8 	"/>
	<polygon fill="#333333" points="1124.1,420.3 1181.4,420.3 1181.4,417 1124.1,417 	"/>
	<polygon fill="#333333" points="1124.1,413.5 1181.4,413.5 1181.4,410.2 1124.1,410.2 	"/>
	<polygon fill="#333333" points="1124.1,406.7 1181.4,406.7 1181.4,403.4 1124.1,403.4 	"/>
</g>
<g id="box5">
	<g>
		<polygon fill="#2D3432" points="762.6,274 762.6,434.6 813.4,471.1 813.4,309.9 		"/>
		<polygon fill="#BCC4C3" points="1014,274 762.6,274 813.4,309.9 914,321.5 1064.8,309.9 		"/>
		<rect x="813.4" y="309.9" fill="#646E6D" width="251.5" height="161.3"/>
		<polygon fill="#333333" points="963.9,434.3 963.9,437.6 1038,437.5 1038,434.2 		"/>
		<polygon fill="#333333" points="963.9,420.7 963.9,424 1038,423.9 1038,420.6 		"/>
		<polygon fill="#333333" points="963.9,406.9 963.9,410.2 1038,410.1 1038,406.8 		"/>
		<polygon fill="#333333" points="963.9,393.2 963.9,396.5 1038,396.4 1038,393.1 		"/>
		<polygon fill="#333333" points="963.9,379.5 963.9,382.8 1038,382.7 1038,379.4 		"/>
		<polygon fill="#333333" points="963.9,365.7 963.9,369 1038,369 1038,365.7 		"/>
		<polygon fill="#333333" points="963.9,352 963.9,355.3 1038,355.2 1038,351.9 		"/>
		<polygon fill="#333333" points="963.9,441.2 963.9,444.5 1038,444.4 1038,441.1 		"/>
		<polygon fill="#333333" points="963.9,427.6 963.9,430.9 1038,430.8 1038,427.5 		"/>
		<polygon fill="#333333" points="963.9,413.8 963.9,417.1 1038,417 1038,413.7 		"/>
		<polygon fill="#333333" points="963.9,400 963.9,403.3 1038,403.2 1038,399.9 		"/>
		<polygon fill="#333333" points="963.9,386.4 963.9,389.7 1038,389.6 1038,386.3 		"/>
		<polygon fill="#333333" points="963.9,372.6 963.9,375.9 1038,375.8 1038,372.5 		"/>
		<polygon fill="#333333" points="963.9,358.9 963.9,362.2 1038,362.1 1038,358.8 		"/>
		<g>
			<path fill="#333333" d="M894.8,382.2c-6.7,0-13-2.6-17.7-7.4c-4.8-4.8-7.4-11.1-7.4-17.7c0-13.9,11.2-25.1,25.1-25.1
				c13.9,0,25.1,11.2,25.1,25.1C919.9,370.8,908.6,382.2,894.8,382.2L894.8,382.2z"/>
			<g>
				<path fill="#454D4C" d="M894.8,333.3c13.1,0,23.7,10.6,23.7,23.7s-10.6,23.7-23.7,23.7l0,0c-13.1,0-23.7-10.6-23.7-23.7
					S881.7,333.3,894.8,333.3 M894.8,330.4L894.8,330.4c-7.1,0-13.8,2.8-18.8,7.8s-7.8,11.7-7.8,18.8c0,14.6,11.9,26.6,26.6,26.6
					s26.6-11.9,26.6-26.6C921.3,342.3,909.4,330.4,894.8,330.4L894.8,330.4L894.8,330.4z"/>
			</g>
		</g>
		
			<line fill="none" stroke="#E6E6E5" stroke-width="4" stroke-linecap="round" stroke-miterlimit="10" x1="878.2" y1="357.5" x2="876.2" y2="357.5"/>
		
			<line fill="none" stroke="#E6E6E5" stroke-width="4" stroke-linecap="round" stroke-miterlimit="10" x1="912.8" y1="356.6" x2="914.1" y2="356.6"/>
		<g>
			<path fill="#333333" d="M894.8,453.5c-13.9,0-25.1-11.2-25.1-25.1c0-13.9,11.2-25.1,25.1-25.1c13.9,0,25.1,11.2,25.1,25.1
				C919.9,442.3,908.6,453.5,894.8,453.5z"/>
			<g>
				<path fill="#454D4C" d="M894.8,404.8L894.8,404.8c13.1,0,23.7,10.6,23.7,23.7s-10.6,23.7-23.7,23.7l0,0
					c-13.1,0-23.7-10.6-23.7-23.7C871.1,415.3,881.7,404.8,894.8,404.8 M894.8,401.9L894.8,401.9c-14.6,0-26.6,11.9-26.6,26.6
					c0,14.6,11.9,26.6,26.6,26.6s26.6-11.9,26.6-26.6C921.3,413.8,909.4,401.9,894.8,401.9L894.8,401.9z"/>
			</g>
		</g>
		
			<line fill="none" stroke="#E6E6E5" stroke-width="4" stroke-linecap="round" stroke-miterlimit="10" x1="878.2" y1="428.9" x2="876.2" y2="428.9"/>
		
			<line fill="none" stroke="#E6E6E5" stroke-width="4" stroke-linecap="round" stroke-miterlimit="10" x1="912.8" y1="428" x2="914.1" y2="427.9"/>
	</g>
	
		<line id="rucicka1" fill="none" stroke="#D73663" stroke-width="4" stroke-linecap="round" stroke-miterlimit="10" x1="894.8" y1="357" x2="888.2" y2="342.3"/>
	
		<line id="rucicka2" fill="none" stroke="#D73663" stroke-width="4" stroke-linecap="round" stroke-miterlimit="10" x1="894.8" y1="428.4" x2="893.3" y2="412.3"/>
	<g id="chimneys">
		<g id="komin_6_">
			<path display="none" fill="#BCC4C3" d="M856.6,202.5c0,4-11.1,7.2-24.7,7.2c-13.7,0-24.7-3.2-24.7-7.2s11.1-7.2,24.7-7.2
				C845.5,195.3,856.6,198.5,856.6,202.5z"/>
			<path fill="#4E4E4E" d="M850.9,202.4c0,3.1-8.5,5.5-19.1,5.5c-10.6,0-19.1-2.5-19.1-5.5s8.5-5.5,19.1-5.5
				C842.4,197,850.9,199.4,850.9,202.4z"/>
			<path fill="#BCC4C3" d="M812.7,202.3c0.3-2.9,8.7-5.4,19.1-5.4c10.4,0.1,18.8,2.4,19.1,5.4h5.7c-0.5-3.9-11.4-6.9-24.7-6.9
				c-13.4,0-24.2,3.1-24.7,6.9H812.7z"/>
            <svg id="smoke1-svg" y="0" opacity="1">
			    <polygon id="smoke1" opacity="0.5" fill="#FFFFFF" enable-background="new    " points="815.7,250.9 848,212.6 842.6,288.2
				"/>
            </svg>
			<path fill="#737B7A" d="M807.1,202.7v13V276v8.8v4.2c0,4,11.1,7.2,24.7,7.2c13.7,0,24.7-3.2,24.7-7.2v-4.5v-8.8l0,0v-60v-13.3
				l-8.7,4.1l-13.3,2.4l-16.1-1.7L807.1,202.7z"/>
			<path fill="#BCC4C3" d="M850.8,202.1c0,0.1,0.1,0.2,0.1,0.3c0,3.1-8.5,5.5-19.1,5.5c-10.6,0-19.1-2.5-19.1-5.5
				c0-0.1,0-0.2,0.1-0.3h-5.5c0,0.1,0,0.3,0,0.4c0,4,11.1,7.2,24.7,7.2c13.7,0,24.7-3.2,24.7-7.2c0-0.1,0-0.3,0-0.4H850.8z"/>
		</g>
		<g id="komin_1_">
			<path display="none" fill="#BCC4C3" d="M936.6,202.5c0,4-11.1,7.2-24.7,7.2c-13.7,0-24.7-3.2-24.7-7.2s11.1-7.2,24.7-7.2
				C925.5,195.3,936.6,198.5,936.6,202.5z"/>
			<path fill="#4E4E4E" d="M930.9,142.4c0,3.1-8.5,5.5-19.1,5.5c-10.6,0-19.1-2.5-19.1-5.5s8.5-5.5,19.1-5.5
				C922.4,137,930.9,139.4,930.9,142.4z"/>
			<path fill="#BCC4C3" d="M892.7,142.3c0.3-2.9,8.7-5.4,19.1-5.4c10.4,0.1,18.8,2.4,19.1,5.4h5.7c-0.5-3.9-11.4-6.9-24.7-6.9
				c-13.4,0-24.2,3.1-24.7,6.9H892.7z"/>
            <svg id="smoke2-svg" y="0" opacity="1">
			    <polygon id="smoke2" opacity="0.5" fill="#FFFFFF" enable-background="new    " points="893.6,158.1 929.8,190 909.5,230.8
				"/>
            </svg>
			<path fill="#737B7A" d="M887.1,142.7v73V276v8.8v4.2c0,4,11.1,7.2,24.7,7.2c13.7,0,24.7-3.2,24.7-7.2v-4.5v-8.8l0,0v-60v-73.3
				l-8.7,4.1l-13.3,2.4l-16.1-1.7L887.1,142.7z"/>
			<path fill="#BCC4C3" d="M930.8,142.1c0,0.1,0.1,0.2,0.1,0.3c0,3.1-8.5,5.5-19.1,5.5c-10.6,0-19.1-2.5-19.1-5.5
				c0-0.1,0-0.2,0.1-0.3h-5.5c0,0.1,0,0.3,0,0.4c0,4,11.1,7.2,24.7,7.2c13.7,0,24.7-3.2,24.7-7.2c0-0.1,0-0.3,0-0.4H930.8z"/>
		</g>
		<g id="komin_2_">
			<path display="none" fill="#BCC4C3" d="M1016.6,202.5c0,4-11.1,7.2-24.7,7.2c-13.7,0-24.7-3.2-24.7-7.2s11.1-7.2,24.7-7.2
				C1005.5,195.3,1016.6,198.5,1016.6,202.5z"/>
			<path fill="#4E4E4E" d="M1010.9,182.4c0,3.1-8.5,5.5-19.1,5.5c-10.6,0-19.1-2.5-19.1-5.5s8.5-5.5,19.1-5.5
				C1002.4,177,1010.9,179.4,1010.9,182.4z"/>
			<path fill="#BCC4C3" d="M972.7,182.3c0.3-2.9,8.7-5.4,19.1-5.4c10.4,0.1,18.8,2.4,19.1,5.4h5.7c-0.5-3.9-11.4-6.9-24.7-6.9
				c-13.4,0-24.2,3.1-24.7,6.9H972.7z"/>
            <svg id="smoke3-svg" y="0" opacity="1">
    			<polygon id="smoke3" opacity="0.5" fill="#FFFFFF" enable-background="new    " points="977.5,203.2 1008.5,187.5 995.5,262.8
							"/>
            </svg>
			<path fill="#737B7A" d="M967.1,182.7v13V276v8.8v4.2c0,4,11.1,7.2,24.7,7.2c13.7,0,24.7-3.2,24.7-7.2v-4.5v-8.8l0,0v-80v-13.3
				l-8.7,4.1l-13.3,2.4l-16.1-1.7L967.1,182.7z"/>
			<path fill="#BCC4C3" d="M1010.8,182.1c0,0.1,0.1,0.2,0.1,0.3c0,3.1-8.5,5.5-19.1,5.5c-10.6,0-19.1-2.5-19.1-5.5
				c0-0.1,0-0.2,0.1-0.3h-5.5c0,0.1,0,0.3,0,0.4c0,4,11.1,7.2,24.7,7.2c13.7,0,24.7-3.2,24.7-7.2c0-0.1,0-0.3,0-0.4H1010.8z"/>
		</g>
	</g>
</g>
<g id="box4">
	<polygon fill="#2D3432" points="702.9,302.1 703,472.5 710.8,478.2 723,334.2 710.8,307.6 	"/>
	<polygon fill="#9AA09F" points="619.5,262.3 710.8,307.6 778,313.3 849,307.6 757.7,262.3 	"/>
	<rect x="710.8" y="307.6" fill="#777D7C" width="138.2" height="170.6"/>
	<g>
		<polygon fill="#333333" points="742.5,358.5 736.8,358.5 736.8,459.1 742.5,459.1 		"/>
		<polygon fill="#333333" points="754.2,358.5 748.4,358.5 748.4,459.1 754.2,459.1 		"/>
		<polygon fill="#333333" points="765.7,358.5 759.9,358.5 759.9,459.1 765.7,459.1 		"/>
		<polygon fill="#333333" points="777.1,358.4 771.4,358.4 771.4,459.1 777.1,459.1 		"/>
		<polygon fill="#333333" points="788.7,358.4 783,358.4 783,459.1 788.7,459.1 		"/>
		<polygon fill="#333333" points="800.2,358.5 794.5,358.5 794.5,459.1 800.2,459.1 		"/>
		<polygon fill="#333333" points="811.7,358.4 806,358.4 806,459.1 811.7,459.1 		"/>
		<polygon fill="#333333" points="823.3,358.4 817.5,358.4 817.5,459 823.3,459 		"/>
	</g>
	<g id="button_na_skrni_16_">
		<polygon fill="#7F1735" points="734.3,331.5 734.3,339.7 737.9,342.3 737.9,334 		"/>
		<polygon fill="#D73663" points="750.9,334 737.9,334 737.9,342.3 750.9,342.2 		"/>
		<polygon fill="#E27991" points="747.3,331.5 734.3,331.5 737.9,334 750.9,334 		"/>
	</g>
	<g id="button_na_skrni_15_">
		<polygon fill="#44693B" points="760.5,331.9 760.5,340 764,342.6 764,334.4 		"/>
		<polygon fill="#6FA241" points="776.9,334.4 764,334.4 764,342.6 776.9,342.6 		"/>
		<polygon fill="#A8D274" points="773.4,331.8 760.5,331.9 764,334.4 776.9,334.4 		"/>
	</g>
	<g id="button_na_skrni_14_">
		<polygon fill="#44693B" points="786.3,332.1 786.3,340.1 789.9,342.8 789.9,334.6 		"/>
		<polygon fill="#6FA241" points="802.9,334.6 789.9,334.6 789.9,342.8 802.9,342.8 		"/>
		<polygon fill="#A8D274" points="799.3,332.1 786.3,332.1 789.9,334.6 802.9,334.6 		"/>
	</g>
	<g id="button_na_skrni_13_">
		<polygon fill="#7F1735" points="812.8,332.5 812.9,340.6 816.4,343.2 816.4,335 		"/>
		<polygon fill="#D73663" points="829.4,335 816.4,335 816.4,343.2 829.4,343.2 		"/>
		<polygon fill="#E27991" points="825.8,332.5 812.8,332.5 816.4,335 829.4,335 		"/>
	</g>
</g>
<g id="box3">
	<polygon fill="#BCC4C3" points="338.8,246.5 659.2,246.5 704.4,278.3 491.4,293.6 384,278.3 	"/>
	<polygon fill="#646E6D" points="378,278.3 378.5,472.9 704.4,472.9 704.4,278.3 	"/>
	<g id="button_na_skrni_4_">
		<polygon fill="#383938" points="446.5,431.4 446.5,441.6 451,444.9 451,434.6 		"/>
		<polygon fill="#505756" points="467.4,434.6 451,434.6 451,444.9 467.4,444.9 		"/>
		<polygon fill="#A09F9F" points="463,431.4 446.5,431.4 451,434.6 467.4,434.6 		"/>
	</g>
	<g id="button_na_skrni_3_">
		<polygon fill="#383938" points="502.4,431.4 502.4,441.7 506.8,444.9 506.8,434.6 		"/>
		<polygon fill="#505756" points="523.2,434.6 506.8,434.6 506.8,444.9 523.2,444.9 		"/>
		<polygon fill="#A09F9F" points="518.7,431.4 502.4,431.4 506.8,434.6 523.2,434.6 		"/>
	</g>
	<g id="button_na_skrni_2_">
		<polygon fill="#383938" points="557.5,431.9 557.5,442.2 562,445.4 562,435.1 		"/>
		<polygon fill="#505756" points="578.3,435.1 562,435.1 562,445.4 578.3,445.4 		"/>
		<polygon fill="#A09F9F" points="573.8,431.9 557.5,431.9 562,435.1 578.3,435.1 		"/>
	</g>
	<g id="button_na_skrni_1_">
		<polygon fill="#383938" points="613.8,431.7 613.8,441.9 618.2,445.2 618.2,434.9 		"/>
		<polygon fill="#505756" points="634.6,434.9 618.2,434.9 618.2,445.2 634.6,445.2 		"/>
		<polygon fill="#A09F9F" points="630.1,431.7 613.8,431.7 618.2,434.9 634.6,434.9 		"/>
	</g>
	<g id="snimac1">
		<linearGradient id="SVGID_1_" gradientUnits="userSpaceOnUse" x1="455.6501" y1="410.6494" x2="455.6501" y2="319.5">
			<stop  offset="0.1455" style="stop-color:#CCCCCC"/>
			<stop  offset="0.5455" style="stop-color:#A8FF5F"/>
			<stop  offset="1" style="stop-color:#FF8242"/>
		</linearGradient>
		<rect x="441.6" y="319.5" fill="url(#SVGID_1_)" width="28.2" height="91.1"/>
		<path fill="#454D4C" d="M438.5,315.8v97.5h34.3v-97.5H438.5z M467.9,408.1h-24.4v-34.7h24.4V408.1z M467.9,369.6h-24.4v-7.2h24.4
			V369.6z M467.9,358.9h-24.4v-7.2h24.4V358.9z M467.9,348.3h-24.4v-7.1h24.4V348.3z M467.9,338.1h-24.4v-7.2h24.4V338.1z
			 M467.9,327.8h-24.4v-7.1h24.4V327.8z"/>
		<rect id="movethis1" x="441.6" y="318.2" fill="#454D4C" width="28.2" height="53.5"/>
	</g>
	<g id="snimac2">
		<linearGradient id="SVGID_2_" gradientUnits="userSpaceOnUse" x1="510.4343" y1="410.6494" x2="510.4343" y2="319.5">
			<stop  offset="0.1455" style="stop-color:#CCCCCC"/>
			<stop  offset="0.5455" style="stop-color:#A8FF5F"/>
			<stop  offset="1" style="stop-color:#FF8242"/>
		</linearGradient>
		<rect x="496.4" y="319.5" fill="url(#SVGID_2_)" width="28.2" height="91.1"/>
		<path fill="#454D4C" d="M493.3,315.8v97.5h34.3v-97.5H493.3z M522.7,408.1h-24.4v-34.7h24.4V408.1z M522.7,369.6h-24.4v-7.2h24.4
			V369.6z M522.7,358.9h-24.4v-7.2h24.4V358.9z M522.7,348.3h-24.4v-7.1h24.4V348.3z M522.7,338.1h-24.4v-7.2h24.4V338.1z
			 M522.7,327.8h-24.4v-7.1h24.4V327.8z"/>
		<rect id="movethis2" x="496.4" y="318.2" fill="#454D4C" width="28.2" height="53.5"/>
	</g>
	<g id="snimac3">
		<linearGradient id="SVGID_3_" gradientUnits="userSpaceOnUse" x1="565.2175" y1="410.6494" x2="565.2175" y2="319.5">
			<stop  offset="0.1455" style="stop-color:#CCCCCC"/>
			<stop  offset="0.5455" style="stop-color:#A8FF5F"/>
			<stop  offset="1" style="stop-color:#FF8242"/>
		</linearGradient>
		<rect x="551.1" y="319.5" fill="url(#SVGID_3_)" width="28.2" height="91.1"/>
		<path fill="#454D4C" d="M548.1,315.8v97.5h34.3v-97.5H548.1z M577.5,408.1h-24.4v-34.7h24.4V408.1z M577.5,369.6h-24.4v-7.2h24.4
			V369.6z M577.5,358.9h-24.4v-7.2h24.4V358.9z M577.5,348.3h-24.4v-7.1h24.4V348.3z M577.5,338.1h-24.4v-7.2h24.4V338.1z
			 M577.5,327.8h-24.4v-7.1h24.4V327.8z"/>
		<rect id="movethis3" x="551.1" y="318.2" fill="#454D4C" width="28.2" height="53.5"/>
	</g>
	<g id="snimac4">
		<linearGradient id="SVGID_4_" gradientUnits="userSpaceOnUse" x1="620.0002" y1="410.6494" x2="620.0002" y2="319.5">
			<stop  offset="0.1455" style="stop-color:#CCCCCC"/>
			<stop  offset="0.5455" style="stop-color:#A8FF5F"/>
			<stop  offset="1" style="stop-color:#FF8242"/>
		</linearGradient>
		<rect x="605.9" y="319.5" fill="url(#SVGID_4_)" width="28.2" height="91.1"/>
		<path fill="#454D4C" d="M602.9,315.8v97.5h34.3v-97.5H602.9z M632.3,408.1h-24.4v-34.7h24.4V408.1z M632.3,369.6h-24.4v-7.2h24.4
			V369.6z M632.3,358.9h-24.4v-7.2h24.4V358.9z M632.3,348.3h-24.4v-7.1h24.4V348.3z M632.3,338.1h-24.4v-7.2h24.4V338.1z
			 M632.3,327.8h-24.4v-7.1h24.4V327.8z"/>
		<rect id="movethis4" x="605.9" y="318.2" fill="#454D4C" width="28.2" height="53.5"/>
	</g>
	<path fill="#737B7A" d="M434.2,238.1v22.8c0,5.8,16.3,10.5,36.3,10.5s36.3-4.7,36.3-10.5v-23.1L434.2,238.1z"/>
	<path fill="#737B7A" d="M534.4,238.1v22.8c0,5.8,16.3,10.5,36.3,10.5s36.3-4.7,36.3-10.5v-23.1L534.4,238.1z"/>
	<g id="piesty_down" display="none">
		<g id="piest01" display="inline">
			<path fill="#737B7A" d="M434.2,206.2v34c0,5.8,16.3,10.5,36.3,10.5s36.3-4.7,36.3-10.5v-34.4L434.2,206.2z"/>
			<path fill="#565F5E" d="M470.6,226.5c-20.1,0-36.3-4.7-36.3-10.5v3.1c0,5.8,16.3,10.5,36.3,10.5s36.3-4.7,36.3-10.5V216
				C506.9,221.7,490.7,226.5,470.6,226.5z"/>
			<path fill="#565F5E" d="M470.6,237.2c-20.1,0-36.3-4.7-36.3-10.5v3.1c0,5.8,16.3,10.5,36.3,10.5s36.3-4.7,36.3-10.5v-3.1
				C506.9,232.5,490.7,237.2,470.6,237.2z"/>
			<path fill="#BCC4C3" d="M506.9,205.9c0,5.8-16.3,10.5-36.3,10.5c-20.1,0-36.3-4.7-36.3-10.5c0-5.8,16.3-10.5,36.3-10.5
				C490.7,195.4,506.9,200.1,506.9,205.9z"/>
		</g>
		<g id="piest02" display="inline">
			<path fill="#737B7A" d="M534.4,226.2v34c0,5.8,16.3,10.5,36.3,10.5S607,266,607,260.2v-34.4L534.4,226.2z"/>
			<path fill="#565F5E" d="M570.8,246.5c-20.1,0-36.3-4.7-36.3-10.5v3.1c0,5.8,16.3,10.5,36.3,10.5s36.3-4.7,36.3-10.5V236
				C607.1,241.7,590.9,246.5,570.8,246.5z"/>
			<path fill="#565F5E" d="M570.8,257.2c-20.1,0-36.3-4.7-36.3-10.5v3.1c0,5.8,16.3,10.5,36.3,10.5s36.3-4.7,36.3-10.5v-3.1
				C607.1,252.5,590.9,257.2,570.8,257.2z"/>
			<path fill="#BCC4C3" d="M607.1,225.9c0,5.8-16.3,10.5-36.3,10.5c-20.1,0-36.3-4.7-36.3-10.5c0-5.8,16.3-10.5,36.3-10.5
				C590.9,215.4,607.1,220.1,607.1,225.9z"/>
		</g>
	</g>
	<g id="piesty_up">
		<svg id="piest1_up">
			<path fill="#737B7A" d="M434.2,226.2v34c0,5.8,16.3,10.5,36.3,10.5s36.3-4.7,36.3-10.5v-34.4L434.2,226.2z"/>
			<path fill="#565F5E" d="M470.6,246.5c-20.1,0-36.3-4.7-36.3-10.5v3.1c0,5.8,16.3,10.5,36.3,10.5s36.3-4.7,36.3-10.5V236
				C506.9,241.7,490.7,246.5,470.6,246.5z"/>
			<path fill="#565F5E" d="M470.6,257.2c-20.1,0-36.3-4.7-36.3-10.5v3.1c0,5.8,16.3,10.5,36.3,10.5s36.3-4.7,36.3-10.5v-3.1
				C506.9,252.5,490.7,257.2,470.6,257.2z"/>
			<path fill="#BCC4C3" d="M506.9,225.9c0,5.8-16.3,10.5-36.3,10.5c-20.1,0-36.3-4.7-36.3-10.5c0-5.8,16.3-10.5,36.3-10.5
				C490.7,215.4,506.9,220.1,506.9,225.9z"/>
		</svg>
		<svg id="piest2_up">
			<path fill="#737B7A" d="M534.4,206.2v34c0,5.8,16.3,10.5,36.3,10.5S607,246,607,240.2v-34.4L534.4,206.2z"/>
			<path fill="#565F5E" d="M570.8,226.5c-20.1,0-36.3-4.7-36.3-10.5v3.1c0,5.8,16.3,10.5,36.3,10.5s36.3-4.7,36.3-10.5V216
				C607.1,221.7,590.9,226.5,570.8,226.5z"/>
			<path fill="#565F5E" d="M570.8,237.2c-20.1,0-36.3-4.7-36.3-10.5v3.1c0,5.8,16.3,10.5,36.3,10.5s36.3-4.7,36.3-10.5v-3.1
				C607.1,232.5,590.9,237.2,570.8,237.2z"/>
			<path fill="#BCC4C3" d="M607.1,205.9c0,5.8-16.3,10.5-36.3,10.5c-20.1,0-36.3-4.7-36.3-10.5c0-5.8,16.3-10.5,36.3-10.5
				C590.9,195.4,607.1,200.1,607.1,205.9z"/>
		</svg>
	</g>
</g>
<g id="box02">
	<polygon fill="#2D3432" points="224.3,186.4 224.4,433.4 289.8,480.3 320.3,284.3 289.8,233.5 	"/>
	<polygon fill="#9AA09F" points="331.1,186.4 224.3,186.4 289.8,233.5 323.5,234.5 391.4,233.5 	"/>
	<polygon fill="#777D7C" points="391.4,233.5 289.8,233.5 289.8,480.3 391.4,480.3 	"/>
	<polygon fill="#333333" points="311.9,445.7 311.9,448.2 370.4,448.2 370.4,445.6 	"/>
	<polygon fill="#333333" points="311.9,434.8 311.9,437.4 370.4,437.3 370.4,434.8 	"/>
	<polygon fill="#333333" points="311.9,423.9 311.9,426.6 370.4,426.5 370.4,423.9 	"/>
	<polygon fill="#333333" points="311.9,413.1 311.9,415.7 370.4,415.6 370.4,413 	"/>
	<polygon fill="#333333" points="311.9,402.3 311.9,404.9 370.4,404.8 370.4,402.2 	"/>
	<polygon fill="#333333" points="311.9,391.4 311.9,394.1 370.4,394 370.4,391.3 	"/>
	<polygon fill="#333333" points="311.9,380.6 311.9,383.2 370.4,383.1 370.4,380.5 	"/>
	<polygon fill="#333333" points="311.9,451.1 311.9,453.6 370.4,453.6 370.4,451 	"/>
	<polygon fill="#333333" points="311.9,440.2 311.9,442.8 370.4,442.7 370.4,440.2 	"/>
	<polygon fill="#333333" points="311.9,429.4 311.9,432 370.4,431.9 370.4,429.3 	"/>
	<polygon fill="#333333" points="311.9,418.5 311.9,421.1 370.4,421.1 370.4,418.4 	"/>
	<polygon fill="#333333" points="311.9,407.7 311.9,410.3 370.4,410.2 370.4,407.6 	"/>
	<polygon fill="#333333" points="311.9,396.9 311.9,399.5 370.4,399.4 370.4,396.8 	"/>
	<polygon fill="#333333" points="311.9,386 311.9,388.6 370.4,388.6 370.4,385.9 	"/>
    <g id="switch" display="none">
        <polygon fill="#2D3432" points="320.9,331.8 320.9,338.7 342.8,337.3 361.5,338.7 361.5,265.2 351.9,265.2 	"/>
        <polygon fill="#BCC4C3" points="320.9,331.8 320.9,338.7 361.5,338.7 351.9,331.8 336.8,329.4 	"/>
        <polygon fill="#454D4C" points="320.9,265.3 351.9,265.2 351.9,331.8 320.9,331.8 	"/>
        <path fill="#7A807F" d="M338.1,275.4c3.3,0.3,6.1,9,6.1,19.6s-2.7,18.8-6.1,18.5h-13.7v-38.1H338.1L338.1,275.4z"/>
        <path fill="#2D3432" d="M336.4,273.4l-4.9,9.2c0,0,0.4,0.7,0.8,2.7c0.4,1.9,0.6,3.6,0.6,3.6l5.9-11.3L336.4,273.4z"/>
        <polygon fill="#5C6462" points="338.7,277.6 332.8,288.9 341.9,288.9 347.8,277.6 	"/>
        <polygon fill="#BCC4C3" points="336.4,273.4 338.7,277.6 347.8,277.6 345.5,273.4 	"/>
        <path fill="#2D3432" d="M324.3,275.4c3.3,0.3,6.1,9,6.1,19.6s-2.7,18.8-6.1,18.5"/>
    </g>
</g>
<g id="box01">
	<polygon fill="#646E6D" points="283.3,307.7 26,264.2 86.8,475.9 283.3,475.6 	"/>
	<polygon fill="#333333" points="125.4,342.1 119.7,342.1 119.7,448.8 125.4,448.8 	"/>
	<polygon fill="#333333" points="137,342.1 131.2,342.2 131.2,448.8 137,448.8 	"/>
	<polygon fill="#333333" points="148.5,342.1 142.8,342.1 142.8,448.8 148.5,448.8 	"/>
	<polygon fill="#333333" points="160,342.1 154.2,342.1 154.2,448.7 160,448.7 	"/>
	<polygon fill="#333333" points="171.6,342.1 165.7,342.1 165.7,448.7 171.6,448.7 	"/>
	<polygon fill="#333333" points="183.1,342.1 177.4,342.1 177.4,448.7 183.1,448.7 	"/>
	<polygon fill="#333333" points="194.6,342.1 188.8,342.1 188.8,448.7 194.6,448.7 	"/>
	<polygon fill="#333333" points="206.1,342 200.4,342.1 200.4,448.7 206.1,448.7 	"/>
	<polygon fill="#BCC4C3" points="222.6,264.2 26,264.2 86.8,307.7 283.3,307.7 	"/>
	<polygon fill="#2D3432" points="26,264.2 26.1,431.7 86.8,475.9 86.8,307.7 	"/>
</g>
</svg>
