<?xml version="1.0" encoding="utf-8"?>
<!-- Generator: Adobe Illustrator 15.1.0, SVG Export Plug-In . SVG Version: 6.00 Build 0)  -->
<!DOCTYPE svg PUBLIC "-//W3C//DTD SVG 1.1//EN" "http://www.w3.org/Graphics/SVG/1.1/DTD/svg11.dtd">
<svg version="1.1" id="Vrstva_1" xmlns="http://www.w3.org/2000/svg" xmlns:xlink="http://www.w3.org/1999/xlink" x="0px" y="0px"
	 width="64.6px" height="66.8px" viewBox="0 0 64.6 66.8" enable-background="new 0 0 64.6 66.8" xml:space="preserve">
<g id="DIZAJN">
	<g id="Vrstva_108_1_">
		<g>
			<polygon fill="#CCE081" points="57.1,2.2 0,2.3 3.5,27.8 7.5,27.6 36.1,30.6 64.6,7.5 			"/>
			<polygon fill="#415F2C" points="0,2.3 0,59.3 7.5,64.6 24.4,33 7.5,7.6 			"/>
			<polygon fill="#AFD24B" points="7.5,7.6 7.5,64.6 64.6,64.5 64.6,7.5 			"/>
			<polygon fill="#FFFFFF" points="45.5,40.2 54,36.3 45.5,32.4 48.7,23.6 40,26.9 36.1,18.3 32.2,26.9 23.4,23.6 26.7,32.4 
				18.2,36.3 26.7,40.1 23.4,48.9 32.2,45.7 36.1,54.1 40,45.7 48.7,48.9 			"/>
		</g>
	</g>
</g>
<g id="KONTAKT">
</g>
<g id="metro">
</g>
</svg>
