<?xml version="1.0" encoding="utf-8"?>
<!-- Generator: Adobe Illustrator 15.1.0, SVG Export Plug-In . SVG Version: 6.00 Build 0)  -->
<!DOCTYPE svg PUBLIC "-//W3C//DTD SVG 1.1//EN" "http://www.w3.org/Graphics/SVG/1.1/DTD/svg11.dtd">
<svg version="1.1" id="Vrstva_1" xmlns="http://www.w3.org/2000/svg" xmlns:xlink="http://www.w3.org/1999/xlink" x="0px" y="0px"
	 width="32.9px" height="31.1px" viewBox="0 0 32.9 31.1" enable-background="new 0 0 32.9 31.1" xml:space="preserve">
<g>
	<rect fill="#A6CF47" width="32.9" height="31.1"/>
	<g>
		<path fill="#2F2E30" d="M18.4,7.3c3.9,0,6.7,2.2,6.7,5.7c0,4.9-2.9,8-5.8,8c-0.9,0-1.2-0.7-1.2-1.8c0-0.4,0.2-1.5,0.4-2.3
			c-0.8,1.8-2.3,3.9-3.7,3.9c-1.5,0-3.1-1.2-3.1-3.7c0-2.8,2-5.8,5.7-5.8c0.5,0,1.4,0.2,1.9,0.6l1.9-0.4c-0.4,1.3-0.8,4.1-1,5.8
			c-0.1,0.9,0,1.3,0,1.6c0,0.5,0.2,0.6,0.3,0.6c1.6,0,2.8-3,2.8-5.6c0-3.6-3-5-5.7-5c-4.8,0-7.8,4.5-7.8,8.6c0,4.1,3,5.9,6.2,5.9
			c1,0,2.6-0.3,3.2-0.5l0.4,0.9c-0.9,0.6-2.3,1-4,1c-4.3,0-8-2-8-6.7C7.7,11.5,13.4,7.3,18.4,7.3z M15.2,18.9c1,0,3.3-4,3.5-5.7
			c-0.2-0.3-1-0.7-1.5-0.7c-2.1,0-3.1,2.3-3.1,4.5C14.1,17.7,14.5,18.9,15.2,18.9z"/>
	</g>
</g>
</svg>
