<?xml version="1.0" encoding="utf-8"?>
<!-- Generator: Adobe Illustrator 15.1.0, SVG Export Plug-In . SVG Version: 6.00 Build 0)  -->
<!DOCTYPE svg PUBLIC "-//W3C//DTD SVG 1.1//EN" "http://www.w3.org/Graphics/SVG/1.1/DTD/svg11.dtd">
<svg version="1.1" id="Vrstva_1" xmlns="http://www.w3.org/2000/svg" xmlns:xlink="http://www.w3.org/1999/xlink" x="0px" y="0px"
	 width="32.9px" height="31.1px" viewBox="0 0 32.9 31.1" enable-background="new 0 0 32.9 31.1" xml:space="preserve">
<g>
	<rect fill="#EAD646" width="32.9" height="31.1"/>
	<path fill-rule="evenodd" clip-rule="evenodd" fill="#2F2E30" d="M10.5,8.3c0.3,0,1.8-0.5,2.1-0.1s2,4,1.7,4.5s-1.7,1.7-1.7,1.9
		c-0.1,0.2-0.1,0.6,0.2,0.9c0.5,0.6,0.7,1.1,2,2.3c1.4,1.2,1.8,1.3,2.4,1.8c0.3,0.2,0.7,0.1,0.9,0.1c0.2-0.1,1.2-1.5,1.7-1.9
		c0.5-0.3,4.3,1,4.7,1.3c0.4,0.3,0.1,1.8,0.1,2.1s-2,2.1-2.2,2.2c-0.3,0.2-0.7,0.3-3.3,0.1c-3.5-0.3-9.8-6-10.4-9.5
		c-0.4-2.6-0.3-3-0.2-3.3C8.6,10.4,10.2,8.3,10.5,8.3z"/>
</g>
</svg>
