<?xml version="1.0" encoding="utf-8"?>
<!-- Generator: Adobe Illustrator 15.1.0, SVG Export Plug-In . SVG Version: 6.00 Build 0)  -->
<!DOCTYPE svg PUBLIC "-//W3C//DTD SVG 1.1//EN" "http://www.w3.org/Graphics/SVG/1.1/DTD/svg11.dtd">
<svg version="1.1" id="Vrstva_1" xmlns="http://www.w3.org/2000/svg" xmlns:xlink="http://www.w3.org/1999/xlink" x="0px" y="0px"
	 width="64.6px" height="66.8px" viewBox="0 0 64.6 66.8" enable-background="new 0 0 64.6 66.8" xml:space="preserve">
<g id="DIZAJN">
	<g id="Vrstva_108_1_">
	</g>
</g>
<g id="KONTAKT">
</g>
<g id="metro">
	<g>
		<polygon fill="#EE7AA5" points="57.1,2.2 0,2.3 3.4,36.8 7.5,37.6 36.1,39.6 64.6,7.5 		"/>
		<polygon fill="#9B2762" points="0,2.3 0,59.3 7.5,64.6 29.5,38.9 7.5,7.6 		"/>
		<polygon fill="#E758A0" points="7.5,7.6 7.5,64.6 64.6,64.5 64.6,7.5 		"/>
		<g>
			<g>
				<polygon fill="#FFFFFF" points="28.2,28 25,24.9 16.8,32.9 16.8,32.9 13.5,36.3 25,47.7 28.2,44.4 20.1,36.2 				"/>
				<polygon fill="#FFFFFF" points="55.3,33 55.3,33 47.2,24.8 43.9,28.1 52.1,36.2 43.9,44.4 47.2,47.7 58.6,36.2 				"/>
			</g>
			<polygon fill="#FFFFFF" points="33,52.5 28.4,50.9 39.1,20.1 43.7,21.7 			"/>
		</g>
	</g>
</g>
</svg>
