<?xml version="1.0" encoding="utf-8"?>
<!-- Generator: Adobe Illustrator 15.1.0, SVG Export Plug-In . SVG Version: 6.00 Build 0)  -->
<!DOCTYPE svg PUBLIC "-//W3C//DTD SVG 1.1//EN" "http://www.w3.org/Graphics/SVG/1.1/DTD/svg11.dtd">
<svg version="1.1" id="Vrstva_1" xmlns="http://www.w3.org/2000/svg" xmlns:xlink="http://www.w3.org/1999/xlink" x="0px" y="0px"
	 width="233px" height="172.5px" viewBox="0 0 233 172.5" enable-background="new 0 0 233 172.5" xml:space="preserve">
<g>
	<ellipse opacity="0.1" cx="69" cy="163.4" rx="30.8" ry="4.7"/>
	<path fill="#543C36" d="M79,163.5c0.2-0.8,10.5-24.4,2.9-38.1c-6.7-12.1-20.7-12.9-22.1-12.9c0,0-1.9,0.7-1.5,3.5
		c0.3,2.1,2.3,2.5,2.3,2.5c2.5,0.1,8.4,2.9,12.2,11.7c4.9,11.3,3.8,29.9,3.5,33c-0.1,1.2,0.6,1.4,1.3,1.4
		C78.3,164.7,78.8,164.4,79,163.5z"/>
	<path fill="#B2AF38" d="M87.9,82.6c0,0-2.5-10,6-15c3.1-1.8,4.7,1.6,2,3.4c-6.7,4.4-6,12-6,12S90,84,89,84
		C88,84,87.9,82.6,87.9,82.6z"/>
	<path fill="#C9C941" d="M96.6,67.6c-0.6-0.5-1.6-0.6-2.8,0.1c-8.5,4.9-6,15-6,15s0,0,0,0.1c0.1,0.1,0.3,0.2,0.5,0.2
		c1,0,0.8-0.9,0.8-0.9s-0.7-7.7,6-12C96.3,69.3,96.7,68.3,96.6,67.6z"/>
	<path fill="#B2AF38" d="M91.9,82.7c0,0,2.7-4.4,9.4-6.5c5.1-1.6,6.1,4.2,1.1,4.1c-4.4-0.1-9.1,5-9.1,5s-1,1.2-2,0
		C90.2,84.3,91.9,82.7,91.9,82.7z"/>
	<path fill="#C9C941" d="M104.9,76.7c-0.7-0.6-2-0.9-3.7-0.4c-6.6,2.1-9.4,6.5-9.4,6.5s-0.8,0.8-0.9,1.6c0.8,0.5,1.6-0.4,1.6-0.4
		s4.8-5.1,9.1-5C103.9,79,105,77.8,104.9,76.7z"/>
	<path fill="#543C36" d="M110.8,132.7c-2.4-2.1-2.6-1.5-6.4-5.3c-8.5-8.5-7.7-16.9-7.9-18.1c0,0-0.6-2.8,1.8-2.8
		c1.7,0,3.1,2.4,3.1,2.4c1.5,3.7,0.7,6.5,5.8,14.1c3.3,4.8,10.2,5.3,10.6,7.6c0.4,2.2,1,4.6-1.4,4.5
		C114,134.8,112.5,134.2,110.8,132.7z"/>
	<path fill="#C9C941" d="M93.3,85.5c-6.7-18.3-15.8-20.9-23.8-20.9V153c15,0,28.2-8.8,36.6-22.3C114.7,116.7,101.1,106.8,93.3,85.5z
		"/>
	<path fill="#B2AF38" d="M46.4,85.5c6.7-18.3,17.1-20.9,24.1-20.9V153c-15,0-28.3-8.8-36.7-22.3C25.2,116.7,38.6,106.8,46.4,85.5z"
		/>
	<path fill="#C9C941" d="M57.2,85.5c3.7-18.3,9.3-20.9,13.3-20.9V153c-8,0-15.7-8.8-20.4-22.3C45.3,116.7,52.8,106.8,57.2,85.5z"/>
	<path fill="#B2AF38" d="M72.7,92.5c-8,0.3-17.7,5.3-20.1-2.5c-1.3-4.3-1.3-12,4.5-16.7c1.1-0.9,6.4-5.5,5.7-4.2
		c-0.6,1.2-0.2,1.4,0.7,1.2C73,68.2,85.2,73,85.2,83C85.3,92.9,79.3,92.2,72.7,92.5z"/>
	<path fill="#E2C6A8" d="M74.5,90.5c-6.6,0-16,2-18.1-4.6c-1.2-3.9-1.2-9.4,4-13.7c7.8-6.5,25-0.7,25.1,10.6
		C85.6,91.6,80.3,90.5,74.5,90.5z"/>
	<path fill="#F7E7D5" d="M85.5,82.7c-0.1-7.6-7.9-12.7-15.4-13.2c-2.1,0.1-4,0.7-5.5,2c-4.5,3.7-4,10.6-2.9,13.9
		c1.7,5.4,8.5,4.4,14,5.1C80.9,90.6,85.5,91.1,85.5,82.7z"/>
	<circle fill="#684033" cx="71.8" cy="84.1" r="2.6"/>
	<path fill="#B2AF38" d="M79.4,135.1c-2.7,1.1-5.1,1.4-6.7,1.4c-1.4,0-4.1-0.2-6.8-1.4c-0.6-0.3-1.4-0.1-0.8,1.1
		c1.4,2.7,4.4,7.3,7.4,7.4v0v0v0v0c4-0.1,6.2-4.7,7.6-7.4C80.7,134.9,80.1,134.8,79.4,135.1z"/>
	<path opacity="0.2" fill="#FCFFD9" d="M74.3,122.1c4.2,1.2,7.1,1.4,8.9,1.2c2-0.2,2.2-1.5,1-2c-2.3-0.9-5.1-1.2-9-2.4
		c-3.3-1-7-2.1-9.7-2.9c-0.9-0.3-1.7,0.8,0,2c2.5,1.8,6,3.1,9,4v0C74.5,122.1,74.4,122.1,74.3,122.1
		C74.4,122.1,74.4,122.1,74.3,122.1L74.3,122.1z"/>
	<path fill="#B2AF38" d="M49.1,81.9c0,0-4-4.2-11.4-4.4c-5.6-0.2-2.3,6.4,2.6,5.6c4.5-0.7,7.6,1.5,7.6,1.5s1.1,1.1,2-0.1
		C50.8,83.4,49.1,81.9,49.1,81.9z"/>
	<path fill="#C9C941" d="M49.1,81.9c0,0-4-4.2-11.4-4.4c-1.9-0.1-2.7,0.6-2.9,1.6c0.6,1.6,2.8,3.2,5.4,2.8c4.5-0.7,7.6,1.5,7.6,1.5
		s1.1,1.1,2-0.1c0.1-0.1,0.1-0.2,0.2-0.3C49.6,82.4,49.1,81.9,49.1,81.9z"/>
	<path fill="#B2AF38" d="M50.8,79c0,0-2-12.6-12.4-14c-3.8-0.5-3.8,4.2-0.4,4.9c8.4,1.6,11.1,10.7,11.1,10.7s0.3,1.1,1.2,0.6
		C51.3,80.6,50.8,79,50.8,79z"/>
	<path fill="#543C36" d="M57.7,163.6c-0.7-1.9-2.7-8.3-3.8-14.6c-0.4-2.8,7.7,0.6,7.1,2.7c-1.3,4.6-1.2,8-0.9,11.7
		c0.1,1.1-0.5,1.3-1.2,1.3C58.4,164.7,57.9,164.4,57.7,163.6z"/>
	<path fill="#543C33" d="M84,127.4c0,0-0.2-1-1.2-1c-1,0-9.5-0.2-14.3-3c-4.8-2.8-5.7-1-5.7-1s-2.4,4.8,0.7,8c3.1,3.1,12.3,3.6,16,2
		C83.1,130.9,84,127.4,84,127.4z"/>
	<path fill="#D86D4C" d="M72,129.4c-2.9,0-5.4,1-6.5,2.5c3.6,1.6,9.3,1.9,12.7,1c0.2-0.2,0.4-0.4,0.6-0.6
		C77.9,130.6,75.2,129.4,72,129.4z"/>
	
		<polygon fill="none" stroke="#4D4D4D" stroke-width="2" stroke-linecap="round" stroke-linejoin="round" stroke-miterlimit="10" points="
		175,108.1 191.5,44.3 225.2,52.3 	"/>
	<path fill="#543C36" d="M93.8,127.3c-1.1,0-5.2-8.4-6.2-9.2s-27.4-3.5-28.4-2.8s-4.9,11.9-6,11.9s-13-6.2-13-6.2s3.2,9.4,5.3,13.1
		c2.2,3.7,6.6,11.5,16.8,14.5c5.4,1.6,11.2,1,11.2,1s5.7-0.6,10.7-3.2c8.2-4.3,12.7-9.5,15.3-12.8c4.1-5.2,5.7-12.2,5.7-12.2
		S94.9,127.3,93.8,127.3z M86.2,134.1c-0.5,3.7-2.8,6.7-5.1,8.1c-2.4,1.4-3,1-3,1s-1.3-2.2-0.1-3c3.3-2.2,0.5-4,0.5-4
		c-2.4,0.3-5,0.4-5,0.4s-2.6-0.1-5-0.4c0,0-2.7,1.7,0.5,4c1.2,0.8-0.1,3-0.1,3s-0.6,0.4-3-1s-4.6-4.4-5.1-8.1
		c-0.5-3.7,0.4-13.2,2.5-13.4c2.2-0.1,18,2.6,20.2,2.8C85.7,123.6,86.7,130.3,86.2,134.1z"/>
	<path fill="#3A2825" d="M61.1,148.3c-8.9-7-11.1-18.8-11.5-22.4c-3.9-1.8-9.4-4.8-9.4-4.8s3.2,9.4,5.3,13.1
		C47.6,137.7,51.8,145.1,61.1,148.3z"/>
	<g>
		<polygon fill="#4C4C4C" points="85.3,63.5 92,70.5 93.1,70.5 86.4,63.5 		"/>
		<rect x="91.5" y="70.5" fill="#3A3A3A" width="2" height="7"/>
		<polygon fill="#1E1E1E" points="85.5,63.8 85.5,67.8 91.5,77.4 91.5,70.4 		"/>
		<path fill="#3A3A3A" d="M74.5,71.5v2h6.7h2.2c3.3,0,6,2.4,6,5.7v4.8v0v5.2c0,0.1,0,3.1-2.3,5.4c-1.8,1.8-4.7,2.8-8.4,2.8h-4.3v2
			h4.3c12.7,0,12.7-10.2,12.7-10.2s0-1.9,0-5.2c0-4.8,3-5.6,3-5.6v-6.9H74.5z"/>
		<path fill="#3A3A3A" d="M74.5,71.5v2h-5.6h-2.2c-3.3,0-6.2,2.4-6.2,5.7v4.8v0v5.2c0,0.1,0.1,3.1,2.4,5.4c1.8,1.8,4.8,2.8,8.5,2.8
			h3.1v2h-3.1c-12.7,0-12.9-10.2-12.9-10.2s0-1.9,0-5.2c0-4.8-3-5.6-3-5.6v-6.9H74.5z"/>
		<rect x="57.5" y="73.5" fill="#E6E6E6" width="2" height="4"/>
		<polygon fill="#4C4C4C" points="42.8,63.5 54.3,70.5 55.4,70.5 43.9,63.5 		"/>
		<rect x="54.5" y="70.5" fill="#3A3A3A" width="1" height="7"/>
		<polygon fill="#1E1E1E" points="42.5,63.8 42.5,67.8 54.5,77.4 54.5,70.4 		"/>
		<polygon fill="#4C4C4C" points="54.7,70.5 55.7,71.5 94.4,71.5 93.4,70.5 		"/>
		<rect x="91.5" y="73.5" fill="#E6E6E6" width="1" height="4"/>
		<polygon fill="#1E1E1E" points="54.5,70.7 54.5,77.7 55.5,78.5 55.5,71.5 		"/>
	</g>
	<path fill="#C9C941" d="M38.5,65c-0.8-0.1-1.4,0-1.9,0.3c-0.6,1.3,0.2,3.3,2.3,3.7C47.2,70.6,50,79.6,50,79.6s0.2,0.9,0.9,0.7
		c0.1-0.6-0.1-1.4-0.1-1.4S48.8,66.4,38.5,65z"/>
	<g id="coffe_2_" display="none">
		<g display="inline">
			<polygon fill="#FFFFFF" points="127.5,119.3 114.3,119.3 121.1,124.1 134.4,124.2 			"/>
			<polygon fill="#E6E6E6" points="126.9,119.7 116,119.7 121.6,123.6 132.7,123.7 			"/>
			<polygon fill="#B3B3B3" points="126.9,119.7 126.9,123.6 132.7,123.7 			"/>
			<polygon fill="#603813" points="126.9,121.3 118.3,121.3 121.6,123.6 130.4,123.7 			"/>
			<path id="predna_strana_1_" fill="#E6E6E6" d="M121.1,124.1l13.4,0v17.7l-13.4,0V124.1z"/>
			<polygon id="lava_strana_2_" fill="#B3B3B3" points="114.3,119.3 114.3,137 121.1,141.8 121.1,124.1 			"/>
			<polygon fill="#FFFFFF" points="116.8,133.2 113,133.2 114.8,134.5 118.6,134.5 			"/>
			<polygon fill="#E6E6E6" points="114.8,134.5 114.8,127.3 118.6,127.3 118.6,125.8 113.2,125.8 113.2,135.9 118.6,135.9 
				118.6,134.5 			"/>
			<polygon id="lava_strana_1_" fill="#B3B3B3" points="111.4,124.6 111.4,134.7 113.2,135.9 113.2,125.8 			"/>
			<polygon opacity="0.5" fill="#F2F2F2" enable-background="new    " points="120.9,118.3 118.4,103.7 123.6,116 			"/>
			<polygon opacity="0.5" fill="#F2F2F2" enable-background="new    " points="124.9,110.9 129,99.1 124.9,96 			"/>
			<polygon opacity="0.5" fill="#F2F2F2" enable-background="new    " points="120.9,100.5 117.8,94.6 119.8,85.6 			"/>
		</g>
		<polygon display="inline" fill="#FFFFFF" points="116.8,124.5 111.4,124.6 113.2,125.8 118.6,125.8 		"/>
	</g>
	<path fill="none" stroke="#E6E6E6" stroke-linejoin="round" stroke-miterlimit="10" d="M175,108.1c0,0-0.4,3.3-5.8,13.8
		c-4.4,8.6-14.7,14.8-32.3,14.6c-10.8-0.2-16.1-8.8-20.2-8.8c-0.8,0-1.5,0.3-1.6,1.9c-0.2,3-0.1,4.9,0.1,7.2c0,0,0.2,4.1,0.1,6.2"/>
	<polygon opacity="0.8" fill="#CC2B78" points="191.5,44.3 224.8,52.2 175,108.1 	"/>
	<polygon opacity="0.8" fill="#FFFF00" points="191.5,44.3 224.8,52.2 200.6,8.7 	"/>
	<polygon opacity="0.8" fill="#F17D24" points="191.5,44.3 158.6,36.5 200.6,8.7 	"/>
	<polygon opacity="0.8" fill="#3092B5" points="191.5,44.3 158.8,37 175,108.1 	"/>
	<path fill="#543C36" d="M116.5,128.8c0,0,2.6,0.8,2.8,2.8s-1.1,4.6-3.7,4.8c-2.6,0.3-4.7-6.2-2-6.5c2.7-0.3,2.9-0.7,2.9-0.7V128.8z
		"/>
	
		<polygon fill="none" stroke="#3D3B3B" stroke-width="2" stroke-linecap="round" stroke-linejoin="round" stroke-miterlimit="10" points="
		175,108.1 158.6,36.5 200.6,8.7 225.2,52.3 	"/>
	
		<line fill="none" stroke="#3D3B3B" stroke-width="2" stroke-linecap="round" stroke-miterlimit="10" x1="155.6" y1="35.8" x2="228.2" y2="53"/>
	
		<line fill="none" stroke="#3D3B3B" stroke-width="2" stroke-linecap="round" stroke-linejoin="round" stroke-miterlimit="10" x1="201" y1="7.2" x2="174.7" y2="109.2"/>
	<polygon fill="#ED785E" points="162.1,107.5 160.6,117.1 182.7,114.1 182.3,123.6 	"/>
	<polygon fill="#6BA82F" points="145.5,125.8 136.4,125.9 149.3,146 140.7,146.6 	"/>
	<polygon fill="#50B5CC" points="157.9,120.5 151.2,127.4 172.8,134.3 164.6,141 	"/>
	<path fill="#543C36" d="M37.3,117.9c0,0,2.3,1,2.9-1.8c0.5-2.3-1.3-3.2-1.3-3.2s-15.5-5.8-26.2-16.8c-4.3-4.5-7-1.4-7-1.4
		s-2.3,3.2,3.2,5.6c2.5,1.1,5.1,1.4,12,5.8C28.2,110.7,37.3,117.9,37.3,117.9z"/>
</g>
</svg>
