<svg width="190" height="80" xmlns="http://www.w3.org/2000/svg">
 <defs>
  <linearGradient y2="0.498267" x2="1.002231" y1="0.498267" x1="-0.044795" id="SVGID_1_">
   <stop stop-color="#EF4471" offset="0"/>
   <stop stop-color="#F36E55" offset="1"/>
  </linearGradient>
 </defs>
 <g>
  <title>background</title>
  <rect fill="none" id="canvas_background" height="402" width="582" y="-1" x="-1"/>
 </g>
 <g>
  <title>Layer 1</title>
  <rect id="svg_44" height="16" width="19" y="6.5" x="48" stroke-opacity="null" stroke-width="null" stroke="null" fill="#282126"/>
  <rect id="svg_34" height="28" width="136" y="20" x="12" fill-opacity="null" stroke-opacity="0" stroke-width="1.5" stroke="#000000" fill="#282126"/>
  <text xml:space="preserve" text-anchor="start" font-family="Helvetica, Arial, sans-serif" font-size="23" id="svg_30" y="30" x="18" stroke-opacity="0" stroke-width="0" stroke="#000000" fill="#eddcdc">Digital Shark</text>
  <g id="Vrstva_1"/>
  <g id="logo_table">
   <polygon id="svg_1" points="0,-1 190,-1 150,79 0,79 " fill="#282126"/>
   <g id="logo">
    <path id="svg_2" d="m90.4,44.6c-1.5,0 -2.7,-0.3 -3.7,-0.9c-0.8,-0.5 -1.4,-1.2 -1.9,-2.1c-0.8,-1.5 -0.8,-3 -0.8,-3l0,-15.7c0,-0.2 0.2,-0.4 0.4,-0.4l5.5,0c0.2,0 0.4,0.2 0.4,0.4l0,13.5c0,0 0,0.5 0.3,1.1c0.3,0.5 0.9,1.1 2.1,1.1c0.3,0 0.6,0 0.9,-0.1c1.9,-0.3 5.8,-1.1 5.8,-1.1c0.4,-0.1 0.8,-0.5 0.8,-0.9l0,-13.6c0,-0.2 0.2,-0.4 0.4,-0.4l5.5,0c0.2,0 0.4,0.2 0.4,0.4l0,21.1c0,0.2 -0.2,0.4 -0.4,0.4l-5.5,0c-0.2,0 -0.4,-0.2 -0.4,-0.4l0,-0.2c0,-0.4 -0.3,-0.7 -0.7,-0.7c0,0 -0.1,0 -0.1,0c0,0 -4.4,0.8 -6.6,1.2c-0.9,0.2 -1.7,0.3 -2.4,0.3z" fill="#FFFFFF" clip-rule="evenodd" fill-rule="evenodd"/>
    <path id="svg_3" d="m128,44.4c-0.2,0 -0.5,-0.2 -0.6,-0.4l-5.8,-13.3c-0.1,-0.3 -0.3,-0.4 -0.4,-0.4c-0.1,0 -0.3,0 -0.4,0.4l-5.8,13.3c-0.1,0.2 -0.4,0.4 -0.6,0.4l-5.7,0c-0.1,0 -0.1,0 -0.2,-0.1c0,0 0,-0.1 0,-0.2l9.2,-21.2c0.1,-0.2 0.4,-0.4 0.6,-0.4l5.7,0c0.2,0 0.5,0.2 0.6,0.4l9.2,21.2c0,0.1 0,0.1 0,0.2c0,0 -0.1,0.1 -0.2,0.1l-5.6,0z" fill="#FFFFFF" clip-rule="evenodd" fill-rule="evenodd"/>
    <path id="svg_4" d="m33,44.4c-0.2,0 -0.5,-0.2 -0.6,-0.4l-9.2,-21.2c0,-0.1 0,-0.1 0,-0.2c0,0 0.1,-0.1 0.2,-0.1l5.6,0c0.2,0 0.5,0.2 0.6,0.4l5.8,13.3c0.1,0.3 0.3,0.4 0.4,0.4c0.1,0 0.3,0 0.4,-0.4l5.8,-13.3c0.1,-0.2 0.4,-0.4 0.6,-0.4l5.7,0c0.1,0 0.1,0 0.2,0.1c0,0 0,0.1 0,0.2l-9.2,21.2c-0.1,0.2 -0.4,0.4 -0.6,0.4l-5.7,0z" fill="#FFFFFF" clip-rule="evenodd" fill-rule="evenodd"/>
    <path id="svg_5" d="m51,44.4c-0.2,0 -0.4,-0.2 -0.4,-0.4l0,-21.1c0,-0.2 0.2,-0.4 0.4,-0.4l5.5,0c0.2,0 0.4,0.2 0.4,0.4l0,21.1c0,0.2 -0.2,0.4 -0.4,0.4l-5.5,0z" fill="#FFFFFF" clip-rule="evenodd" fill-rule="evenodd"/>
    <path id="svg_6" d="m61,44.4c-0.2,0 -0.4,-0.2 -0.4,-0.4l0,-2.5c0,-0.3 0.2,-0.7 0.3,-0.9l10.7,-12.3c0.2,-0.3 0.2,-0.4 0.1,-0.5c0,-0.1 -0.2,-0.3 -0.5,-0.3l-10.4,0c-0.2,0 -0.4,-0.2 -0.4,-0.4l0,-4.3c0,-0.2 0.2,-0.4 0.4,-0.4l19.3,0c0.2,0 0.4,0.2 0.4,0.4l0,2.5c0,0.3 -0.2,0.7 -0.3,0.9l-10.7,12.4c-0.2,0.3 -0.2,0.5 -0.1,0.5c0,0.1 0.2,0.3 0.5,0.3l10.4,0c0.2,0 0.4,0.2 0.4,0.4l0,4.2c0,0.2 -0.2,0.4 -0.4,0.4l-19.3,0z" fill="#FFFFFF" clip-rule="evenodd" fill-rule="evenodd"/>
    <g id="svg_7">
     <path id="svg_8" d="m29.6,58.5c-0.7,0.7 -1.7,1.1 -2.7,1.1c-2.1,0 -3.8,-1.4 -3.8,-3.7s1.6,-3.7 3.8,-3.7c1,0 1.9,0.4 2.7,1.1l-0.5,0.5c-0.6,-0.6 -1.4,-0.9 -2.2,-0.9c-1.7,0 -3.1,1.1 -3.1,3.1s1.4,3.1 3.1,3.1c0.8,0 1.6,-0.3 2.2,-0.9l0.5,0.3z" fill="#898B8D"/>
     <path id="svg_9" d="m32.4,52.1l0,1.3c0.5,-1 1.5,-1.4 2.4,-1.4c0.5,0 1.1,0.1 1.6,0.4l-0.3,0.6c-0.4,-0.2 -0.8,-0.3 -1.2,-0.3c-1.4,0 -2.4,1.1 -2.4,2.5l0,4.3l-0.7,0l0,-7.3l0.6,0l0,-0.1z" fill="#898B8D"/>
     <path id="svg_10" d="m37.6,55.8c0,-2.2 1.7,-3.8 3.7,-3.8s3.9,1.3 3.6,4.1l-6.6,0c0.1,1.7 1.5,2.7 3,2.7c1,0 2.1,-0.4 2.6,-1.1l0.5,0.4c-0.7,0.9 -2,1.4 -3.2,1.4c-1.9,0.1 -3.6,-1.4 -3.6,-3.7zm6.7,-0.3c0,-1.8 -1.2,-2.8 -3,-2.8c-1.5,0 -2.8,1 -3,2.8l6,0z" fill="#898B8D"/>
     <path id="svg_11" d="m54.4,52.1c0,2.4 0,4.9 0,7.3l-0.7,0l0,-1.6c-0.7,1.1 -1.8,1.7 -3,1.7c-2,0 -3.7,-1.5 -3.7,-3.8s1.7,-3.8 3.7,-3.8c1.2,0 2.4,0.5 3,1.7l0,-1.6l0.7,0l0,0.1zm-6.7,3.7c0,1.8 1.3,3.1 3,3.1c4.1,0 4.1,-6.1 0,-6.1c-1.7,-0.1 -3,1.2 -3,3z" fill="#898B8D"/>
     <path id="svg_12" d="m58.5,49.9l0,2.2l2.5,0l0,0.6l-2.5,0l0,4.5c0,1 0.2,1.7 1.4,1.7c0.4,0 0.8,-0.1 1.1,-0.3l0.3,0.6c-0.5,0.2 -0.9,0.4 -1.4,0.4c-1.6,0 -2.1,-0.9 -2.1,-2.4l0,-4.5l-1.6,0l0,-0.6l1.6,0l0,-2.1l0.7,-0.1z" fill="#898B8D"/>
     <path id="svg_13" d="m64.5,49.8c0,0.8 -1.2,0.8 -1.2,0c0,-0.8 1.2,-0.8 1.2,0zm-0.9,2.3l0,7.4l0.7,0l0,-7.4l-0.7,0z" fill="#898B8D"/>
     <path id="svg_14" d="m66.5,52.1l0.8,0l2.7,6.5l2.7,-6.5l0.8,0l-3.1,7.3l-0.8,0l-3.1,-7.3z" fill="#898B8D"/>
     <path id="svg_15" d="m74.9,55.8c0,-2.2 1.7,-3.8 3.7,-3.8s3.9,1.3 3.6,4.1l-6.6,0c0.1,1.7 1.5,2.7 3,2.7c1,0 2.1,-0.4 2.6,-1.1l0.5,0.4c-0.7,0.9 -2,1.4 -3.2,1.4c-1.9,0.1 -3.6,-1.4 -3.6,-3.7zm6.7,-0.3c0,-1.8 -1.2,-2.8 -3,-2.8c-1.5,0 -2.8,1 -3,2.8l6,0z" fill="#898B8D"/>
     <path id="svg_16" d="m94.6,53.5c-0.7,-0.7 -1.5,-0.8 -2.3,-0.8c-1.1,0 -2.2,0.4 -2.2,1.4c0,1 1.3,1.2 2.2,1.3c1.3,0.2 3.1,0.4 3,2.2c0,1.6 -1.7,2 -3,2c-1.3,0 -2.6,-0.5 -3.2,-1.5l0.5,-0.5c0.6,0.9 1.7,1.2 2.7,1.2c0.9,0 2.2,-0.2 2.3,-1.4c0,-1.1 -1.2,-1.3 -2.4,-1.5c-1.4,-0.2 -2.8,-0.5 -2.9,-2c0,-1.4 1.4,-2.1 2.9,-2c1.1,0 2,0.3 2.7,1l-0.3,0.6z" fill="#898B8D"/>
     <path id="svg_17" d="m99.3,49.9l0,2.2l2.5,0l0,0.6l-2.5,0l0,4.5c0,1 0.2,1.7 1.3,1.7c0.4,0 0.8,-0.1 1.1,-0.3l0.3,0.6c-0.5,0.2 -0.9,0.4 -1.4,0.4c-1.6,0 -2.1,-0.9 -2.1,-2.4l0,-4.5l-1.5,0l0,-0.6l1.6,0l0,-2.1l0.7,-0.1z" fill="#898B8D"/>
     <path id="svg_18" d="m109.9,59.5l0,-1.3c-0.6,1 -1.6,1.4 -2.6,1.4c-2,0 -3.3,-1.2 -3.3,-3.2l0,-4.2l0.7,0l0,4.2c0,1.7 1,2.6 2.6,2.5c1.5,0 2.6,-1.2 2.6,-2.7l0,-4.1l0.7,0l0,7.3l-0.7,0l0,0.1z" fill="#898B8D"/>
     <path id="svg_19" d="m120.3,49.1l0,10.4l-0.7,0l0,-1.6c-0.6,1.1 -1.8,1.7 -3.1,1.7c-2,0 -3.7,-1.3 -3.7,-3.8c0,-2.4 1.6,-3.8 3.7,-3.8c1.3,0 2.4,0.5 3,1.7l0,-4.7l0.8,0l0,0.1zm-6.8,6.7c0,2 1.4,3.1 3,3.1c1.7,0 3,-1.3 3,-3.1c0,-1.8 -1.3,-3.1 -3,-3.1c-1.6,0 -3,1 -3,3.1z" fill="#898B8D"/>
     <path id="svg_20" d="m124.1,49.8c0,0.8 -1.2,0.8 -1.2,0c0,-0.8 1.2,-0.8 1.2,0zm-1,2.3l0,7.4l0.7,0l0,-7.4l-0.7,0z" fill="#898B8D"/>
     <path id="svg_21" d="m126.4,55.8c0,-2.3 1.7,-3.8 3.7,-3.8c2.1,0 3.7,1.5 3.7,3.8c0,2.3 -1.7,3.8 -3.7,3.8c-2,0 -3.7,-1.4 -3.7,-3.8zm6.7,0c0,-1.9 -1.4,-3.1 -3,-3.1c-1.7,0 -3,1.2 -3,3.1c0,1.9 1.4,3 3,3c1.7,0.1 3,-1.1 3,-3z" fill="#898B8D"/>
    </g>
    <path id="svg_22" d="m55.8,17.8c-1.1,1.9 -2.9,1.9 -4,0l-1.2,-2c-1.1,-1.9 -0.2,-3.5 2,-3.5l2.4,0c2.2,0 3.1,1.6 2,3.5l-1.2,2z" fill="url(#SVGID_1_)"/>
   </g>
  </g>
  <path id="svg_38" d="m48,11.5" opacity="0.5" fill-opacity="null" stroke-opacity="null" stroke-width="null" stroke="null" fill="#282126"/>
  <path id="svg_40" d="m88,113.5" opacity="0.5" fill-opacity="null" stroke-opacity="null" stroke-width="null" stroke="null" fill="#282126"/>
  <rect id="svg_46" height="25" width="132" y="40.5" x="8" stroke-width="null" fill="#282126"/>
  <rect id="svg_57" height="22.999021" width="131.994382" y="19.750858" x="12.503511" stroke-width="null" fill="#282126"/>
  <text xml:space="preserve" text-anchor="start" font-family="Helvetica, Arial, sans-serif" font-size="24" id="svg_55" y="32.999872" x="14.500149" stroke-opacity="0" stroke-width="0" stroke="#000000" fill="#eddcdc">Digıtal Shark</text>
  <path stroke="#000000" id="svg_43" d="m64.168063,45.069138c-0.154443,0.790428 2.344003,2.667506 4.16453,4.270272c1.445401,1.267437 3.023647,2.803761 4.526847,4.159275c1.256481,1.132962 4.029261,3.045438 4.341796,4.284145c0.365137,1.447173 1.01807,4.114057 1.719385,6.104169c0.533495,1.520779 1.545842,3.520325 2.096145,3.55538c0.21341,0.013593 0.396226,-0.711633 0.396226,-0.711633c0,0 0.578503,-4.83223 1.859429,-7.161639c0.511254,-0.931957 1.993018,-0.894543 2.537947,-0.83689c3.637007,0.384773 8.413509,-0.388245 8.413509,-0.388245c0,0 1.552121,1.564796 1.811632,1.731195c0.657972,0.411851 -0.000672,-0.576515 1.623808,-2.369396c0.890659,-0.982985 1.379848,-0.697333 2.082813,-0.378511c0.283402,0.13218 0.452346,0.563607 0.686857,0.813197c0.300094,0.318135 6.338539,6.298828 6.951431,6.567886c0.612908,0.269057 0.586168,-1.452019 0.48513,-1.870646c-1.113487,-4.614072 -4.136171,-7.788496 -4.136171,-7.788496c0,0 -0.233386,-0.675292 -0.128375,-1.388597c0.095036,-0.647612 1.715076,-5.406837 0.865803,-5.118096c-0.352986,-0.055617 -1.223112,0.532604 -1.223112,0.532604c0,0 -0.873032,0.71247 -1.497652,1.722984c-0.441802,0.718645 -0.699095,1.834862 -0.699095,1.834862c0,0 -0.200792,0.907386 -0.794672,1.169539c-1.434581,0.63329 -2.505718,-0.0905 -2.874155,-0.715278c-0.315646,-0.534235 -0.121717,-1.433901 -0.121717,-1.433901c0,0 0.446256,-0.709597 0.173397,-0.746282c-1.18367,-0.149654 -1.736602,1.114588 -2.559619,1.814387c-0.286746,0.241785 -0.725482,0.642337 -1.468196,-0.181109c-0.373402,-0.413996 -0.644581,-2.535561 -1.225361,-3.241319c-0.391232,-0.475423 -1.016946,0.072598 -1.016946,0.072598c0,0 -0.951949,0.48372 -1.624917,0.510627c-3.068858,-2.218068 -8.642457,-4.255178 -8.642457,-4.255178c0,0 0.742977,-1.289156 1.132544,-2.178189c0.193374,-0.443305 0.185605,-0.82544 0.185605,-0.82544c0,0 0.193944,-0.607196 -0.210066,-0.691629c-0.23952,-0.048948 -2.569621,0.51586 -3.81442,1.229165c-1.048094,0.601129 -1.87609,1.481221 -1.87609,1.481221c0,0 -3.814056,-0.458228 -6.26031,-0.605052c-1.424855,-0.082396 -5.66938,-0.053559 -5.881505,1.032019z" stroke-opacity="0" stroke-width="0" fill="#eddcdc"/>
 </g>
</svg>