<svg width="190" height="80" xmlns="http://www.w3.org/2000/svg">
 <defs>
  <linearGradient y2="0.498267" x2="1.002231" y1="0.498267" x1="-0.044795" id="SVGID_1_">
   <stop stop-color="#EF4471" offset="0"/>
   <stop stop-color="#F36E55" offset="1"/>
  </linearGradient>
 </defs>
 <g>
  <title>background</title>
  <rect fill="none" id="canvas_background" height="402" width="582" y="-1" x="-1"/>
 </g>
 <g>
  <title>Layer 1</title>
  <g id="Vrstva_1"/>
  <g id="logo_table">
   <polygon id="svg_1" points="0,0 190,0 150,80 0,80  " fill="#282126"/>
   <g id="logo">
    <path id="svg_2" d="m90.4,45.6c-1.5,0 -2.7,-0.3 -3.7,-0.9c-0.8,-0.5 -1.4,-1.2 -1.9,-2.1c-0.8,-1.5 -0.8,-3 -0.8,-3l0,-15.7c0,-0.2 0.2,-0.4 0.4,-0.4l5.5,0c0.2,0 0.4,0.2 0.4,0.4l0,13.5c0,0 0,0.5 0.3,1.1c0.3,0.5 0.9,1.1 2.1,1.1c0.3,0 0.6,0 0.9,-0.1c1.9,-0.3 5.8,-1.1 5.8,-1.1c0.4,-0.1 0.8,-0.5 0.8,-0.9l0,-13.6c0,-0.2 0.2,-0.4 0.4,-0.4l5.5,0c0.2,0 0.4,0.2 0.4,0.4l0,21.1c0,0.2 -0.2,0.4 -0.4,0.4l-5.5,0c-0.2,0 -0.4,-0.2 -0.4,-0.4l0,-0.2c0,-0.4 -0.3,-0.7 -0.7,-0.7c0,0 -0.1,0 -0.1,0c0,0 -4.4,0.8 -6.6,1.2c-0.9,0.2 -1.7,0.3 -2.4,0.3z" fill="#FFFFFF" clip-rule="evenodd" fill-rule="evenodd"/>
    <path id="svg_3" d="m128,45.4c-0.2,0 -0.5,-0.2 -0.6,-0.4l-5.8,-13.3c-0.1,-0.3 -0.3,-0.4 -0.4,-0.4c-0.1,0 -0.3,0 -0.4,0.4l-5.8,13.3c-0.1,0.2 -0.4,0.4 -0.6,0.4l-5.7,0c-0.1,0 -0.1,0 -0.2,-0.1c0,0 0,-0.1 0,-0.2l9.2,-21.2c0.1,-0.2 0.4,-0.4 0.6,-0.4l5.7,0c0.2,0 0.5,0.2 0.6,0.4l9.2,21.2c0,0.1 0,0.1 0,0.2c0,0 -0.1,0.1 -0.2,0.1l-5.6,0z" fill="#FFFFFF" clip-rule="evenodd" fill-rule="evenodd"/>
    <path id="svg_4" d="m33,45.4c-0.2,0 -0.5,-0.2 -0.6,-0.4l-9.2,-21.2c0,-0.1 0,-0.1 0,-0.2c0,0 0.1,-0.1 0.2,-0.1l5.6,0c0.2,0 0.5,0.2 0.6,0.4l5.8,13.3c0.1,0.3 0.3,0.4 0.4,0.4c0.1,0 0.3,0 0.4,-0.4l5.8,-13.3c0.1,-0.2 0.4,-0.4 0.6,-0.4l5.7,0c0.1,0 0.1,0 0.2,0.1c0,0 0,0.1 0,0.2l-9.2,21.2c-0.1,0.2 -0.4,0.4 -0.6,0.4l-5.7,0z" fill="#FFFFFF" clip-rule="evenodd" fill-rule="evenodd"/>
    <path id="svg_5" d="m51,45.4c-0.2,0 -0.4,-0.2 -0.4,-0.4l0,-21.1c0,-0.2 0.2,-0.4 0.4,-0.4l5.5,0c0.2,0 0.4,0.2 0.4,0.4l0,21.1c0,0.2 -0.2,0.4 -0.4,0.4l-5.5,0z" fill="#FFFFFF" clip-rule="evenodd" fill-rule="evenodd"/>
    <path id="svg_6" d="m61,45.4c-0.2,0 -0.4,-0.2 -0.4,-0.4l0,-2.5c0,-0.3 0.2,-0.7 0.3,-0.9l10.7,-12.3c0.2,-0.3 0.2,-0.4 0.1,-0.5c0,-0.1 -0.2,-0.3 -0.5,-0.3l-10.4,0c-0.2,0 -0.4,-0.2 -0.4,-0.4l0,-4.3c0,-0.2 0.2,-0.4 0.4,-0.4l19.3,0c0.2,0 0.4,0.2 0.4,0.4l0,2.5c0,0.3 -0.2,0.7 -0.3,0.9l-10.7,12.4c-0.2,0.3 -0.2,0.5 -0.1,0.5c0,0.1 0.2,0.3 0.5,0.3l10.4,0c0.2,0 0.4,0.2 0.4,0.4l0,4.2c0,0.2 -0.2,0.4 -0.4,0.4l-19.3,0z" fill="#FFFFFF" clip-rule="evenodd" fill-rule="evenodd"/>
    <g id="svg_7">
     <path id="svg_8" d="m29.6,59.5c-0.7,0.7 -1.7,1.1 -2.7,1.1c-2.1,0 -3.8,-1.4 -3.8,-3.7s1.6,-3.7 3.8,-3.7c1,0 1.9,0.4 2.7,1.1l-0.5,0.5c-0.6,-0.6 -1.4,-0.9 -2.2,-0.9c-1.7,0 -3.1,1.1 -3.1,3.1s1.4,3.1 3.1,3.1c0.8,0 1.6,-0.3 2.2,-0.9l0.5,0.3z" fill="#898B8D"/>
     <path id="svg_9" d="m32.4,53.1l0,1.3c0.5,-1 1.5,-1.4 2.4,-1.4c0.5,0 1.1,0.1 1.6,0.4l-0.3,0.6c-0.4,-0.2 -0.8,-0.3 -1.2,-0.3c-1.4,0 -2.4,1.1 -2.4,2.5l0,4.3l-0.7,0l0,-7.3l0.6,0l0,-0.1z" fill="#898B8D"/>
     <path id="svg_10" d="m37.6,56.8c0,-2.2 1.7,-3.8 3.7,-3.8s3.9,1.3 3.6,4.1l-6.6,0c0.1,1.7 1.5,2.7 3,2.7c1,0 2.1,-0.4 2.6,-1.1l0.5,0.4c-0.7,0.9 -2,1.4 -3.2,1.4c-1.9,0.1 -3.6,-1.4 -3.6,-3.7zm6.7,-0.3c0,-1.8 -1.2,-2.8 -3,-2.8c-1.5,0 -2.8,1 -3,2.8l6,0z" fill="#898B8D"/>
     <path id="svg_11" d="m54.4,53.1c0,2.4 0,4.9 0,7.3l-0.7,0l0,-1.6c-0.7,1.1 -1.8,1.7 -3,1.7c-2,0 -3.7,-1.5 -3.7,-3.8s1.7,-3.8 3.7,-3.8c1.2,0 2.4,0.5 3,1.7l0,-1.6l0.7,0l0,0.1zm-6.7,3.7c0,1.8 1.3,3.1 3,3.1c4.1,0 4.1,-6.1 0,-6.1c-1.7,-0.1 -3,1.2 -3,3z" fill="#898B8D"/>
     <path id="svg_12" d="m58.5,50.9l0,2.2l2.5,0l0,0.6l-2.5,0l0,4.5c0,1 0.2,1.7 1.4,1.7c0.4,0 0.8,-0.1 1.1,-0.3l0.3,0.6c-0.5,0.2 -0.9,0.4 -1.4,0.4c-1.6,0 -2.1,-0.9 -2.1,-2.4l0,-4.5l-1.6,0l0,-0.6l1.6,0l0,-2.1l0.7,-0.1z" fill="#898B8D"/>
     <path id="svg_13" d="m64.5,50.8c0,0.8 -1.2,0.8 -1.2,0c0,-0.8 1.2,-0.8 1.2,0zm-0.9,2.3l0,7.4l0.7,0l0,-7.4l-0.7,0z" fill="#898B8D"/>
     <path id="svg_14" d="m66.5,53.1l0.8,0l2.7,6.5l2.7,-6.5l0.8,0l-3.1,7.3l-0.8,0l-3.1,-7.3z" fill="#898B8D"/>
     <path id="svg_15" d="m74.9,56.8c0,-2.2 1.7,-3.8 3.7,-3.8s3.9,1.3 3.6,4.1l-6.6,0c0.1,1.7 1.5,2.7 3,2.7c1,0 2.1,-0.4 2.6,-1.1l0.5,0.4c-0.7,0.9 -2,1.4 -3.2,1.4c-1.9,0.1 -3.6,-1.4 -3.6,-3.7zm6.7,-0.3c0,-1.8 -1.2,-2.8 -3,-2.8c-1.5,0 -2.8,1 -3,2.8l6,0z" fill="#898B8D"/>
     <path id="svg_16" d="m94.6,54.5c-0.7,-0.7 -1.5,-0.8 -2.3,-0.8c-1.1,0 -2.2,0.4 -2.2,1.4c0,1 1.3,1.2 2.2,1.3c1.3,0.2 3.1,0.4 3,2.2c0,1.6 -1.7,2 -3,2c-1.3,0 -2.6,-0.5 -3.2,-1.5l0.5,-0.5c0.6,0.9 1.7,1.2 2.7,1.2c0.9,0 2.2,-0.2 2.3,-1.4c0,-1.1 -1.2,-1.3 -2.4,-1.5c-1.4,-0.2 -2.8,-0.5 -2.9,-2c0,-1.4 1.4,-2.1 2.9,-2c1.1,0 2,0.3 2.7,1l-0.3,0.6z" fill="#898B8D"/>
     <path id="svg_17" d="m99.3,50.9l0,2.2l2.5,0l0,0.6l-2.5,0l0,4.5c0,1 0.2,1.7 1.3,1.7c0.4,0 0.8,-0.1 1.1,-0.3l0.3,0.6c-0.5,0.2 -0.9,0.4 -1.4,0.4c-1.6,0 -2.1,-0.9 -2.1,-2.4l0,-4.5l-1.5,0l0,-0.6l1.6,0l0,-2.1l0.7,-0.1z" fill="#898B8D"/>
     <path id="svg_18" d="m109.9,60.5l0,-1.3c-0.6,1 -1.6,1.4 -2.6,1.4c-2,0 -3.3,-1.2 -3.3,-3.2l0,-4.2l0.7,0l0,4.2c0,1.7 1,2.6 2.6,2.5c1.5,0 2.6,-1.2 2.6,-2.7l0,-4.1l0.7,0l0,7.3l-0.7,0l0,0.1z" fill="#898B8D"/>
     <path id="svg_19" d="m120.3,50.1l0,10.4l-0.7,0l0,-1.6c-0.6,1.1 -1.8,1.7 -3.1,1.7c-2,0 -3.7,-1.3 -3.7,-3.8c0,-2.4 1.6,-3.8 3.7,-3.8c1.3,0 2.4,0.5 3,1.7l0,-4.7l0.8,0l0,0.1zm-6.8,6.7c0,2 1.4,3.1 3,3.1c1.7,0 3,-1.3 3,-3.1c0,-1.8 -1.3,-3.1 -3,-3.1c-1.6,0 -3,1 -3,3.1z" fill="#898B8D"/>
     <path id="svg_20" d="m124.1,50.8c0,0.8 -1.2,0.8 -1.2,0c0,-0.8 1.2,-0.8 1.2,0zm-1,2.3l0,7.4l0.7,0l0,-7.4l-0.7,0z" fill="#898B8D"/>
     <path id="svg_21" d="m126.4,56.8c0,-2.3 1.7,-3.8 3.7,-3.8c2.1,0 3.7,1.5 3.7,3.8c0,2.3 -1.7,3.8 -3.7,3.8c-2,0 -3.7,-1.4 -3.7,-3.8zm6.7,0c0,-1.9 -1.4,-3.1 -3,-3.1c-1.7,0 -3,1.2 -3,3.1c0,1.9 1.4,3 3,3c1.7,0.1 3,-1.1 3,-3z" fill="#898B8D"/>
    </g>
    <path id="svg_22" d="m55.8,18.8c-1.1,1.9 -2.9,1.9 -4,0l-1.2,-2c-1.1,-1.9 -0.2,-3.5 2,-3.5l2.4,0c2.2,0 3.1,1.6 2,3.5l-1.2,2z" fill="url(#SVGID_1_)"/>
   </g>
  </g>
  <rect id="svg_34" height="28" width="136" y="20" x="12" fill-opacity="null" stroke-opacity="0" stroke-width="1.5" stroke="#000000" fill="#282126"/>
  <text xml:space="preserve" text-anchor="start" font-family="Helvetica, Arial, sans-serif" font-size="23" id="svg_30" y="36" x="16" stroke-opacity="0" stroke-width="0" stroke="#000000" fill="#eddcdc">Digıtal Shark</text>
 </g>
</svg>