<?xml version="1.0" encoding="utf-8"?>
<!-- Generator: Adobe Illustrator 15.1.0, SVG Export Plug-In . SVG Version: 6.00 Build 0)  -->
<!DOCTYPE svg PUBLIC "-//W3C//DTD SVG 1.1//EN" "http://www.w3.org/Graphics/SVG/1.1/DTD/svg11.dtd">
<svg version="1.1" xmlns="http://www.w3.org/2000/svg" xmlns:xlink="http://www.w3.org/1999/xlink" x="0px" y="0px" width="190px"
	 height="80px" viewBox="0 0 190 80" enable-background="new 0 0 190 80" xml:space="preserve">
<g id="Vrstva_1">
</g>
<g id="logo_table">
	<polygon fill="#282126" points="0,0 190,0 150,80 0,80 	"/>
	<g id="logo">
		<path fill-rule="evenodd" clip-rule="evenodd" fill="#FFFFFF" d="M90.4,45.6c-1.5,0-2.7-0.3-3.7-0.9c-0.8-0.5-1.4-1.2-1.9-2.1
			c-0.8-1.5-0.8-3-0.8-3V23.9c0-0.2,0.2-0.4,0.4-0.4h5.5c0.2,0,0.4,0.2,0.4,0.4v13.5c0,0,0,0.5,0.3,1.1c0.3,0.5,0.9,1.1,2.1,1.1
			c0.3,0,0.6,0,0.9-0.1c1.9-0.3,5.8-1.1,5.8-1.1c0.4-0.1,0.8-0.5,0.8-0.9V23.9c0-0.2,0.2-0.4,0.4-0.4h5.5c0.2,0,0.4,0.2,0.4,0.4V45
			c0,0.2-0.2,0.4-0.4,0.4h-5.5c-0.2,0-0.4-0.2-0.4-0.4v-0.2c0-0.4-0.3-0.7-0.7-0.7c0,0-0.1,0-0.1,0c0,0-4.4,0.8-6.6,1.2
			C91.9,45.5,91.1,45.6,90.4,45.6z"/>
		<path fill-rule="evenodd" clip-rule="evenodd" fill="#FFFFFF" d="M128,45.4c-0.2,0-0.5-0.2-0.6-0.4l-5.8-13.3
			c-0.1-0.3-0.3-0.4-0.4-0.4c-0.1,0-0.3,0-0.4,0.4L115,45c-0.1,0.2-0.4,0.4-0.6,0.4h-5.7c-0.1,0-0.1,0-0.2-0.1c0,0,0-0.1,0-0.2
			l9.2-21.2c0.1-0.2,0.4-0.4,0.6-0.4h5.7c0.2,0,0.5,0.2,0.6,0.4l9.2,21.2c0,0.1,0,0.1,0,0.2c0,0-0.1,0.1-0.2,0.1H128z"/>
		<path fill-rule="evenodd" clip-rule="evenodd" fill="#FFFFFF" d="M33,45.4c-0.2,0-0.5-0.2-0.6-0.4l-9.2-21.2c0-0.1,0-0.1,0-0.2
			c0,0,0.1-0.1,0.2-0.1H29c0.2,0,0.5,0.2,0.6,0.4l5.8,13.3c0.1,0.3,0.3,0.4,0.4,0.4c0.1,0,0.3,0,0.4-0.4L42,23.9
			c0.1-0.2,0.4-0.4,0.6-0.4h5.7c0.1,0,0.1,0,0.2,0.1c0,0,0,0.1,0,0.2L39.3,45c-0.1,0.2-0.4,0.4-0.6,0.4H33z"/>
		<path fill-rule="evenodd" clip-rule="evenodd" fill="#FFFFFF" d="M51,45.4c-0.2,0-0.4-0.2-0.4-0.4V23.9c0-0.2,0.2-0.4,0.4-0.4h5.5
			c0.2,0,0.4,0.2,0.4,0.4V45c0,0.2-0.2,0.4-0.4,0.4H51z"/>
		<path fill-rule="evenodd" clip-rule="evenodd" fill="#FFFFFF" d="M61,45.4c-0.2,0-0.4-0.2-0.4-0.4v-2.5c0-0.3,0.2-0.7,0.3-0.9
			l10.7-12.3c0.2-0.3,0.2-0.4,0.1-0.5c0-0.1-0.2-0.3-0.5-0.3l-10.4,0c-0.2,0-0.4-0.2-0.4-0.4v-4.3c0-0.2,0.2-0.4,0.4-0.4l19.3,0
			c0.2,0,0.4,0.2,0.4,0.4v2.5c0,0.3-0.2,0.7-0.3,0.9L69.5,39.6c-0.2,0.3-0.2,0.5-0.1,0.5c0,0.1,0.2,0.3,0.5,0.3h10.4
			c0.2,0,0.4,0.2,0.4,0.4V45c0,0.2-0.2,0.4-0.4,0.4H61z"/>
		<g>
			<path fill="#898B8D" d="M29.6,59.5c-0.7,0.7-1.7,1.1-2.7,1.1c-2.1,0-3.8-1.4-3.8-3.7s1.6-3.7,3.8-3.7c1,0,1.9,0.4,2.7,1.1
				l-0.5,0.5c-0.6-0.6-1.4-0.9-2.2-0.9c-1.7,0-3.1,1.1-3.1,3.1s1.4,3.1,3.1,3.1c0.8,0,1.6-0.3,2.2-0.9L29.6,59.5z"/>
			<path fill="#898B8D" d="M32.4,53.1l0,1.3c0.5-1,1.5-1.4,2.4-1.4c0.5,0,1.1,0.1,1.6,0.4l-0.3,0.6c-0.4-0.2-0.8-0.3-1.2-0.3
				c-1.4,0-2.4,1.1-2.4,2.5v4.3h-0.7v-7.3H32.4z"/>
			<path fill="#898B8D" d="M37.6,56.8c0-2.2,1.7-3.8,3.7-3.8s3.9,1.3,3.6,4.1h-6.6c0.1,1.7,1.5,2.7,3,2.7c1,0,2.1-0.4,2.6-1.1
				l0.5,0.4c-0.7,0.9-2,1.4-3.2,1.4C39.3,60.6,37.6,59.1,37.6,56.8z M44.3,56.5c0-1.8-1.2-2.8-3-2.8c-1.5,0-2.8,1-3,2.8H44.3z"/>
			<path fill="#898B8D" d="M54.4,53.1c0,2.4,0,4.9,0,7.3h-0.7v-1.6c-0.7,1.1-1.8,1.7-3,1.7c-2,0-3.7-1.5-3.7-3.8s1.7-3.8,3.7-3.8
				c1.2,0,2.4,0.5,3,1.7v-1.6H54.4z M47.7,56.8c0,1.8,1.3,3.1,3,3.1c4.1,0,4.1-6.1,0-6.1C49,53.7,47.7,55,47.7,56.8z"/>
			<path fill="#898B8D" d="M58.5,50.9v2.2H61v0.6h-2.5v4.5c0,1,0.2,1.7,1.4,1.7c0.4,0,0.8-0.1,1.1-0.3l0.3,0.6
				c-0.5,0.2-0.9,0.4-1.4,0.4c-1.6,0-2.1-0.9-2.1-2.4v-4.5h-1.6v-0.6h1.6V51L58.5,50.9z"/>
			<path fill="#898B8D" d="M64.5,50.8c0,0.8-1.2,0.8-1.2,0C63.3,50,64.5,50,64.5,50.8z M63.6,53.1v7.4h0.7v-7.4H63.6z"/>
			<path fill="#898B8D" d="M66.5,53.1h0.8l2.7,6.5l2.7-6.5h0.8l-3.1,7.3h-0.8L66.5,53.1z"/>
			<path fill="#898B8D" d="M74.9,56.8c0-2.2,1.7-3.8,3.7-3.8s3.9,1.3,3.6,4.1h-6.6c0.1,1.7,1.5,2.7,3,2.7c1,0,2.1-0.4,2.6-1.1
				l0.5,0.4c-0.7,0.9-2,1.4-3.2,1.4C76.6,60.6,74.9,59.1,74.9,56.8z M81.6,56.5c0-1.8-1.2-2.8-3-2.8c-1.5,0-2.8,1-3,2.8L81.6,56.5z"
				/>
			<path fill="#898B8D" d="M94.6,54.5c-0.7-0.7-1.5-0.8-2.3-0.8c-1.1,0-2.2,0.4-2.2,1.4c0,1,1.3,1.2,2.2,1.3c1.3,0.2,3.1,0.4,3,2.2
				c0,1.6-1.7,2-3,2c-1.3,0-2.6-0.5-3.2-1.5l0.5-0.5c0.6,0.9,1.7,1.2,2.7,1.2c0.9,0,2.2-0.2,2.3-1.4c0-1.1-1.2-1.3-2.4-1.5
				c-1.4-0.2-2.8-0.5-2.9-2c0-1.4,1.4-2.1,2.9-2c1.1,0,2,0.3,2.7,1L94.6,54.5z"/>
			<path fill="#898B8D" d="M99.3,50.9v2.2h2.5v0.6l-2.5,0v4.5c0,1,0.2,1.7,1.3,1.7c0.4,0,0.8-0.1,1.1-0.3l0.3,0.6
				c-0.5,0.2-0.9,0.4-1.4,0.4c-1.6,0-2.1-0.9-2.1-2.4v-4.5H97v-0.6h1.6V51L99.3,50.9z"/>
			<path fill="#898B8D" d="M109.9,60.5v-1.3c-0.6,1-1.6,1.4-2.6,1.4c-2,0-3.3-1.2-3.3-3.2v-4.2h0.7v4.2c0,1.7,1,2.6,2.6,2.5
				c1.5,0,2.6-1.2,2.6-2.7v-4.1h0.7v7.3H109.9z"/>
			<path fill="#898B8D" d="M120.3,50.1v10.4h-0.7v-1.6c-0.6,1.1-1.8,1.7-3.1,1.7c-2,0-3.7-1.3-3.7-3.8c0-2.4,1.6-3.8,3.7-3.8
				c1.3,0,2.4,0.5,3,1.7v-4.7H120.3z M113.5,56.8c0,2,1.4,3.1,3,3.1c1.7,0,3-1.3,3-3.1c0-1.8-1.3-3.1-3-3.1
				C114.9,53.7,113.5,54.7,113.5,56.8z"/>
			<path fill="#898B8D" d="M124.1,50.8c0,0.8-1.2,0.8-1.2,0C122.9,50,124.1,50,124.1,50.8z M123.1,53.1v7.4h0.7v-7.4H123.1z"/>
			<path fill="#898B8D" d="M126.4,56.8c0-2.3,1.7-3.8,3.7-3.8c2.1,0,3.7,1.5,3.7,3.8c0,2.3-1.7,3.8-3.7,3.8
				C128.1,60.6,126.4,59.2,126.4,56.8z M133.1,56.8c0-1.9-1.4-3.1-3-3.1c-1.7,0-3,1.2-3,3.1c0,1.9,1.4,3,3,3
				C131.8,59.9,133.1,58.7,133.1,56.8z"/>
		</g>
		
			<linearGradient id="SVGID_1_" gradientUnits="userSpaceOnUse" x1="50.1416" y1="-30.8481" x2="57.439" y2="-30.8481" gradientTransform="matrix(1 0 0 1 0 47.5986)">
			<stop  offset="0" style="stop-color:#EF4471"/>
			<stop  offset="1" style="stop-color:#F36E55"/>
		</linearGradient>
		<path fill="url(#SVGID_1_)" d="M55.8,18.8c-1.1,1.9-2.9,1.9-4,0l-1.2-2c-1.1-1.9-0.2-3.5,2-3.5H55c2.2,0,3.1,1.6,2,3.5L55.8,18.8z
			"/>
	</g>
</g>
</svg>
