<?xml version="1.0" encoding="utf-8"?>
<?xml-stylesheet type="text/css" href="../css/svg_fix.css" ?>
<!-- Generator: Adobe Illustrator 15.1.0, SVG Export Plug-In . SVG Version: 6.00 Build 0)  -->
<!DOCTYPE svg PUBLIC "-//W3C//DTD SVG 1.1//EN" "http://www.w3.org/Graphics/SVG/1.1/DTD/svg11.dtd">
<svg version="1.1" id="Vrstva_1" xmlns="http://www.w3.org/2000/svg" xmlns:xlink="http://www.w3.org/1999/xlink" x="0px" y="0px"
	 width="93.334px" height="124.252px" viewBox="1698.887 323.283 93.334 124.252"
	 enable-background="new 1698.887 323.283 93.334 124.252" xml:space="preserve">
    <link rel="stylesheet" href="css/svg_fix.html"/>
<polygon fill="#BAB9A4" points="1768.777,337.65 1713.332,327.333 1728.771,351.788 1735.789,380.409 1715.898,423.397 
	1707.166,443.833 1741.416,446.156 1768.777,428.649 1792.221,380.833 "/>
<g>
	<polygon fill="#E2E5A5" points="1706.014,323.283 1728.771,351.788 1768.777,337.65 	"/>
	<polygon fill="#DDDCB8" points="1735.789,380.409 1728.771,351.788 1768.777,337.65 	"/>
	<polygon fill="#D1D388" points="1735.789,380.409 1792.221,380.833 1768.777,337.65 	"/>
	<polygon fill="#BAB9A4" points="1735.789,380.409 1792.221,380.833 1768.777,428.649 	"/>
	<polygon fill="#8C8C85" points="1735.789,380.409 1741.416,446.156 1768.777,428.649 	"/>
	<polygon fill="#7C7C74" points="1735.789,380.409 1741.416,446.156 1715.898,423.397 	"/>
	<polygon fill="#454747" points="1698.887,447.535 1741.416,446.156 1715.898,423.397 	"/>
</g>
</svg>
