<?xml version="1.0" encoding="utf-8"?>
<!-- Generator: Adobe Illustrator 15.1.0, SVG Export Plug-In . SVG Version: 6.00 Build 0)  -->
<!DOCTYPE svg PUBLIC "-//W3C//DTD SVG 1.1//EN" "http://www.w3.org/Graphics/SVG/1.1/DTD/svg11.dtd">
<svg version="1.1" id="packed" xmlns="http://www.w3.org/2000/svg" xmlns:xlink="http://www.w3.org/1999/xlink" x="0px" y="0px"
	 width="230px" height="173.3px" viewBox="0 0 230 173.3" enable-background="new 0 0 230 173.3" xml:space="preserve">
<g id="mate" style="display:none!important">
	<ellipse opacity="0.1" cx="61.4" cy="145.6" rx="43.8" ry="6.7"/>
	<path fill="#3D2C28" d="M94.3,71.1c0.8,3.4,16,15.1,27.5,20.9c9.9,5,32.9,11.2,35.5,11.5s7.5-0.1,8-4.6c0.5-5.1-7.5-6.7-7.5-6.7
		s-18.5-1.1-33.8-8c-11.7-5.2-17.7-13.5-24.9-16.6C96.3,66.4,93.7,68.6,94.3,71.1z"/>
	<path fill="#3D2C28" d="M75.7,145.8c0.3-1.1,14.9-34.8,4.2-54.2c-9.5-17.2-29.5-18.4-31.5-18.4c0,0-2.7,1-2.1,5
		c0.4,2.9,3.3,3.5,3.3,3.5c3.6,0.1,11.9,4.2,17.3,16.6c7,16.1,5.4,42.6,5,47c-0.1,1.7,0.8,2.1,1.8,2.1
		C74.6,147.4,75.4,147.1,75.7,145.8z"/>
	<path fill="#38565B" d="M88.3,30.6c0,0-3.6-14.3,8.5-21.3c4.4-2.6,6.7,2.3,2.8,4.8c-9.5,6.2-8.6,17.1-8.6,17.1s0.2,1.3-1.2,1.3
		C88.5,32.6,88.3,30.6,88.3,30.6z"/>
	<path fill="#487E8C" d="M100.8,9.2c-0.8-0.7-2.2-0.9-3.9,0.1c-12.1,7-8.5,21.3-8.5,21.3s0,0,0,0.1c0.2,0.1,0.4,0.2,0.7,0.2
		c1.4,0,1.2-1.3,1.2-1.3s-0.9-10.9,8.6-17.1C100.3,11.5,100.8,10.3,100.8,9.2z"/>
	<path fill="#38565B" d="M94,30.8c0,0,3.9-6.2,13.3-9.2c7.3-2.3,8.7,6,1.6,5.9c-6.2-0.1-13,7.1-13,7.1s-1.4,1.7-2.8,0.1
		C91.6,33,94,30.8,94,30.8z"/>
	<path fill="#487E8C" d="M112.6,22.1c-1-0.9-2.8-1.3-5.3-0.6c-9.4,3-13.3,9.2-13.3,9.2s-1.1,1.1-1.3,2.3c1.2,0.7,2.2-0.5,2.2-0.5
		s6.8-7.2,13-7.1C111.1,25.4,112.6,23.8,112.6,22.1z"/>
	<path fill="#487E8C" d="M96,34.7C86.5,8.6,72.4,4.9,62.3,4.9v126c20.7,0,40.1-12.5,52-31.8C126.6,79.1,107.1,65,96,34.7z"/>
	<path fill="#38565B" d="M28.8,34.7C38.3,8.6,52.4,4.9,62.5,4.9v126c-20.7,0-40.1-12.5-52-31.8C-1.8,79.1,17.7,65,28.8,34.7z"/>
	<path fill="#487E8C" d="M44.3,34.7C49.6,8.6,57.4,4.9,63,4.9v126c-11.5,0-22.3-12.5-28.9-31.8C27.3,79.1,38.1,65,44.3,34.7z"/>
	<path fill="#38565B" d="M66.6,44.6C55.2,45,41.4,52.1,38,41c-1.9-6.1-1.8-17,6.4-23.8c1.6-1.3,9.1-7.8,8.2-5.9
		c-0.8,1.7-0.3,1.9,1,1.6C67,10,84.4,16.9,84.5,31.1C84.6,45.2,76.1,44.3,66.6,44.6z"/>
	<path fill="#3D2D28" d="M65.9,78.5c-6.7,0-13-0.8-18.7-2.1c-0.8-0.2-2.8,0.4-3.1,2.1c-0.2,1.4-0.4,2.9-0.4,4.4
		c0,7.1,2.9,13.5,7.4,17.8c3.9,3.7,9.1,5,14.7,5c5.7,0,10.8-1.2,14.7-5c4.6-4.4,7.4-10.7,7.4-17.8c0-1.5-0.1-3-0.4-4.4
		c-0.2-0.9-0.9-2.5-3-2C79,77.7,72.6,78.5,65.9,78.5z"/>
	<g id="zuby_2_">
		<path fill="#F2F2E9" d="M83.3,78.7l0.5-1.8c0-0.1,0-0.3,0-0.4c-1.2,0.3-2.5,0.6-3.9,0.8l0.4,1.4c0.3,0.8,1,1.3,1.6,1.3
			C82.7,80,83.1,79.5,83.3,78.7z"/>
		<path fill="#F2F2E9" d="M69.2,78.8l0.4,1.4c0.3,0.8,1,1.3,1.6,1.3c0.7,0,1-0.5,1.3-1.3l0.5-1.8c0-0.1,0-0.2,0-0.3
			c-1.3,0.2-2.6,0.2-4,0.3C69.1,78.5,69.1,78.6,69.2,78.8z"/>
		<path fill="#F2F2E9" d="M58.8,78.2c0,0.1,0,0.3,0.1,0.5l0.4,1.4c0.3,0.8,1,1.3,1.6,1.3c0.7,0,1-0.5,1.3-1.3l0.5-1.7
			C61.4,78.4,60.1,78.3,58.8,78.2z"/>
		<path fill="#F2F2E9" d="M52.2,77.4c-1.3-0.2-2.6-0.4-3.8-0.7c-0.1,0.2-0.1,0.5,0,0.9l0.4,1.4c0.3,0.8,1,1.3,1.6,1.3
			c0.7,0,1-0.5,1.3-1.3L52.2,77.4z"/>
	</g>
	<path fill="#D1BAA6" d="M69.2,41.8c-9.5,0-22.8,2.9-25.7-6.5c-1.7-5.5-1.7-13.4,5.6-19.5c11.1-9.2,35.7-1,35.8,15.1
		C85,43.4,77.4,41.8,69.2,41.8z"/>
	<path fill="#F7E7D5" d="M84.9,30.8c-0.1-10.8-11.3-18.1-22-18.8c-3,0.1-5.7,1-7.9,2.8c-6.4,5.3-5.7,15-4.2,19.8
		c2.4,7.7,12,6.3,19.9,7.3C78.4,41.9,85,42.6,84.9,30.8z"/>
	<circle fill="#684033" cx="71.2" cy="34.7" r="3.7"/>
	<path fill="#38565B" d="M76.2,109.5c-3.9,1.6-7.3,1.9-9.6,1.9c-2,0-5.8-0.3-9.7-2c-0.9-0.4-1.9-0.2-1.1,1.5c2,3.9,6,10.4,10.7,10.6
		v0c0,0,0.1,0,0.1,0c0,0,0.1,0,0.1,0v0c4.7-0.2,8.7-6.7,10.7-10.6C78.3,109.3,77.1,109.2,76.2,109.5z"/>
	<path opacity="0.2" fill="#83CCCC" d="M66.3,73.4c6.3-0.1,10.2-1,12.6-2c2.7-1.1,2.4-3,0.5-3.1C76,68,72,68.6,66.2,68.6
		c-4.9,0-10.4,0-14.4,0c-1.3,0-2.2,1.9,0.6,2.9c4.1,1.5,9,1.9,13.7,1.9v0c0,0,0.1,0,0.1,0S66.3,73.4,66.3,73.4L66.3,73.4z"/>
	<path fill="#38565B" d="M33,29.6c0,0-5.7-6-16.2-6.3c-7.9-0.2-3.3,9.2,3.8,8c6.5-1,10.8,2.1,10.8,2.1s1.6,1.5,2.8-0.1
		C35.5,31.7,33,29.6,33,29.6z"/>
	<path fill="#487E8C" d="M33,29.6c0,0-5.7-6-16.2-6.3c-2.6-0.1-3.9,0.9-4.1,2.2c0.9,2.3,3.9,4.5,7.6,3.9c6.5-1,10.8,2.1,10.8,2.1
		s1.6,1.6,2.8-0.1c0.1-0.2,0.2-0.3,0.2-0.5C33.7,30.2,33,29.6,33,29.6z"/>
	<path fill="#38565B" d="M35.5,25.4c0,0-2.8-18-17.6-20c-5.4-0.7-5.4,6-0.6,6.9c11.9,2.3,15.9,15.2,15.9,15.2s0.4,1.6,1.7,0.9
		C36.2,27.8,35.5,25.4,35.5,25.4z"/>
	<path fill="#487E8C" d="M17.9,5.4c-1.2-0.2-2.1,0-2.7,0.5c-0.8,1.9,0.3,4.6,3.2,5.2c11.9,2.3,15.9,15.2,15.9,15.2s0.3,1.3,1.3,1
		c0.2-0.9-0.1-1.9-0.1-1.9S32.7,7.4,17.9,5.4z"/>
	<path fill="#D86D4C" d="M80,101.3c-1.8-2.8-7.6-4.9-14.3-4.9c-6.5,0-12.1,1.9-14.1,4.6c3.9,3.6,8.9,5.7,14.4,5.7
		C71.3,106.8,76.2,104.7,80,101.3z"/>
	<path fill="#3D2C28" d="M45.2,145.9c-1-2.7-3.9-11.8-5.4-20.8c-0.6-4,11,0.9,10.1,3.8c-1.9,6.6-1.8,11.4-1.2,16.6
		c0.2,1.5-0.8,1.9-1.7,1.9C46.2,147.4,45.6,147.1,45.2,145.9z"/>
	<path fill="#3D2C28" d="M19.6,75.3c-0.9-1.7-2.8-2.3-4.5-1.3s-18.7,22-8.6,29.8c7.4,5.6,24.1,11,35.7,11.3c4.4,0.1,8.6-1.1,9.9-4.5
		c1.2-3.3-1.2-6.1-7.1-6.8c-7-0.8-29.5-2.7-32.3-6.4c-2.8-3.8,1.4-12.9,6-16.8C20.4,79,20.4,76.8,19.6,75.3z"/>
</g>
<g id="bigbox">
	<polygon fill="#B7AC91" points="197.1,97.4 138.2,97.4 167.9,171.9 226.8,118.5 	"/>
	<polygon fill="#564C39" points="167.9,118.6 152.8,134.8 167.9,171.9 226.8,171.8 226.8,118.5 	"/>
	<polygon fill="#382D26" points="138.2,150.7 138.2,97.4 167.9,118.6 167.9,171.9 	"/>
	<polygon fill="#E8DE7E" points="174.1,97.4 163.3,97.4 193,118.6 197.9,119.6 203.9,118.6 	"/>
	<polygon fill="#968B57" points="203.9,118.6 193,118.6 193,128 203.9,128 	"/>
	<path fill="#4C4232" d="M204.5,152.7c-3.3,5.7-8.7,5.7-12.1,0l-3.5-6.1c-3.3-5.8-0.6-10.5,6-10.4h7.1c6.6,0,9.3,4.8,6,10.5
		L204.5,152.7z"/>
</g>
<g id="smallbox">
	<polygon fill="#B7AC91" points="195,57 149.6,57.1 172.5,114.6 218,73.4 	"/>
	<polygon fill="#564C39" points="172.5,73.4 162.5,89 172.5,114.6 218,114.5 218,73.4 	"/>
	<polygon fill="#382D26" points="149.6,98.2 149.6,57.1 172.5,73.4 172.5,114.6 	"/>
	<polygon fill="#E8DE7E" points="163.1,66.7 208.6,66.7 203.5,63 158,63.1 	"/>
	<polygon fill="#686144" points="163.1,81.4 163.1,66.7 158,63.1 158,77.7 	"/>
	<path fill="#4C4232" d="M200,99.7c-3.2,5.5-8.3,5.5-11.5,0l-3.4-5.8c-3.2-5.5-0.5-9.9,5.8-9.9h6.7c6.3,0,8.9,4.5,5.8,9.9L200,99.7z
		"/>
</g>
</svg>
