<?xml version="1.0" encoding="utf-8"?>
<!-- Generator: Adobe Illustrator 15.1.0, SVG Export Plug-In . SVG Version: 6.00 Build 0)  -->
<!DOCTYPE svg PUBLIC "-//W3C//DTD SVG 1.1//EN" "http://www.w3.org/Graphics/SVG/1.1/DTD/svg11.dtd">
<svg version="1.1" id="POSTUP_obrazky" xmlns="http://www.w3.org/2000/svg" xmlns:xlink="http://www.w3.org/1999/xlink" x="0px"
	 y="0px" width="167px" height="192px" viewBox="0 0 167 192" enable-background="new 0 0 167 192" xml:space="preserve">
<g id="postup5">
	<g>
		<polygon fill="#464B4D" points="99.6,90.6 46.4,89.7 69.4,104.1 98.4,103.9 99.7,97.8 		"/>
		<polygon fill="#2A2F30" points="99.6,90.6 98.4,103.9 122.6,104.6 		"/>
		<path fill="#FFFFE3" d="M101.9,89.6l-55.5,0.1l20.7,14.9l55.5,0L101.9,89.6z M51.4,90.7l48.2-0.1l18,13l-48.2,0.1L51.4,90.7z"/>
		<polygon id="lava_strana_107_" fill="#AF6610" points="54.6,165.8 46.4,89.7 67.1,104.6 70.8,177.9 		"/>
		<polygon fill="#F2BB4C" points="122.6,104.6 67.1,104.6 70.8,177.9 112.4,178 		"/>
		<polygon fill="#4D5F2A" points="108.8,84.9 110.5,86 104.2,103.7 102.7,103.7 		"/>
		<polygon fill="#748F44" points="113,86.1 110.1,86 104,103.7 107,103.6 		"/>
		<polygon fill="#4D5F2A" points="81.7,52.9 83.2,54 86.8,103.7 85.3,103.6 		"/>
		<polygon fill="#748F44" points="85.8,54.1 83,54 86.6,103.6 89.5,103.7 		"/>
		<polygon fill="#4D5F2A" points="61.6,75 63.2,76.1 71.2,103.7 69.7,103.7 		"/>
		<polygon fill="#748F44" points="65.9,76.2 62.9,76.1 71.1,103.7 74,103.7 		"/>
	</g>
	<g>
		<g>
			<polygon fill="#F0E654" points="91.4,26 79.2,25.4 67.2,26 67.5,36.9 69.8,53.3 94.1,53.2 			"/>
			<polygon id="lava_strana_104_" fill="#918431" points="68.6,52.5 65.9,25 67.2,26 69.8,53.3 			"/>
			<polygon fill="#F2F1A1" points="91.4,26 67.2,26 65.9,25 90.2,25 			"/>
		</g>
		<g>
			<polygon fill="#F0E654" points="88.4,22.7 80.7,22.4 72.9,22.8 73.1,29.9 74.6,40.4 90.2,40.4 			"/>
			<polygon id="lava_strana_103_" fill="#918431" points="73.8,39.7 72,22.2 72.9,22.8 74.6,40.4 			"/>
			<polygon fill="#F2F1A1" points="88.4,22.7 72.9,22.8 72,22.2 87.7,22.1 			"/>
		</g>
		<g>
			<polygon id="lava_strana_102_" fill="#88782E" points="71,38.2 68.2,22 71.7,24.4 74.8,26.8 76.1,32.6 77.6,43 			"/>
			<polygon fill="#F0E654" points="76.1,26.8 74.8,26.8 77.6,43 79,43 			"/>
			<polygon fill="#F2F1A1" points="76.1,26.8 74.8,26.8 68.2,22 69.5,22 			"/>
		</g>
		<g>
			<polygon id="lava_strana_101_" fill="#88782E" points="65.4,51.2 60.8,26 66.4,29.8 71.1,33.5 73.3,42.6 75.6,58.7 			"/>
			<polygon fill="#F0E654" points="73.2,33.5 71.1,33.5 75.6,58.7 77.7,58.6 			"/>
			<polygon fill="#F2F1A1" points="73.2,33.5 71.1,33.5 60.8,26 63,26 			"/>
		</g>
		<g>
			<polygon id="lava_strana_100_" fill="#918431" points="88.1,53.1 92.8,27.6 98.4,31.4 103.1,35.1 102.8,43.6 98.3,60.4 			"/>
			<polygon fill="#F0E654" points="105.2,35.1 103.1,35.1 98.3,60.4 100.5,60.5 			"/>
			<polygon fill="#F2F1A1" points="105.2,35.1 103.1,35.1 92.8,27.6 94.9,27.6 			"/>
		</g>
		<g>
			<polygon id="lava_strana_99_" fill="#918431" points="86.6,39.4 89.6,23.2 93.3,25.5 96.2,27.9 96,33.5 93.2,44.3 			"/>
			<polygon fill="#F0E654" points="97.5,27.9 96.2,27.9 93.2,44.3 94.6,44.2 			"/>
			<polygon fill="#F2F1A1" points="97.5,27.9 96.2,27.9 89.6,23.2 91,23 			"/>
		</g>
		<g>
			<polygon fill="#F0E654" points="93.6,29.3 85.8,28.9 78,29.2 76.6,35.9 75.7,43.9 91.3,43.8 			"/>
			<polygon id="lava_strana_98_" fill="#918431" points="74.9,43.2 77.3,28.6 78,29.2 75.7,43.9 			"/>
			<polygon fill="#F2F1A1" points="93.6,29.3 78,29.2 77.3,28.6 92.8,28.6 			"/>
		</g>
		<g>
			<polygon fill="#F0E654" points="99.9,37 87.7,36.4 75.6,37.1 73.4,47.3 72,59.8 96.3,59.7 			"/>
			<polygon id="lava_strana_87_" fill="#918431" points="70.7,58.8 74.3,36.1 75.6,37.1 72,59.8 			"/>
			<polygon fill="#F2F1A1" points="99.9,37 75.6,37.1 74.3,36.1 98.6,36 			"/>
		</g>
	</g>
	<g>
		<g>
			<polygon fill="#DB82B6" points="126,55.9 111.7,52.8 97.3,51 95.6,63.6 94.9,82.9 123.6,87.9 			"/>
			<polygon id="lava_strana_86_" fill="#A0499B" points="93.6,81.6 96,49.7 97.3,51 94.9,82.9 			"/>
			<polygon fill="#F6C8DE" points="126,55.9 97.3,51 96,49.7 124.7,54.6 			"/>
		</g>
		<g>
			<polygon fill="#DB82B6" points="123.2,51.7 114,49.7 104.8,48.6 103.6,56.6 103.2,69.1 121.6,72.2 			"/>
			<polygon id="lava_strana_85_" fill="#A0499B" points="102.4,68.2 103.9,47.7 104.8,48.6 103.2,69.1 			"/>
			<polygon fill="#F6C8DE" points="123.2,51.7 104.8,48.6 103.9,47.7 122.4,50.8 			"/>
		</g>
		<g>
			<polygon id="lava_strana_84_" fill="#853092" points="99.7,65.8 99.6,46.6 103.3,50.1 106.4,53.5 106.8,60.5 106.5,72.6 			"/>
			<polygon fill="#B96CAC" points="108.1,53.7 106.4,53.5 106.5,72.6 108.2,72.9 			"/>
			<polygon fill="#F6C8DE" points="108.1,53.7 106.4,53.5 99.6,46.6 101.2,46.8 			"/>
		</g>
		<g>
			<polygon id="lava_strana_83_" fill="#853092" points="90.1,79.7 89.9,49.8 95.7,55.3 100.5,60.4 101.2,71.3 100.7,90.2 			"/>
			<polygon fill="#B96CAC" points="103,60.8 100.5,60.4 100.7,90.2 103.2,90.6 			"/>
			<polygon fill="#F6C8DE" points="103,60.8 100.5,60.4 89.9,49.8 92.4,50.3 			"/>
		</g>
		<g>
			<polygon id="lava_strana_82_" fill="#A0499B" points="116.6,86.4 127.4,58.1 133.1,63.7 138,68.8 135.9,78.6 127.2,97 			"/>
			<polygon fill="#B96CAC" points="140.5,69.3 138,68.8 127.2,97 129.6,97.3 			"/>
			<polygon fill="#F6C8DE" points="140.5,69.3 138,68.8 127.4,58.1 129.9,58.5 			"/>
		</g>
		<g>
			<polygon id="lava_strana_81_" fill="#A0499B" points="117.6,70.6 124.5,52.4 128.2,55.9 131.3,59.3 130,65.4 124.4,77.4 			"/>
			<polygon fill="#B96CAC" points="132.9,59.5 131.3,59.3 124.4,77.4 125.9,77.6 			"/>
			<polygon fill="#F6C8DE" points="132.9,59.5 131.3,59.3 124.5,52.4 126.1,52.7 			"/>
		</g>
		<g>
			<polygon fill="#B96CAC" points="128,60.2 118.8,58.2 109.6,57.1 106.5,64.3 103.8,73.3 122.3,76.5 			"/>
			<polygon id="lava_strana_80_" fill="#A0499B" points="103,72.3 108.7,56.1 109.6,57.1 103.8,73.3 			"/>
			<polygon fill="#F6C8DE" points="128,60.2 109.6,57.1 108.7,56.1 127.1,59.3 			"/>
		</g>
		<g>
			<polygon fill="#B96CAC" points="133.8,70.3 119.4,67.2 105.1,65.4 100.5,76.9 96.2,90.7 124.9,95.7 			"/>
			<polygon id="lava_strana_79_" fill="#A0499B" points="94.9,89.4 103.8,64.1 105.1,65.4 96.2,90.7 			"/>
			<polygon fill="#F6C8DE" points="133.8,70.3 105.1,65.4 103.8,64.1 132.5,69 			"/>
		</g>
	</g>
	<g>
		<g>
			<polygon fill="#E3ECED" points="65.9,46.1 53,47.9 40.5,50.7 42.9,62.4 48.2,79.7 73.7,75.2 			"/>
			<polygon id="lava_strana_78_" fill="#7D7D7D" points="46.8,78.9 38.9,50 40.5,50.7 48.2,79.7 			"/>
			<polygon fill="#FFFFFF" points="65.9,46.1 40.5,50.7 38.9,50 64.3,45.4 			"/>
		</g>
		<g>
			<polygon fill="#E3ECED" points="60.9,41.6 52.6,42.6 44.6,44.5 46.2,52 49.7,63 66,60.2 			"/>
			<polygon id="lava_strana_77_" fill="#7D7D7D" points="48.7,62.5 43.6,43.9 44.6,44.5 49.7,63 			"/>
			<polygon fill="#FFFFFF" points="60.9,41.6 44.6,44.5 43.6,43.9 60,41 			"/>
		</g>
		<g>
			<polygon id="lava_strana_76_" fill="#707676" points="46.2,63.4 40.2,46.6 44.4,48.6 47.9,50.6 50.4,56.6 53.9,67.4 			"/>
			<polygon fill="#E5E5E5" points="49.3,50.2 47.9,50.6 53.9,67.4 55.4,67.2 			"/>
			<polygon fill="#FFFFFF" points="49.3,50.2 47.9,50.6 40.2,46.6 41.6,46.2 			"/>
		</g>
		<g>
			<polygon id="lava_strana_75_" fill="#707676" points="43.2,78.3 33.9,51.9 40.5,55 45.9,58.1 49.9,67.4 55.3,84.4 			"/>
			<polygon fill="#E5E5E5" points="48.1,57.7 45.9,58.1 55.3,84.4 57.4,84 			"/>
			<polygon fill="#FFFFFF" points="48.1,57.7 45.9,58.1 33.9,51.9 36.1,51.5 			"/>
		</g>
		<g>
			<polygon id="lava_strana_74_" fill="#7D7D7D" points="67.3,76 67.6,47.8 74.1,50.9 79.7,53.8 80.9,63.1 79.4,82.2 			"/>
			<polygon fill="#E5E5E5" points="81.9,53.5 79.7,53.8 79.4,82.2 81.5,81.7 			"/>
			<polygon fill="#FFFFFF" points="81.9,53.5 79.7,53.8 67.6,47.8 69.8,47.4 			"/>
		</g>
		<g>
			<polygon id="lava_strana_51_" fill="#7D7D7D" points="63.2,61.7 63.5,43.5 67.6,45.6 71.2,47.5 72,53.5 71,65.7 			"/>
			<polygon fill="#E5E5E5" points="72.6,47.2 71.2,47.5 71,65.7 72.5,65.4 			"/>
			<polygon fill="#FFFFFF" points="72.6,47.2 71.2,47.5 63.5,43.5 64.9,43.2 			"/>
		</g>
		<g>
			<polygon fill="#D4D3CD" points="68.5,47.1 60.3,48.2 52.3,50 52,57.3 52.5,66.2 68.7,63.2 			"/>
			<polygon id="lava_strana_49_" fill="#7D7D7D" points="51.5,65.7 51.3,49.5 52.3,50 52.5,66.2 			"/>
			<polygon fill="#FFFFFF" points="68.5,47.1 52.3,50 51.3,49.5 67.5,46.6 			"/>
		</g>
		<g>
			<polygon fill="#D4D3CD" points="76.6,57.2 63.7,58.9 51.2,61.7 50.9,73.2 51.6,86.9 76.9,82.3 			"/>
			<polygon id="lava_strana_48_" fill="#7D7D7D" points="50.1,86.1 49.7,60.9 51.2,61.7 51.6,86.9 			"/>
			<polygon fill="#FFFFFF" points="76.6,57.2 51.2,61.7 49.7,60.9 75.1,56.4 			"/>
		</g>
	</g>
</g>
</svg>
