<?xml version="1.0" encoding="utf-8"?>
<!-- Generator: Adobe Illustrator 15.1.0, SVG Export Plug-In . SVG Version: 6.00 Build 0)  -->
<!DOCTYPE svg PUBLIC "-//W3C//DTD SVG 1.1//EN" "http://www.w3.org/Graphics/SVG/1.1/DTD/svg11.dtd">
<svg version="1.1" id="POSTUP_obrazky" xmlns="http://www.w3.org/2000/svg" xmlns:xlink="http://www.w3.org/1999/xlink" x="0px"
	 y="0px" width="167px" height="192px" viewBox="0 0 167 192" enable-background="new 0 0 167 192" xml:space="preserve">
<g id="postup3">
	<g display="none">
		<polygon display="inline" fill="#7D6242" points="117.1,101.6 8.5,101.8 49,144.9 157.5,131 		"/>
		<polygon id="lava_strana_45_" display="inline" fill="#453C32" points="8.5,115.9 8.5,101.8 49,131.2 49,155.2 		"/>
		<polygon display="inline" fill="#644C33" points="157.5,131 49,131.2 49,155.2 157.5,145 		"/>
		<polygon id="lava_strana_44_" display="inline" fill="#5A4E3E" points="8.5,143.6 8.5,115.6 49,144.9 53.8,161.1 49,173 		"/>
		<polygon display="inline" fill="#7B6C53" points="157.5,144.7 49,144.9 49,173 157.5,172.8 		"/>
		<polygon id="lava_strana_43_" display="inline" fill="#3E3B3A" points="8.5,155.6 8.5,132.6 49,161.9 52.2,173.7 49,185 		"/>
		<polygon display="inline" fill="#625E5D" points="157.5,161.7 49,161.9 49,185 157.5,184.8 		"/>
	</g>
	<g>
		<polygon fill="#82AF41" points="116.9,101.6 8.4,101.8 48.9,144.9 157.3,131 		"/>
		<polygon id="lava_strana_6_" fill="#473C34" points="8.4,115.9 8.4,101.8 48.8,131.2 48.8,155.2 		"/>
		<polygon fill="#706157" points="157.3,131 48.8,131.2 48.8,155.2 157.3,145 		"/>
		<polygon id="lava_strana_5_" fill="#7A6B41" points="8.4,143.6 8.4,115.6 48.8,144.9 53.7,161.1 48.8,173 		"/>
		<polygon fill="#AF8C46" points="157.3,144.7 48.8,144.9 48.8,173 157.3,172.8 		"/>
		<polygon id="lava_strana_4_" fill="#9B9387" points="8.4,155.6 8.4,132.6 48.8,161.9 52.1,173.7 48.8,185 		"/>
		<polygon fill="#C9C3B8" points="157.3,161.7 48.8,161.9 48.8,185 157.3,184.8 		"/>
	</g>
	<polygon fill="#B9D767" points="92.3,61.3 97.6,94.8 84.5,112.5 	"/>
	<polygon fill="#B9D767" points="130.9,77.2 115.3,91.9 113.1,120.1 	"/>
	<polygon fill="#A6CE4E" points="111.8,119.8 107.3,76.6 100.6,93.3 	"/>
	<polygon fill="#A6CE4E" points="70.4,95.4 58.8,79.8 59.9,120.6 	"/>
	<polygon fill="#B9D767" points="49.3,75.7 44.7,100.5 58.8,121.1 	"/>
	<polygon fill="#A6CE4E" points="82.7,113 69.9,73.7 83.8,85.5 	"/>
</g>
</svg>
