<?xml version="1.0" encoding="utf-8"?>
<!-- Generator: Adobe Illustrator 15.1.0, SVG Export Plug-In . SVG Version: 6.00 Build 0)  -->
<!DOCTYPE svg PUBLIC "-//W3C//DTD SVG 1.1//EN" "http://www.w3.org/Graphics/SVG/1.1/DTD/svg11.dtd">
<svg version="1.1" id="POSTUP_obrazky" xmlns="http://www.w3.org/2000/svg" xmlns:xlink="http://www.w3.org/1999/xlink" x="0px"
	 y="0px" width="167px" height="192px" viewBox="0 0 167 192" enable-background="new 0 0 167 192" xml:space="preserve">
<g id="postup2">
	<g id="dasd" display="none">
		<polygon display="inline" fill="#7D6242" points="117.1,101.6 8.6,101.8 49,144.9 157.5,131 		"/>
		<polygon id="lava_strana_21_" display="inline" fill="#453C32" points="8.6,115.9 8.6,101.8 49,131.2 49,155.2 		"/>
		<polygon display="inline" fill="#644C33" points="157.5,131 49,131.2 49,155.2 157.5,145 		"/>
		<polygon id="lava_strana_15_" display="inline" fill="#5A4E3E" points="8.6,143.6 8.6,115.6 49,144.9 53.8,161.1 49,173 		"/>
		<polygon display="inline" fill="#7B6C53" points="157.5,144.7 49,144.9 49,173 157.5,172.8 		"/>
		<polygon id="lava_strana_14_" display="inline" fill="#3E3B3A" points="8.6,155.6 8.6,132.6 49,161.9 52.2,173.7 49,185 		"/>
		<polygon display="inline" fill="#625E5D" points="157.5,161.7 49,161.9 49,185 157.5,184.8 		"/>
	</g>
	<g>
		<polygon fill="#82AF41" points="116.9,101.6 8.4,101.8 48.9,144.9 157.3,131 		"/>
		<polygon id="lava_strana_3_" fill="#473C34" points="8.4,115.9 8.4,101.8 48.8,131.2 48.8,155.2 		"/>
		<polygon fill="#706157" points="157.3,131 48.8,131.2 48.8,155.2 157.3,145 		"/>
		<polygon id="lava_strana_2_" fill="#7A6B41" points="8.4,143.6 8.4,115.6 48.8,144.9 53.7,161.1 48.8,173 		"/>
		<polygon fill="#AF8C46" points="157.3,144.7 48.8,144.9 48.8,173 157.3,172.8 		"/>
		<polygon id="lava_strana_1_" fill="#9B9387" points="8.4,155.6 8.4,132.6 48.8,161.9 52.1,173.7 48.8,185 		"/>
		<polygon fill="#C9C3B8" points="157.3,161.7 48.8,161.9 48.8,185 157.3,184.8 		"/>
	</g>
	<polygon id="lava_strana_32_" fill="#608339" points="148.7,29.4 147.5,38.4 151.2,41.1 152.3,32.1 	"/>
	<polygon fill="#86B640" points="153,26.1 151.2,41.1 154.2,44.9 156,29.9 	"/>
	<polygon fill="#86B640" points="118.8,54.2 67.8,56.6 71.1,60.9 126.9,64.7 	"/>
	<polygon id="lava_strana_39_" fill="#608339" points="148.7,29.4 139.4,16.7 143.1,19.5 152.3,32.1 	"/>
	<polygon fill="#86B640" points="144.5,14.3 135.3,22.2 137.2,24.5 146.3,16.7 	"/>
	<polygon fill="#86B640" points="146.3,16.7 143.1,19.5 152.3,32.1 156,29.9 	"/>
	<polygon fill="#8DC641" points="135.6,19.6 108.7,41.1 129.7,69.3 156.6,47.8 	"/>
	<path fill="#8DC641" d="M147,63.5c-7.6,5.8-15.5,8.2-17.7,5.5s2.2-9.7,9.8-15.4c7.6-5.8,15.5-8.2,17.7-5.5
		C159,50.8,154.6,57.7,147,63.5z"/>
	<path fill="#B7D87D" d="M125.9,35.2c-7.6,5.8-15.5,8.2-17.7,5.5c-2.2-2.8,2.2-9.7,9.8-15.4c7.6-5.8,15.5-8.2,17.7-5.5
		C137.9,22.5,133.5,29.4,125.9,35.2z"/>
	<path fill="#608339" d="M126.6,30.5c-4,3-8.1,4.3-9.2,2.8c-1.1-1.4,1.1-5.1,5.1-8.1c4-3,8.1-4.3,9.2-2.8
		C132.9,23.9,130.6,27.5,126.6,30.5z"/>
	<path fill="#4E4E4E" d="M88.8,58.9c-1.4-1.8-2.7-3.2-3.1-3.2l0,0l0,0l-17.8,0.8l3.2,4.3l19.6,1.3l0,0
		C90.9,62.1,90.1,60.6,88.8,58.9z"/>
	<path fill="#86B640" d="M124,59.4c-2.2-2.9-4.5-5.2-5.1-5.1c0,0,0,0-0.1,0.1l0,0l-51,2.3l17.8-0.8l0,0l0,0c0.4-0.1,1.8,1.4,3.1,3.2
		c1.3,1.7,2.1,3.2,1.8,3.3l0,0l36.2,2.5l0,0l0,0l0.1,0l0,0C127.4,64.5,126.1,62.2,124,59.4z"/>
	<polygon opacity="0.4" fill="#E0F2F7" enable-background="new    " points="70.4,60.9 45.5,112.6 80.4,122.8 106.4,112.3 	"/>
	<polygon opacity="0.4" fill="#E0F2F7" enable-background="new    " points="70.4,60.9 80.4,122.8 106.4,112.3 	"/>
	<polygon fill="#B7D87D" points="140.8,11.7 131.6,19.5 135.1,22.4 144.5,14.3 	"/>
	<path fill="#333333" d="M69,58.8c0.9,1.2,1.8,2.2,2.1,2.1c0.2,0-0.3-1-1.2-2.2s-1.8-2.2-2.1-2.1C67.5,56.5,68.1,57.6,69,58.8z"/>
</g>
</svg>
