<?xml version="1.0" encoding="utf-8"?>
<!-- Generator: Adobe Illustrator 15.1.0, SVG Export Plug-In . SVG Version: 6.00 Build 0)  -->
<!DOCTYPE svg PUBLIC "-//W3C//DTD SVG 1.1//EN" "http://www.w3.org/Graphics/SVG/1.1/DTD/svg11.dtd">
<svg version="1.1" id="POSTUP_obrazky" xmlns="http://www.w3.org/2000/svg" xmlns:xlink="http://www.w3.org/1999/xlink" x="0px"
	 y="0px" width="167px" height="192px" viewBox="0 0 167 192" enable-background="new 0 0 167 192" xml:space="preserve">
<g id="postup01">
	<g id="postup1">
		<g>
			<polygon fill="#82AF41" points="116.9,101.6 8.4,101.8 48.9,144.9 157.3,131 			"/>
			<polygon id="lava_strana_31_" fill="#473C34" points="8.4,115.9 8.4,101.8 48.8,131.2 48.8,155.2 			"/>
			<polygon fill="#706157" points="157.3,131 48.8,131.2 48.8,155.2 157.3,145 			"/>
			<polygon id="lava_strana_30_" fill="#7A6B41" points="8.4,143.6 8.4,115.6 48.8,144.9 53.7,161.2 48.8,173 			"/>
			<polygon fill="#AF8C46" points="157.3,144.7 48.8,144.9 48.8,173 157.3,172.8 			"/>
			<polygon id="lava_strana_25_" fill="#9B9387" points="8.4,155.6 8.4,132.6 48.8,161.9 52.1,173.7 48.8,185 			"/>
			<polygon fill="#C9C3B8" points="157.3,161.7 48.8,161.9 48.8,185 157.3,184.8 			"/>
		</g>
		<g id="semiacka_8_">
			<polyline fill="#D3C28D" points="86.6,116.6 94,119.6 85.8,123.3 			"/>
			<polygon fill="#EFE6BD" points="86.6,116.6 94,119.6 91,110.5 			"/>
			<polygon fill="#D8CD9E" points="86.6,116.6 84,115.8 91,110.5 			"/>
			<polygon fill="#9B9164" points="84,115.8 85.8,123.3 86.6,116.6 			"/>
		</g>
		<g id="semiacka_7_">
			<polyline fill="#AB9F71" points="69.3,114.4 68.5,122 62.6,114.3 			"/>
			<polygon fill="#D3C28D" points="69.3,114.4 68.5,122 76.6,118.1 			"/>
			<polygon fill="#EFE6BD" points="69.3,114.4 69.4,111.7 76.6,118.1 			"/>
			<polygon fill="#C9BC87" points="69.4,111.7 62.6,114.3 69.3,114.4 			"/>
		</g>
		<g id="semiacka_6_">
			<polyline fill="#D3C28D" points="106.4,113 109.1,119.4 101.6,118.4 			"/>
			<polygon fill="#E0D6B0" points="106.4,113 109.1,119.4 111.6,109.2 			"/>
			<polygon fill="#E8E1C4" points="106.4,113 101.9,111.5 111.6,109.2 			"/>
			<polygon fill="#AEA276" points="101.9,111.5 101.6,118.4 106.4,113 			"/>
		</g>
		<g id="ryl_2_">
			<polygon fill="#24252B" points="52.2,77 54.3,106.6 55.8,107.7 56.4,92.1 53.7,78 			"/>
			<polygon fill="#24252B" points="64.1,75 64.1,77.6 64.5,77.9 64.5,75.3 			"/>
			<polygon fill="#646469" points="64.1,61.4 69.6,61.3 72.2,63.3 66.7,86.2 			"/>
			<polygon fill="#646469" points="52.2,77 83.3,76.9 84.8,78.1 69.7,78.7 53.7,78 			"/>
			<polygon fill="#41414A" points="84.8,78.1 53.7,78 55.8,107.7 82.8,107.7 			"/>
			<polygon fill="#24252B" points="64.1,61.4 64.1,77.1 66.7,79 66.7,63.3 			"/>
			<polygon fill="#52525A" points="72.2,63.3 66.7,63.3 66.7,79 72.2,79 			"/>
			<polygon fill="#24252B" points="64.1,77.1 64.1,77.1 65.4,78.1 65.4,85.3 66.7,86.2 66.7,79 			"/>
			<polygon fill="#52525A" points="72.2,86.2 66.7,86.2 66.7,79 72.2,79 			"/>
			<polygon fill="#AA6527" points="65.1,20 65.1,61.6 67.1,63 67.1,21.4 			"/>
			<polygon fill="#EDAB38" points="71.2,21.4 67.1,21.4 67.1,63 71.2,63 			"/>
			<polygon fill="#24252B" points="64.1,11.4 69.6,11.3 72.2,13.3 66.7,29 			"/>
			<polygon fill="#24252B" points="64.1,11.4 64.1,27.1 66.7,29 66.7,13.3 			"/>
			<polygon fill="#52525A" points="72.2,13.3 66.7,13.3 66.7,29 72.2,29 			"/>
			<polygon fill="#646469" points="56.9,6.3 76.7,6.4 79.5,8.3 59.7,13.7 			"/>
			<polygon fill="#24252B" points="56.9,6.3 56.9,11.6 59.7,13.7 59.7,8.4 			"/>
			<polygon fill="#52525A" points="79.5,8.3 59.7,8.4 59.7,13.7 79.5,13.6 			"/>
		</g>
	</g>
</g>
</svg>
