<?xml version="1.0" encoding="utf-8"?>
<!-- Generator: Adobe Illustrator 15.1.0, SVG Export Plug-In . SVG Version: 6.00 Build 0)  -->
<!DOCTYPE svg PUBLIC "-//W3C//DTD SVG 1.1//EN" "http://www.w3.org/Graphics/SVG/1.1/DTD/svg11.dtd">
<svg version="1.1" id="POSTUP_obrazky" xmlns="http://www.w3.org/2000/svg" xmlns:xlink="http://www.w3.org/1999/xlink" x="0px"
	 y="0px" width="167px" height="192px" viewBox="0 0 167 192" enable-background="new 0 0 167 192" xml:space="preserve">
<g id="postup4">
	<g>
		<polygon fill="#82AF41" points="116.9,101.6 8.4,101.8 48.9,144.9 157.3,131 		"/>
		<polygon id="lava_strana_9_" fill="#473C34" points="8.4,115.9 8.4,101.8 48.8,131.2 48.8,155.2 		"/>
		<polygon fill="#706157" points="157.3,131 48.8,131.2 48.8,155.2 157.3,145 		"/>
		<polygon id="lava_strana_8_" fill="#7A6B41" points="8.4,143.6 8.4,115.6 48.8,144.9 53.7,161.2 48.8,173 		"/>
		<polygon fill="#AF8C46" points="157.3,144.7 48.8,144.9 48.8,173 157.3,172.8 		"/>
		<polygon id="lava_strana_7_" fill="#9B9387" points="8.4,155.6 8.4,132.6 48.8,161.9 52.1,173.7 48.8,185 		"/>
		<polygon fill="#C9C3B8" points="157.3,161.7 48.8,161.9 48.8,185 157.3,184.8 		"/>
	</g>
	<polygon fill="#748F44" points="57,51.4 55.1,51.5 55.1,120.5 57,120.4 	"/>
	<polygon fill="#748F44" points="87.2,37.5 85.3,37.4 85.3,113.9 87.2,114 	"/>
	<polygon fill="#4D5F2A" points="84.3,36.7 85.3,37.4 85.3,113.9 84.3,113.1 	"/>
	<polygon fill="#4D5F2A" points="54.1,43.2 55.1,44 55.1,120.5 54.1,119.7 	"/>
	<polygon fill="#4D5F2A" points="111.9,45.6 112.9,46.3 112.9,122.8 111.9,122 	"/>
	<polygon fill="#748F44" points="114.9,58.5 112.9,58.5 112.9,122.8 114.9,122.9 	"/>
	<polygon fill="#A6CE4E" points="85.8,110.1 64.7,45.7 82.2,72.4 	"/>
	<polygon fill="#A6CE4E" points="113.5,119.6 106.4,76.5 98.2,98.5 	"/>
	<g>
		<g>
			<polygon fill="#F0E654" points="90.7,19.5 82.9,19.2 75.3,19.5 75.5,26.5 77,36.9 92.4,36.9 			"/>
			<polygon id="lava_strana_52_" fill="#918431" points="76.2,36.3 74.5,19 75.3,19.5 77,36.9 			"/>
			<polygon fill="#F2F1A1" points="90.7,19.5 75.3,19.5 74.5,19 89.9,18.9 			"/>
		</g>
		<g>
			<polygon fill="#F0E654" points="88.5,16.8 83.5,16.6 78.6,16.8 78.8,21.3 79.7,28 89.6,28 			"/>
			<polygon id="lava_strana_57_" fill="#918431" points="79.2,27.6 78.1,16.5 78.6,16.8 79.7,28 			"/>
			<polygon fill="#F2F1A1" points="88.5,16.8 78.6,16.8 78.1,16.5 88,16.5 			"/>
		</g>
		<g>
			<polygon id="lava_strana_56_" fill="#88782E" points="77.9,27.7 76,17.4 78.3,18.9 80.2,20.4 81.1,24.1 82.1,30.6 			"/>
			<polygon fill="#F0E654" points="81.1,20.3 80.2,20.4 82.1,30.6 82.9,30.7 			"/>
			<polygon fill="#F2F1A1" points="81.1,20.3 80.2,20.4 76,17.4 76.9,17.4 			"/>
		</g>
		<g>
			<polygon id="lava_strana_47_" fill="#88782E" points="74.2,35.5 71.3,19.6 74.8,22 77.8,24.4 79.2,30.1 80.7,40.3 			"/>
			<polygon fill="#F0E654" points="79.1,24.3 77.8,24.4 80.7,40.3 82,40.3 			"/>
			<polygon fill="#F2F1A1" points="79.1,24.3 77.8,24.4 71.3,19.6 72.6,19.6 			"/>
		</g>
		<g>
			<polygon id="lava_strana_53_" fill="#918431" points="88.6,36.7 91.6,20.6 95.1,23 98.1,25.3 97.9,30.8 95.1,41.5 			"/>
			<polygon fill="#F0E654" points="99.4,25.3 98.1,25.3 95.1,41.5 96.4,41.5 			"/>
			<polygon fill="#F2F1A1" points="99.4,25.3 98.1,25.3 91.6,20.6 92.9,20.6 			"/>
		</g>
		<g>
			<polygon id="lava_strana_55_" fill="#918431" points="87.6,28.1 89.6,17.8 91.8,19.3 93.8,20.8 93.6,24.3 91.8,31.2 			"/>
			<polygon fill="#F0E654" points="94.6,20.8 93.8,20.8 91.8,31.2 92.7,31.2 			"/>
			<polygon fill="#F2F1A1" points="94.6,20.8 93.8,20.8 89.6,17.8 90.4,17.8 			"/>
		</g>
		<g>
			<polygon fill="#F0E654" points="92.1,21.6 87.1,21.4 82.2,21.6 81.3,25.9 80.7,30.9 90.6,30.9 			"/>
			<polygon id="lava_strana_54_" fill="#918431" points="80.2,30.5 81.7,21.2 82.2,21.6 80.7,30.9 			"/>
			<polygon fill="#F2F1A1" points="92.1,21.6 82.2,21.6 81.7,21.2 91.6,21.3 			"/>
		</g>
		<g>
			<polygon fill="#F0E654" points="96.1,26.6 88.3,26.2 80.7,26.6 79.3,33.1 78.4,41 93.8,41 			"/>
			<polygon id="lava_strana_50_" fill="#918431" points="77.6,40.4 79.9,25.9 80.7,26.6 78.4,41 			"/>
			<polygon fill="#F2F1A1" points="96.1,26.6 80.7,26.6 79.9,25.9 95.3,26 			"/>
		</g>
	</g>
	<g>
		<g>
			<polygon fill="#DB82B6" points="119.9,41.3 111.5,40.9 103.3,41.3 103.5,48.8 105.1,60 121.7,60 			"/>
			<polygon id="lava_strana_65_" fill="#A0499B" points="104.2,59.5 102.4,40.7 103.3,41.3 105.1,60 			"/>
			<polygon fill="#F6C8DE" points="119.9,41.3 103.3,41.3 102.4,40.7 119,40.7 			"/>
		</g>
		<g>
			<polygon fill="#DB82B6" points="117.9,39.2 112.5,38.9 107.2,39.1 107.4,43.9 108.4,51.2 119.1,51.2 			"/>
			<polygon id="lava_strana_64_" fill="#A0499B" points="107.8,50.8 106.6,38.8 107.2,39.1 108.4,51.2 			"/>
			<polygon fill="#F6C8DE" points="117.9,39.2 107.2,39.1 106.6,38.8 117.3,38.7 			"/>
		</g>
		<g>
			<polygon id="lava_strana_63_" fill="#853092" points="106.1,49.9 104.1,38.9 106.5,40.6 108.6,42.2 109.5,46.1 110.6,53.2 			"/>
			<polygon fill="#B96CAC" points="109.5,42.1 108.6,42.2 110.6,53.2 111.5,53.2 			"/>
			<polygon fill="#F6C8DE" points="109.5,42.1 108.6,42.2 104.1,38.9 105,38.8 			"/>
		</g>
		<g>
			<polygon id="lava_strana_62_" fill="#853092" points="102.1,58.6 99,41.4 102.8,44 106,46.4 107.5,52.8 109.1,63.7 			"/>
			<polygon fill="#B96CAC" points="107.4,46.4 106,46.4 109.1,63.7 110.5,63.7 			"/>
			<polygon fill="#F6C8DE" points="107.4,46.4 106,46.4 99,41.4 100.4,41.3 			"/>
		</g>
		<g>
			<polygon id="lava_strana_61_" fill="#A0499B" points="117.6,59.8 120.9,42.4 124.7,45.1 127.9,47.5 127.7,53.4 124.6,65 			"/>
			<polygon fill="#B96CAC" points="129.3,47.6 127.9,47.5 124.6,65 126.1,65 			"/>
			<polygon fill="#F6C8DE" points="129.3,47.6 127.9,47.5 120.9,42.4 122.3,42.5 			"/>
		</g>
		<g>
			<polygon id="lava_strana_60_" fill="#A0499B" points="116.6,50.6 118.7,39.4 121.1,41 123.2,42.6 123,46.4 121.1,53.8 			"/>
			<polygon fill="#B96CAC" points="124.1,42.7 123.2,42.6 121.1,53.8 122,53.8 			"/>
			<polygon fill="#F6C8DE" points="124.1,42.7 123.2,42.6 118.7,39.4 119.6,39.4 			"/>
		</g>
		<g>
			<polygon fill="#B96CAC" points="121.4,43.6 116,43.3 110.7,43.5 109.8,48.1 109.1,53.6 119.8,53.5 			"/>
			<polygon id="lava_strana_59_" fill="#A0499B" points="108.6,53.2 110.2,43.2 110.7,43.5 109.1,53.6 			"/>
			<polygon fill="#F6C8DE" points="121.4,43.6 110.7,43.5 110.2,43.2 120.8,43.1 			"/>
		</g>
		<g>
			<polygon fill="#B96CAC" points="125.7,48.8 117.3,48.5 109.1,48.9 107.6,56 106.6,64.5 123.2,64.4 			"/>
			<polygon id="lava_strana_58_" fill="#A0499B" points="105.7,63.8 108.2,48.2 109.1,48.9 106.6,64.5 			"/>
			<polygon fill="#F6C8DE" points="125.7,48.8 109.1,48.9 108.2,48.2 124.8,48.2 			"/>
		</g>
	</g>
	<polygon fill="#B9D767" points="133.9,89.1 129.6,63.9 114.5,102.8 	"/>
	<g>
		<g>
			<polygon fill="#E3ECED" points="62.2,30.9 53.5,30.4 44.9,30.9 45.2,38.7 46.8,50.3 64.1,50.4 			"/>
			<polygon id="lava_strana_73_" fill="#7D7D7D" points="45.9,49.7 44,30.2 44.9,30.9 46.8,50.3 			"/>
			<polygon fill="#FFFFFF" points="62.2,30.9 44.9,30.9 44,30.2 61.3,30.2 			"/>
		</g>
		<g>
			<polygon fill="#E3ECED" points="60.1,28.6 54.5,28.3 49,28.6 49.2,33.7 50.2,41.1 61.3,41.1 			"/>
			<polygon id="lava_strana_72_" fill="#7D7D7D" points="49.6,40.7 48.4,28.2 49,28.6 50.2,41.1 			"/>
			<polygon fill="#FFFFFF" points="60.1,28.6 49,28.6 48.4,28.2 59.5,28.2 			"/>
		</g>
		<g>
			<polygon id="lava_strana_71_" fill="#707676" points="47.7,38.5 45.6,27 48.1,28.8 50.3,30.5 51.3,34.6 52.4,41.9 			"/>
			<polygon fill="#E5E5E5" points="51.2,30.4 50.3,30.5 52.4,41.9 53.3,41.9 			"/>
			<polygon fill="#FFFFFF" points="51.2,30.4 50.3,30.5 45.6,27 46.6,27 			"/>
		</g>
		<g>
			<polygon id="lava_strana_70_" fill="#707676" points="43.7,48.9 40.4,30.9 44.4,33.6 47.7,36.2 49.3,42.7 50.9,54.1 			"/>
			<polygon fill="#E5E5E5" points="49.2,36.2 47.7,36.2 50.9,54.1 52.4,54.1 			"/>
			<polygon fill="#FFFFFF" points="49.2,36.2 47.7,36.2 40.4,30.9 41.9,30.9 			"/>
		</g>
		<g>
			<polygon id="lava_strana_69_" fill="#7D7D7D" points="59.8,50.1 63.2,32.1 67.2,34.7 70.5,37.3 70.3,43.5 67.1,55.4 			"/>
			<polygon fill="#E5E5E5" points="72,37.4 70.5,37.3 67.1,55.4 68.6,55.5 			"/>
			<polygon fill="#FFFFFF" points="72,37.4 70.5,37.3 63.2,32.1 64.7,32 			"/>
		</g>
		<g>
			<polygon id="lava_strana_68_" fill="#7D7D7D" points="58.7,40.5 60.9,28.9 63.5,30.6 65.6,32.3 65.5,36.2 63.4,43.9 			"/>
			<polygon fill="#E5E5E5" points="66.6,32.3 65.6,32.3 63.4,43.9 64.4,43.9 			"/>
			<polygon fill="#FFFFFF" points="66.6,32.3 65.6,32.3 60.9,28.9 61.9,28.9 			"/>
		</g>
		<g>
			<polygon fill="#D4D3CD" points="63.8,33.1 58.2,32.9 52.7,33.2 51.7,37.9 51,43.6 62.1,43.6 			"/>
			<polygon id="lava_strana_67_" fill="#7D7D7D" points="50.4,43.2 52.1,32.7 52.7,33.2 51,43.6 			"/>
			<polygon fill="#FFFFFF" points="63.8,33.1 52.7,33.2 52.1,32.7 63.2,32.8 			"/>
		</g>
		<g>
			<polygon fill="#D4D3CD" points="68.2,38.7 59.5,38.4 51,38.7 49.4,46.1 48.4,54.9 65.7,54.9 			"/>
			<polygon id="lava_strana_66_" fill="#7D7D7D" points="47.5,54.2 50,38 51,38.7 48.4,54.9 			"/>
			<polygon fill="#FFFFFF" points="68.2,38.7 51,38.7 50,38 67.3,38 			"/>
		</g>
	</g>
	<polygon fill="#B9D767" points="96.8,47.2 99.8,75.6 86.8,96.2 	"/>
	<polygon fill="#A6CE4E" points="69.2,93.3 62.6,69.4 56.3,116.3 	"/>
	<polygon fill="#B9D767" points="41.9,56.1 37.9,79.6 55.6,99.7 	"/>
</g>
</svg>
