<?xml version="1.0" encoding="utf-8"?>
<?xml-stylesheet type="text/css" href="../css/svg_fix.css" ?>
<!-- Generator: Adobe Illustrator 15.1.0, SVG Export Plug-In . SVG Version: 6.00 Build 0)  -->
<!DOCTYPE svg PUBLIC "-//W3C//DTD SVG 1.1//EN" "http://www.w3.org/Graphics/SVG/1.1/DTD/svg11.dtd">
<svg version="1.1" id="UVOD" xmlns="http://www.w3.org/2000/svg" xmlns:xlink="http://www.w3.org/1999/xlink" x="0px" y="0px"
	 width="2111px" height="474px" viewBox="-327.537 452.491 2111 474" enable-background="new -327.537 452.491 2111 474"
	 xml:space="preserve">
<g id="hviezdy_zadne" opacity="0.6">
	<polygon fill="#777B7E" points="-283.696,542.167 -284.537,547.491 -288.697,543.063 	"/>
	<polygon fill="#777B7E" points="534.305,526.166 533.463,531.491 529.303,527.062 	"/>
	<polygon fill="#777B7E" points="331.304,636.165 330.463,641.491 326.303,637.062 	"/>
	<polygon fill="#777B7E" points="906.51,826.187 905.668,831.512 901.51,827.083 	"/>
	<polygon fill="#777B7E" points="1298.77,663.187 1297.928,668.512 1293.77,664.083 	"/>
	<polygon fill="#777B7E" points="1681.305,850.166 1680.463,855.491 1676.305,851.063 	"/>
	<polygon fill="#777B7E" points="1397.463,796.858 1396.621,802.185 1392.461,797.755 	"/>
	<polygon fill="#777B7E" points="1433.121,529.29 1432.279,534.616 1428.119,530.187 	"/>
	<polygon fill="#777B7E" points="1467.119,713.193 1466.277,718.519 1462.119,714.089 	"/>
	<polygon fill="#777B7E" points="882.463,522.491 881.621,527.817 877.461,523.388 	"/>
	<polygon fill="#777B7E" points="229.124,787.194 228.283,792.52 224.123,788.09 	"/>
	<polygon fill="#777B7E" points="667.786,898.778 666.945,904.103 662.786,899.674 	"/>
	<polygon fill="#777B7E" points="492.463,750.491 491.622,755.816 487.462,751.388 	"/>
	<polygon fill="#777B7E" points="-260.555,837.224 -261.396,842.549 -265.556,838.12 	"/>
	<polygon fill="#777B7E" points="-126.403,728.555 -122.862,733.389 -129.612,733.201 	"/>
	<polygon fill="#777B7E" points="87.129,860.158 90.67,864.992 83.92,864.805 	"/>
	<polygon fill="#777B7E" points="-125.537,546.825 -121.996,551.659 -128.746,551.472 	"/>
	<polygon fill="#777B7E" points="246.463,482.491 252.268,481.009 249.576,487.202 	"/>
	<polygon fill="#777B7E" points="751.284,689.975 757.101,691.408 751.805,695.596 	"/>
	<polygon fill="#777B7E" points="25.082,658.493 19.156,659.378 22.463,653.491 	"/>
	<polygon fill="#777B7E" points="1229.463,756.491 1223.537,757.377 1226.844,751.489 	"/>
	<polygon fill="#777B7E" points="1090.036,673.058 1084.11,673.943 1087.417,668.056 	"/>
	<polygon fill="#777B7E" points="684.415,591.16 678.489,592.046 681.796,586.158 	"/>
	<polygon fill="#777B7E" points="1175.082,490.493 1169.156,491.379 1172.463,485.491 	"/>
	<polygon fill="#777B7E" points="1003.082,671.493 997.156,672.379 1000.463,666.491 	"/>
	<polygon fill="#777B7E" points="661.874,797.938 658.657,792.883 665.38,793.513 	"/>
	<polygon fill="#777B7E" points="1103.535,883.047 1100.317,877.992 1107.041,878.622 	"/>
	<polygon fill="#777B7E" points="430.463,838.491 424.537,839.377 427.844,833.489 	"/>
	<polygon fill="#777B7E" points="374.644,599.422 370.884,594.757 377.636,594.634 	"/>
	<polygon fill="#777B7E" points="312.399,668.154 314.406,673.8 307.993,671.685 	"/>
	<polygon fill="#777B7E" points="1766.625,660.058 1760.699,660.943 1764.006,655.056 	"/>
	<polygon fill="#777B7E" points="1617.629,493.568 1611.703,494.454 1615.01,488.566 	"/>
	<polygon fill="#777B7E" points="270.474,651.906 268.135,646.39 274.663,648.119 	"/>
	<polygon fill="#777B7E" points="401.113,667.613 397.607,672.473 395.704,665.993 	"/>
</g>
</svg>
