<?xml version="1.0" encoding="utf-8"?>
<!-- Generator: Adobe Illustrator 15.1.0, SVG Export Plug-In . SVG Version: 6.00 Build 0)  -->
<!DOCTYPE svg PUBLIC "-//W3C//DTD SVG 1.1//EN" "http://www.w3.org/Graphics/SVG/1.1/DTD/svg11.dtd">
<svg version="1.1" id="stars1" xmlns="http://www.w3.org/2000/svg" xmlns:xlink="http://www.w3.org/1999/xlink" x="0px" y="0px"
	 width="2111px" height="474px" viewBox="0 0 2111 474" enable-background="new 0 0 2111 474" xml:space="preserve">
<g id="hviezdy">
	<polygon fill="#404951" points="1118.6,325.8 1132.5,320.6 1132.4,338.2 	"/>
	<polygon fill="#626558" points="1118.6,325.8 1132.5,320.6 1114.4,315.1 	"/>
	<polygon fill="#363D44" points="1110.4,337.8 1132.4,338.2 1118.6,325.8 	"/>
	<polygon fill="#4B535B" points="1110.4,337.8 1114.4,315.1 1118.6,325.8 	"/>
	<polygon fill="#495056" points="255.2,68.5 263.1,62.4 264.8,83.8 	"/>
	<polygon fill="#6C6D69" points="255.2,68.5 263.1,62.4 245,56.9 	"/>
	<polygon fill="#363D44" points="237.2,81.1 264.8,83.8 255.2,68.5 	"/>
	<polygon fill="#4B535B" points="237.2,81.1 245,56.9 255.2,68.5 	"/>
	<polygon fill="#404951" points="1339.6,169.8 1353.5,164.6 1353.4,182.2 	"/>
	<polygon fill="#626558" points="1339.6,169.8 1353.5,164.6 1335.4,159.1 	"/>
	<polygon fill="#363D44" points="1331.4,181.8 1353.4,182.2 1339.6,169.8 	"/>
	<polygon fill="#4B535B" points="1331.4,181.8 1335.4,159.1 1339.6,169.8 	"/>
	<polygon fill="#4B535B" points="408.1,271.5 418.3,267.4 410.2,282.5 	"/>
	<polygon fill="#626558" points="408.1,271.5 418.3,267.4 398.3,259.4 	"/>
	<polygon fill="#353B43" points="395,282.2 410.2,282.5 408.1,271.5 	"/>
	<polygon fill="#4B535B" points="395,282.2 398.3,259.4 408.1,271.5 	"/>
	<polygon fill="#4B535B" points="1034.1,47.5 1044.3,43.4 1036.2,58.5 	"/>
	<polygon fill="#626558" points="1034.1,47.5 1044.3,43.4 1024.3,35.4 	"/>
	<polygon fill="#353B43" points="1021,58.2 1036.2,58.5 1034.1,47.5 	"/>
	<polygon fill="#4B535B" points="1021,58.2 1024.3,35.4 1034.1,47.5 	"/>
	<polygon fill="#363D44" points="1511.8,405.2 1524.4,407 1518.1,415.9 	"/>
	<polygon fill="#3A3E46" points="1511.8,405.2 1524.4,407 1519.8,393.2 	"/>
	<polygon fill="#565857" points="1511.8,405.2 1519.8,393.2 1508.8,397.3 	"/>
	<polygon fill="#343B3F" points="1505.8,414 1518.1,415.9 1511.8,405.2 	"/>
	<polygon fill="#444649" points="1505.8,414 1508.8,397.3 1511.8,405.2 	"/>
	<polygon fill="#363D44" points="1986.3,320.6 1996,329.5 1984.4,330.4 	"/>
	<polygon fill="#3A3E46" points="1986.3,320.6 1996,329.5 1997.2,314.5 	"/>
	<polygon fill="#565857" points="1986.3,320.6 1997.2,314.5 1986.1,311 	"/>
	<polygon fill="#343B3F" points="1974.1,323 1984.4,330.4 1986.3,320.6 	"/>
	<polygon fill="#444649" points="1974.1,323 1986.1,311 1986.3,320.6 	"/>
	<polygon fill="#3B4249" points="1521.2,270.9 1542.7,272.1 1538.3,285.9 	"/>
	<polygon fill="#32383D" points="1521.2,270.9 1538.3,285.9 1505.4,280.2 	"/>
	<polygon fill="#565857" points="1521.2,270.9 1542.7,272.1 1535.1,245.2 	"/>
	<polygon fill="#7C7C7C" points="1521.2,270.9 1535.1,245.2 1512.3,250 	"/>
	<polygon fill="#343B3F" points="1500.9,262.6 1505.4,280.2 1521.2,270.9 	"/>
	<polygon fill="#56585B" points="1500.9,262.6 1512.3,250 1521.2,270.9 	"/>
	<polygon fill="#353B43" points="658.6,145.4 669.1,155.5 652.5,152.6 	"/>
	<polygon fill="#4B535B" points="658.6,145.4 669.1,155.5 673.9,138.2 	"/>
	<polygon fill="#454B52" points="654.3,133.2 652.5,152.6 658.6,145.4 	"/>
	<polygon fill="#5A646C" points="654.3,133.2 673.9,138.2 658.6,145.4 	"/>
	<polygon fill="#353B43" points="1874.6,42.4 1885.1,52.5 1868.5,49.6 	"/>
	<polygon fill="#4B535B" points="1874.6,42.4 1885.1,52.5 1889.9,35.2 	"/>
	<polygon fill="#454B52" points="1870.3,30.2 1868.5,49.6 1874.6,42.4 	"/>
	<polygon fill="#5A646C" points="1870.3,30.2 1889.9,35.2 1874.6,42.4 	"/>
	<polygon fill="#3C4249" points="725.1,436.2 741.3,440 718.8,443.8 	"/>
	<polygon fill="#4B535B" points="724.6,423.6 718.8,443.8 725.1,436.2 	"/>
	<polygon fill="#5A646C" points="724.6,423.6 741.3,440 725.1,436.2 	"/>
	<polygon fill="#3C4249" points="1487.2,282.5 1495.7,286.2 1480.8,287.8 	"/>
	<polygon fill="#4B535B" points="1486.4,273.1 1480.8,287.8 1487.2,282.5 	"/>
	<polygon fill="#565857" points="1486.4,273.1 1495.7,286.2 1487.2,282.5 	"/>
	<polygon fill="#3C4249" points="1560.5,289.1 1571.3,281.1 1563.3,300.6 	"/>
	<polygon fill="#32383D" points="1554.7,286.6 1563.3,300.6 1560.5,289.1 	"/>
	<polygon fill="#7C7C7C" points="1554.7,286.6 1571.3,281.1 1560.5,289.1 	"/>
	<polygon fill="#3C4249" points="1406.6,258.5 1408.7,261.1 1403.7,259.3 	"/>
	<polygon fill="#32383D" points="1407.1,257 1403.7,259.3 1406.6,258.5 	"/>
	<polygon fill="#56585B" points="1407.1,257 1408.7,261.1 1406.6,258.5 	"/>
	<polygon fill="#3C4249" points="1588.3,266.8 1590.8,264.6 1589.2,269.7 	"/>
	<polygon fill="#32383D" points="1586.8,266.3 1589.2,269.7 1588.3,266.8 	"/>
	<polygon fill="#56585B" points="1586.8,266.3 1590.8,264.6 1588.3,266.8 	"/>
	<polygon fill="#3C4249" points="1520.8,299.5 1523.3,297.3 1521.7,302.3 	"/>
	<polygon fill="#32383D" points="1519.3,299 1521.7,302.3 1520.8,299.5 	"/>
	<polygon fill="#56585B" points="1519.3,299 1523.3,297.3 1520.8,299.5 	"/>
	<polygon fill="#3C4249" points="1455.2,283.3 1452.7,281.1 1457.9,281.9 	"/>
	<polygon fill="#32383D" points="1455,284.8 1457.9,281.9 1455.2,283.3 	"/>
	<polygon fill="#56585B" points="1455,284.8 1452.7,281.1 1455.2,283.3 	"/>
	<polygon fill="#3C4249" points="1551.3,249.3 1559,249.6 1550.4,253.9 	"/>
	<polygon fill="#56585B" points="1548.4,244 1550.4,253.9 1551.3,249.3 	"/>
	<polygon fill="#474948" points="1548.4,244 1559,249.6 1551.3,249.3 	"/>
	<polygon fill="#3C4249" points="1474.8,260.1 1469.1,259.7 1475.6,256.7 	"/>
	<polygon fill="#56585B" points="1476.9,264.1 1475.6,256.7 1474.8,260.1 	"/>
	<polygon fill="#32383D" points="1476.9,264.1 1469.1,259.7 1474.8,260.1 	"/>
	<polygon fill="#3C4249" points="1636.7,279.6 1635.2,275.8 1639.5,279.3 	"/>
	<polygon fill="#56585B" points="1634.7,282.6 1639.5,279.3 1636.7,279.6 	"/>
	<polygon fill="#32383D" points="1634.7,282.6 1635.2,275.8 1636.7,279.6 	"/>
	<polygon fill="#3C4249" points="104.1,421.2 117.7,426.3 97.8,428.8 	"/>
	<polygon fill="#4B535B" points="103.6,408.6 97.8,428.8 104.1,421.2 	"/>
	<polygon fill="#5A646C" points="103.6,408.6 115.8,416.6 104.1,421.2 	"/>
	<polygon fill="#68737A" points="115.8,416.6 117.7,426.3 104.1,421.2 	"/>
	<polygon fill="#353B43" points="1754.6,217.7 1767.9,227.1 1746.2,222.1 	"/>
	<polygon fill="#565857" points="1758.9,206.1 1746.2,222.1 1754.6,217.7 	"/>
	<polygon fill="#5A646C" points="1758.9,206.1 1767.9,227.1 1754.6,217.7 	"/>
</g>
<g id="DIZAJN">
	<g id="rubikova_kocka">
		<g id="prva_rada">
			<g>
				<polygon fill="#2C2C2F" points="489.2,157.7 478.7,158.6 480.9,160.6 483.7,161.7 488.5,162.1 494.2,160.8 				"/>
				<polygon id="lava_strana_114_" fill="#232327" points="478.7,158.6 478.7,169.1 483.7,172.3 484,166.3 483.7,161.7 				"/>
				<path id="predna_strana_25_" fill="#444347" d="M483.7,161.7l10.5-0.9v10.6l-10.5,0.9V161.7z"/>
			</g>
			<g>
				<polygon fill="#2C2C2F" points="489.2,145.6 478.7,146.6 480.9,148.6 483.7,149.7 488.5,150.1 494.2,148.7 				"/>
				<polygon id="lava_strana_120_" fill="#232327" points="478.7,146.6 478.7,157.1 483.7,160.2 484,154.3 483.7,149.7 				"/>
				<path id="predna_strana_26_" fill="#444347" d="M483.7,149.7l10.5-1v10.6l-10.5,0.9V149.7z"/>
			</g>
			<g>
				<polygon fill="#2D333E" points="477.2,126.3 466.7,127.3 468.9,129.3 471.7,130.4 476.5,130.8 482.3,129.4 				"/>
				<polygon id="lava_strana_125_" fill="#232327" points="466.7,127.3 466.7,137.8 471.7,140.9 472,134.9 471.7,130.4 				"/>
				<path id="predna_strana_36_" fill="#28282B" d="M471.7,130.4l10.5-0.9v10.6l-10.5,0.9V130.4z"/>
			</g>
			<g>
				<polygon fill="#2D333E" points="483,129.9 472.6,130.8 474.8,132.9 477.6,133.9 482.4,134.3 488.1,133 				"/>
				<polygon id="lava_strana_124_" fill="#232327" points="472.6,130.8 472.6,141.4 477.6,144.5 477.9,138.5 477.6,133.9 				"/>
				<path id="predna_strana_35_" fill="#28282B" d="M477.6,133.9l10.5-0.9v10.6l-10.5,0.9V133.9z"/>
			</g>
			<g>
				<polygon fill="#2D333E" points="489.2,133.6 478.7,134.6 480.9,136.6 483.7,137.7 488.5,138.1 494.2,136.7 				"/>
				<polygon id="lava_strana_123_" fill="#232327" points="478.7,134.6 478.7,145.1 483.7,148.2 484,142.2 483.7,137.7 				"/>
				<path id="predna_strana_29_" fill="#444347" d="M483.7,137.7l10.5-1v10.6l-10.5,0.9V137.7z"/>
			</g>
			<g>
				<polygon fill="#2C2C2F" points="477.1,158.9 466.7,159.8 468.9,161.8 471.7,162.9 476.5,163.3 482.2,162 				"/>
				<polygon id="lava_strana_138_" fill="#232327" points="466.7,159.8 466.7,170.3 471.7,173.5 472,167.5 471.7,162.9 				"/>
				<path id="predna_strana_43_" fill="#444347" d="M471.7,162.9l10.5-0.9v10.6l-10.5,0.9V162.9z"/>
			</g>
			<g>
				<polygon fill="#2C2C2F" points="477.1,146.8 466.7,147.8 468.9,149.8 471.7,150.9 476.5,151.3 482.2,149.9 				"/>
				<polygon id="lava_strana_129_" fill="#232327" points="466.7,147.8 466.7,158.3 471.7,161.4 472,155.5 471.7,150.9 				"/>
				<path id="predna_strana_40_" fill="#444347" d="M471.7,150.9l10.5-1v10.6l-10.5,0.9V150.9z"/>
			</g>
			<g>
				<polygon fill="#2D333E" points="465.1,127.5 454.7,128.5 456.9,130.5 459.7,131.6 464.5,132 470.2,130.6 				"/>
				<polygon id="lava_strana_128_" fill="#232327" points="454.7,128.5 454.7,139 459.7,142.1 460,136.1 459.7,131.6 				"/>
				<path id="predna_strana_39_" fill="#28282B" d="M459.7,131.6l10.5-1v10.6l-10.5,0.9V131.6z"/>
			</g>
			<g>
				<polygon fill="#2D333E" points="471,131.1 460.6,132 462.7,134.1 465.6,135.1 470.4,135.5 476.1,134.2 				"/>
				<polygon id="lava_strana_127_" fill="#232327" points="460.6,132 460.6,142.6 465.6,145.7 465.9,139.7 465.6,135.1 				"/>
				<path id="predna_strana_38_" fill="#28282B" d="M465.6,135.1l10.5-0.9v10.6l-10.5,0.9V135.1z"/>
			</g>
			<g>
				<polygon fill="#2D333E" points="477.1,134.8 466.7,135.8 468.9,137.8 471.7,138.9 476.5,139.3 482.2,137.9 				"/>
				<polygon id="lava_strana_126_" fill="#232327" points="466.7,135.8 466.7,146.3 471.7,149.4 472,143.4 471.7,138.9 				"/>
				<path id="predna_strana_37_" fill="#444347" d="M471.7,138.9l10.5-1v10.6l-10.5,0.9V138.9z"/>
			</g>
			<g>
				<polygon fill="#2C2C2F" points="453.1,152.8 442.7,153.7 444.9,155.7 447.7,156.8 452.5,157.2 458.2,155.9 				"/>
				<polygon id="lava_strana_150_" fill="#31392C" points="442.7,153.7 442.7,164.3 447.7,167.4 448,161.4 447.7,156.8 				"/>
				<path id="predna_strana_72_" fill="#28282B" d="M447.7,156.8l10.5-0.9v10.6l-10.5,0.9V156.8z"/>
			</g>
			<g>
				<polygon fill="#2C2C2F" points="459,156.3 448.6,157.3 450.7,159.3 453.6,160.4 458.4,160.8 464.1,159.4 				"/>
				<polygon id="lava_strana_149_" fill="#31392C" points="448.6,157.3 448.6,167.8 453.6,170.9 453.9,165 453.6,160.4 				"/>
				<path id="predna_strana_71_" fill="#28282B" d="M453.6,160.4l10.5-0.9v10.6l-10.5,0.9V160.4z"/>
			</g>
			<g>
				<polygon fill="#2C2C2F" points="465.1,160.1 454.7,161 456.9,163 459.7,164.1 464.5,164.5 470.2,163.2 				"/>
				<polygon id="lava_strana_148_" fill="#31392C" points="454.7,161 454.7,171.6 459.7,174.7 460,168.7 459.7,164.1 				"/>
				<path id="predna_strana_70_" fill="#444347" d="M459.7,164.1l10.5-0.9v10.6l-10.5,0.9V164.1z"/>
			</g>
			<g>
				<polygon fill="#2C2C2F" points="453.1,140.7 442.7,141.7 444.9,143.7 447.7,144.8 452.5,145.2 458.2,143.8 				"/>
				<polygon id="lava_strana_147_" fill="#31392C" points="442.7,141.7 442.7,152.2 447.7,155.3 448,149.4 447.7,144.8 				"/>
				<path id="predna_strana_69_" fill="#28282B" d="M447.7,144.8l10.5-1v10.6l-10.5,0.9V144.8z"/>
			</g>
			<g>
				<polygon fill="#2C2C2F" points="459,144.3 448.6,145.2 450.7,147.3 453.6,148.4 458.4,148.8 464.1,147.4 				"/>
				<polygon id="lava_strana_146_" fill="#31392C" points="448.6,145.2 448.6,155.8 453.6,158.9 453.9,152.9 453.6,148.4 				"/>
				<path id="predna_strana_68_" fill="#28282B" d="M453.6,148.4l10.5-0.9v10.6l-10.5,0.9V148.4z"/>
			</g>
			<g>
				<polygon fill="#2C2C2F" points="465.1,148 454.7,149 456.9,151 459.7,152.1 464.5,152.5 470.2,151.1 				"/>
				<polygon id="lava_strana_145_" fill="#31392C" points="454.7,149 454.7,159.5 459.7,162.6 460,156.7 459.7,152.1 				"/>
				<path id="predna_strana_67_" fill="#444347" d="M459.7,152.1l10.5-1v10.6l-10.5,0.9V152.1z"/>
			</g>
			<g>
				<polygon fill="#2D333E" points="453.1,128.7 442.7,129.7 444.9,131.7 447.7,132.8 452.5,133.2 458.2,131.8 				"/>
				<polygon id="lava_strana_144_" fill="#31392C" points="442.7,129.7 442.7,140.2 447.7,143.3 448,137.3 447.7,132.8 				"/>
				<path id="predna_strana_66_" fill="#28282B" d="M447.7,132.8l10.5-1v10.6l-10.5,0.9V132.8z"/>
			</g>
			<g>
				<polygon fill="#2D333E" points="459,132.3 448.6,133.2 450.7,135.3 453.6,136.3 458.4,136.7 464.1,135.4 				"/>
				<polygon id="lava_strana_143_" fill="#31392C" points="448.6,133.2 448.6,143.8 453.6,146.9 453.9,140.9 453.6,136.3 				"/>
				<path id="predna_strana_65_" fill="#28282B" d="M453.6,136.3l10.5-0.9V146l-10.5,0.9V136.3z"/>
			</g>
			<g>
				<polygon fill="#2D333E" points="465.1,136 454.7,137 456.9,139 459.7,140.1 464.5,140.5 470.2,139.1 				"/>
				<polygon id="lava_strana_141_" fill="#31392C" points="454.7,137 454.7,147.5 459.7,150.6 460,144.6 459.7,140.1 				"/>
				<path id="predna_strana_63_" fill="#444347" d="M459.7,140.1l10.5-1v10.6l-10.5,0.9V140.1z"/>
			</g>
		</g>
	</g>
</g>
</svg>
