<?xml version="1.0" encoding="utf-8"?>
<!-- Generator: Adobe Illustrator 15.1.0, SVG Export Plug-In . SVG Version: 6.00 Build 0)  -->
<!DOCTYPE svg PUBLIC "-//W3C//DTD SVG 1.1//EN" "http://www.w3.org/Graphics/SVG/1.1/DTD/svg11.dtd">
<svg version="1.1" id="Vrstva_1" xmlns="http://www.w3.org/2000/svg" xmlns:xlink="http://www.w3.org/1999/xlink" x="0px" y="0px"
	 width="1761.6px" height="343.8px" viewBox="0 0 1761.6 343.8" enable-background="new 0 0 1761.6 343.8" xml:space="preserve">
<polygon fill="#898989" points="1759.9,116.1 1746.5,96.7 1745,75.2 1729.5,64.9 1740.7,58 1707.6,40.7 1655.3,11.7 1664.6,35.4 
	1481,32.3 951.1,11.7 951.1,11.7 951.1,11.7 942,17.4 922,38.8 888.5,62.8 887.5,66.8 879.7,78.1 934.7,117.7 997.4,130.2 
	1075,130.2 1732.4,130.2 1732.4,130.2 "/>
<g>
	<polygon fill="#44484A" points="1732.4,130.2 1726.1,175.7 1732.4,220.2 1759.9,236.5 1759.9,116.1 	"/>
</g>
<g>
	<polygon fill="#505D66" points="1075,130.2 997.4,130.2 934.7,117.7 879.7,78.1 879.3,209 934.3,248.5 997.4,264.8 1075,220.2 
		1732.4,220.2 1732.4,130.2 	"/>
</g>
<g id="kolesa_3_">
	<polygon fill="#1A1A1A" points="1011.5,295.4 1007.9,314 1032.5,332 1036.2,313.5 	"/>
	<polygon fill="#1A1A1A" points="1065.7,294 1062.1,312.5 1086.8,330.6 1090.4,312 	"/>
	<polygon fill="#1A1A1A" points="1120.7,293.4 1117.1,311.9 1141.8,330 1145.4,311.4 	"/>
	<path fill="#2B2C2B" d="M1075.9,310.9c0,15-12.2,27-27.1,26.8c-15-0.2-27.1-12.6-27.1-27.6s12.2-27,27.1-26.8
		C1063.8,283.5,1075.9,295.9,1075.9,310.9z"/>
	<path fill="#383938" d="M1046.8,332c-11.2-1-19.6-10.2-19.6-21.5c0-12.2,9.9-21.9,22-21.7c0.5,0,1.1,0,1.6,0.1
		c11.2,1,19.6,10.2,19.6,21.5c0,12.2-9.9,21.9-22,21.7C1047.8,332.1,1047.3,332.1,1046.8,332z"/>
	<path fill="#2B2C2B" d="M1131.4,310.6c0,15-12.2,27-27.1,26.8c-15-0.2-27.1-12.6-27.1-27.6s12.2-27,27.1-26.8
		C1119.3,283.2,1131.4,295.6,1131.4,310.6z"/>
	<path fill="#383938" d="M1102.3,331.7c-11.2-1-19.6-10.2-19.6-21.5c0-12.2,9.9-21.9,22-21.7c0.5,0,1.1,0,1.6,0.1
		c11.2,1,19.6,10.2,19.6,21.5c0,12.2-9.9,21.9-22,21.7C1103.3,331.8,1102.8,331.8,1102.3,331.7z"/>
	<path fill="#2B2C2B" d="M1186.7,310.2c0,15-12.2,27-27.1,26.8c-15-0.2-27.1-12.6-27.1-27.6s12.2-27,27.1-26.8
		C1174.5,282.8,1186.7,295.2,1186.7,310.2z"/>
	<path fill="#383938" d="M1157.6,331.4c-11.2-1-19.6-10.2-19.6-21.5c0-12.2,9.9-21.9,22-21.7c0.5,0,1.1,0,1.6,0.1
		c11.2,1,19.6,10.2,19.6,21.5c0,12.2-9.9,21.9-22,21.7C1158.7,331.4,1158.1,331.4,1157.6,331.4z"/>
</g>
<g id="kolesa_2_">
	<polygon fill="#1A1A1A" points="1512.1,295.6 1508.5,314.1 1533.2,332.2 1536.8,313.6 	"/>
	<polygon fill="#1A1A1A" points="1566.3,294.1 1562.7,312.7 1587.4,330.7 1591,312.2 	"/>
	<polygon fill="#1A1A1A" points="1621.3,293.5 1617.7,312.1 1642.4,330.1 1646,311.6 	"/>
	<path fill="#2B2C2B" d="M1576.5,311c0,15-12.2,27-27.1,26.8c-15-0.2-27.1-12.6-27.1-27.6s12.2-27,27.1-26.8
		C1564.4,283.7,1576.5,296,1576.5,311z"/>
	<path fill="#383938" d="M1547.4,332.2c-11.2-1-19.6-10.2-19.6-21.5c0-12.2,9.9-21.9,22-21.7c0.5,0,1.1,0,1.6,0.1
		c11.2,1,19.6,10.2,19.6,21.5c0,12.2-9.9,21.9-22,21.7C1548.5,332.3,1547.9,332.2,1547.4,332.2z"/>
	<path fill="#2B2C2B" d="M1632,310.7c0,15-12.2,27-27.1,26.8c-15-0.2-27.1-12.6-27.1-27.6s12.2-27,27.1-26.8
		C1619.9,283.4,1632,295.7,1632,310.7z"/>
	<path fill="#383938" d="M1602.9,331.9c-11.2-1-19.6-10.2-19.6-21.5c0-12.2,9.9-21.9,22-21.7c0.5,0,1.1,0,1.6,0.1
		c11.2,1,19.6,10.2,19.6,21.5c0,12.2-9.9,21.9-22,21.7C1604,332,1603.4,331.9,1602.9,331.9z"/>
	<path fill="#2B2C2B" d="M1687.3,310.4c0,15-12.2,27-27.1,26.8c-15-0.2-27.1-12.6-27.1-27.6s12.2-27,27.1-26.8
		C1675.2,283,1687.3,295.4,1687.3,310.4z"/>
	<path fill="#383938" d="M1658.2,331.5c-11.2-1-19.6-10.2-19.6-21.5c0-12.2,9.9-21.9,22-21.7c0.5,0,1.1,0,1.6,0.1
		c11.2,1,19.6,10.2,19.6,21.5c0,12.2-9.9,21.9-22,21.7C1659.3,331.6,1658.7,331.6,1658.2,331.5z"/>
</g>
<polygon fill="#272626" points="1733.1,239.7 1084.2,243.7 1073.6,320.2 1713.7,320.2 "/>
<polygon fill="#353635" points="1724.4,240.4 1752.3,255.1 1745.2,298.9 1713.7,320.2 "/>
<polygon fill="#212121" points="1084.2,243.7 1005.7,280.9 1020.6,316.1 1073.6,320.2 "/>
<polygon fill="#1A1A1A" points="952.8,268.8 959.8,301 1020.6,316.1 1012.1,284.2 "/>
<g id="spoj_3_">
	<polygon fill="#282828" points="902.3,264.5 902.3,252 887.7,241.3 887.7,253.9 	"/>
	<polygon fill="#555448" points="902.3,252 929.3,252 914.7,241.3 887.7,241.3 	"/>
	<rect x="902.3" y="252" fill="#1C1C1C" width="27" height="12.5"/>
</g>
<polygon fill="#5F5E52" points="1005.9,49.8 934.7,117.7 966,128.7 997.4,130.2 1015.8,68.4 "/>
<polygon fill="#802E40" points="892.3,228.9 897,250.5 911.9,242.3 "/>
<polygon fill="#4C1C28" points="892.3,228.9 925,252.2 929.7,273.8 941.8,282.6 941.9,263.1 934.3,248.5 917.4,232.8 879.3,209 
	886.8,243.1 897,250.5 "/>
<polygon fill="#802E40" points="934.3,248.5 941.8,282.6 1006.2,298.6 1003.3,278.2 997.4,264.8 968,253.7 "/>
<polygon fill="#E16060" points="1075,220.2 1038.9,238 997.4,264.8 1006.2,298.6 1063.7,303 1074.1,255.7 "/>
<rect x="1075" y="130.2" fill="#393D40" width="657.4" height="90"/>
<polygon fill="#2D3030" points="934.3,248.5 934.7,117.7 997.4,130.2 997.4,264.8 "/>
<polygon fill="#8A8981" points="1714.2,68.4 1015.8,68.4 997.4,130.2 1075,130.2 1732.4,130.2 "/>
<polygon fill="#252728" points="879.3,209 879.7,78.1 934.7,117.7 934.3,248.5 "/>
<polygon fill="#313435" points="1075,220.2 997.4,264.8 997.4,130.2 1075,130.2 "/>
<polygon fill="#F38D7F" points="1732.4,220.2 1716.8,265.1 1721.1,303 1754,281.6 1759.9,236.5 "/>
<g opacity="0.4">
	<path fill="#222426" d="M941.7,126.2l54.5,10.9c0.5,0.1,0.9,0.1,1.4,0.1h77.5h657.4c1.1,0,2.2-0.3,3.2-0.8l17.3-8.9v96.7l-16.9-10
		c-1.1-0.6-2.3-1-3.6-1h-657.4c-1.2,0-2.4,0.3-3.5,0.9l-75.4,43.2l-54.8-14.2L941.7,126.2 M1759.9,116.1l-27.5,14.1H1075h-77.6
		l-62.7-12.5l-0.4,130.9l63.1,16.3l77.6-44.6h657.4l27.5,16.3V116.1L1759.9,116.1z"/>
</g>
<polygon fill="#6C6B5F" points="1714.2,68.4 1015.8,68.4 1005.9,49.8 1710.1,49.8 "/>
<polygon fill="#BCBBB7" points="1655.3,11.7 951.1,11.7 1005.9,49.8 1710.1,49.8 "/>
<polygon fill="#BCBBB7" points="1191.7,0 1063.5,0 1099.6,26.3 1227.9,26.3 "/>
<polygon fill="#6C6B5F" points="1227.9,26.3 1099.6,26.3 1068.9,41.3 1227.9,41.3 "/>
<polygon fill="#515147" points="1099.6,26.3 1063.5,0 1034,15.9 1068.9,41.3 "/>
<polygon fill="#BCBBB7" points="1564.7,0 1436.4,0 1472.6,26.3 1600.8,26.3 "/>
<polygon fill="#F26B6B" points="1732.4,220.2 1075,220.2 1063.7,303 1721.1,303 "/>
<polygon fill="#D8D9D8" points="1564.7,0 1591.8,12.2 1631.6,41.3 1600.8,26.3 "/>
<polygon fill="#6C6B5F" points="1600.8,26.3 1472.6,26.3 1472.6,41.3 1631.6,41.3 "/>
<polygon fill="#36352E" points="1472.6,26.3 1436.4,0 1436.4,14.6 1472.6,41.3 "/>
<polygon fill="#BCBBB7" points="1745,75.2 1714.2,68.4 1732.4,130.2 1759.9,116.1 "/>
<polygon fill="#8A8981" points="1745,75.2 1714.2,68.4 1710.1,49.8 1740.7,58 "/>
<polygon fill="#D8D9D8" points="1685.9,19.2 1655.3,11.7 1710.1,49.8 1740.7,58 "/>
<g>
	<polygon fill="#292B2B" points="1205.5,213.4 1164.8,220.2 1155.3,287.9 1196.1,287.9 1236.8,287.9 1246.3,220.2 	"/>
	<polygon fill="#393D40" points="1205.5,130.2 1164.8,130.2 1164.8,220.2 1205.5,220.2 1246.2,220.2 1246.2,130.2 	"/>
	<polygon fill="#484F52" points="1234.5,91.3 1193.7,91.3 1153,91.3 1164.8,130.2 1205.5,130.2 1246.3,130.2 	"/>
</g>
<g opacity="0.4">
	<path fill="#222426" d="M1188.6,98.3l10,33v88.5l-8.5,61.2h-26.6l8.3-59.8l0.1-0.5v-0.5v-90v-1l-0.3-1l-9-29.9H1188.6 M1193.7,91.3
		H1153l11.8,38.9v90l-9.4,67.7h40.7l9.4-67.7v-90L1193.7,91.3L1193.7,91.3z"/>
</g>
<g opacity="0.4">
	<path fill="#222426" d="M1229.3,98.3l10,33v88.5l-8.5,61.2h-26.6l8.3-59.8l0.1-0.5v-0.5v-90v-1l-0.3-1l-9-29.9H1229.3 M1234.5,91.3
		h-40.8l11.8,38.9v90l-9.4,67.7h40.7l9.4-67.7v-90L1234.5,91.3L1234.5,91.3z"/>
</g>
<g>
	<polygon fill="#292B2B" points="1589.6,216.4 1548.8,220.2 1539.4,287.9 1580.2,287.9 1620.9,287.9 1630.3,220.2 	"/>
	<g>
		<rect x="1548.8" y="130.2" fill="#393D40" width="40.7" height="90"/>
		<rect x="1589.6" y="130.2" fill="#393D40" width="40.7" height="90"/>
	</g>
	<polygon fill="#484F52" points="1618.6,89.2 1577.8,89.2 1537.1,89.2 1548.8,130.2 1589.6,130.2 1630.3,130.2 	"/>
</g>
<g opacity="0.4">
	<path fill="#222426" d="M1572.5,96.2l10.1,35v88.5l-8.5,61.2h-26.6l8.3-59.8l0.1-0.5v-0.5v-90v-1l-0.3-0.9l-9.2-32.1h26.1
		 M1577.8,89.2h-40.7l11.8,41v90l-9.4,67.7h40.7l9.4-67.7v-90L1577.8,89.2L1577.8,89.2z"/>
</g>
<g opacity="0.4">
	<path fill="#222426" d="M1613.3,96.2l10.1,35v88.5l-8.5,61.2h-26.6l8.3-59.8l0.1-0.5v-0.5v-90v-1l-0.3-0.9l-9.2-32.1h26.1
		 M1618.6,89.2h-40.7l11.8,41v90l-9.4,67.7h40.7l9.4-67.7v-90L1618.6,89.2L1618.6,89.2z"/>
</g>
<polygon fill="#36352E" points="951.1,11.7 879.7,78.1 888.5,62.8 942,17.4 "/>
<polygon fill="#515147" points="951.1,11.7 879.7,78.1 934.7,117.7 1005.9,49.8 "/>
<g opacity="0.4">
	<path fill="#222426" d="M886.7,91.8l41,29.5l-0.3,113.6l-41-29.5L886.7,91.8 M879.7,78.1L879.3,209l55,39.5l0.4-130.9L879.7,78.1
		L879.7,78.1z"/>
</g>
<g>
	<polygon fill="#3A3B3B" points="1115.2,4.6 1111.8,4.6 1132,20 1135.5,20 	"/>
	<polygon fill="#3A3B3B" points="1121.3,4.6 1117.9,4.6 1138.2,20 1141.6,20 	"/>
	<polygon fill="#3A3B3B" points="1127.4,4.6 1124,4.6 1144.3,20 1147.7,20 	"/>
	<polygon fill="#3A3B3B" points="1133.5,4.6 1130.1,4.6 1150.4,20 1153.8,20 	"/>
	<polygon fill="#3A3B3B" points="1140,4.6 1136.5,4.6 1156.8,20 1160.3,20 	"/>
	<polygon fill="#3A3B3B" points="1146.1,4.6 1142.6,4.6 1162.9,20 1166.4,20 	"/>
	<polygon fill="#3A3B3B" points="1152.7,4.6 1149.2,4.6 1169.5,20 1173,20 	"/>
	<polygon fill="#3A3B3B" points="1158.8,4.6 1155.3,4.6 1175.6,20 1179.1,20 	"/>
</g>
<g>
	<polygon fill="#3A3B3B" points="1489.5,4.6 1486.1,4.6 1508.3,20 1511.8,20 	"/>
	<polygon fill="#3A3B3B" points="1495.7,4.6 1492.2,4.6 1514.4,20 1517.9,20 	"/>
	<polygon fill="#3A3B3B" points="1501.7,4.6 1498.3,4.6 1520.5,20 1524,20 	"/>
	<polygon fill="#3A3B3B" points="1507.9,4.6 1504.4,4.6 1526.6,20 1530.1,20 	"/>
	<polygon fill="#3A3B3B" points="1514.3,4.6 1510.8,4.6 1533.1,20 1536.5,20 	"/>
	<polygon fill="#3A3B3B" points="1520.4,4.6 1517,4.6 1539.2,20 1542.7,20 	"/>
	<polygon fill="#3A3B3B" points="1527,4.6 1523.5,4.6 1545.8,20 1549.2,20 	"/>
	<polygon fill="#3A3B3B" points="1533.1,4.6 1529.6,4.6 1551.9,20 1555.4,20 	"/>
</g>
<polygon fill="#898989" points="909.9,116.1 896.5,96.7 895,75.2 879.5,64.9 890.7,58 857.6,40.7 805.3,11.7 814.6,35.4 631,32.3 
	101.1,11.7 101.1,11.7 101.1,11.7 92,17.4 72,38.8 38.5,62.8 37.5,66.8 29.7,78.1 84.7,117.7 147.6,130.2 225,130.2 882.4,130.2 
	882.4,130.2 "/>
<g>
	<polygon fill="#44484A" points="882.4,130.2 882.4,220.2 909.9,236.5 909.9,116.1 	"/>
</g>
<g>
	<polygon fill="#505D66" points="225,130.2 147.6,130.2 84.7,117.7 29.7,78.1 4.3,209 59.3,248.5 123.2,264.8 225,220.2 
		882.4,220.2 882.4,130.2 	"/>
</g>
<g id="kolesa_4_">
	<polygon fill="#1A1A1A" points="161.5,295.4 157.9,314 182.5,332 186.2,313.5 	"/>
	<polygon fill="#1A1A1A" points="215.7,294 212.1,312.5 236.8,330.6 240.4,312 	"/>
	<polygon fill="#1A1A1A" points="270.7,293.4 267.1,311.9 291.8,330 295.4,311.4 	"/>
	<path fill="#2B2C2B" d="M225.9,310.9c0,15-12.2,27-27.1,26.8c-15-0.2-27.1-12.6-27.1-27.6s12.2-27,27.1-26.8
		C213.8,283.5,225.9,295.9,225.9,310.9z"/>
	<path fill="#383938" d="M196.8,332c-11.2-1-19.6-10.2-19.6-21.5c0-12.2,9.9-21.9,22-21.7c0.5,0,1.1,0,1.6,0.1
		c11.2,1,19.6,10.2,19.6,21.5c0,12.2-9.9,21.9-22,21.7C197.8,332.1,197.3,332.1,196.8,332z"/>
	<path fill="#2B2C2B" d="M281.4,310.6c0,15-12.2,27-27.1,26.8c-15-0.2-27.1-12.6-27.1-27.6s12.2-27,27.1-26.8
		C269.3,283.2,281.4,295.6,281.4,310.6z"/>
	<path fill="#383938" d="M252.3,331.7c-11.2-1-19.6-10.2-19.6-21.5c0-12.2,9.9-21.9,22-21.7c0.5,0,1.1,0,1.6,0.1
		c11.2,1,19.6,10.2,19.6,21.5c0,12.2-9.9,21.9-22,21.7C253.3,331.8,252.8,331.8,252.3,331.7z"/>
	<path fill="#2B2C2B" d="M336.7,310.2c0,15-12.2,27-27.1,26.8c-15-0.2-27.1-12.6-27.1-27.6s12.2-27,27.1-26.8
		C324.5,282.8,336.7,295.2,336.7,310.2z"/>
	<path fill="#383938" d="M307.6,331.4c-11.2-1-19.6-10.2-19.6-21.5c0-12.2,9.9-21.9,22-21.7c0.5,0,1.1,0,1.6,0.1
		c11.2,1,19.6,10.2,19.6,21.5c0,12.2-9.9,21.9-22,21.7C308.7,331.4,308.1,331.4,307.6,331.4z"/>
</g>
<g id="kolesa_1_">
	<polygon fill="#1A1A1A" points="662.1,295.6 658.5,314.1 683.2,332.2 686.8,313.6 	"/>
	<polygon fill="#1A1A1A" points="716.3,294.1 712.7,312.7 737.4,330.7 741,312.2 	"/>
	<polygon fill="#1A1A1A" points="771.3,293.5 767.7,312.1 792.4,330.1 796,311.6 	"/>
	<path fill="#2B2C2B" d="M726.5,311c0,15-12.2,27-27.1,26.8c-15-0.2-27.1-12.6-27.1-27.6s12.2-27,27.1-26.8
		C714.4,283.7,726.5,296,726.5,311z"/>
	<path fill="#383938" d="M697.4,332.2c-11.2-1-19.6-10.2-19.6-21.5c0-12.2,9.9-21.9,22-21.7c0.5,0,1.1,0,1.6,0.1
		c11.2,1,19.6,10.2,19.6,21.5c0,12.2-9.9,21.9-22,21.7C698.5,332.3,697.9,332.2,697.4,332.2z"/>
	<path fill="#2B2C2B" d="M782,310.7c0,15-12.2,27-27.1,26.8c-15-0.2-27.1-12.6-27.1-27.6s12.2-27,27.1-26.8
		C769.9,283.4,782,295.7,782,310.7z"/>
	<path fill="#383938" d="M752.9,331.9c-11.2-1-19.6-10.2-19.6-21.5c0-12.2,9.9-21.9,22-21.7c0.5,0,1.1,0,1.6,0.1
		c11.2,1,19.6,10.2,19.6,21.5c0,12.2-9.9,21.9-22,21.7C754,332,753.4,331.9,752.9,331.9z"/>
	<path fill="#2B2C2B" d="M837.3,310.4c0,15-12.2,27-27.1,26.8c-15-0.2-27.1-12.6-27.1-27.6s12.2-27,27.1-26.8
		C825.2,283,837.3,295.4,837.3,310.4z"/>
	<path fill="#383938" d="M808.2,331.5c-11.2-1-19.6-10.2-19.6-21.5c0-12.2,9.9-21.9,22-21.7c0.5,0,1.1,0,1.6,0.1
		c11.2,1,19.6,10.2,19.6,21.5c0,12.2-9.9,21.9-22,21.7C809.3,331.6,808.7,331.6,808.2,331.5z"/>
</g>
<polygon fill="#272626" points="884.4,240.6 234.2,243.7 223.6,320.2 863.7,320.2 "/>
<polygon fill="#212121" points="234.2,243.7 132.7,285.8 146.6,316.1 223.6,320.2 "/>
<polygon fill="#1A1A1A" points="77.8,268.8 84.8,301 146.6,316.1 138.1,284.2 "/>
<polygon fill="#353635" points="874.4,240.4 902.3,255.1 895.2,298.9 863.7,320.2 "/>
<polygon fill="#F38D7F" points="882.4,220.2 860,259.8 871.1,303 904,281.6 909.9,236.5 "/>
<polygon fill="#E16060" points="225,220.2 123.2,264.8 122.1,283.4 132.2,298.6 213.7,303 224.8,264.6 "/>
<g id="spoj_4_">
	<polygon fill="#282828" points="27.3,264.5 27.3,252 12.7,241.3 12.7,253.9 	"/>
	<polygon fill="#555448" points="27.3,252 54.3,252 39.7,241.3 12.7,241.3 	"/>
	<rect x="27.3" y="252" fill="#1C1C1C" width="27" height="12.5"/>
</g>
<polygon fill="#4C1C28" points="17.3,228.9 25.2,236.9 34.7,241.3 50,252.2 54.7,273.8 66.8,282.6 67.1,263.6 59.3,248.5 
	34.4,225.1 4.3,209 11.8,243.1 22,250.5 22.4,238.3 "/>
<polygon fill="#802E40" points="59.3,248.5 66.8,282.6 132.2,298.6 123.2,264.8 91.3,251.1 "/>
<polygon fill="#FBF5A9" points="69.5,261.7 72.2,268.2 71.8,273.9 92.3,278.2 118.2,285.3 115,273.3 "/>
<polygon fill="#5F5E52" points="155.9,49.8 84.7,117.7 117.9,127.3 147.6,130.2 165.8,68.4 "/>
<polygon fill="#CCC98B" points="74.4,262.9 69.5,261.7 71.8,273.9 76.4,273.9 "/>
<polygon fill="#DDDB97" points="76.4,273.9 71.8,273.9 118.2,285.3 117.9,284.1 "/>
<polygon fill="#F26B6B" points="882.4,220.2 391.8,220.2 345.7,269.5 316.8,220.2 225,220.2 213.7,303 871.1,303 "/>
<rect x="225" y="130.2" fill="#393D40" width="657.4" height="90"/>
<polygon fill="#8A8981" points="864.2,68.4 165.8,68.4 147.6,130.2 225,130.2 882.4,130.2 "/>
<polygon fill="#802E40" points="17.3,228.9 19.3,241.4 34.8,241.4 "/>
<polygon fill="#252728" points="4.3,209 29.7,78.1 84.7,117.7 59.3,248.5 "/>
<polygon fill="#313435" points="225,220.2 123.2,264.8 126.5,191.6 147.6,130.2 225,130.2 "/>
<polygon fill="#2D3030" points="59.3,248.5 84.7,117.7 147.6,130.2 123.2,264.8 "/>
<g opacity="0.4">
	<path fill="#222426" d="M90.2,125.9l56,11.1c0.5,0.1,0.9,0.1,1.4,0.1h77.5h657.4c1.1,0,2.2-0.3,3.2-0.8l17.3-8.9v96.7l-16.9-10
		c-1.1-0.6-2.3-1-3.6-1H225c-1,0-1.9,0.2-2.8,0.6l-99.7,43.7l-55.1-14.1L90.2,125.9 M909.9,116.1l-27.5,14.1H225h-77.5l-62.8-12.5
		L59.3,248.5l63.8,16.3L225,220.2h657.4l27.5,16.3V116.1L909.9,116.1z"/>
</g>
<polygon fill="#6C6B5F" points="864.2,68.4 165.8,68.4 155.9,49.8 860.1,49.8 "/>
<polygon fill="#BCBBB7" points="805.3,11.7 101.1,11.7 155.9,49.8 860.1,49.8 "/>
<polygon fill="#BCBBB7" points="341.7,0 213.5,0 249.6,26.3 377.9,26.3 "/>
<polygon fill="#6C6B5F" points="377.9,26.3 249.6,26.3 218.9,41.3 377.9,41.3 "/>
<polygon fill="#515147" points="249.6,26.3 213.5,0 184,15.9 218.9,41.3 "/>
<polygon fill="#BCBBB7" points="714.7,0 586.4,0 622.6,26.3 750.8,26.3 "/>
<polygon fill="#D8D9D8" points="714.7,0 741.8,12.2 781.6,41.3 750.8,26.3 "/>
<polygon fill="#6C6B5F" points="750.8,26.3 622.6,26.3 622.6,41.3 781.6,41.3 "/>
<polygon fill="#36352E" points="622.6,26.3 586.4,0 586.4,14.6 622.6,41.3 "/>
<polygon fill="#BCBBB7" points="895,75.2 864.2,68.4 882.4,130.2 909.9,116.1 "/>
<polygon fill="#8A8981" points="895,75.2 864.2,68.4 860.1,49.8 890.7,58 "/>
<polygon fill="#D8D9D8" points="835.9,19.2 805.3,11.7 860.1,49.8 890.7,58 "/>
<g>
	<polygon fill="#292B2B" points="355.5,218.5 314.8,220.2 305.3,287.9 346.1,287.9 386.8,287.9 396.3,220.2 	"/>
	<polygon fill="#393D40" points="355.5,130.2 314.8,130.2 314.8,220.2 355.5,220.2 396.2,220.2 396.2,130.2 	"/>
	<polygon fill="#484F52" points="384.5,91.3 343.7,91.3 303,91.3 314.8,130.2 355.5,130.2 396.3,130.2 	"/>
</g>
<g opacity="0.4">
	<path fill="#222426" d="M338.6,98.3l10,33v88.5l-8.5,61.2h-26.6l8.3-59.8l0.1-0.5v-0.5v-90v-1l-0.3-1l-9-29.9H338.6 M343.7,91.3
		H303l11.8,38.9v90l-9.4,67.7h40.7l9.4-67.7v-90L343.7,91.3L343.7,91.3z"/>
</g>
<g opacity="0.4">
	<path fill="#222426" d="M379.3,98.3l10,33v88.5l-8.5,61.2h-26.6l8.3-59.8l0.1-0.5v-0.5v-90v-1l-0.3-1l-9-29.9H379.3 M384.5,91.3
		h-40.8l11.8,38.9v90l-9.4,67.7h40.7l9.4-67.7v-90L384.5,91.3L384.5,91.3z"/>
</g>
<g>
	<polygon fill="#292B2B" points="739.6,217.7 698.8,220.2 689.4,287.9 730.2,287.9 770.9,287.9 780.3,220.2 	"/>
	<polygon fill="#484F52" points="768.6,89.2 727.8,89.2 687.1,89.2 698.8,130.2 739.6,130.2 780.3,130.2 	"/>
	<g>
		<rect x="698.8" y="130.2" fill="#393D40" width="40.7" height="90"/>
		<rect x="739.6" y="130.2" fill="#393D40" width="40.7" height="90"/>
	</g>
</g>
<g opacity="0.4">
	<path fill="#222426" d="M722.5,96.2l10.1,35v88.5l-8.5,61.2h-26.6l8.3-59.8l0.1-0.5v-0.5v-90v-1l-0.3-0.9l-9.2-32.1h26.1
		 M727.8,89.2h-40.7l11.8,41v90l-9.4,67.7h40.7l9.4-67.7v-90L727.8,89.2L727.8,89.2z"/>
</g>
<g opacity="0.4">
	<path fill="#222426" d="M763.3,96.2l10.1,35v88.5l-8.5,61.2h-26.6l8.3-59.8l0.1-0.5v-0.5v-90v-1l-0.3-0.9l-9.2-32.1h26.1
		 M768.6,89.2h-40.7l11.8,41v90l-9.4,67.7H771l9.4-67.7v-90L768.6,89.2L768.6,89.2z"/>
</g>
<polygon fill="#36352E" points="101.1,11.7 29.7,78.1 38.5,62.8 92,17.4 "/>
<polygon fill="#515147" points="101.1,11.7 29.7,78.1 84.7,117.7 155.9,49.8 "/>
<polygon fill="#36352E" points="55.6,54.1 59.4,75.3 81,90.4 77.2,69.3 "/>
<polygon fill="#FBF5A9" points="59.7,60 62.3,74.3 76.9,84.6 74.4,70.2 "/>
<polygon fill="#6C6B5F" points="81,90.4 106.3,67 88.3,66.4 77.2,69.3 "/>
<polygon fill="#D8D9D8" points="55.6,54.1 84.7,51.9 106.3,67 77.2,69.3 "/>
<g id="spoj_1_">
	<polygon fill="#191919" points="23.7,278.3 23.7,243.5 0,226.9 0,261.7 	"/>
	<polygon fill="#888672" points="23.7,243.5 29.8,243.5 6.2,226.9 0,226.9 	"/>
	<polygon fill="#646353" points="23.7,243.5 29.8,243.5 29.8,278.3 23.7,278.3 	"/>
</g>
<g opacity="0.4">
	<path fill="#222426" d="M34.5,90.2L77,120.7L54.5,236.5L12,206L34.5,90.2 M29.7,78.1L4.3,209l55,39.5l25.4-130.8L29.7,78.1
		L29.7,78.1z"/>
</g>
<g>
	<polygon fill="#3A3B3B" points="265.2,4.6 261.8,4.6 282,20 285.5,20 	"/>
	<polygon fill="#3A3B3B" points="271.3,4.6 267.9,4.6 288.2,20 291.6,20 	"/>
	<polygon fill="#3A3B3B" points="277.4,4.6 274,4.6 294.3,20 297.7,20 	"/>
	<polygon fill="#3A3B3B" points="283.5,4.6 280.1,4.6 300.4,20 303.8,20 	"/>
	<polygon fill="#3A3B3B" points="290,4.6 286.5,4.6 306.8,20 310.3,20 	"/>
	<polygon fill="#3A3B3B" points="296.1,4.6 292.6,4.6 312.9,20 316.4,20 	"/>
	<polygon fill="#3A3B3B" points="302.7,4.6 299.2,4.6 319.5,20 323,20 	"/>
	<polygon fill="#3A3B3B" points="308.8,4.6 305.3,4.6 325.6,20 329.1,20 	"/>
</g>
<g>
	<polygon fill="#3A3B3B" points="639.5,4.6 636.1,4.6 658.3,20 661.8,20 	"/>
	<polygon fill="#3A3B3B" points="645.7,4.6 642.2,4.6 664.4,20 667.9,20 	"/>
	<polygon fill="#3A3B3B" points="651.7,4.6 648.3,4.6 670.5,20 674,20 	"/>
	<polygon fill="#3A3B3B" points="657.9,4.6 654.4,4.6 676.6,20 680.1,20 	"/>
	<polygon fill="#3A3B3B" points="664.3,4.6 660.8,4.6 683.1,20 686.5,20 	"/>
	<polygon fill="#3A3B3B" points="670.4,4.6 667,4.6 689.2,20 692.7,20 	"/>
	<polygon fill="#3A3B3B" points="677,4.6 673.5,4.6 695.8,20 699.2,20 	"/>
	<polygon fill="#3A3B3B" points="683.1,4.6 679.6,4.6 701.9,20 705.4,20 	"/>
</g>
</svg>
